<?xml version="1.0" encoding="utf-8"?>
<!-- Generator: Adobe Illustrator 21.0.2, SVG Export Plug-In . SVG Version: 6.00 Build 0)  -->
<svg version="1.1" id="Layer_1" xmlns="http://www.w3.org/2000/svg" xmlns:xlink="http://www.w3.org/1999/xlink" x="0px" y="0px"
	 viewBox="0 0 100 100" style="enable-background:new 0 0 100 100;" xml:space="preserve">
<style type="text/css">
	.st0{fill:url(#SVGID_1_);}
</style>
<g id="_x32_26._iPad">
	<g>
		<linearGradient id="SVGID_1_" gradientUnits="userSpaceOnUse" x1="68.4707" y1="-5.8026" x2="32.518" y2="105.8403">
			<stop  offset="0.2507" style="stop-color:#676767"/>
			<stop  offset="0.3365" style="stop-color:#5B5B5B"/>
			<stop  offset="0.4913" style="stop-color:#3C3C3C"/>
			<stop  offset="0.6963" style="stop-color:#090909"/>
			<stop  offset="0.7192" style="stop-color:#030303"/>
			<stop  offset="0.9894" style="stop-color:#000000"/>
		</linearGradient>
		<path class="st0" d="M76.6,9.8H24.4c-4.4,0-8,3.6-8,8v64.3c0,4.4,3.6,8,8,8h52.3c4.4,0,8-3.6,8-8V17.8
			C84.7,13.4,81.1,9.8,76.6,9.8z M50.5,86.2c-2.2,0-4-1.8-4-4c0-2.2,1.8-4,4-4c2.2,0,4,1.8,4,4C54.5,84.4,52.7,86.2,50.5,86.2z
			 M76.6,74.1H24.4V17.8h52.3V74.1z"/>
	</g>
</g>
</svg>
