<?xml version="1.0" encoding="utf-8"?>
<!-- Generator: Adobe Illustrator 21.0.2, SVG Export Plug-In . SVG Version: 6.00 Build 0)  -->
<svg version="1.1" id="Layer_1" xmlns="http://www.w3.org/2000/svg" xmlns:xlink="http://www.w3.org/1999/xlink" x="0px" y="0px"
	 viewBox="0 0 100 100" style="enable-background:new 0 0 100 100;" xml:space="preserve">
<style type="text/css">
	.st0{fill:url(#SVGID_1_);}
</style>
<g id="Layer_8">
	<linearGradient id="SVGID_1_" gradientUnits="userSpaceOnUse" x1="82.7553" y1="-7.9508" x2="21.258" y2="93.2832">
		<stop  offset="0.1161" style="stop-color:#676767"/>
		<stop  offset="0.2328" style="stop-color:#5B5B5B"/>
		<stop  offset="0.4435" style="stop-color:#3C3C3C"/>
		<stop  offset="0.7223" style="stop-color:#090909"/>
		<stop  offset="0.7535" style="stop-color:#030303"/>
		<stop  offset="0.9894" style="stop-color:#000000"/>
	</linearGradient>
	<path class="st0" d="M98.2,9.6H3.3C2,9.6,0.9,10.7,0.9,12v65.5c0,1.3,1.1,2.4,2.4,2.4H39v5.6c0,0.1,0,0.2,0,0.2h-5.1
		c-1.2,0-2.2,1-2.2,2.2c0,1.2,1,2.2,2.2,2.2h34.9c1.2,0,2.2-1,2.2-2.2c0-1.2-1-2.2-2.2-2.2h-5.1c0-0.1,0-0.2,0-0.2v-5.6h34.5
		c1.3,0,2.4-1.1,2.4-2.4V12C100.6,10.7,99.5,9.6,98.2,9.6z M93.9,67.2c0,1.3-1.1,2.4-2.4,2.4H10c-1.3,0-2.4-1.1-2.4-2.4V17.5
		c0-1.3,1.1-2.4,2.4-2.4h81.6c1.3,0,2.4,1.1,2.4,2.4V67.2z"/>
</g>
</svg>
