<?xml version="1.0" encoding="utf-8"?>
<!-- Generator: Adobe Illustrator 21.0.2, SVG Export Plug-In . SVG Version: 6.00 Build 0)  -->
<svg version="1.1" id="Layer_1" xmlns="http://www.w3.org/2000/svg" xmlns:xlink="http://www.w3.org/1999/xlink" x="0px" y="0px"
	 viewBox="0 0 100 100" style="enable-background:new 0 0 100 100;" xml:space="preserve">
<style type="text/css">
	.st0{fill:url(#SVGID_1_);}
</style>
<g>
	<linearGradient id="SVGID_1_" gradientUnits="userSpaceOnUse" x1="62.0285" y1="0.1032" x2="41.4022" y2="97.4589">
		<stop  offset="0.2507" style="stop-color:#676767"/>
		<stop  offset="0.3365" style="stop-color:#5B5B5B"/>
		<stop  offset="0.4913" style="stop-color:#3C3C3C"/>
		<stop  offset="0.6963" style="stop-color:#090909"/>
		<stop  offset="0.7192" style="stop-color:#030303"/>
		<stop  offset="0.9894" style="stop-color:#000000"/>
	</linearGradient>
	<path class="st0" d="M69.4,9.2H33.5c-2.4,0-4.3,1.8-4.3,4.1v73.3c0,2.3,1.9,4.1,4.3,4.1h35.9c2.4,0,4.3-1.8,4.3-4.1V13.3
		C73.7,11,71.8,9.2,69.4,9.2z M45.2,15.5h12.5v0.9H45.2V15.5z M51.5,86.4c-1.3,0-2.4-1.1-2.4-2.4c0-1.3,1.1-2.4,2.4-2.4
		c1.3,0,2.4,1.1,2.4,2.4C53.9,85.3,52.8,86.4,51.5,86.4z M70.8,77.5H32.2V21.3h38.6V77.5z"/>
</g>
</svg>
