<svg xmlns="http://www.w3.org/2000/svg" viewBox="0 0 1919.1 921.22"><defs><style>.cls-1{isolation:isolate;}.cls-2{opacity:0.4;}.cls-3{mix-blend-mode:overlay;}.cls-4{fill:#fff;}.cls-5{opacity:0.2;}</style></defs><title>1st page lines</title><g class="cls-1"><g id="lines"><g class="cls-2"><g class="cls-3"><polygon class="cls-4" points="1919.11 231.17 1583.25 284.4 1583.53 285.72 1919.11 232.53 1919.11 231.17"/><polygon class="cls-4" points="1919.11 231.17 1583.25 284.4 1583.53 285.72 1919.11 232.53 1919.11 231.17"/><polygon class="cls-4" points="1919.11 114.97 1583 284.49 1583.78 285.64 1919.11 116.51 1919.11 114.97"/><polygon class="cls-4" points="1919.11 114.97 1583 284.49 1583.78 285.64 1919.11 116.51 1919.11 114.97"/><polygon class="cls-4" points="555.7 590.48 182.23 155.9 183.45 155.1 556.94 589.68 555.7 590.48"/><polygon class="cls-4" points="0 205.68 183.07 156.13 182.61 154.86 0 204.28 0 205.68"/><polygon class="cls-4" points="0 233.31 183.18 156.1 182.5 154.9 0 231.82 0 233.31"/><polygon class="cls-4" points="167.64 160.06 167.21 158.78 182.62 154.86 183.06 156.14 167.64 160.06"/><polygon class="cls-4" points="555.71 590.5 166.82 159.83 168.03 159.01 556.93 589.67 555.71 590.5"/><polygon class="cls-4" points="0 205.52 167.65 160.06 167.2 158.78 0 204.13 0 205.52"/><polygon class="cls-4" points="0 231.41 167.76 160.02 167.09 158.82 0 229.93 0 231.41"/><polygon class="cls-4" points="553.79 757.77 166.75 159.75 168.1 159.09 555.12 757.12 553.79 757.77"/><polygon class="cls-4" points="553.78 757.76 182.16 155.81 183.52 155.18 555.14 757.13 553.78 757.76"/><polygon class="cls-4" points="555.23 757.45 553.69 757.44 555.55 590.08 557.09 590.09 555.23 757.45"/><polygon class="cls-4" points="1583.75 285.65 1583.03 284.47 1901.82 138 1902.54 139.18 1583.75 285.65"/><polygon class="cls-4" points="1583.75 285.65 1583.03 284.47 1901.82 138 1902.54 139.18 1583.75 285.65"/><polygon class="cls-4" points="555.23 757.49 553.69 757.4 596.03 166.16 597.57 166.24 555.23 757.49"/><polygon class="cls-4" points="596.79 166.86 167.41 160.09 167.44 158.75 596.81 165.53 596.79 166.86"/><polygon class="cls-4" points="596.78 166.86 182.81 156.16 182.86 154.83 596.83 165.53 596.78 166.86"/><polygon class="cls-4" points="557.08 590.14 555.56 590.03 596.03 166.14 597.57 166.25 557.08 590.14"/><polygon class="cls-4" points="1072.12 705.72 596.19 166.6 597.41 165.79 1073.33 704.9 1072.12 705.72"/><polygon class="cls-4" points="554.55 758.11 554.37 756.78 1072.64 704.65 1072.82 705.97 554.55 758.11"/><polygon class="cls-4" points="1072.53 705.96 556.13 590.73 556.51 589.44 1072.92 704.66 1072.53 705.96"/><polygon class="cls-4" points="1073.26 705.79 1072.2 704.83 1582.86 284.58 1583.92 285.55 1073.26 705.79"/><polygon class="cls-4" points="1073.26 705.79 1072.2 704.83 1582.86 284.58 1583.92 285.55 1073.26 705.79"/><polygon class="cls-4" points="1073.48 705.43 1071.97 705.19 1167.32 245.57 1168.83 245.81 1073.48 705.43"/><polygon class="cls-4" points="1167.96 246.35 596.68 166.85 596.92 165.54 1168.2 245.03 1167.96 246.35"/><polygon class="cls-4" points="1168.21 246.34 1167.95 245.03 1902.05 137.94 1902.31 139.25 1168.21 246.34"/><polygon class="cls-4" points="556.73 590.64 555.9 589.52 1167.66 245.13 1168.5 246.25 556.73 590.64"/><polygon class="cls-4" points="1583.31 285.72 1167.99 246.35 1168.16 245.03 1583.47 284.4 1583.31 285.72"/><polygon class="cls-4" points="1583.31 285.72 1167.99 246.35 1168.16 245.03 1583.47 284.4 1583.31 285.72"/><polygon class="cls-4" points="1919.11 230.65 1902.94 138.49 1901.42 138.69 1919.11 239.51 1919.11 230.65"/><polygon class="cls-4" points="1919.11 618.68 1583.97 284.62 1582.81 285.5 1919.11 620.71 1919.11 618.68"/><polygon class="cls-4" points="1919.11 618.68 1583.97 284.62 1582.81 285.5 1919.11 620.71 1919.11 618.68"/><polygon class="cls-4" points="388.26 909.29 387.76 908.03 1072.48 704.68 1072.97 705.94 388.26 909.29"/><polygon class="cls-4" points="388.56 909.12 387.45 908.2 553.9 756.98 555.02 757.9 388.56 909.12"/><polygon class="cls-4" points="388.71 908.93 387.31 908.38 555.62 589.8 557.02 590.36 388.71 908.93"/><polygon class="cls-4" points="0 921.22 388.04 909.32 387.98 907.99 0 919.89 0 921.22"/><polygon class="cls-4" points="0 624.55 0 626.29 387.51 909.17 388.5 908.15 0 624.55"/><polygon class="cls-4" points="0 564.42 0 565.86 554.17 758.06 554.74 756.83 0 564.42"/><polygon class="cls-4" points="0 341.52 168.03 159.84 166.82 159 0 339.39 0 341.52"/><polygon class="cls-4" points="0 347.39 183.43 155.93 182.25 155.07 0 345.31 0 347.39"/><polygon class="cls-4" points="0 527.43 0 528.77 556.22 590.74 556.42 589.42 0 527.43"/><polygon class="cls-4" points="1919.11 716.7 1616.17 776.68 1616.52 777.98 1919.11 718.07 1919.11 716.7"/><polygon class="cls-4" points="1615.72 777.72 1167.46 246.08 1168.7 245.3 1616.96 776.93 1615.72 777.72"/><polygon class="cls-4" points="1616.23 777.99 1072.61 705.97 1072.84 704.65 1616.46 776.67 1616.23 777.99"/><polygon class="cls-4" points="1617.06 777.57 1615.63 777.09 1901.46 138.35 1902.9 138.84 1617.06 777.57"/><polygon class="cls-4" points="1919.11 369.52 1615.7 776.97 1616.99 777.69 1919.11 371.98 1919.11 369.52"/><polygon class="cls-4" points="1615.57 777.37 1582.62 285.1 1584.16 285.02 1617.11 777.29 1615.57 777.37"/><polygon class="cls-4" points="1615.57 777.37 1582.62 285.1 1584.16 285.02 1617.11 777.29 1615.57 777.37"/><path class="cls-4" d="M1585.66,450.52c-4.26,1.09-8.72-1-10-4.72s1.2-7.55,5.45-8.63,8.72,1,10,4.71S1589.91,449.44,1585.66,450.52Z" transform="translate(0 -158.78)"/><path class="cls-4" d="M1585.66,450.52c-4.26,1.09-8.72-1-10-4.72s1.2-7.55,5.45-8.63,8.72,1,10,4.71S1589.91,449.44,1585.66,450.52Z" transform="translate(0 -158.78)"/><path class="cls-4" d="M1585.66,450.52c-4.26,1.09-8.72-1-10-4.72s1.2-7.55,5.45-8.63,8.72,1,10,4.71S1589.91,449.44,1585.66,450.52Z" transform="translate(0 -158.78)"/><path class="cls-4" d="M1585.66,450.52c-4.26,1.09-8.72-1-10-4.72s1.2-7.55,5.45-8.63,8.72,1,10,4.71S1589.91,449.44,1585.66,450.52Z" transform="translate(0 -158.78)"/><path class="cls-4" d="M558.58,755.55c-4.25,1.08-8.72-1-10-4.72s1.19-7.56,5.44-8.64,8.73,1,10,4.72S562.85,754.47,558.58,755.55Z" transform="translate(0 -158.78)"/><path class="cls-4" d="M185.1,321c-4.25,1.08-8.72-1-10-4.72s1.2-7.56,5.44-8.65,8.73,1,10,4.72S189.36,319.87,185.1,321Z" transform="translate(0 -158.78)"/><path class="cls-4" d="M185.1,321c-4.25,1.08-8.72-1-10-4.72s1.2-7.56,5.44-8.65,8.73,1,10,4.72S189.36,319.87,185.1,321Z" transform="translate(0 -158.78)"/><path class="cls-4" d="M185.1,321c-4.25,1.08-8.72-1-10-4.72s1.2-7.56,5.44-8.65,8.73,1,10,4.72S189.36,319.87,185.1,321Z" transform="translate(0 -158.78)"/><path class="cls-4" d="M185.1,321c-4.25,1.08-8.72-1-10-4.72s1.2-7.56,5.44-8.65,8.73,1,10,4.72S189.36,319.87,185.1,321Z" transform="translate(0 -158.78)"/><path class="cls-4" d="M169.68,324.89c-4.25,1.08-8.72-1-10-4.72s1.19-7.56,5.45-8.64,8.72,1,10,4.72S173.95,323.8,169.68,324.89Z" transform="translate(0 -158.78)"/><path class="cls-4" d="M558.58,755.55c-4.25,1.08-8.72-1-10-4.72s1.19-7.56,5.44-8.64,8.73,1,10,4.72S562.85,754.47,558.58,755.55Z" transform="translate(0 -158.78)"/><path class="cls-4" d="M169.68,324.89c-4.25,1.08-8.72-1-10-4.72s1.19-7.56,5.45-8.64,8.72,1,10,4.72S173.95,323.8,169.68,324.89Z" transform="translate(0 -158.78)"/><path class="cls-4" d="M169.68,324.89c-4.25,1.08-8.72-1-10-4.72s1.19-7.56,5.45-8.64,8.72,1,10,4.72S173.95,323.8,169.68,324.89Z" transform="translate(0 -158.78)"/><path class="cls-4" d="M169.68,324.89c-4.25,1.08-8.72-1-10-4.72s1.19-7.56,5.45-8.64,8.72,1,10,4.72S173.95,323.8,169.68,324.89Z" transform="translate(0 -158.78)"/><path class="cls-4" d="M169.68,324.89c-4.25,1.08-8.72-1-10-4.72s1.19-7.56,5.45-8.64,8.72,1,10,4.72S173.95,323.8,169.68,324.89Z" transform="translate(0 -158.78)"/><path class="cls-4" d="M556.73,922.9c-4.27,1.09-8.73-1-10-4.72s1.19-7.56,5.44-8.64,8.72,1,10,4.72S561,921.82,556.73,922.9Z" transform="translate(0 -158.78)"/><path class="cls-4" d="M185.1,321c-4.25,1.08-8.72-1-10-4.72s1.2-7.56,5.44-8.65,8.73,1,10,4.72S189.36,319.87,185.1,321Z" transform="translate(0 -158.78)"/><path class="cls-4" d="M556.73,922.9c-4.27,1.09-8.73-1-10-4.72s1.19-7.56,5.44-8.64,8.72,1,10,4.72S561,921.82,556.73,922.9Z" transform="translate(0 -158.78)"/><path class="cls-4" d="M558.58,755.55c-4.25,1.08-8.72-1-10-4.72s1.19-7.56,5.44-8.64,8.73,1,10,4.72S562.85,754.47,558.58,755.55Z" transform="translate(0 -158.78)"/><path class="cls-4" d="M556.73,922.9c-4.27,1.09-8.73-1-10-4.72s1.19-7.56,5.44-8.64,8.72,1,10,4.72S561,921.82,556.73,922.9Z" transform="translate(0 -158.78)"/><path class="cls-4" d="M1904.45,304.05c-4.25,1.08-8.73-1-10-4.72s1.18-7.56,5.45-8.64,8.71,1,10,4.72S1908.71,303,1904.45,304.05Z" transform="translate(0 -158.78)"/><path class="cls-4" d="M1904.45,304.05c-4.25,1.08-8.73-1-10-4.72s1.18-7.56,5.45-8.64,8.71,1,10,4.72S1908.71,303,1904.45,304.05Z" transform="translate(0 -158.78)"/><path class="cls-4" d="M1585.66,450.52c-4.26,1.09-8.72-1-10-4.72s1.2-7.55,5.45-8.63,8.72,1,10,4.71S1589.91,449.44,1585.66,450.52Z" transform="translate(0 -158.78)"/><path class="cls-4" d="M1904.45,304.05c-4.25,1.08-8.73-1-10-4.72s1.18-7.56,5.45-8.64,8.71,1,10,4.72S1908.71,303,1904.45,304.05Z" transform="translate(0 -158.78)"/><path class="cls-4" d="M1585.66,450.52c-4.26,1.09-8.72-1-10-4.72s1.2-7.55,5.45-8.63,8.72,1,10,4.71S1589.91,449.44,1585.66,450.52Z" transform="translate(0 -158.78)"/><path class="cls-4" d="M1904.45,304.05c-4.25,1.08-8.73-1-10-4.72s1.18-7.56,5.45-8.64,8.71,1,10,4.72S1908.71,303,1904.45,304.05Z" transform="translate(0 -158.78)"/><path class="cls-4" d="M556.73,922.9c-4.27,1.09-8.73-1-10-4.72s1.19-7.56,5.44-8.64,8.72,1,10,4.72S561,921.82,556.73,922.9Z" transform="translate(0 -158.78)"/><path class="cls-4" d="M599.07,331.66c-4.26,1.09-8.72-1-10-4.71s1.18-7.56,5.45-8.65,8.72,1,10,4.72S603.32,330.57,599.07,331.66Z" transform="translate(0 -158.78)"/><path class="cls-4" d="M169.68,324.89c-4.25,1.08-8.72-1-10-4.72s1.19-7.56,5.45-8.64,8.72,1,10,4.72S173.95,323.8,169.68,324.89Z" transform="translate(0 -158.78)"/><path class="cls-4" d="M599.07,331.66c-4.26,1.09-8.72-1-10-4.71s1.18-7.56,5.45-8.65,8.72,1,10,4.72S603.32,330.57,599.07,331.66Z" transform="translate(0 -158.78)"/><path class="cls-4" d="M185.1,321c-4.25,1.08-8.72-1-10-4.72s1.2-7.56,5.44-8.65,8.73,1,10,4.72S189.36,319.87,185.1,321Z" transform="translate(0 -158.78)"/><path class="cls-4" d="M599.07,331.66c-4.26,1.09-8.72-1-10-4.71s1.18-7.56,5.45-8.65,8.72,1,10,4.72S603.32,330.57,599.07,331.66Z" transform="translate(0 -158.78)"/><path class="cls-4" d="M558.58,755.55c-4.25,1.08-8.72-1-10-4.72s1.19-7.56,5.44-8.64,8.73,1,10,4.72S562.85,754.47,558.58,755.55Z" transform="translate(0 -158.78)"/><path class="cls-4" d="M599.07,331.66c-4.26,1.09-8.72-1-10-4.71s1.18-7.56,5.45-8.65,8.72,1,10,4.72S603.32,330.57,599.07,331.66Z" transform="translate(0 -158.78)"/><path class="cls-4" d="M599.07,331.66c-4.26,1.09-8.72-1-10-4.71s1.18-7.56,5.45-8.65,8.72,1,10,4.72S603.32,330.57,599.07,331.66Z" transform="translate(0 -158.78)"/><path class="cls-4" d="M1075,870.77c-4.26,1.08-8.73-1-10-4.72s1.18-7.56,5.44-8.64,8.72,1,10,4.71S1079.24,869.69,1075,870.77Z" transform="translate(0 -158.78)"/><path class="cls-4" d="M556.73,922.9c-4.27,1.09-8.73-1-10-4.72s1.19-7.56,5.44-8.64,8.72,1,10,4.72S561,921.82,556.73,922.9Z" transform="translate(0 -158.78)"/><path class="cls-4" d="M1075,870.77c-4.26,1.08-8.73-1-10-4.72s1.18-7.56,5.44-8.64,8.72,1,10,4.71S1079.24,869.69,1075,870.77Z" transform="translate(0 -158.78)"/><path class="cls-4" d="M558.58,755.55c-4.25,1.08-8.72-1-10-4.72s1.19-7.56,5.44-8.64,8.73,1,10,4.72S562.85,754.47,558.58,755.55Z" transform="translate(0 -158.78)"/><path class="cls-4" d="M1075,870.77c-4.26,1.08-8.73-1-10-4.72s1.18-7.56,5.44-8.64,8.72,1,10,4.71S1079.24,869.69,1075,870.77Z" transform="translate(0 -158.78)"/><path class="cls-4" d="M1585.66,450.52c-4.26,1.09-8.72-1-10-4.72s1.2-7.55,5.45-8.63,8.72,1,10,4.71S1589.91,449.44,1585.66,450.52Z" transform="translate(0 -158.78)"/><path class="cls-4" d="M1075,870.77c-4.26,1.08-8.73-1-10-4.72s1.18-7.56,5.44-8.64,8.72,1,10,4.71S1079.24,869.69,1075,870.77Z" transform="translate(0 -158.78)"/><path class="cls-4" d="M1585.66,450.52c-4.26,1.09-8.72-1-10-4.72s1.2-7.55,5.45-8.63,8.72,1,10,4.71S1589.91,449.44,1585.66,450.52Z" transform="translate(0 -158.78)"/><path class="cls-4" d="M1075,870.77c-4.26,1.08-8.73-1-10-4.72s1.18-7.56,5.44-8.64,8.72,1,10,4.71S1079.24,869.69,1075,870.77Z" transform="translate(0 -158.78)"/><path class="cls-4" d="M1075,870.77c-4.26,1.08-8.73-1-10-4.72s1.18-7.56,5.44-8.64,8.72,1,10,4.71S1079.24,869.69,1075,870.77Z" transform="translate(0 -158.78)"/><path class="cls-4" d="M1170.34,411.14c-4.26,1.09-8.72-1-10-4.72s1.19-7.55,5.45-8.65,8.73,1,10,4.72S1174.6,410.06,1170.34,411.14Z" transform="translate(0 -158.78)"/><path class="cls-4" d="M599.07,331.66c-4.26,1.09-8.72-1-10-4.71s1.18-7.56,5.45-8.65,8.72,1,10,4.72S603.32,330.57,599.07,331.66Z" transform="translate(0 -158.78)"/><path class="cls-4" d="M1170.34,411.14c-4.26,1.09-8.72-1-10-4.72s1.19-7.55,5.45-8.65,8.73,1,10,4.72S1174.6,410.06,1170.34,411.14Z" transform="translate(0 -158.78)"/><path class="cls-4" d="M1904.45,304.05c-4.25,1.08-8.73-1-10-4.72s1.18-7.56,5.45-8.64,8.71,1,10,4.72S1908.71,303,1904.45,304.05Z" transform="translate(0 -158.78)"/><path class="cls-4" d="M1170.34,411.14c-4.26,1.09-8.72-1-10-4.72s1.19-7.55,5.45-8.65,8.73,1,10,4.72S1174.6,410.06,1170.34,411.14Z" transform="translate(0 -158.78)"/><path class="cls-4" d="M558.58,755.55c-4.25,1.08-8.72-1-10-4.72s1.19-7.56,5.44-8.64,8.73,1,10,4.72S562.85,754.47,558.58,755.55Z" transform="translate(0 -158.78)"/><path class="cls-4" d="M1170.34,411.14c-4.26,1.09-8.72-1-10-4.72s1.19-7.55,5.45-8.65,8.73,1,10,4.72S1174.6,410.06,1170.34,411.14Z" transform="translate(0 -158.78)"/><path class="cls-4" d="M1585.66,450.52c-4.26,1.09-8.72-1-10-4.72s1.2-7.55,5.45-8.63,8.72,1,10,4.71S1589.91,449.44,1585.66,450.52Z" transform="translate(0 -158.78)"/><path class="cls-4" d="M1170.34,411.14c-4.26,1.09-8.72-1-10-4.72s1.19-7.55,5.45-8.65,8.73,1,10,4.72S1174.6,410.06,1170.34,411.14Z" transform="translate(0 -158.78)"/><path class="cls-4" d="M1585.66,450.52c-4.26,1.09-8.72-1-10-4.72s1.2-7.55,5.45-8.63,8.72,1,10,4.71S1589.91,449.44,1585.66,450.52Z" transform="translate(0 -158.78)"/><path class="cls-4" d="M1170.34,411.14c-4.26,1.09-8.72-1-10-4.72s1.19-7.55,5.45-8.65,8.73,1,10,4.72S1174.6,410.06,1170.34,411.14Z" transform="translate(0 -158.78)"/><path class="cls-4" d="M1904.45,304.05c-4.25,1.08-8.73-1-10-4.72s1.18-7.56,5.45-8.64,8.71,1,10,4.72S1908.71,303,1904.45,304.05Z" transform="translate(0 -158.78)"/><path class="cls-4" d="M1585.66,450.52c-4.26,1.09-8.72-1-10-4.72s1.2-7.55,5.45-8.63,8.72,1,10,4.71S1589.91,449.44,1585.66,450.52Z" transform="translate(0 -158.78)"/><path class="cls-4" d="M1585.66,450.52c-4.26,1.09-8.72-1-10-4.72s1.2-7.55,5.45-8.63,8.72,1,10,4.71S1589.91,449.44,1585.66,450.52Z" transform="translate(0 -158.78)"/><path class="cls-4" d="M1075,870.77c-4.26,1.08-8.73-1-10-4.72s1.18-7.56,5.44-8.64,8.72,1,10,4.71S1079.24,869.69,1075,870.77Z" transform="translate(0 -158.78)"/><path class="cls-4" d="M390.28,1074.12c-4.26,1.08-8.72-1-10-4.72s1.18-7.56,5.44-8.64,8.72,1,10,4.72S394.53,1073,390.28,1074.12Z" transform="translate(0 -158.78)"/><path class="cls-4" d="M556.73,922.9c-4.27,1.09-8.73-1-10-4.72s1.19-7.56,5.44-8.64,8.72,1,10,4.72S561,921.82,556.73,922.9Z" transform="translate(0 -158.78)"/><path class="cls-4" d="M390.28,1074.12c-4.26,1.08-8.72-1-10-4.72s1.18-7.56,5.44-8.64,8.72,1,10,4.72S394.53,1073,390.28,1074.12Z" transform="translate(0 -158.78)"/><path class="cls-4" d="M558.58,755.55c-4.25,1.08-8.72-1-10-4.72s1.19-7.56,5.44-8.64,8.73,1,10,4.72S562.85,754.47,558.58,755.55Z" transform="translate(0 -158.78)"/><path class="cls-4" d="M390.28,1074.12c-4.26,1.08-8.72-1-10-4.72s1.18-7.56,5.44-8.64,8.72,1,10,4.72S394.53,1073,390.28,1074.12Z" transform="translate(0 -158.78)"/><path class="cls-4" d="M390.28,1074.12c-4.26,1.08-8.72-1-10-4.72s1.18-7.56,5.44-8.64,8.72,1,10,4.72S394.53,1073,390.28,1074.12Z" transform="translate(0 -158.78)"/><path class="cls-4" d="M390.28,1074.12c-4.26,1.08-8.72-1-10-4.72s1.18-7.56,5.44-8.64,8.72,1,10,4.72S394.53,1073,390.28,1074.12Z" transform="translate(0 -158.78)"/><path class="cls-4" d="M556.73,922.9c-4.27,1.09-8.73-1-10-4.72s1.19-7.56,5.44-8.64,8.72,1,10,4.72S561,921.82,556.73,922.9Z" transform="translate(0 -158.78)"/><path class="cls-4" d="M169.68,324.89c-4.25,1.08-8.72-1-10-4.72s1.19-7.56,5.45-8.64,8.72,1,10,4.72S173.95,323.8,169.68,324.89Z" transform="translate(0 -158.78)"/><path class="cls-4" d="M185.1,321c-4.25,1.08-8.72-1-10-4.72s1.2-7.56,5.44-8.65,8.73,1,10,4.72S189.36,319.87,185.1,321Z" transform="translate(0 -158.78)"/><path class="cls-4" d="M558.58,755.55c-4.25,1.08-8.72-1-10-4.72s1.19-7.56,5.44-8.64,8.73,1,10,4.72S562.85,754.47,558.58,755.55Z" transform="translate(0 -158.78)"/><path class="cls-4" d="M1618.61,942.79c-4.26,1.08-8.72-1-10-4.71s1.18-7.56,5.44-8.64,8.72,1,10,4.72S1622.87,941.7,1618.61,942.79Z" transform="translate(0 -158.78)"/><path class="cls-4" d="M1170.34,411.14c-4.26,1.09-8.72-1-10-4.72s1.19-7.55,5.45-8.65,8.73,1,10,4.72S1174.6,410.06,1170.34,411.14Z" transform="translate(0 -158.78)"/><path class="cls-4" d="M1618.61,942.79c-4.26,1.08-8.72-1-10-4.71s1.18-7.56,5.44-8.64,8.72,1,10,4.72S1622.87,941.7,1618.61,942.79Z" transform="translate(0 -158.78)"/><path class="cls-4" d="M1075,870.77c-4.26,1.08-8.73-1-10-4.72s1.18-7.56,5.44-8.64,8.72,1,10,4.71S1079.24,869.69,1075,870.77Z" transform="translate(0 -158.78)"/><path class="cls-4" d="M1618.61,942.79c-4.26,1.08-8.72-1-10-4.71s1.18-7.56,5.44-8.64,8.72,1,10,4.72S1622.87,941.7,1618.61,942.79Z" transform="translate(0 -158.78)"/><path class="cls-4" d="M1904.45,304.05c-4.25,1.08-8.73-1-10-4.72s1.18-7.56,5.45-8.64,8.71,1,10,4.72S1908.71,303,1904.45,304.05Z" transform="translate(0 -158.78)"/><path class="cls-4" d="M1618.61,942.79c-4.26,1.08-8.72-1-10-4.71s1.18-7.56,5.44-8.64,8.72,1,10,4.72S1622.87,941.7,1618.61,942.79Z" transform="translate(0 -158.78)"/><path class="cls-4" d="M1618.61,942.79c-4.26,1.08-8.72-1-10-4.71s1.18-7.56,5.44-8.64,8.72,1,10,4.72S1622.87,941.7,1618.61,942.79Z" transform="translate(0 -158.78)"/><path class="cls-4" d="M1585.66,450.52c-4.26,1.09-8.72-1-10-4.72s1.2-7.55,5.45-8.63,8.72,1,10,4.71S1589.91,449.44,1585.66,450.52Z" transform="translate(0 -158.78)"/><path class="cls-4" d="M1618.61,942.79c-4.26,1.08-8.72-1-10-4.71s1.18-7.56,5.44-8.64,8.72,1,10,4.72S1622.87,941.7,1618.61,942.79Z" transform="translate(0 -158.78)"/><path class="cls-4" d="M1585.66,450.52c-4.26,1.09-8.72-1-10-4.72s1.2-7.55,5.45-8.63,8.72,1,10,4.71S1589.91,449.44,1585.66,450.52Z" transform="translate(0 -158.78)"/><path class="cls-4" d="M1618.61,942.79c-4.26,1.08-8.72-1-10-4.71s1.18-7.56,5.44-8.64,8.72,1,10,4.72S1622.87,941.7,1618.61,942.79Z" transform="translate(0 -158.78)"/><path class="cls-4" d="M1904.45,304.05c-4.25,1.08-8.73-1-10-4.72s1.18-7.56,5.45-8.64,8.71,1,10,4.72S1908.71,303,1904.45,304.05Z" transform="translate(0 -158.78)"/><path class="cls-4" d="M1904.45,304.05c-4.25,1.08-8.73-1-10-4.72s1.18-7.56,5.45-8.64,8.71,1,10,4.72S1908.71,303,1904.45,304.05Z" transform="translate(0 -158.78)"/></g><g class="cls-3"><polygon class="cls-4" points="1919.11 231.17 1583.25 284.4 1583.53 285.72 1919.11 232.53 1919.11 231.17"/><polygon class="cls-4" points="1919.11 231.17 1583.25 284.4 1583.53 285.72 1919.11 232.53 1919.11 231.17"/><polygon class="cls-4" points="1919.11 114.97 1583 284.49 1583.78 285.64 1919.11 116.51 1919.11 114.97"/><polygon class="cls-4" points="1919.11 114.97 1583 284.49 1583.78 285.64 1919.11 116.51 1919.11 114.97"/><polygon class="cls-4" points="555.7 590.48 182.23 155.9 183.45 155.1 556.94 589.68 555.7 590.48"/><polygon class="cls-4" points="0 205.68 183.07 156.13 182.61 154.86 0 204.28 0 205.68"/><polygon class="cls-4" points="0 233.31 183.18 156.1 182.5 154.9 0 231.82 0 233.31"/><polygon class="cls-4" points="167.64 160.06 167.21 158.78 182.62 154.86 183.06 156.14 167.64 160.06"/><polygon class="cls-4" points="555.71 590.5 166.82 159.83 168.03 159.01 556.93 589.67 555.71 590.5"/><polygon class="cls-4" points="0 205.52 167.65 160.06 167.2 158.78 0 204.13 0 205.52"/><polygon class="cls-4" points="0 231.41 167.76 160.02 167.09 158.82 0 229.93 0 231.41"/><polygon class="cls-4" points="553.79 757.77 166.75 159.75 168.1 159.09 555.12 757.12 553.79 757.77"/><polygon class="cls-4" points="553.78 757.76 182.16 155.81 183.52 155.18 555.14 757.13 553.78 757.76"/><polygon class="cls-4" points="555.23 757.45 553.69 757.44 555.55 590.08 557.09 590.09 555.23 757.45"/><polygon class="cls-4" points="1583.75 285.65 1583.03 284.47 1901.82 138 1902.54 139.18 1583.75 285.65"/><polygon class="cls-4" points="1583.75 285.65 1583.03 284.47 1901.82 138 1902.54 139.18 1583.75 285.65"/><polygon class="cls-4" points="555.23 757.49 553.69 757.4 596.03 166.16 597.57 166.24 555.23 757.49"/><polygon class="cls-4" points="596.79 166.86 167.41 160.09 167.44 158.75 596.81 165.53 596.79 166.86"/><polygon class="cls-4" points="596.78 166.86 182.81 156.16 182.86 154.83 596.83 165.53 596.78 166.86"/><polygon class="cls-4" points="557.08 590.14 555.56 590.03 596.03 166.14 597.57 166.25 557.08 590.14"/><polygon class="cls-4" points="1072.12 705.72 596.19 166.6 597.41 165.79 1073.33 704.9 1072.12 705.72"/><polygon class="cls-4" points="554.55 758.11 554.37 756.78 1072.64 704.65 1072.82 705.97 554.55 758.11"/><polygon class="cls-4" points="1072.53 705.96 556.13 590.73 556.51 589.44 1072.92 704.66 1072.53 705.96"/><polygon class="cls-4" points="1073.26 705.79 1072.2 704.83 1582.86 284.58 1583.92 285.55 1073.26 705.79"/><polygon class="cls-4" points="1073.26 705.79 1072.2 704.83 1582.86 284.58 1583.92 285.55 1073.26 705.79"/><polygon class="cls-4" points="1073.48 705.43 1071.97 705.19 1167.32 245.57 1168.83 245.81 1073.48 705.43"/><polygon class="cls-4" points="1167.96 246.35 596.68 166.85 596.92 165.54 1168.2 245.03 1167.96 246.35"/><polygon class="cls-4" points="1168.21 246.34 1167.95 245.03 1902.05 137.94 1902.31 139.25 1168.21 246.34"/><polygon class="cls-4" points="556.73 590.64 555.9 589.52 1167.66 245.13 1168.5 246.25 556.73 590.64"/><polygon class="cls-4" points="1583.31 285.72 1167.99 246.35 1168.16 245.03 1583.47 284.4 1583.31 285.72"/><polygon class="cls-4" points="1583.31 285.72 1167.99 246.35 1168.16 245.03 1583.47 284.4 1583.31 285.72"/><polygon class="cls-4" points="1919.11 230.65 1902.94 138.49 1901.42 138.69 1919.11 239.51 1919.11 230.65"/><polygon class="cls-4" points="1919.11 618.68 1583.97 284.62 1582.81 285.5 1919.11 620.71 1919.11 618.68"/><polygon class="cls-4" points="1919.11 618.68 1583.97 284.62 1582.81 285.5 1919.11 620.71 1919.11 618.68"/><polygon class="cls-4" points="388.26 909.29 387.76 908.03 1072.48 704.68 1072.97 705.94 388.26 909.29"/><polygon class="cls-4" points="388.56 909.12 387.45 908.2 553.9 756.98 555.02 757.9 388.56 909.12"/><polygon class="cls-4" points="388.71 908.93 387.31 908.38 555.62 589.8 557.02 590.36 388.71 908.93"/><polygon class="cls-4" points="0 921.22 388.04 909.32 387.98 907.99 0 919.89 0 921.22"/><polygon class="cls-4" points="0 624.55 0 626.29 387.51 909.17 388.5 908.15 0 624.55"/><polygon class="cls-4" points="0 564.42 0 565.86 554.17 758.06 554.74 756.83 0 564.42"/><polygon class="cls-4" points="0 341.52 168.03 159.84 166.82 159 0 339.39 0 341.52"/><polygon class="cls-4" points="0 347.39 183.43 155.93 182.25 155.07 0 345.31 0 347.39"/><polygon class="cls-4" points="0 527.43 0 528.77 556.22 590.74 556.42 589.42 0 527.43"/><polygon class="cls-4" points="1919.11 716.7 1616.17 776.68 1616.52 777.98 1919.11 718.07 1919.11 716.7"/><polygon class="cls-4" points="1615.72 777.72 1167.46 246.08 1168.7 245.3 1616.96 776.93 1615.72 777.72"/><polygon class="cls-4" points="1616.23 777.99 1072.61 705.97 1072.84 704.65 1616.46 776.67 1616.23 777.99"/><polygon class="cls-4" points="1617.06 777.57 1615.63 777.09 1901.46 138.35 1902.9 138.84 1617.06 777.57"/><polygon class="cls-4" points="1919.11 369.52 1615.7 776.97 1616.99 777.69 1919.11 371.98 1919.11 369.52"/><polygon class="cls-4" points="1615.57 777.37 1582.62 285.1 1584.16 285.02 1617.11 777.29 1615.57 777.37"/><polygon class="cls-4" points="1615.57 777.37 1582.62 285.1 1584.16 285.02 1617.11 777.29 1615.57 777.37"/><path class="cls-4" d="M1585.66,450.52c-4.26,1.09-8.72-1-10-4.72s1.2-7.55,5.45-8.63,8.72,1,10,4.71S1589.91,449.44,1585.66,450.52Z" transform="translate(0 -158.78)"/><path class="cls-4" d="M1585.66,450.52c-4.26,1.09-8.72-1-10-4.72s1.2-7.55,5.45-8.63,8.72,1,10,4.71S1589.91,449.44,1585.66,450.52Z" transform="translate(0 -158.78)"/><path class="cls-4" d="M1585.66,450.52c-4.26,1.09-8.72-1-10-4.72s1.2-7.55,5.45-8.63,8.72,1,10,4.71S1589.91,449.44,1585.66,450.52Z" transform="translate(0 -158.78)"/><path class="cls-4" d="M1585.66,450.52c-4.26,1.09-8.72-1-10-4.72s1.2-7.55,5.45-8.63,8.72,1,10,4.71S1589.91,449.44,1585.66,450.52Z" transform="translate(0 -158.78)"/><path class="cls-4" d="M558.58,755.55c-4.25,1.08-8.72-1-10-4.72s1.19-7.56,5.44-8.64,8.73,1,10,4.72S562.85,754.47,558.58,755.55Z" transform="translate(0 -158.78)"/><path class="cls-4" d="M185.1,321c-4.25,1.08-8.72-1-10-4.72s1.2-7.56,5.44-8.65,8.73,1,10,4.72S189.36,319.87,185.1,321Z" transform="translate(0 -158.78)"/><path class="cls-4" d="M185.1,321c-4.25,1.08-8.72-1-10-4.72s1.2-7.56,5.44-8.65,8.73,1,10,4.72S189.36,319.87,185.1,321Z" transform="translate(0 -158.78)"/><path class="cls-4" d="M185.1,321c-4.25,1.08-8.72-1-10-4.72s1.2-7.56,5.44-8.65,8.73,1,10,4.72S189.36,319.87,185.1,321Z" transform="translate(0 -158.78)"/><path class="cls-4" d="M185.1,321c-4.25,1.08-8.72-1-10-4.72s1.2-7.56,5.44-8.65,8.73,1,10,4.72S189.36,319.87,185.1,321Z" transform="translate(0 -158.78)"/><path class="cls-4" d="M169.68,324.89c-4.25,1.08-8.72-1-10-4.72s1.19-7.56,5.45-8.64,8.72,1,10,4.72S173.95,323.8,169.68,324.89Z" transform="translate(0 -158.78)"/><path class="cls-4" d="M558.58,755.55c-4.25,1.08-8.72-1-10-4.72s1.19-7.56,5.44-8.64,8.73,1,10,4.72S562.85,754.47,558.58,755.55Z" transform="translate(0 -158.78)"/><path class="cls-4" d="M169.68,324.89c-4.25,1.08-8.72-1-10-4.72s1.19-7.56,5.45-8.64,8.72,1,10,4.72S173.95,323.8,169.68,324.89Z" transform="translate(0 -158.78)"/><path class="cls-4" d="M169.68,324.89c-4.25,1.08-8.72-1-10-4.72s1.19-7.56,5.45-8.64,8.72,1,10,4.72S173.95,323.8,169.68,324.89Z" transform="translate(0 -158.78)"/><path class="cls-4" d="M169.68,324.89c-4.25,1.08-8.72-1-10-4.72s1.19-7.56,5.45-8.64,8.72,1,10,4.72S173.95,323.8,169.68,324.89Z" transform="translate(0 -158.78)"/><path class="cls-4" d="M169.68,324.89c-4.25,1.08-8.72-1-10-4.72s1.19-7.56,5.45-8.64,8.72,1,10,4.72S173.95,323.8,169.68,324.89Z" transform="translate(0 -158.78)"/><path class="cls-4" d="M556.73,922.9c-4.27,1.09-8.73-1-10-4.72s1.19-7.56,5.44-8.64,8.72,1,10,4.72S561,921.82,556.73,922.9Z" transform="translate(0 -158.78)"/><path class="cls-4" d="M185.1,321c-4.25,1.08-8.72-1-10-4.72s1.2-7.56,5.44-8.65,8.73,1,10,4.72S189.36,319.87,185.1,321Z" transform="translate(0 -158.78)"/><path class="cls-4" d="M556.73,922.9c-4.27,1.09-8.73-1-10-4.72s1.19-7.56,5.44-8.64,8.72,1,10,4.72S561,921.82,556.73,922.9Z" transform="translate(0 -158.78)"/><path class="cls-4" d="M558.58,755.55c-4.25,1.08-8.72-1-10-4.72s1.19-7.56,5.44-8.64,8.73,1,10,4.72S562.85,754.47,558.58,755.55Z" transform="translate(0 -158.78)"/><path class="cls-4" d="M556.73,922.9c-4.27,1.09-8.73-1-10-4.72s1.19-7.56,5.44-8.64,8.72,1,10,4.72S561,921.82,556.73,922.9Z" transform="translate(0 -158.78)"/><path class="cls-4" d="M1904.45,304.05c-4.25,1.08-8.73-1-10-4.72s1.18-7.56,5.45-8.64,8.71,1,10,4.72S1908.71,303,1904.45,304.05Z" transform="translate(0 -158.78)"/><path class="cls-4" d="M1904.45,304.05c-4.25,1.08-8.73-1-10-4.72s1.18-7.56,5.45-8.64,8.71,1,10,4.72S1908.71,303,1904.45,304.05Z" transform="translate(0 -158.78)"/><path class="cls-4" d="M1585.66,450.52c-4.26,1.09-8.72-1-10-4.72s1.2-7.55,5.45-8.63,8.72,1,10,4.71S1589.91,449.44,1585.66,450.52Z" transform="translate(0 -158.78)"/><path class="cls-4" d="M1904.45,304.05c-4.25,1.08-8.73-1-10-4.72s1.18-7.56,5.45-8.64,8.71,1,10,4.72S1908.71,303,1904.45,304.05Z" transform="translate(0 -158.78)"/><path class="cls-4" d="M1585.66,450.52c-4.26,1.09-8.72-1-10-4.72s1.2-7.55,5.45-8.63,8.72,1,10,4.71S1589.91,449.44,1585.66,450.52Z" transform="translate(0 -158.78)"/><path class="cls-4" d="M1904.45,304.05c-4.25,1.08-8.73-1-10-4.72s1.18-7.56,5.45-8.64,8.71,1,10,4.72S1908.71,303,1904.45,304.05Z" transform="translate(0 -158.78)"/><path class="cls-4" d="M556.73,922.9c-4.27,1.09-8.73-1-10-4.72s1.19-7.56,5.44-8.64,8.72,1,10,4.72S561,921.82,556.73,922.9Z" transform="translate(0 -158.78)"/><path class="cls-4" d="M599.07,331.66c-4.26,1.09-8.72-1-10-4.71s1.18-7.56,5.45-8.65,8.72,1,10,4.72S603.32,330.57,599.07,331.66Z" transform="translate(0 -158.78)"/><path class="cls-4" d="M169.68,324.89c-4.25,1.08-8.72-1-10-4.72s1.19-7.56,5.45-8.64,8.72,1,10,4.72S173.95,323.8,169.68,324.89Z" transform="translate(0 -158.78)"/><path class="cls-4" d="M599.07,331.66c-4.26,1.09-8.72-1-10-4.71s1.18-7.56,5.45-8.65,8.72,1,10,4.72S603.32,330.57,599.07,331.66Z" transform="translate(0 -158.78)"/><path class="cls-4" d="M185.1,321c-4.25,1.08-8.72-1-10-4.72s1.2-7.56,5.44-8.65,8.73,1,10,4.72S189.36,319.87,185.1,321Z" transform="translate(0 -158.78)"/><path class="cls-4" d="M599.07,331.66c-4.26,1.09-8.72-1-10-4.71s1.18-7.56,5.45-8.65,8.72,1,10,4.72S603.32,330.57,599.07,331.66Z" transform="translate(0 -158.78)"/><path class="cls-4" d="M558.58,755.55c-4.25,1.08-8.72-1-10-4.72s1.19-7.56,5.44-8.64,8.73,1,10,4.72S562.85,754.47,558.58,755.55Z" transform="translate(0 -158.78)"/><path class="cls-4" d="M599.07,331.66c-4.26,1.09-8.72-1-10-4.71s1.18-7.56,5.45-8.65,8.72,1,10,4.72S603.32,330.57,599.07,331.66Z" transform="translate(0 -158.78)"/><path class="cls-4" d="M599.07,331.66c-4.26,1.09-8.72-1-10-4.71s1.18-7.56,5.45-8.65,8.72,1,10,4.72S603.32,330.57,599.07,331.66Z" transform="translate(0 -158.78)"/><path class="cls-4" d="M1075,870.77c-4.26,1.08-8.73-1-10-4.72s1.18-7.56,5.44-8.64,8.72,1,10,4.71S1079.24,869.69,1075,870.77Z" transform="translate(0 -158.78)"/><path class="cls-4" d="M556.73,922.9c-4.27,1.09-8.73-1-10-4.72s1.19-7.56,5.44-8.64,8.72,1,10,4.72S561,921.82,556.73,922.9Z" transform="translate(0 -158.78)"/><path class="cls-4" d="M1075,870.77c-4.26,1.08-8.73-1-10-4.72s1.18-7.56,5.44-8.64,8.72,1,10,4.71S1079.24,869.69,1075,870.77Z" transform="translate(0 -158.78)"/><path class="cls-4" d="M558.58,755.55c-4.25,1.08-8.72-1-10-4.72s1.19-7.56,5.44-8.64,8.73,1,10,4.72S562.85,754.47,558.58,755.55Z" transform="translate(0 -158.78)"/><path class="cls-4" d="M1075,870.77c-4.26,1.08-8.73-1-10-4.72s1.18-7.56,5.44-8.64,8.72,1,10,4.71S1079.24,869.69,1075,870.77Z" transform="translate(0 -158.78)"/><path class="cls-4" d="M1585.66,450.52c-4.26,1.09-8.72-1-10-4.72s1.2-7.55,5.45-8.63,8.72,1,10,4.71S1589.91,449.44,1585.66,450.52Z" transform="translate(0 -158.78)"/><path class="cls-4" d="M1075,870.77c-4.26,1.08-8.73-1-10-4.72s1.18-7.56,5.44-8.64,8.72,1,10,4.71S1079.24,869.69,1075,870.77Z" transform="translate(0 -158.78)"/><path class="cls-4" d="M1585.66,450.52c-4.26,1.09-8.72-1-10-4.72s1.2-7.55,5.45-8.63,8.72,1,10,4.71S1589.91,449.44,1585.66,450.52Z" transform="translate(0 -158.78)"/><path class="cls-4" d="M1075,870.77c-4.26,1.08-8.73-1-10-4.72s1.18-7.56,5.44-8.64,8.72,1,10,4.71S1079.24,869.69,1075,870.77Z" transform="translate(0 -158.78)"/><path class="cls-4" d="M1075,870.77c-4.26,1.08-8.73-1-10-4.72s1.18-7.56,5.44-8.64,8.72,1,10,4.71S1079.24,869.69,1075,870.77Z" transform="translate(0 -158.78)"/><path class="cls-4" d="M1170.34,411.14c-4.26,1.09-8.72-1-10-4.72s1.19-7.55,5.45-8.65,8.73,1,10,4.72S1174.6,410.06,1170.34,411.14Z" transform="translate(0 -158.78)"/><path class="cls-4" d="M599.07,331.66c-4.26,1.09-8.72-1-10-4.71s1.18-7.56,5.45-8.65,8.72,1,10,4.72S603.32,330.57,599.07,331.66Z" transform="translate(0 -158.78)"/><path class="cls-4" d="M1170.34,411.14c-4.26,1.09-8.72-1-10-4.72s1.19-7.55,5.45-8.65,8.73,1,10,4.72S1174.6,410.06,1170.34,411.14Z" transform="translate(0 -158.78)"/><path class="cls-4" d="M1904.45,304.05c-4.25,1.08-8.73-1-10-4.72s1.18-7.56,5.45-8.64,8.71,1,10,4.72S1908.71,303,1904.45,304.05Z" transform="translate(0 -158.78)"/><path class="cls-4" d="M1170.34,411.14c-4.26,1.09-8.72-1-10-4.72s1.19-7.55,5.45-8.65,8.73,1,10,4.72S1174.6,410.06,1170.34,411.14Z" transform="translate(0 -158.78)"/><path class="cls-4" d="M558.58,755.55c-4.25,1.08-8.72-1-10-4.72s1.19-7.56,5.44-8.64,8.73,1,10,4.72S562.85,754.47,558.58,755.55Z" transform="translate(0 -158.78)"/><path class="cls-4" d="M1170.34,411.14c-4.26,1.09-8.72-1-10-4.72s1.19-7.55,5.45-8.65,8.73,1,10,4.72S1174.6,410.06,1170.34,411.14Z" transform="translate(0 -158.78)"/><path class="cls-4" d="M1585.66,450.52c-4.26,1.09-8.72-1-10-4.72s1.2-7.55,5.45-8.63,8.72,1,10,4.71S1589.91,449.44,1585.66,450.52Z" transform="translate(0 -158.78)"/><path class="cls-4" d="M1170.34,411.14c-4.26,1.09-8.72-1-10-4.72s1.19-7.55,5.45-8.65,8.73,1,10,4.72S1174.6,410.06,1170.34,411.14Z" transform="translate(0 -158.78)"/><path class="cls-4" d="M1585.66,450.52c-4.26,1.09-8.72-1-10-4.72s1.2-7.55,5.45-8.63,8.72,1,10,4.71S1589.91,449.44,1585.66,450.52Z" transform="translate(0 -158.78)"/><path class="cls-4" d="M1170.34,411.14c-4.26,1.09-8.72-1-10-4.72s1.19-7.55,5.45-8.65,8.73,1,10,4.72S1174.6,410.06,1170.34,411.14Z" transform="translate(0 -158.78)"/><path class="cls-4" d="M1904.45,304.05c-4.25,1.08-8.73-1-10-4.72s1.18-7.56,5.45-8.64,8.71,1,10,4.72S1908.71,303,1904.45,304.05Z" transform="translate(0 -158.78)"/><path class="cls-4" d="M1585.66,450.52c-4.26,1.09-8.72-1-10-4.72s1.2-7.55,5.45-8.63,8.72,1,10,4.71S1589.91,449.44,1585.66,450.52Z" transform="translate(0 -158.78)"/><path class="cls-4" d="M1585.66,450.52c-4.26,1.09-8.72-1-10-4.72s1.2-7.55,5.45-8.63,8.72,1,10,4.71S1589.91,449.44,1585.66,450.52Z" transform="translate(0 -158.78)"/><path class="cls-4" d="M1075,870.77c-4.26,1.08-8.73-1-10-4.72s1.18-7.56,5.44-8.64,8.72,1,10,4.71S1079.24,869.69,1075,870.77Z" transform="translate(0 -158.78)"/><path class="cls-4" d="M390.28,1074.12c-4.26,1.08-8.72-1-10-4.72s1.18-7.56,5.44-8.64,8.72,1,10,4.72S394.53,1073,390.28,1074.12Z" transform="translate(0 -158.78)"/><path class="cls-4" d="M556.73,922.9c-4.27,1.09-8.73-1-10-4.72s1.19-7.56,5.44-8.64,8.72,1,10,4.72S561,921.82,556.73,922.9Z" transform="translate(0 -158.78)"/><path class="cls-4" d="M390.28,1074.12c-4.26,1.08-8.72-1-10-4.72s1.18-7.56,5.44-8.64,8.72,1,10,4.72S394.53,1073,390.28,1074.12Z" transform="translate(0 -158.78)"/><path class="cls-4" d="M558.58,755.55c-4.25,1.08-8.72-1-10-4.72s1.19-7.56,5.44-8.64,8.73,1,10,4.72S562.85,754.47,558.58,755.55Z" transform="translate(0 -158.78)"/><path class="cls-4" d="M390.28,1074.12c-4.26,1.08-8.72-1-10-4.72s1.18-7.56,5.44-8.64,8.72,1,10,4.72S394.53,1073,390.28,1074.12Z" transform="translate(0 -158.78)"/><path class="cls-4" d="M390.28,1074.12c-4.26,1.08-8.72-1-10-4.72s1.18-7.56,5.44-8.64,8.72,1,10,4.72S394.53,1073,390.28,1074.12Z" transform="translate(0 -158.78)"/><path class="cls-4" d="M390.28,1074.12c-4.26,1.08-8.72-1-10-4.72s1.18-7.56,5.44-8.64,8.72,1,10,4.72S394.53,1073,390.28,1074.12Z" transform="translate(0 -158.78)"/><path class="cls-4" d="M556.73,922.9c-4.27,1.09-8.73-1-10-4.72s1.19-7.56,5.44-8.64,8.72,1,10,4.72S561,921.82,556.73,922.9Z" transform="translate(0 -158.78)"/><path class="cls-4" d="M169.68,324.89c-4.25,1.08-8.72-1-10-4.72s1.19-7.56,5.45-8.64,8.72,1,10,4.72S173.95,323.8,169.68,324.89Z" transform="translate(0 -158.78)"/><path class="cls-4" d="M185.1,321c-4.25,1.08-8.72-1-10-4.72s1.2-7.56,5.44-8.65,8.73,1,10,4.72S189.36,319.87,185.1,321Z" transform="translate(0 -158.78)"/><path class="cls-4" d="M558.58,755.55c-4.25,1.08-8.72-1-10-4.72s1.19-7.56,5.44-8.64,8.73,1,10,4.72S562.85,754.47,558.58,755.55Z" transform="translate(0 -158.78)"/><path class="cls-4" d="M1618.61,942.79c-4.26,1.08-8.72-1-10-4.71s1.18-7.56,5.44-8.64,8.72,1,10,4.72S1622.87,941.7,1618.61,942.79Z" transform="translate(0 -158.78)"/><path class="cls-4" d="M1170.34,411.14c-4.26,1.09-8.72-1-10-4.72s1.19-7.55,5.45-8.65,8.73,1,10,4.72S1174.6,410.06,1170.34,411.14Z" transform="translate(0 -158.78)"/><path class="cls-4" d="M1618.61,942.79c-4.26,1.08-8.72-1-10-4.71s1.18-7.56,5.44-8.64,8.72,1,10,4.72S1622.87,941.7,1618.61,942.79Z" transform="translate(0 -158.78)"/><path class="cls-4" d="M1075,870.77c-4.26,1.08-8.73-1-10-4.72s1.18-7.56,5.44-8.64,8.72,1,10,4.71S1079.24,869.69,1075,870.77Z" transform="translate(0 -158.78)"/><path class="cls-4" d="M1618.61,942.79c-4.26,1.08-8.72-1-10-4.71s1.18-7.56,5.44-8.64,8.72,1,10,4.72S1622.87,941.7,1618.61,942.79Z" transform="translate(0 -158.78)"/><path class="cls-4" d="M1904.45,304.05c-4.25,1.08-8.73-1-10-4.72s1.18-7.56,5.45-8.64,8.71,1,10,4.72S1908.71,303,1904.45,304.05Z" transform="translate(0 -158.78)"/><path class="cls-4" d="M1618.61,942.79c-4.26,1.08-8.72-1-10-4.71s1.18-7.56,5.44-8.64,8.72,1,10,4.72S1622.87,941.7,1618.61,942.79Z" transform="translate(0 -158.78)"/><path class="cls-4" d="M1618.61,942.79c-4.26,1.08-8.72-1-10-4.71s1.18-7.56,5.44-8.64,8.72,1,10,4.72S1622.87,941.7,1618.61,942.79Z" transform="translate(0 -158.78)"/><path class="cls-4" d="M1585.66,450.52c-4.26,1.09-8.72-1-10-4.72s1.2-7.55,5.45-8.63,8.72,1,10,4.71S1589.91,449.44,1585.66,450.52Z" transform="translate(0 -158.78)"/><path class="cls-4" d="M1618.61,942.79c-4.26,1.08-8.72-1-10-4.71s1.18-7.56,5.44-8.64,8.72,1,10,4.72S1622.87,941.7,1618.61,942.79Z" transform="translate(0 -158.78)"/><path class="cls-4" d="M1585.66,450.52c-4.26,1.09-8.72-1-10-4.72s1.2-7.55,5.45-8.63,8.72,1,10,4.71S1589.91,449.44,1585.66,450.52Z" transform="translate(0 -158.78)"/><path class="cls-4" d="M1618.61,942.79c-4.26,1.08-8.72-1-10-4.71s1.18-7.56,5.44-8.64,8.72,1,10,4.72S1622.87,941.7,1618.61,942.79Z" transform="translate(0 -158.78)"/><path class="cls-4" d="M1904.45,304.05c-4.25,1.08-8.73-1-10-4.72s1.18-7.56,5.45-8.64,8.71,1,10,4.72S1908.71,303,1904.45,304.05Z" transform="translate(0 -158.78)"/><path class="cls-4" d="M1904.45,304.05c-4.25,1.08-8.73-1-10-4.72s1.18-7.56,5.45-8.64,8.71,1,10,4.72S1908.71,303,1904.45,304.05Z" transform="translate(0 -158.78)"/></g></g><g class="cls-5"><g class="cls-3"><polygon class="cls-4" points="487.15 297.7 486.87 296.25 938.98 216.93 939.25 218.38 487.15 297.7"/><polygon class="cls-4" points="487.15 297.7 486.87 296.25 938.98 216.93 939.25 218.38 487.15 297.7"/><polygon class="cls-4" points="939.87 217.7 938.35 217.61 950.16 37.93 951.69 38.02 939.87 217.7"/><polygon class="cls-4" points="487.39 297.61 486.62 296.34 950.53 37.34 951.31 38.61 487.39 297.61"/><polygon class="cls-4" points="487.39 297.61 486.62 296.34 950.53 37.34 951.31 38.61 487.39 297.61"/><polygon class="cls-4" points="805.61 135.76 804.74 134.56 950.49 37.38 951.36 38.58 805.61 135.76"/><polygon class="cls-4" points="938.7 218.27 804.76 135.78 805.59 134.54 939.53 217.04 938.7 218.27"/><polygon class="cls-4" points="487.36 297.63 486.64 296.33 804.82 134.51 805.53 135.81 487.36 297.63"/><polygon class="cls-4" points="487.36 297.63 486.64 296.33 804.82 134.51 805.53 135.81 487.36 297.63"/><polygon class="cls-4" points="3.73 738.23 487.53 297.51 486.47 296.44 3.73 736.2 3.73 738.23"/><polygon class="cls-4" points="3.73 738.23 487.53 297.51 486.47 296.44 3.73 736.2 3.73 738.23"/><polygon class="cls-4" points="3.73 624.59 73.26 253.61 71.75 253.35 3.73 616.27 3.73 624.59"/><polygon class="cls-4" points="3.73 242.14 3.73 243.63 72.38 254.21 72.62 252.75 3.73 242.14"/><polygon class="cls-4" points="72.63 254.2 72.37 252.75 805.05 134.44 805.3 135.89 72.63 254.2"/><polygon class="cls-4" points="3.73 297.21 72.92 254.1 72.08 252.86 3.73 295.46 3.73 297.21"/><polygon class="cls-4" points="486.92 297.71 72.42 254.21 72.58 252.75 487.09 296.25 486.92 297.71"/><polygon class="cls-4" points="486.92 297.71 72.42 254.21 72.58 252.75 487.09 296.25 486.92 297.71"/><polygon class="cls-4" points="902.91 756.83 804.41 135.27 805.94 135.05 904.43 756.61 902.91 756.83"/><polygon class="cls-4" points="904.44 756.76 902.91 756.67 950.16 37.93 951.68 38.02 904.44 756.76"/><polygon class="cls-4" points="904.43 756.76 902.91 756.67 938.35 217.61 939.87 217.7 904.43 756.76"/><polygon class="cls-4" points="903.09 757.2 486.43 297.46 487.58 296.49 904.25 756.23 903.09 757.2"/><polygon class="cls-4" points="903.09 757.2 486.43 297.46 487.58 296.49 904.25 756.23 903.09 757.2"/><polygon class="cls-4" points="520.06 841.54 519.73 840.11 903.5 756 903.84 757.43 520.06 841.54"/><polygon class="cls-4" points="519.27 841.26 71.88 253.91 73.12 253.04 520.52 840.39 519.27 841.26"/><polygon class="cls-4" points="3.73 764.39 3.73 765.88 519.77 841.55 520.01 840.1 3.73 764.39"/><polygon class="cls-4" points="520.61 841.09 519.17 840.56 804.46 134.89 805.89 135.43 520.61 841.09"/><polygon class="cls-4" points="520.54 841.23 519.25 840.42 938.47 217.25 939.75 218.06 520.54 841.23"/><polygon class="cls-4" points="519.13 840.87 486.24 297.02 487.77 296.93 520.66 840.78 519.13 840.87"/><polygon class="cls-4" points="519.13 840.87 486.24 297.02 487.77 296.93 520.66 840.78 519.13 840.87"/><polygon class="cls-4" points="1919.11 303.15 1343.18 7.04 1342.46 8.34 1919.11 304.82 1919.11 303.15"/><polygon class="cls-4" points="805.36 135.88 804.99 134.44 1342.64 6.98 1343 8.41 805.36 135.88"/><polygon class="cls-4" points="950.99 38.71 950.86 37.24 1342.76 6.96 1342.88 8.43 950.99 38.71"/><polygon class="cls-4" points="939.48 218.3 938.75 217.01 1342.46 7.05 1343.19 8.34 939.48 218.3"/><polygon class="cls-4" points="1333.82 852.59 903.49 757.43 903.84 756 1334.17 851.15 1333.82 852.59"/><polygon class="cls-4" points="1333.34 852.25 938.45 218.03 939.77 217.28 1334.66 851.49 1333.34 852.25"/><polygon class="cls-4" points="1334.71 852.15 1333.28 851.6 1478.18 506.14 1479.61 506.7 1334.71 852.15"/><polygon class="cls-4" points="1478.16 506.61 1342.07 7.88 1343.56 7.51 1479.64 506.23 1478.16 506.61"/><polygon class="cls-4" points="1919.11 374.92 1478.67 505.71 1479.13 507.12 1919.11 376.46 1919.11 374.92"/><polygon class="cls-4" points="903.99 757.38 903.35 756.05 1478.58 505.75 1479.21 507.09 903.99 757.38"/><polygon class="cls-4" points="1478.52 507.06 804.79 135.8 805.56 134.52 1479.28 505.78 1478.52 507.06"/><polygon class="cls-4" points="1478.37 506.96 950.4 38.52 951.45 37.44 1479.42 505.88 1478.37 506.96"/><polygon class="cls-4" points="1478.52 507.06 938.74 218.3 939.48 217.01 1479.27 505.78 1478.52 507.06"/><polygon class="cls-4" points="1919.11 616.35 1479.09 505.71 1478.7 507.13 1919.11 617.88 1919.11 616.35"/><polygon class="cls-4" points="1919.11 790.67 1627 880.75 1627.47 882.15 1919.11 792.22 1919.11 790.67"/><polygon class="cls-4" points="1626.52 881.72 1478.18 506.68 1479.61 506.16 1627.95 881.19 1626.52 881.72"/><polygon class="cls-4" points="1627.15 882.19 1333.92 852.6 1334.08 851.14 1627.31 880.72 1627.15 882.19"/><polygon class="cls-4" points="1919.11 471.81 1626.6 881.04 1627.86 881.87 1919.11 474.41 1919.11 471.81"/><polygon class="cls-4" points="1627.1 882.18 903.54 757.44 903.81 755.99 1627.37 880.73 1627.1 882.18"/><path class="cls-4" d="M489.26,463.13a8.08,8.08,0,0,1-10-5.21,7.66,7.66,0,0,1,5.44-9.54,8.07,8.07,0,0,1,10,5.21A7.64,7.64,0,0,1,489.26,463.13Z" transform="translate(0 -158.78)"/><path class="cls-4" d="M941.36,383.82a8.08,8.08,0,0,1-10-5.21,7.65,7.65,0,0,1,5.44-9.54,8.06,8.06,0,0,1,10,5.21A7.64,7.64,0,0,1,941.36,383.82Z" transform="translate(0 -158.78)"/><path class="cls-4" d="M489.26,463.13a8.08,8.08,0,0,1-10-5.21,7.66,7.66,0,0,1,5.44-9.54,8.07,8.07,0,0,1,10,5.21A7.64,7.64,0,0,1,489.26,463.13Z" transform="translate(0 -158.78)"/><path class="cls-4" d="M941.36,383.82a8.08,8.08,0,0,1-10-5.21,7.65,7.65,0,0,1,5.44-9.54,8.06,8.06,0,0,1,10,5.21A7.64,7.64,0,0,1,941.36,383.82Z" transform="translate(0 -158.78)"/><path class="cls-4" d="M941.36,383.82a8.08,8.08,0,0,1-10-5.21,7.65,7.65,0,0,1,5.44-9.54,8.06,8.06,0,0,1,10,5.21A7.64,7.64,0,0,1,941.36,383.82Z" transform="translate(0 -158.78)"/><path class="cls-4" d="M953.18,204.14a8.08,8.08,0,0,1-10-5.21,7.63,7.63,0,0,1,5.43-9.54,8.06,8.06,0,0,1,10,5.2A7.65,7.65,0,0,1,953.18,204.14Z" transform="translate(0 -158.78)"/><path class="cls-4" d="M489.26,463.13a8.08,8.08,0,0,1-10-5.21,7.66,7.66,0,0,1,5.44-9.54,8.07,8.07,0,0,1,10,5.21A7.64,7.64,0,0,1,489.26,463.13Z" transform="translate(0 -158.78)"/><path class="cls-4" d="M953.18,204.14a8.08,8.08,0,0,1-10-5.21,7.63,7.63,0,0,1,5.43-9.54,8.06,8.06,0,0,1,10,5.2A7.65,7.65,0,0,1,953.18,204.14Z" transform="translate(0 -158.78)"/><path class="cls-4" d="M489.26,463.13a8.08,8.08,0,0,1-10-5.21,7.66,7.66,0,0,1,5.44-9.54,8.07,8.07,0,0,1,10,5.21A7.64,7.64,0,0,1,489.26,463.13Z" transform="translate(0 -158.78)"/><path class="cls-4" d="M953.18,204.14a8.08,8.08,0,0,1-10-5.21,7.63,7.63,0,0,1,5.43-9.54,8.06,8.06,0,0,1,10,5.2A7.65,7.65,0,0,1,953.18,204.14Z" transform="translate(0 -158.78)"/><path class="cls-4" d="M953.18,204.14a8.08,8.08,0,0,1-10-5.21,7.63,7.63,0,0,1,5.43-9.54,8.06,8.06,0,0,1,10,5.2A7.65,7.65,0,0,1,953.18,204.14Z" transform="translate(0 -158.78)"/><path class="cls-4" d="M807.43,301.32a8.08,8.08,0,0,1-10-5.21,7.64,7.64,0,0,1,5.44-9.54,8.08,8.08,0,0,1,10,5.21A7.66,7.66,0,0,1,807.43,301.32Z" transform="translate(0 -158.78)"/><path class="cls-4" d="M941.36,383.82a8.08,8.08,0,0,1-10-5.21,7.65,7.65,0,0,1,5.44-9.54,8.06,8.06,0,0,1,10,5.21A7.64,7.64,0,0,1,941.36,383.82Z" transform="translate(0 -158.78)"/><path class="cls-4" d="M807.43,301.32a8.08,8.08,0,0,1-10-5.21,7.64,7.64,0,0,1,5.44-9.54,8.08,8.08,0,0,1,10,5.21A7.66,7.66,0,0,1,807.43,301.32Z" transform="translate(0 -158.78)"/><path class="cls-4" d="M489.26,463.13a8.08,8.08,0,0,1-10-5.21,7.66,7.66,0,0,1,5.44-9.54,8.07,8.07,0,0,1,10,5.21A7.64,7.64,0,0,1,489.26,463.13Z" transform="translate(0 -158.78)"/><path class="cls-4" d="M807.43,301.32a8.08,8.08,0,0,1-10-5.21,7.64,7.64,0,0,1,5.44-9.54,8.08,8.08,0,0,1,10,5.21A7.66,7.66,0,0,1,807.43,301.32Z" transform="translate(0 -158.78)"/><path class="cls-4" d="M489.26,463.13a8.08,8.08,0,0,1-10-5.21,7.66,7.66,0,0,1,5.44-9.54,8.07,8.07,0,0,1,10,5.21A7.64,7.64,0,0,1,489.26,463.13Z" transform="translate(0 -158.78)"/><path class="cls-4" d="M807.43,301.32a8.08,8.08,0,0,1-10-5.21,7.64,7.64,0,0,1,5.44-9.54,8.08,8.08,0,0,1,10,5.21A7.66,7.66,0,0,1,807.43,301.32Z" transform="translate(0 -158.78)"/><path class="cls-4" d="M489.26,463.13a8.08,8.08,0,0,1-10-5.21,7.66,7.66,0,0,1,5.44-9.54,8.07,8.07,0,0,1,10,5.21A7.64,7.64,0,0,1,489.26,463.13Z" transform="translate(0 -158.78)"/><path class="cls-4" d="M489.26,463.13a8.08,8.08,0,0,1-10-5.21,7.66,7.66,0,0,1,5.44-9.54,8.07,8.07,0,0,1,10,5.21A7.64,7.64,0,0,1,489.26,463.13Z" transform="translate(0 -158.78)"/><path class="cls-4" d="M74.76,419.63a8.08,8.08,0,0,1-10-5.21,7.66,7.66,0,0,1,5.43-9.55,8.08,8.08,0,0,1,10,5.22A7.64,7.64,0,0,1,74.76,419.63Z" transform="translate(0 -158.78)"/><path class="cls-4" d="M74.76,419.63a8.08,8.08,0,0,1-10-5.21,7.66,7.66,0,0,1,5.43-9.55,8.08,8.08,0,0,1,10,5.22A7.64,7.64,0,0,1,74.76,419.63Z" transform="translate(0 -158.78)"/><path class="cls-4" d="M807.43,301.32a8.08,8.08,0,0,1-10-5.21,7.64,7.64,0,0,1,5.44-9.54,8.08,8.08,0,0,1,10,5.21A7.66,7.66,0,0,1,807.43,301.32Z" transform="translate(0 -158.78)"/><path class="cls-4" d="M74.76,419.63a8.08,8.08,0,0,1-10-5.21,7.66,7.66,0,0,1,5.43-9.55,8.08,8.08,0,0,1,10,5.22A7.64,7.64,0,0,1,74.76,419.63Z" transform="translate(0 -158.78)"/><path class="cls-4" d="M74.76,419.63a8.08,8.08,0,0,1-10-5.21,7.66,7.66,0,0,1,5.43-9.55,8.08,8.08,0,0,1,10,5.22A7.64,7.64,0,0,1,74.76,419.63Z" transform="translate(0 -158.78)"/><path class="cls-4" d="M489.26,463.13a8.08,8.08,0,0,1-10-5.21,7.66,7.66,0,0,1,5.44-9.54,8.07,8.07,0,0,1,10,5.21A7.64,7.64,0,0,1,489.26,463.13Z" transform="translate(0 -158.78)"/><path class="cls-4" d="M74.76,419.63a8.08,8.08,0,0,1-10-5.21,7.66,7.66,0,0,1,5.43-9.55,8.08,8.08,0,0,1,10,5.22A7.64,7.64,0,0,1,74.76,419.63Z" transform="translate(0 -158.78)"/><path class="cls-4" d="M489.26,463.13a8.08,8.08,0,0,1-10-5.21,7.66,7.66,0,0,1,5.44-9.54,8.07,8.07,0,0,1,10,5.21A7.64,7.64,0,0,1,489.26,463.13Z" transform="translate(0 -158.78)"/><path class="cls-4" d="M74.76,419.63a8.08,8.08,0,0,1-10-5.21,7.66,7.66,0,0,1,5.43-9.55,8.08,8.08,0,0,1,10,5.22A7.64,7.64,0,0,1,74.76,419.63Z" transform="translate(0 -158.78)"/><path class="cls-4" d="M807.43,301.32a8.08,8.08,0,0,1-10-5.21,7.64,7.64,0,0,1,5.44-9.54,8.08,8.08,0,0,1,10,5.21A7.66,7.66,0,0,1,807.43,301.32Z" transform="translate(0 -158.78)"/><path class="cls-4" d="M905.93,922.87a8.07,8.07,0,0,1-10-5.21,7.63,7.63,0,0,1,5.43-9.55,8.08,8.08,0,0,1,10,5.21A7.65,7.65,0,0,1,905.93,922.87Z" transform="translate(0 -158.78)"/><path class="cls-4" d="M953.18,204.14a8.08,8.08,0,0,1-10-5.21,7.63,7.63,0,0,1,5.43-9.54,8.06,8.06,0,0,1,10,5.2A7.65,7.65,0,0,1,953.18,204.14Z" transform="translate(0 -158.78)"/><path class="cls-4" d="M905.93,922.87a8.07,8.07,0,0,1-10-5.21,7.63,7.63,0,0,1,5.43-9.55,8.08,8.08,0,0,1,10,5.21A7.65,7.65,0,0,1,905.93,922.87Z" transform="translate(0 -158.78)"/><path class="cls-4" d="M941.36,383.82a8.08,8.08,0,0,1-10-5.21,7.65,7.65,0,0,1,5.44-9.54,8.06,8.06,0,0,1,10,5.21A7.64,7.64,0,0,1,941.36,383.82Z" transform="translate(0 -158.78)"/><path class="cls-4" d="M905.93,922.87a8.07,8.07,0,0,1-10-5.21,7.63,7.63,0,0,1,5.43-9.55,8.08,8.08,0,0,1,10,5.21A7.65,7.65,0,0,1,905.93,922.87Z" transform="translate(0 -158.78)"/><path class="cls-4" d="M489.26,463.13a8.08,8.08,0,0,1-10-5.21,7.66,7.66,0,0,1,5.44-9.54,8.07,8.07,0,0,1,10,5.21A7.64,7.64,0,0,1,489.26,463.13Z" transform="translate(0 -158.78)"/><path class="cls-4" d="M905.93,922.87a8.07,8.07,0,0,1-10-5.21,7.63,7.63,0,0,1,5.43-9.55,8.08,8.08,0,0,1,10,5.21A7.65,7.65,0,0,1,905.93,922.87Z" transform="translate(0 -158.78)"/><path class="cls-4" d="M489.26,463.13a8.08,8.08,0,0,1-10-5.21,7.66,7.66,0,0,1,5.44-9.54,8.07,8.07,0,0,1,10,5.21A7.64,7.64,0,0,1,489.26,463.13Z" transform="translate(0 -158.78)"/><path class="cls-4" d="M905.93,922.87a8.07,8.07,0,0,1-10-5.21,7.63,7.63,0,0,1,5.43-9.55,8.08,8.08,0,0,1,10,5.21A7.65,7.65,0,0,1,905.93,922.87Z" transform="translate(0 -158.78)"/><path class="cls-4" d="M905.93,922.87a8.07,8.07,0,0,1-10-5.21,7.63,7.63,0,0,1,5.43-9.55,8.08,8.08,0,0,1,10,5.21A7.65,7.65,0,0,1,905.93,922.87Z" transform="translate(0 -158.78)"/><path class="cls-4" d="M522.16,1007a8.07,8.07,0,0,1-10-5.21,7.64,7.64,0,0,1,5.43-9.55,8.05,8.05,0,0,1,9.94,5.22A7.63,7.63,0,0,1,522.16,1007Z" transform="translate(0 -158.78)"/><path class="cls-4" d="M74.76,419.63a8.08,8.08,0,0,1-10-5.21,7.66,7.66,0,0,1,5.43-9.55,8.08,8.08,0,0,1,10,5.22A7.64,7.64,0,0,1,74.76,419.63Z" transform="translate(0 -158.78)"/><path class="cls-4" d="M522.16,1007a8.07,8.07,0,0,1-10-5.21,7.64,7.64,0,0,1,5.43-9.55,8.05,8.05,0,0,1,9.94,5.22A7.63,7.63,0,0,1,522.16,1007Z" transform="translate(0 -158.78)"/><path class="cls-4" d="M522.16,1007a8.07,8.07,0,0,1-10-5.21,7.64,7.64,0,0,1,5.43-9.55,8.05,8.05,0,0,1,9.94,5.22A7.63,7.63,0,0,1,522.16,1007Z" transform="translate(0 -158.78)"/><path class="cls-4" d="M807.43,301.32a8.08,8.08,0,0,1-10-5.21,7.64,7.64,0,0,1,5.44-9.54,8.08,8.08,0,0,1,10,5.21A7.66,7.66,0,0,1,807.43,301.32Z" transform="translate(0 -158.78)"/><path class="cls-4" d="M522.16,1007a8.07,8.07,0,0,1-10-5.21,7.64,7.64,0,0,1,5.43-9.55,8.05,8.05,0,0,1,9.94,5.22A7.63,7.63,0,0,1,522.16,1007Z" transform="translate(0 -158.78)"/><path class="cls-4" d="M941.36,383.82a8.08,8.08,0,0,1-10-5.21,7.65,7.65,0,0,1,5.44-9.54,8.06,8.06,0,0,1,10,5.21A7.64,7.64,0,0,1,941.36,383.82Z" transform="translate(0 -158.78)"/><path class="cls-4" d="M522.16,1007a8.07,8.07,0,0,1-10-5.21,7.64,7.64,0,0,1,5.43-9.55,8.05,8.05,0,0,1,9.94,5.22A7.63,7.63,0,0,1,522.16,1007Z" transform="translate(0 -158.78)"/><path class="cls-4" d="M489.26,463.13a8.08,8.08,0,0,1-10-5.21,7.66,7.66,0,0,1,5.44-9.54,8.07,8.07,0,0,1,10,5.21A7.64,7.64,0,0,1,489.26,463.13Z" transform="translate(0 -158.78)"/><path class="cls-4" d="M522.16,1007a8.07,8.07,0,0,1-10-5.21,7.64,7.64,0,0,1,5.43-9.55,8.05,8.05,0,0,1,9.94,5.22A7.63,7.63,0,0,1,522.16,1007Z" transform="translate(0 -158.78)"/><path class="cls-4" d="M489.26,463.13a8.08,8.08,0,0,1-10-5.21,7.66,7.66,0,0,1,5.44-9.54,8.07,8.07,0,0,1,10,5.21A7.64,7.64,0,0,1,489.26,463.13Z" transform="translate(0 -158.78)"/><path class="cls-4" d="M522.16,1007a8.07,8.07,0,0,1-10-5.21,7.64,7.64,0,0,1,5.43-9.55,8.05,8.05,0,0,1,9.94,5.22A7.63,7.63,0,0,1,522.16,1007Z" transform="translate(0 -158.78)"/><path class="cls-4" d="M1345.08,173.85a8.08,8.08,0,0,1-10-5.21,7.65,7.65,0,0,1,5.43-9.55,8.08,8.08,0,0,1,10,5.21A7.65,7.65,0,0,1,1345.08,173.85Z" transform="translate(0 -158.78)"/><path class="cls-4" d="M807.43,301.32a8.08,8.08,0,0,1-10-5.21,7.64,7.64,0,0,1,5.44-9.54,8.08,8.08,0,0,1,10,5.21A7.66,7.66,0,0,1,807.43,301.32Z" transform="translate(0 -158.78)"/><path class="cls-4" d="M1345.08,173.85a8.08,8.08,0,0,1-10-5.21,7.65,7.65,0,0,1,5.43-9.55,8.08,8.08,0,0,1,10,5.21A7.65,7.65,0,0,1,1345.08,173.85Z" transform="translate(0 -158.78)"/><path class="cls-4" d="M953.18,204.14a8.08,8.08,0,0,1-10-5.21,7.63,7.63,0,0,1,5.43-9.54,8.06,8.06,0,0,1,10,5.2A7.65,7.65,0,0,1,953.18,204.14Z" transform="translate(0 -158.78)"/><path class="cls-4" d="M1345.08,173.85a8.08,8.08,0,0,1-10-5.21,7.65,7.65,0,0,1,5.43-9.55,8.08,8.08,0,0,1,10,5.21A7.65,7.65,0,0,1,1345.08,173.85Z" transform="translate(0 -158.78)"/><path class="cls-4" d="M941.36,383.82a8.08,8.08,0,0,1-10-5.21,7.65,7.65,0,0,1,5.44-9.54,8.06,8.06,0,0,1,10,5.21A7.64,7.64,0,0,1,941.36,383.82Z" transform="translate(0 -158.78)"/><path class="cls-4" d="M1345.08,173.85a8.08,8.08,0,0,1-10-5.21,7.65,7.65,0,0,1,5.43-9.55,8.08,8.08,0,0,1,10,5.21A7.65,7.65,0,0,1,1345.08,173.85Z" transform="translate(0 -158.78)"/><path class="cls-4" d="M905.93,922.87a8.07,8.07,0,0,1-10-5.21,7.63,7.63,0,0,1,5.43-9.55,8.08,8.08,0,0,1,10,5.21A7.65,7.65,0,0,1,905.93,922.87Z" transform="translate(0 -158.78)"/><path class="cls-4" d="M1336.26,1018a8.07,8.07,0,0,1-10-5.21,7.64,7.64,0,0,1,5.43-9.55,8.08,8.08,0,0,1,10,5.21A7.64,7.64,0,0,1,1336.26,1018Z" transform="translate(0 -158.78)"/><path class="cls-4" d="M941.36,383.82a8.08,8.08,0,0,1-10-5.21,7.65,7.65,0,0,1,5.44-9.54,8.06,8.06,0,0,1,10,5.21A7.64,7.64,0,0,1,941.36,383.82Z" transform="translate(0 -158.78)"/><path class="cls-4" d="M1336.26,1018a8.07,8.07,0,0,1-10-5.21,7.64,7.64,0,0,1,5.43-9.55,8.08,8.08,0,0,1,10,5.21A7.64,7.64,0,0,1,1336.26,1018Z" transform="translate(0 -158.78)"/><path class="cls-4" d="M1336.26,1018a8.07,8.07,0,0,1-10-5.21,7.64,7.64,0,0,1,5.43-9.55,8.08,8.08,0,0,1,10,5.21A7.64,7.64,0,0,1,1336.26,1018Z" transform="translate(0 -158.78)"/><path class="cls-4" d="M1481.16,672.59a8.09,8.09,0,0,1-10-5.22,7.66,7.66,0,0,1,5.43-9.55,8.08,8.08,0,0,1,10,5.21A7.67,7.67,0,0,1,1481.16,672.59Z" transform="translate(0 -158.78)"/><path class="cls-4" d="M1345.08,173.85a8.08,8.08,0,0,1-10-5.21,7.65,7.65,0,0,1,5.43-9.55,8.08,8.08,0,0,1,10,5.21A7.65,7.65,0,0,1,1345.08,173.85Z" transform="translate(0 -158.78)"/><path class="cls-4" d="M1481.16,672.59a8.09,8.09,0,0,1-10-5.22,7.66,7.66,0,0,1,5.43-9.55,8.08,8.08,0,0,1,10,5.21A7.67,7.67,0,0,1,1481.16,672.59Z" transform="translate(0 -158.78)"/><path class="cls-4" d="M1481.16,672.59a8.09,8.09,0,0,1-10-5.22,7.66,7.66,0,0,1,5.43-9.55,8.08,8.08,0,0,1,10,5.21A7.67,7.67,0,0,1,1481.16,672.59Z" transform="translate(0 -158.78)"/><path class="cls-4" d="M905.93,922.87a8.07,8.07,0,0,1-10-5.21,7.63,7.63,0,0,1,5.43-9.55,8.08,8.08,0,0,1,10,5.21A7.65,7.65,0,0,1,905.93,922.87Z" transform="translate(0 -158.78)"/><path class="cls-4" d="M1481.16,672.59a8.09,8.09,0,0,1-10-5.22,7.66,7.66,0,0,1,5.43-9.55,8.08,8.08,0,0,1,10,5.21A7.67,7.67,0,0,1,1481.16,672.59Z" transform="translate(0 -158.78)"/><path class="cls-4" d="M807.43,301.32a8.08,8.08,0,0,1-10-5.21,7.64,7.64,0,0,1,5.44-9.54,8.08,8.08,0,0,1,10,5.21A7.66,7.66,0,0,1,807.43,301.32Z" transform="translate(0 -158.78)"/><path class="cls-4" d="M1481.16,672.59a8.09,8.09,0,0,1-10-5.22,7.66,7.66,0,0,1,5.43-9.55,8.08,8.08,0,0,1,10,5.21A7.67,7.67,0,0,1,1481.16,672.59Z" transform="translate(0 -158.78)"/><path class="cls-4" d="M953.18,204.14a8.08,8.08,0,0,1-10-5.21,7.63,7.63,0,0,1,5.43-9.54,8.06,8.06,0,0,1,10,5.2A7.65,7.65,0,0,1,953.18,204.14Z" transform="translate(0 -158.78)"/><path class="cls-4" d="M1481.16,672.59a8.09,8.09,0,0,1-10-5.22,7.66,7.66,0,0,1,5.43-9.55,8.08,8.08,0,0,1,10,5.21A7.67,7.67,0,0,1,1481.16,672.59Z" transform="translate(0 -158.78)"/><path class="cls-4" d="M941.36,383.82a8.08,8.08,0,0,1-10-5.21,7.65,7.65,0,0,1,5.44-9.54,8.06,8.06,0,0,1,10,5.21A7.64,7.64,0,0,1,941.36,383.82Z" transform="translate(0 -158.78)"/><path class="cls-4" d="M1481.16,672.59a8.09,8.09,0,0,1-10-5.22,7.66,7.66,0,0,1,5.43-9.55,8.08,8.08,0,0,1,10,5.21A7.67,7.67,0,0,1,1481.16,672.59Z" transform="translate(0 -158.78)"/><path class="cls-4" d="M1481.16,672.59a8.09,8.09,0,0,1-10-5.22,7.66,7.66,0,0,1,5.43-9.55,8.08,8.08,0,0,1,10,5.21A7.67,7.67,0,0,1,1481.16,672.59Z" transform="translate(0 -158.78)"/><path class="cls-4" d="M1629.48,1047.62a8.08,8.08,0,0,1-9.95-5.22,7.65,7.65,0,0,1,5.43-9.54,8.07,8.07,0,0,1,10,5.21A7.65,7.65,0,0,1,1629.48,1047.62Z" transform="translate(0 -158.78)"/><path class="cls-4" d="M1481.16,672.59a8.09,8.09,0,0,1-10-5.22,7.66,7.66,0,0,1,5.43-9.55,8.08,8.08,0,0,1,10,5.21A7.67,7.67,0,0,1,1481.16,672.59Z" transform="translate(0 -158.78)"/><path class="cls-4" d="M1629.48,1047.62a8.08,8.08,0,0,1-9.95-5.22,7.65,7.65,0,0,1,5.43-9.54,8.07,8.07,0,0,1,10,5.21A7.65,7.65,0,0,1,1629.48,1047.62Z" transform="translate(0 -158.78)"/><path class="cls-4" d="M1336.26,1018a8.07,8.07,0,0,1-10-5.21,7.64,7.64,0,0,1,5.43-9.55,8.08,8.08,0,0,1,10,5.21A7.64,7.64,0,0,1,1336.26,1018Z" transform="translate(0 -158.78)"/><path class="cls-4" d="M1629.48,1047.62a8.08,8.08,0,0,1-9.95-5.22,7.65,7.65,0,0,1,5.43-9.54,8.07,8.07,0,0,1,10,5.21A7.65,7.65,0,0,1,1629.48,1047.62Z" transform="translate(0 -158.78)"/><path class="cls-4" d="M1629.48,1047.62a8.08,8.08,0,0,1-9.95-5.22,7.65,7.65,0,0,1,5.43-9.54,8.07,8.07,0,0,1,10,5.21A7.65,7.65,0,0,1,1629.48,1047.62Z" transform="translate(0 -158.78)"/><path class="cls-4" d="M905.93,922.87a8.07,8.07,0,0,1-10-5.21,7.63,7.63,0,0,1,5.43-9.55,8.08,8.08,0,0,1,10,5.21A7.65,7.65,0,0,1,905.93,922.87Z" transform="translate(0 -158.78)"/><path class="cls-4" d="M1629.48,1047.62a8.08,8.08,0,0,1-9.95-5.22,7.65,7.65,0,0,1,5.43-9.54,8.07,8.07,0,0,1,10,5.21A7.65,7.65,0,0,1,1629.48,1047.62Z" transform="translate(0 -158.78)"/></g><g class="cls-3"><polygon class="cls-4" points="487.15 297.7 486.87 296.25 938.98 216.93 939.25 218.38 487.15 297.7"/><polygon class="cls-4" points="487.15 297.7 486.87 296.25 938.98 216.93 939.25 218.38 487.15 297.7"/><polygon class="cls-4" points="939.87 217.7 938.35 217.61 950.16 37.93 951.69 38.02 939.87 217.7"/><polygon class="cls-4" points="487.39 297.61 486.62 296.34 950.53 37.34 951.31 38.61 487.39 297.61"/><polygon class="cls-4" points="487.39 297.61 486.62 296.34 950.53 37.34 951.31 38.61 487.39 297.61"/><polygon class="cls-4" points="805.61 135.76 804.74 134.56 950.49 37.38 951.36 38.58 805.61 135.76"/><polygon class="cls-4" points="938.7 218.27 804.76 135.78 805.59 134.54 939.53 217.04 938.7 218.27"/><polygon class="cls-4" points="487.36 297.63 486.64 296.33 804.82 134.51 805.53 135.81 487.36 297.63"/><polygon class="cls-4" points="487.36 297.63 486.64 296.33 804.82 134.51 805.53 135.81 487.36 297.63"/><polygon class="cls-4" points="3.73 738.23 487.53 297.51 486.47 296.44 3.73 736.2 3.73 738.23"/><polygon class="cls-4" points="3.73 738.23 487.53 297.51 486.47 296.44 3.73 736.2 3.73 738.23"/><polygon class="cls-4" points="3.73 624.59 73.26 253.61 71.75 253.35 3.73 616.27 3.73 624.59"/><polygon class="cls-4" points="3.73 242.14 3.73 243.63 72.38 254.21 72.62 252.75 3.73 242.14"/><polygon class="cls-4" points="72.63 254.2 72.37 252.75 805.05 134.44 805.3 135.89 72.63 254.2"/><polygon class="cls-4" points="3.73 297.21 72.92 254.1 72.08 252.86 3.73 295.46 3.73 297.21"/><polygon class="cls-4" points="486.92 297.71 72.42 254.21 72.58 252.75 487.09 296.25 486.92 297.71"/><polygon class="cls-4" points="486.92 297.71 72.42 254.21 72.58 252.75 487.09 296.25 486.92 297.71"/><polygon class="cls-4" points="902.91 756.83 804.41 135.27 805.94 135.05 904.43 756.61 902.91 756.83"/><polygon class="cls-4" points="904.44 756.76 902.91 756.67 950.16 37.93 951.68 38.02 904.44 756.76"/><polygon class="cls-4" points="904.43 756.76 902.91 756.67 938.35 217.61 939.87 217.7 904.43 756.76"/><polygon class="cls-4" points="903.09 757.2 486.43 297.46 487.58 296.49 904.25 756.23 903.09 757.2"/><polygon class="cls-4" points="903.09 757.2 486.43 297.46 487.58 296.49 904.25 756.23 903.09 757.2"/><polygon class="cls-4" points="520.06 841.54 519.73 840.11 903.5 756 903.84 757.43 520.06 841.54"/><polygon class="cls-4" points="519.27 841.26 71.88 253.91 73.12 253.04 520.52 840.39 519.27 841.26"/><polygon class="cls-4" points="3.73 764.39 3.73 765.88 519.77 841.55 520.01 840.1 3.73 764.39"/><polygon class="cls-4" points="520.61 841.09 519.17 840.56 804.46 134.89 805.89 135.43 520.61 841.09"/><polygon class="cls-4" points="520.54 841.23 519.25 840.42 938.47 217.25 939.75 218.06 520.54 841.23"/><polygon class="cls-4" points="519.13 840.87 486.24 297.02 487.77 296.93 520.66 840.78 519.13 840.87"/><polygon class="cls-4" points="519.13 840.87 486.24 297.02 487.77 296.93 520.66 840.78 519.13 840.87"/><polygon class="cls-4" points="1919.11 303.15 1343.18 7.04 1342.46 8.34 1919.11 304.82 1919.11 303.15"/><polygon class="cls-4" points="805.36 135.88 804.99 134.44 1342.64 6.98 1343 8.41 805.36 135.88"/><polygon class="cls-4" points="950.99 38.71 950.86 37.24 1342.76 6.96 1342.88 8.43 950.99 38.71"/><polygon class="cls-4" points="939.48 218.3 938.75 217.01 1342.46 7.05 1343.19 8.34 939.48 218.3"/><polygon class="cls-4" points="1333.82 852.59 903.49 757.43 903.84 756 1334.17 851.15 1333.82 852.59"/><polygon class="cls-4" points="1333.34 852.25 938.45 218.03 939.77 217.28 1334.66 851.49 1333.34 852.25"/><polygon class="cls-4" points="1334.71 852.15 1333.28 851.6 1478.18 506.14 1479.61 506.7 1334.71 852.15"/><polygon class="cls-4" points="1478.16 506.61 1342.07 7.88 1343.56 7.51 1479.64 506.23 1478.16 506.61"/><polygon class="cls-4" points="1919.11 374.92 1478.67 505.71 1479.13 507.12 1919.11 376.46 1919.11 374.92"/><polygon class="cls-4" points="903.99 757.38 903.35 756.05 1478.58 505.75 1479.21 507.09 903.99 757.38"/><polygon class="cls-4" points="1478.52 507.06 804.79 135.8 805.56 134.52 1479.28 505.78 1478.52 507.06"/><polygon class="cls-4" points="1478.37 506.96 950.4 38.52 951.45 37.44 1479.42 505.88 1478.37 506.96"/><polygon class="cls-4" points="1478.52 507.06 938.74 218.3 939.48 217.01 1479.27 505.78 1478.52 507.06"/><polygon class="cls-4" points="1919.11 616.35 1479.09 505.71 1478.7 507.13 1919.11 617.88 1919.11 616.35"/><polygon class="cls-4" points="1919.11 790.67 1627 880.75 1627.47 882.15 1919.11 792.22 1919.11 790.67"/><polygon class="cls-4" points="1626.52 881.72 1478.18 506.68 1479.61 506.16 1627.95 881.19 1626.52 881.72"/><polygon class="cls-4" points="1627.15 882.19 1333.92 852.6 1334.08 851.14 1627.31 880.72 1627.15 882.19"/><polygon class="cls-4" points="1919.11 471.81 1626.6 881.04 1627.86 881.87 1919.11 474.41 1919.11 471.81"/><polygon class="cls-4" points="1627.1 882.18 903.54 757.44 903.81 755.99 1627.37 880.73 1627.1 882.18"/><path class="cls-4" d="M489.26,463.13a8.08,8.08,0,0,1-10-5.21,7.66,7.66,0,0,1,5.44-9.54,8.07,8.07,0,0,1,10,5.21A7.64,7.64,0,0,1,489.26,463.13Z" transform="translate(0 -158.78)"/><path class="cls-4" d="M941.36,383.82a8.08,8.08,0,0,1-10-5.21,7.65,7.65,0,0,1,5.44-9.54,8.06,8.06,0,0,1,10,5.21A7.64,7.64,0,0,1,941.36,383.82Z" transform="translate(0 -158.78)"/><path class="cls-4" d="M489.26,463.13a8.08,8.08,0,0,1-10-5.21,7.66,7.66,0,0,1,5.44-9.54,8.07,8.07,0,0,1,10,5.21A7.64,7.64,0,0,1,489.26,463.13Z" transform="translate(0 -158.78)"/><path class="cls-4" d="M941.36,383.82a8.08,8.08,0,0,1-10-5.21,7.65,7.65,0,0,1,5.44-9.54,8.06,8.06,0,0,1,10,5.21A7.64,7.64,0,0,1,941.36,383.82Z" transform="translate(0 -158.78)"/><path class="cls-4" d="M941.36,383.82a8.08,8.08,0,0,1-10-5.21,7.65,7.65,0,0,1,5.44-9.54,8.06,8.06,0,0,1,10,5.21A7.64,7.64,0,0,1,941.36,383.82Z" transform="translate(0 -158.78)"/><path class="cls-4" d="M953.18,204.14a8.08,8.08,0,0,1-10-5.21,7.63,7.63,0,0,1,5.43-9.54,8.06,8.06,0,0,1,10,5.2A7.65,7.65,0,0,1,953.18,204.14Z" transform="translate(0 -158.78)"/><path class="cls-4" d="M489.26,463.13a8.08,8.08,0,0,1-10-5.21,7.66,7.66,0,0,1,5.44-9.54,8.07,8.07,0,0,1,10,5.21A7.64,7.64,0,0,1,489.26,463.13Z" transform="translate(0 -158.78)"/><path class="cls-4" d="M953.18,204.14a8.08,8.08,0,0,1-10-5.21,7.63,7.63,0,0,1,5.43-9.54,8.06,8.06,0,0,1,10,5.2A7.65,7.65,0,0,1,953.18,204.14Z" transform="translate(0 -158.78)"/><path class="cls-4" d="M489.26,463.13a8.08,8.08,0,0,1-10-5.21,7.66,7.66,0,0,1,5.44-9.54,8.07,8.07,0,0,1,10,5.21A7.64,7.64,0,0,1,489.26,463.13Z" transform="translate(0 -158.78)"/><path class="cls-4" d="M953.18,204.14a8.08,8.08,0,0,1-10-5.21,7.63,7.63,0,0,1,5.43-9.54,8.06,8.06,0,0,1,10,5.2A7.65,7.65,0,0,1,953.18,204.14Z" transform="translate(0 -158.78)"/><path class="cls-4" d="M953.18,204.14a8.08,8.08,0,0,1-10-5.21,7.63,7.63,0,0,1,5.43-9.54,8.06,8.06,0,0,1,10,5.2A7.65,7.65,0,0,1,953.18,204.14Z" transform="translate(0 -158.78)"/><path class="cls-4" d="M807.43,301.32a8.08,8.08,0,0,1-10-5.21,7.64,7.64,0,0,1,5.44-9.54,8.08,8.08,0,0,1,10,5.21A7.66,7.66,0,0,1,807.43,301.32Z" transform="translate(0 -158.78)"/><path class="cls-4" d="M941.36,383.82a8.08,8.08,0,0,1-10-5.21,7.65,7.65,0,0,1,5.44-9.54,8.06,8.06,0,0,1,10,5.21A7.64,7.64,0,0,1,941.36,383.82Z" transform="translate(0 -158.78)"/><path class="cls-4" d="M807.43,301.32a8.08,8.08,0,0,1-10-5.21,7.64,7.64,0,0,1,5.44-9.54,8.08,8.08,0,0,1,10,5.21A7.66,7.66,0,0,1,807.43,301.32Z" transform="translate(0 -158.78)"/><path class="cls-4" d="M489.26,463.13a8.08,8.08,0,0,1-10-5.21,7.66,7.66,0,0,1,5.44-9.54,8.07,8.07,0,0,1,10,5.21A7.64,7.64,0,0,1,489.26,463.13Z" transform="translate(0 -158.78)"/><path class="cls-4" d="M807.43,301.32a8.08,8.08,0,0,1-10-5.21,7.64,7.64,0,0,1,5.44-9.54,8.08,8.08,0,0,1,10,5.21A7.66,7.66,0,0,1,807.43,301.32Z" transform="translate(0 -158.78)"/><path class="cls-4" d="M489.26,463.13a8.08,8.08,0,0,1-10-5.21,7.66,7.66,0,0,1,5.44-9.54,8.07,8.07,0,0,1,10,5.21A7.64,7.64,0,0,1,489.26,463.13Z" transform="translate(0 -158.78)"/><path class="cls-4" d="M807.43,301.32a8.08,8.08,0,0,1-10-5.21,7.64,7.64,0,0,1,5.44-9.54,8.08,8.08,0,0,1,10,5.21A7.66,7.66,0,0,1,807.43,301.32Z" transform="translate(0 -158.78)"/><path class="cls-4" d="M489.26,463.13a8.08,8.08,0,0,1-10-5.21,7.66,7.66,0,0,1,5.44-9.54,8.07,8.07,0,0,1,10,5.21A7.64,7.64,0,0,1,489.26,463.13Z" transform="translate(0 -158.78)"/><path class="cls-4" d="M489.26,463.13a8.08,8.08,0,0,1-10-5.21,7.66,7.66,0,0,1,5.44-9.54,8.07,8.07,0,0,1,10,5.21A7.64,7.64,0,0,1,489.26,463.13Z" transform="translate(0 -158.78)"/><path class="cls-4" d="M74.76,419.63a8.08,8.08,0,0,1-10-5.21,7.66,7.66,0,0,1,5.43-9.55,8.08,8.08,0,0,1,10,5.22A7.64,7.64,0,0,1,74.76,419.63Z" transform="translate(0 -158.78)"/><path class="cls-4" d="M74.76,419.63a8.08,8.08,0,0,1-10-5.21,7.66,7.66,0,0,1,5.43-9.55,8.08,8.08,0,0,1,10,5.22A7.64,7.64,0,0,1,74.76,419.63Z" transform="translate(0 -158.78)"/><path class="cls-4" d="M807.43,301.32a8.08,8.08,0,0,1-10-5.21,7.64,7.64,0,0,1,5.44-9.54,8.08,8.08,0,0,1,10,5.21A7.66,7.66,0,0,1,807.43,301.32Z" transform="translate(0 -158.78)"/><path class="cls-4" d="M74.76,419.63a8.08,8.08,0,0,1-10-5.21,7.66,7.66,0,0,1,5.43-9.55,8.08,8.08,0,0,1,10,5.22A7.64,7.64,0,0,1,74.76,419.63Z" transform="translate(0 -158.78)"/><path class="cls-4" d="M74.76,419.63a8.08,8.08,0,0,1-10-5.21,7.66,7.66,0,0,1,5.43-9.55,8.08,8.08,0,0,1,10,5.22A7.64,7.64,0,0,1,74.76,419.63Z" transform="translate(0 -158.78)"/><path class="cls-4" d="M489.26,463.13a8.08,8.08,0,0,1-10-5.21,7.66,7.66,0,0,1,5.44-9.54,8.07,8.07,0,0,1,10,5.21A7.64,7.64,0,0,1,489.26,463.13Z" transform="translate(0 -158.78)"/><path class="cls-4" d="M74.76,419.63a8.08,8.08,0,0,1-10-5.21,7.66,7.66,0,0,1,5.43-9.55,8.08,8.08,0,0,1,10,5.22A7.64,7.64,0,0,1,74.76,419.63Z" transform="translate(0 -158.78)"/><path class="cls-4" d="M489.26,463.13a8.08,8.08,0,0,1-10-5.21,7.66,7.66,0,0,1,5.44-9.54,8.07,8.07,0,0,1,10,5.21A7.64,7.64,0,0,1,489.26,463.13Z" transform="translate(0 -158.78)"/><path class="cls-4" d="M74.76,419.63a8.08,8.08,0,0,1-10-5.21,7.66,7.66,0,0,1,5.43-9.55,8.08,8.08,0,0,1,10,5.22A7.64,7.64,0,0,1,74.76,419.63Z" transform="translate(0 -158.78)"/><path class="cls-4" d="M807.43,301.32a8.08,8.08,0,0,1-10-5.21,7.64,7.64,0,0,1,5.44-9.54,8.08,8.08,0,0,1,10,5.21A7.66,7.66,0,0,1,807.43,301.32Z" transform="translate(0 -158.78)"/><path class="cls-4" d="M905.93,922.87a8.07,8.07,0,0,1-10-5.21,7.63,7.63,0,0,1,5.43-9.55,8.08,8.08,0,0,1,10,5.21A7.65,7.65,0,0,1,905.93,922.87Z" transform="translate(0 -158.78)"/><path class="cls-4" d="M953.18,204.14a8.08,8.08,0,0,1-10-5.21,7.63,7.63,0,0,1,5.43-9.54,8.06,8.06,0,0,1,10,5.2A7.65,7.65,0,0,1,953.18,204.14Z" transform="translate(0 -158.78)"/><path class="cls-4" d="M905.93,922.87a8.07,8.07,0,0,1-10-5.21,7.63,7.63,0,0,1,5.43-9.55,8.08,8.08,0,0,1,10,5.21A7.65,7.65,0,0,1,905.93,922.87Z" transform="translate(0 -158.78)"/><path class="cls-4" d="M941.36,383.82a8.08,8.08,0,0,1-10-5.21,7.65,7.65,0,0,1,5.44-9.54,8.06,8.06,0,0,1,10,5.21A7.64,7.64,0,0,1,941.36,383.82Z" transform="translate(0 -158.78)"/><path class="cls-4" d="M905.93,922.87a8.07,8.07,0,0,1-10-5.21,7.63,7.63,0,0,1,5.43-9.55,8.08,8.08,0,0,1,10,5.21A7.65,7.65,0,0,1,905.93,922.87Z" transform="translate(0 -158.78)"/><path class="cls-4" d="M489.26,463.13a8.08,8.08,0,0,1-10-5.21,7.66,7.66,0,0,1,5.44-9.54,8.07,8.07,0,0,1,10,5.21A7.64,7.64,0,0,1,489.26,463.13Z" transform="translate(0 -158.78)"/><path class="cls-4" d="M905.93,922.87a8.07,8.07,0,0,1-10-5.21,7.63,7.63,0,0,1,5.43-9.55,8.08,8.08,0,0,1,10,5.21A7.65,7.65,0,0,1,905.93,922.87Z" transform="translate(0 -158.78)"/><path class="cls-4" d="M489.26,463.13a8.08,8.08,0,0,1-10-5.21,7.66,7.66,0,0,1,5.44-9.54,8.07,8.07,0,0,1,10,5.21A7.64,7.64,0,0,1,489.26,463.13Z" transform="translate(0 -158.78)"/><path class="cls-4" d="M905.93,922.87a8.07,8.07,0,0,1-10-5.21,7.63,7.63,0,0,1,5.43-9.55,8.08,8.08,0,0,1,10,5.21A7.65,7.65,0,0,1,905.93,922.87Z" transform="translate(0 -158.78)"/><path class="cls-4" d="M905.93,922.87a8.07,8.07,0,0,1-10-5.21,7.63,7.63,0,0,1,5.43-9.55,8.08,8.08,0,0,1,10,5.21A7.65,7.65,0,0,1,905.93,922.87Z" transform="translate(0 -158.78)"/><path class="cls-4" d="M522.16,1007a8.07,8.07,0,0,1-10-5.21,7.64,7.64,0,0,1,5.43-9.55,8.05,8.05,0,0,1,9.94,5.22A7.63,7.63,0,0,1,522.16,1007Z" transform="translate(0 -158.78)"/><path class="cls-4" d="M74.76,419.63a8.08,8.08,0,0,1-10-5.21,7.66,7.66,0,0,1,5.43-9.55,8.08,8.08,0,0,1,10,5.22A7.64,7.64,0,0,1,74.76,419.63Z" transform="translate(0 -158.78)"/><path class="cls-4" d="M522.16,1007a8.07,8.07,0,0,1-10-5.21,7.64,7.64,0,0,1,5.43-9.55,8.05,8.05,0,0,1,9.94,5.22A7.63,7.63,0,0,1,522.16,1007Z" transform="translate(0 -158.78)"/><path class="cls-4" d="M522.16,1007a8.07,8.07,0,0,1-10-5.21,7.64,7.64,0,0,1,5.43-9.55,8.05,8.05,0,0,1,9.94,5.22A7.63,7.63,0,0,1,522.16,1007Z" transform="translate(0 -158.78)"/><path class="cls-4" d="M807.43,301.32a8.08,8.08,0,0,1-10-5.21,7.64,7.64,0,0,1,5.44-9.54,8.08,8.08,0,0,1,10,5.21A7.66,7.66,0,0,1,807.43,301.32Z" transform="translate(0 -158.78)"/><path class="cls-4" d="M522.16,1007a8.07,8.07,0,0,1-10-5.21,7.64,7.64,0,0,1,5.43-9.55,8.05,8.05,0,0,1,9.94,5.22A7.63,7.63,0,0,1,522.16,1007Z" transform="translate(0 -158.78)"/><path class="cls-4" d="M941.36,383.82a8.08,8.08,0,0,1-10-5.21,7.65,7.65,0,0,1,5.44-9.54,8.06,8.06,0,0,1,10,5.21A7.64,7.64,0,0,1,941.36,383.82Z" transform="translate(0 -158.78)"/><path class="cls-4" d="M522.16,1007a8.07,8.07,0,0,1-10-5.21,7.64,7.64,0,0,1,5.43-9.55,8.05,8.05,0,0,1,9.94,5.22A7.63,7.63,0,0,1,522.16,1007Z" transform="translate(0 -158.78)"/><path class="cls-4" d="M489.26,463.13a8.08,8.08,0,0,1-10-5.21,7.66,7.66,0,0,1,5.44-9.54,8.07,8.07,0,0,1,10,5.21A7.64,7.64,0,0,1,489.26,463.13Z" transform="translate(0 -158.78)"/><path class="cls-4" d="M522.16,1007a8.07,8.07,0,0,1-10-5.21,7.64,7.64,0,0,1,5.43-9.55,8.05,8.05,0,0,1,9.94,5.22A7.63,7.63,0,0,1,522.16,1007Z" transform="translate(0 -158.78)"/><path class="cls-4" d="M489.26,463.13a8.08,8.08,0,0,1-10-5.21,7.66,7.66,0,0,1,5.44-9.54,8.07,8.07,0,0,1,10,5.21A7.64,7.64,0,0,1,489.26,463.13Z" transform="translate(0 -158.78)"/><path class="cls-4" d="M522.16,1007a8.07,8.07,0,0,1-10-5.21,7.64,7.64,0,0,1,5.43-9.55,8.05,8.05,0,0,1,9.94,5.22A7.63,7.63,0,0,1,522.16,1007Z" transform="translate(0 -158.78)"/><path class="cls-4" d="M1345.08,173.85a8.08,8.08,0,0,1-10-5.21,7.65,7.65,0,0,1,5.43-9.55,8.08,8.08,0,0,1,10,5.21A7.65,7.65,0,0,1,1345.08,173.85Z" transform="translate(0 -158.78)"/><path class="cls-4" d="M807.43,301.32a8.08,8.08,0,0,1-10-5.21,7.64,7.64,0,0,1,5.44-9.54,8.08,8.08,0,0,1,10,5.21A7.66,7.66,0,0,1,807.43,301.32Z" transform="translate(0 -158.78)"/><path class="cls-4" d="M1345.08,173.85a8.08,8.08,0,0,1-10-5.21,7.65,7.65,0,0,1,5.43-9.55,8.08,8.08,0,0,1,10,5.21A7.65,7.65,0,0,1,1345.08,173.85Z" transform="translate(0 -158.78)"/><path class="cls-4" d="M953.18,204.14a8.08,8.08,0,0,1-10-5.21,7.63,7.63,0,0,1,5.43-9.54,8.06,8.06,0,0,1,10,5.2A7.65,7.65,0,0,1,953.18,204.14Z" transform="translate(0 -158.78)"/><path class="cls-4" d="M1345.08,173.85a8.08,8.08,0,0,1-10-5.21,7.65,7.65,0,0,1,5.43-9.55,8.08,8.08,0,0,1,10,5.21A7.65,7.65,0,0,1,1345.08,173.85Z" transform="translate(0 -158.78)"/><path class="cls-4" d="M941.36,383.82a8.08,8.08,0,0,1-10-5.21,7.65,7.65,0,0,1,5.44-9.54,8.06,8.06,0,0,1,10,5.21A7.64,7.64,0,0,1,941.36,383.82Z" transform="translate(0 -158.78)"/><path class="cls-4" d="M1345.08,173.85a8.08,8.08,0,0,1-10-5.21,7.65,7.65,0,0,1,5.43-9.55,8.08,8.08,0,0,1,10,5.21A7.65,7.65,0,0,1,1345.08,173.85Z" transform="translate(0 -158.78)"/><path class="cls-4" d="M905.93,922.87a8.07,8.07,0,0,1-10-5.21,7.63,7.63,0,0,1,5.43-9.55,8.08,8.08,0,0,1,10,5.21A7.65,7.65,0,0,1,905.93,922.87Z" transform="translate(0 -158.78)"/><path class="cls-4" d="M1336.26,1018a8.07,8.07,0,0,1-10-5.21,7.64,7.64,0,0,1,5.43-9.55,8.08,8.08,0,0,1,10,5.21A7.64,7.64,0,0,1,1336.26,1018Z" transform="translate(0 -158.78)"/><path class="cls-4" d="M941.36,383.82a8.08,8.08,0,0,1-10-5.21,7.65,7.65,0,0,1,5.44-9.54,8.06,8.06,0,0,1,10,5.21A7.64,7.64,0,0,1,941.36,383.82Z" transform="translate(0 -158.78)"/><path class="cls-4" d="M1336.26,1018a8.07,8.07,0,0,1-10-5.21,7.64,7.64,0,0,1,5.43-9.55,8.08,8.08,0,0,1,10,5.21A7.64,7.64,0,0,1,1336.26,1018Z" transform="translate(0 -158.78)"/><path class="cls-4" d="M1336.26,1018a8.07,8.07,0,0,1-10-5.21,7.64,7.64,0,0,1,5.43-9.55,8.08,8.08,0,0,1,10,5.21A7.64,7.64,0,0,1,1336.26,1018Z" transform="translate(0 -158.78)"/><path class="cls-4" d="M1481.16,672.59a8.09,8.09,0,0,1-10-5.22,7.66,7.66,0,0,1,5.43-9.55,8.08,8.08,0,0,1,10,5.21A7.67,7.67,0,0,1,1481.16,672.59Z" transform="translate(0 -158.78)"/><path class="cls-4" d="M1345.08,173.85a8.08,8.08,0,0,1-10-5.21,7.65,7.65,0,0,1,5.43-9.55,8.08,8.08,0,0,1,10,5.21A7.65,7.65,0,0,1,1345.08,173.85Z" transform="translate(0 -158.78)"/><path class="cls-4" d="M1481.16,672.59a8.09,8.09,0,0,1-10-5.22,7.66,7.66,0,0,1,5.43-9.55,8.08,8.08,0,0,1,10,5.21A7.67,7.67,0,0,1,1481.16,672.59Z" transform="translate(0 -158.78)"/><path class="cls-4" d="M1481.16,672.59a8.09,8.09,0,0,1-10-5.22,7.66,7.66,0,0,1,5.43-9.55,8.08,8.08,0,0,1,10,5.21A7.67,7.67,0,0,1,1481.16,672.59Z" transform="translate(0 -158.78)"/><path class="cls-4" d="M905.93,922.87a8.07,8.07,0,0,1-10-5.21,7.63,7.63,0,0,1,5.43-9.55,8.08,8.08,0,0,1,10,5.21A7.65,7.65,0,0,1,905.93,922.87Z" transform="translate(0 -158.78)"/><path class="cls-4" d="M1481.16,672.59a8.09,8.09,0,0,1-10-5.22,7.66,7.66,0,0,1,5.43-9.55,8.08,8.08,0,0,1,10,5.21A7.67,7.67,0,0,1,1481.16,672.59Z" transform="translate(0 -158.78)"/><path class="cls-4" d="M807.43,301.32a8.08,8.08,0,0,1-10-5.21,7.64,7.64,0,0,1,5.44-9.54,8.08,8.08,0,0,1,10,5.21A7.66,7.66,0,0,1,807.43,301.32Z" transform="translate(0 -158.78)"/><path class="cls-4" d="M1481.16,672.59a8.09,8.09,0,0,1-10-5.22,7.66,7.66,0,0,1,5.43-9.55,8.08,8.08,0,0,1,10,5.21A7.67,7.67,0,0,1,1481.16,672.59Z" transform="translate(0 -158.78)"/><path class="cls-4" d="M953.18,204.14a8.08,8.08,0,0,1-10-5.21,7.63,7.63,0,0,1,5.43-9.54,8.06,8.06,0,0,1,10,5.2A7.65,7.65,0,0,1,953.18,204.14Z" transform="translate(0 -158.78)"/><path class="cls-4" d="M1481.16,672.59a8.09,8.09,0,0,1-10-5.22,7.66,7.66,0,0,1,5.43-9.55,8.08,8.08,0,0,1,10,5.21A7.67,7.67,0,0,1,1481.16,672.59Z" transform="translate(0 -158.78)"/><path class="cls-4" d="M941.36,383.82a8.08,8.08,0,0,1-10-5.21,7.65,7.65,0,0,1,5.44-9.54,8.06,8.06,0,0,1,10,5.21A7.64,7.64,0,0,1,941.36,383.82Z" transform="translate(0 -158.78)"/><path class="cls-4" d="M1481.16,672.59a8.09,8.09,0,0,1-10-5.22,7.66,7.66,0,0,1,5.43-9.55,8.08,8.08,0,0,1,10,5.21A7.67,7.67,0,0,1,1481.16,672.59Z" transform="translate(0 -158.78)"/><path class="cls-4" d="M1481.16,672.59a8.09,8.09,0,0,1-10-5.22,7.66,7.66,0,0,1,5.43-9.55,8.08,8.08,0,0,1,10,5.21A7.67,7.67,0,0,1,1481.16,672.59Z" transform="translate(0 -158.78)"/><path class="cls-4" d="M1629.48,1047.62a8.08,8.08,0,0,1-9.95-5.22,7.65,7.65,0,0,1,5.43-9.54,8.07,8.07,0,0,1,10,5.21A7.65,7.65,0,0,1,1629.48,1047.62Z" transform="translate(0 -158.78)"/><path class="cls-4" d="M1481.16,672.59a8.09,8.09,0,0,1-10-5.22,7.66,7.66,0,0,1,5.43-9.55,8.08,8.08,0,0,1,10,5.21A7.67,7.67,0,0,1,1481.16,672.59Z" transform="translate(0 -158.78)"/><path class="cls-4" d="M1629.48,1047.62a8.08,8.08,0,0,1-9.95-5.22,7.65,7.65,0,0,1,5.43-9.54,8.07,8.07,0,0,1,10,5.21A7.65,7.65,0,0,1,1629.48,1047.62Z" transform="translate(0 -158.78)"/><path class="cls-4" d="M1336.26,1018a8.07,8.07,0,0,1-10-5.21,7.64,7.64,0,0,1,5.43-9.55,8.08,8.08,0,0,1,10,5.21A7.64,7.64,0,0,1,1336.26,1018Z" transform="translate(0 -158.78)"/><path class="cls-4" d="M1629.48,1047.62a8.08,8.08,0,0,1-9.95-5.22,7.65,7.65,0,0,1,5.43-9.54,8.07,8.07,0,0,1,10,5.21A7.65,7.65,0,0,1,1629.48,1047.62Z" transform="translate(0 -158.78)"/><path class="cls-4" d="M1629.48,1047.62a8.08,8.08,0,0,1-9.95-5.22,7.65,7.65,0,0,1,5.43-9.54,8.07,8.07,0,0,1,10,5.21A7.65,7.65,0,0,1,1629.48,1047.62Z" transform="translate(0 -158.78)"/><path class="cls-4" d="M905.93,922.87a8.07,8.07,0,0,1-10-5.21,7.63,7.63,0,0,1,5.43-9.55,8.08,8.08,0,0,1,10,5.21A7.65,7.65,0,0,1,905.93,922.87Z" transform="translate(0 -158.78)"/><path class="cls-4" d="M1629.48,1047.62a8.08,8.08,0,0,1-9.95-5.22,7.65,7.65,0,0,1,5.43-9.54,8.07,8.07,0,0,1,10,5.21A7.65,7.65,0,0,1,1629.48,1047.62Z" transform="translate(0 -158.78)"/></g></g></g></g></svg>