<?xml version="1.0" encoding="utf-8"?>
<!-- Generator: Adobe Illustrator 21.0.2, SVG Export Plug-In . SVG Version: 6.00 Build 0)  -->
<svg version="1.1" id="Layer_1" xmlns="http://www.w3.org/2000/svg" xmlns:xlink="http://www.w3.org/1999/xlink" x="0px" y="0px"
	 viewBox="0 0 400 560" style="enable-background:new 0 0 400 560;" xml:space="preserve">
<style type="text/css">
	.st0{fill:none;stroke:#13100E;stroke-width:10;stroke-miterlimit:10;}
	.st1{fill:none;stroke:#13100E;stroke-width:5;stroke-miterlimit:10;}
	.st2{fill:#13100E;}
</style>
<rect x="34.9" y="90" class="st0" width="335.9" height="367.7"/>
<polygon class="st1" points="23.2,478 11.5,457.7 23.2,437.5 46.6,437.5 58.3,457.7 46.6,478 "/>
<g>
	<path class="st2" d="M137.6,342.9V424H126v-36.2H79.3V424H67.8v-81.2h11.6v34.9H126v-34.9H137.6z"/>
	<path class="st2" d="M161.9,342.9h11.6V424h-11.6V342.9z"/>
	<path class="st2" d="M267.6,342.9L232,424h-11.5l-35.7-81.2h12.5l29.2,66.7l29.5-66.7H267.6z"/>
	<path class="st2" d="M336.8,413.9V424h-58.9v-81.2h57.3V353h-45.7v24.9h40.7v9.9h-40.7v26.2H336.8z"/>
	<polygon class="st2" points="79.3,377.8 212,377.8 217,387.9 79.3,387.9 	"/>
	<polygon class="st2" points="240.5,377.8 330.2,377.9 330.2,387.7 236.1,387.7 	"/>
</g>
<g>
	<path d="M89,272.2v17l8.2,3.7v2.3L68,281.7v-2.1l29.3-13.5v2.3L89,272.2z M87.2,273l-16.9,7.7l16.9,7.7V273z"/>
	<path d="M89.5,234.9c4.9,0,7.7,3.6,7.7,10.8v13H68v-12.2c0-6.3,2.6-10.1,7.5-10.1c3.5,0,5.7,2,6.7,4.9
		C82.9,237.2,85.4,234.9,89.5,234.9z M69.8,256.6h11.7v-10c0-5.1-2-8-5.9-8c-3.8,0-5.8,2.9-5.8,8V256.6z M89.3,237
		c-4.2,0-6,3.1-6,8.7v10.9h12.1v-10.9C95.4,240.1,93.6,237,89.3,237z"/>
	<path d="M82.6,228c-8.5,0-14.8-6.5-14.8-15.2c0-8.7,6.3-15.2,14.8-15.2s14.8,6.5,14.8,15.2C97.4,221.5,91.1,228,82.6,228z
		 M82.6,199.7c-7.4,0-12.9,5.6-12.9,13c0,7.5,5.5,13.1,12.9,13.1s12.9-5.6,12.9-13.1C95.5,205.3,90,199.7,82.6,199.7z"/>
	<path d="M84.8,188.3H68v-2.1h16.8c7.3,0,10.7-3.5,10.7-9.6c0-6.1-3.4-9.6-10.7-9.6H68v-2.1h16.9c8.4,0,12.6,4.5,12.6,11.7
		C97.4,183.9,93.2,188.3,84.8,188.3z"/>
	<path d="M69.9,147.8v10.5H68v-23.2h1.9v10.5h27.3v2.1H69.9z"/>
</g>
</svg>
