<?xml version="1.0" encoding="utf-8"?>
<!-- Generator: Adobe Illustrator 21.0.2, SVG Export Plug-In . SVG Version: 6.00 Build 0)  -->
<svg version="1.1" id="Layer_1" xmlns="http://www.w3.org/2000/svg" xmlns:xlink="http://www.w3.org/1999/xlink" x="0px" y="0px"
	 viewBox="0 0 70 100" style="enable-background:new 0 0 70 100;" xml:space="preserve">
<style type="text/css">
	.st0{fill:#FFFFF2;}
	.st1{fill:#191716;}
</style>
<path class="st0" d="M34.1,97.1L34.1,97.1c0,0-27.4-43-27.4-66.7C6.7,15.3,19,3,34.1,3c15.1,0,27.4,12.3,27.4,27.4
	C61.5,53.8,34.1,97.1,34.1,97.1L34.1,97.1z"/>
<rect x="3.8" y="17.8" class="st1" width="61.5" height="22.3"/>
<g>
	<g>
		<path class="st0" d="M22.3,21.4v16.1h-1.6v-7.4h-9.8v7.4H9.2V21.4h1.7v7.2h9.8v-7.2H22.3z"/>
		<path class="st0" d="M27.3,21.4H29v16.1h-1.7V21.4z"/>
		<path class="st0" d="M46.9,21.4L40,37.5h-1.6l-6.9-16.1h1.8l6,13.9l6-13.9H46.9z"/>
		<path class="st0" d="M60.2,36v1.5h-11V21.4h10.7v1.5h-9.1v5.7h8.1v1.4h-8.1v6H60.2z"/>
	</g>
	<rect x="9.6" y="28.5" class="st0" width="26.3" height="1.6"/>
	<rect x="42.9" y="28.7" class="st0" width="9.9" height="1.4"/>
</g>
</svg>
