<?xml version="1.0" encoding="utf-8"?>
<!-- Generator: Adobe Illustrator 21.0.2, SVG Export Plug-In . SVG Version: 6.00 Build 0)  -->
<svg version="1.1" id="Слой_1" xmlns="http://www.w3.org/2000/svg" xmlns:xlink="http://www.w3.org/1999/xlink" x="0px" y="0px"
	 viewBox="0 0 200 80" style="enable-background:new 0 0 200 80;" xml:space="preserve">
<style type="text/css">
	.st0{fill:#FFFFFF;}
</style>
<polygon class="st0" points="115.3,65.3 115.3,63.8 189.3,63.7 189.3,3.5 10.9,3.5 10.9,63.7 102.7,63.7 102.7,65.2 9.4,65.2 9.4,2 
	190.8,2 190.8,65.2 "/>
<g>
	<path class="st0" d="M80.9,51.9v25.6h-1.3V65.1H61.1v12.4h-1.3V51.9h1.3v12h18.5v-12H80.9z"/>
	<path class="st0" d="M90.5,51.9h1.3v25.6h-1.3V51.9z"/>
	<path class="st0" d="M121.5,51.9l-11.8,25.6h-1.2L96.6,51.9H98l11.1,24l11.1-24H121.5z"/>
	<path class="st0" d="M143.9,76.4v1.1h-17.8V51.9h17.3V53h-16v10.9h14.3v1.1h-14.3v11.3H143.9z"/>
</g>
<g>
	<path class="st0" d="M59.8,39.3l1.1-2c1.2,0.9,3.1,1.5,5,1.5c2.4,0,3.4-0.7,3.4-1.9c0-3.2-8.9-0.4-8.9-6.1c0-2.5,2.3-4.3,5.9-4.3
		c1.8,0,3.9,0.5,5.1,1.3l-1.1,2c-1.3-0.8-2.7-1.1-4.1-1.1c-2.2,0-3.3,0.8-3.3,2c0,3.3,8.9,0.6,8.9,6.1c0,2.6-2.3,4.2-6.1,4.2
		C63.3,40.9,61,40.2,59.8,39.3z"/>
	<path class="st0" d="M82.9,39.9c-0.8,0.7-1.9,1-3.1,1c-2.9,0-4.5-1.6-4.5-4.4v-7.8h-2.4v-2.1h2.4v-3.1h2.6v3.1h4v2.1h-4v7.7
		c0,1.5,0.8,2.4,2.2,2.4c0.7,0,1.5-0.2,2-0.7L82.9,39.9z"/>
	<path class="st0" d="M99.1,26.6v14.2h-2.4v-2.1c-1,1.5-2.8,2.3-4.8,2.3c-3.6,0-6.1-2-6.1-6.2v-8.2h2.6v7.9c0,2.8,1.4,4.2,3.8,4.2
		c2.7,0,4.4-1.7,4.4-4.7v-7.3H99.1z"/>
	<path class="st0" d="M117.3,20.9v19.9h-2.5v-2.2c-1.1,1.6-3,2.4-5,2.4c-4.1,0-7.1-2.9-7.1-7.3s3-7.2,7.1-7.2c2,0,3.8,0.7,4.9,2.3
		v-7.8H117.3z M114.8,33.7c0-3-2.1-5-4.7-5c-2.7,0-4.8,2-4.8,5s2.1,5,4.8,5C112.7,38.7,114.8,36.7,114.8,33.7z"/>
	<path class="st0" d="M121.7,22.2c0-0.9,0.7-1.7,1.7-1.7c1,0,1.7,0.7,1.7,1.6c0,1-0.7,1.7-1.7,1.7C122.5,23.9,121.7,23.1,121.7,22.2
		z M122.2,26.6h2.6v14.2h-2.6V26.6z"/>
	<path class="st0" d="M128.3,33.7c0-4.2,3.1-7.2,7.4-7.2c4.2,0,7.3,3,7.3,7.2s-3.1,7.3-7.3,7.3C131.4,40.9,128.3,37.9,128.3,33.7z
		 M140.4,33.7c0-3-2-5-4.7-5c-2.7,0-4.8,2-4.8,5s2.1,5,4.8,5C138.4,38.7,140.4,36.7,140.4,33.7z"/>
</g>
</svg>
