<svg id="Layer_4" data-name="Layer 4" xmlns="http://www.w3.org/2000/svg" xmlns:xlink="http://www.w3.org/1999/xlink" viewBox="0 0 554 443"><defs><style>.cls-1{fill:url(#linear-gradient);}.cls-2{fill:url(#linear-gradient-2);}.cls-3{fill:url(#radial-gradient);}.cls-4{fill:url(#radial-gradient-2);}.cls-5{fill:url(#linear-gradient-3);}.cls-6{fill:url(#linear-gradient-4);}.cls-7{fill:#231f20;}.cls-8{fill:url(#linear-gradient-5);}.cls-9{fill:#fff;}</style><linearGradient id="linear-gradient" x1="322.94" y1="602" x2="498.16" y2="602" gradientUnits="userSpaceOnUse"><stop offset="0.01" stop-color="#58595b"/><stop offset="0.28" stop-color="#757679"/><stop offset="0.51" stop-color="#88898d"/><stop offset="1" stop-color="#58595b"/></linearGradient><linearGradient id="linear-gradient-2" x1="408.6" y1="536.5" x2="408.6" y2="613.05" gradientUnits="userSpaceOnUse"><stop offset="0.08" stop-color="#6d6f73"/><stop offset="0.13" stop-color="#97999c"/><stop offset="0.18" stop-color="#cccdce"/><stop offset="0.21" stop-color="#e0e1e2"/><stop offset="0.32" stop-color="#a7a9ac"/><stop offset="0.39" stop-color="#868789"/><stop offset="0.46" stop-color="#636363"/><stop offset="0.53" stop-color="#6e6f6f"/><stop offset="0.65" stop-color="#8b8d8f"/><stop offset="0.74" stop-color="#a6aaad"/></linearGradient><radialGradient id="radial-gradient" cx="492.3" cy="633.29" r="64.19" gradientUnits="userSpaceOnUse"><stop offset="0" stop-color="#fff"/><stop offset="0.17" stop-color="#fff" stop-opacity="0.78"/><stop offset="0.4" stop-color="#fff" stop-opacity="0.5"/><stop offset="0.6" stop-color="#fff" stop-opacity="0.29"/><stop offset="0.78" stop-color="#fff" stop-opacity="0.13"/><stop offset="0.92" stop-color="#fff" stop-opacity="0.04"/><stop offset="1" stop-color="#fff" stop-opacity="0"/></radialGradient><radialGradient id="radial-gradient-2" cx="540.18" cy="633.29" r="64.19" gradientTransform="matrix(-1, 0, 0, 1, 866.93, 0)" xlink:href="#radial-gradient"/><linearGradient id="linear-gradient-3" x1="340.42" y1="604.13" x2="476.94" y2="604.13" gradientUnits="userSpaceOnUse"><stop offset="0.01" stop-color="#fff" stop-opacity="0"/><stop offset="0.18" stop-color="#fff" stop-opacity="0.38"/><stop offset="0.34" stop-color="#fff" stop-opacity="0.71"/><stop offset="0.45" stop-color="#fff" stop-opacity="0.92"/><stop offset="0.51" stop-color="#fff"/><stop offset="1" stop-color="#fff" stop-opacity="0"/></linearGradient><linearGradient id="linear-gradient-4" x1="120.32" y1="536.27" x2="722.57" y2="496.79" gradientUnits="userSpaceOnUse"><stop offset="0" stop-color="#78797d"/><stop offset="0.32" stop-color="#737478"/><stop offset="0.49" stop-color="#6d6f73"/><stop offset="1" stop-color="#6d6f73"/></linearGradient><linearGradient id="linear-gradient-5" x1="120.38" y1="535.26" x2="722.57" y2="495.79" gradientUnits="userSpaceOnUse"><stop offset="0" stop-color="#898a8f"/><stop offset="0.05" stop-color="#909196"/><stop offset="0.31" stop-color="#b1b2b6"/><stop offset="0.57" stop-color="#c8cacd"/><stop offset="0.8" stop-color="#d6d8db"/><stop offset="1" stop-color="#dbdde0"/></linearGradient></defs><title>monitor</title><path class="cls-1" d="M324,599v1.3c0,3.21,4.49,4.7,18.11,4.7H476.94c13.62,0,18.38-2,18.42-5H495v-1Z" transform="translate(-130 -162)"/><path class="cls-2" d="M477.86,580.53C465.7,568.14,465.24,541,465.24,541H352s-.46,27.14-12.61,39.53S308.17,604,341.19,604H476C509,604,490,592.91,477.86,580.53Z" transform="translate(-130 -162)"/><path class="cls-3" d="M419.46,604c6.74-15,28.28-27,55.07-29.65a28.94,28.94,0,0,0,4.24,5.62c11.94,12.16,30.52,23-.15,24Z" transform="translate(-130 -162)"/><path class="cls-4" d="M399.59,604c-6.74-15-28.28-27-55.07-29.65a28.93,28.93,0,0,1-4.24,5.62c-11.94,12.16-30.52,23,.15,24Z" transform="translate(-130 -162)"/><path class="cls-5" d="M340.42,604.13c11.38-.19,22.75-.28,34.13-.35l34.13-.11,34.13.1,17.07.13,17.06.23-17.06.22-17.07.13-34.13.11-34.13-.11C363.17,604.4,351.79,604.31,340.42,604.13Z" transform="translate(-130 -162)"/><path class="cls-6" d="M130,525.24A17.12,17.12,0,0,0,147,542H667.49A16.72,16.72,0,0,0,684,525.24V494H130Z" transform="translate(-130 -162)"/><path class="cls-7" d="M667.49,162H147c-9.12,0-17,6.5-17,15.62V493H684V177.62C684,168.5,676.61,162,667.49,162ZM661,470H153V184H661Z" transform="translate(-130 -162)"/><path class="cls-8" d="M130,523.41c0,9.12,7.85,17.59,17,17.59H667.49c9.12,0,16.51-8.47,16.51-17.59V493H130Z" transform="translate(-130 -162)"/><rect class="cls-9" x="23" y="22" width="508" height="286"/></svg>