<?xml version="1.0" encoding="utf-8"?>
<!-- Generator: Adobe Illustrator 21.0.2, SVG Export Plug-In . SVG Version: 6.00 Build 0)  -->
<svg version="1.1" id="Layer_1" xmlns="http://www.w3.org/2000/svg" xmlns:xlink="http://www.w3.org/1999/xlink" x="0px" y="0px"
	 viewBox="0 0 1920 500" style="enable-background:new 0 0 1920 500;" xml:space="preserve">
<style type="text/css">
	.st0{opacity:0.2;}
	.st1{fill:#FFFFFF;}
	.st2{fill:none;stroke:#13100E;stroke-width:2;stroke-miterlimit:10;}
</style>
<g class="st0">
	<g>
		<g>
			<g>
				<g>
					<polygon class="st1" points="1038.6,156.6 1038.4,155.9 1316.1,119.8 1316.2,120.5 					"/>
				</g>
				<g>
					<polygon class="st1" points="1038.6,156.6 1038.4,155.9 1316.1,119.8 1316.2,120.5 					"/>
				</g>
			</g>
			<g>
				<g>
					<polygon class="st1" points="1316.6,120.1 1315.7,120.1 1322.9,38.3 1323.9,38.3 					"/>
				</g>
				<g>
					<polygon class="st1" points="1038.8,156.5 1038.3,156 1323.2,38 1323.6,38.6 					"/>
				</g>
				<g>
					<polygon class="st1" points="1038.8,156.5 1038.3,156 1323.2,38 1323.6,38.6 					"/>
				</g>
			</g>
			<g>
				<g>
					<polygon class="st1" points="1234.2,82.8 1233.6,82.3 1323.1,38 1323.7,38.6 					"/>
				</g>
				<g>
					<polygon class="st1" points="1315.9,120.4 1233.6,82.8 1234.1,82.3 1316.4,119.8 					"/>
				</g>
				<g>
					<polygon class="st1" points="1038.7,156.5 1038.3,156 1233.7,82.3 1234.1,82.9 					"/>
				</g>
				<g>
					<polygon class="st1" points="1038.7,156.5 1038.3,156 1233.7,82.3 1234.1,82.9 					"/>
				</g>
			</g>
			<g>
				<g>
					<polygon class="st1" points="741.8,357.2 1038.8,156.5 1038.2,156 741.8,356.3 					"/>
				</g>
				<g>
					<polygon class="st1" points="741.8,357.2 1038.8,156.5 1038.2,156 741.8,356.3 					"/>
				</g>
			</g>
			<g>
				<g>
					<polygon class="st1" points="741.8,305.5 784.4,136.5 783.5,136.4 741.8,301.7 					"/>
				</g>
				<g>
					<polygon class="st1" points="741.8,131.3 741.8,132 783.9,136.8 784.1,136.1 					"/>
				</g>
				<g>
					<polygon class="st1" points="784.1,136.8 783.9,136.1 1233.8,82.2 1234,82.9 					"/>
				</g>
				<g>
					<polygon class="st1" points="741.8,156.4 784.2,136.7 783.7,136.2 741.8,155.6 					"/>
				</g>
				<g>
					<polygon class="st1" points="1038.5,156.6 783.9,136.8 784,136.1 1038.6,155.9 					"/>
				</g>
				<g>
					<polygon class="st1" points="1038.5,156.6 783.9,136.8 784,136.1 1038.6,155.9 					"/>
				</g>
			</g>
			<g>
				<g>
					<polygon class="st1" points="1293.9,365.7 1233.4,82.6 1234.4,82.5 1294.8,365.6 					"/>
				</g>
				<g>
					<polygon class="st1" points="1294.8,365.6 1293.9,365.6 1322.9,38.3 1323.9,38.3 					"/>
				</g>
				<g>
					<polygon class="st1" points="1294.8,365.6 1293.9,365.6 1315.7,120.1 1316.6,120.1 					"/>
				</g>
				<g>
					<polygon class="st1" points="1294,365.8 1038.2,156.5 1038.9,156 1294.7,365.4 					"/>
				</g>
				<g>
					<polygon class="st1" points="1294,365.8 1038.2,156.5 1038.9,156 1294.7,365.4 					"/>
				</g>
			</g>
			<g>
				<g>
					<polygon class="st1" points="1058.8,404.3 1058.6,403.6 1294.3,365.3 1294.5,366 					"/>
				</g>
				<g>
					<polygon class="st1" points="1058.3,404.1 783.6,136.6 784.4,136.2 1059.1,403.7 					"/>
				</g>
				<g>
					<polygon class="st1" points="741.8,369.1 741.8,369.8 1058.6,404.3 1058.8,403.6 					"/>
				</g>
				<g>
					<polygon class="st1" points="1059.2,404.1 1058.3,403.8 1233.5,82.4 1234.3,82.7 					"/>
				</g>
				<g>
					<polygon class="st1" points="1059.1,404.1 1058.3,403.7 1315.7,119.9 1316.5,120.3 					"/>
				</g>
				<g>
					<polygon class="st1" points="1058.2,404 1038,156.3 1039,156.2 1059.2,403.9 					"/>
				</g>
				<g>
					<polygon class="st1" points="1058.2,404 1038,156.3 1039,156.2 1059.2,403.9 					"/>
				</g>
			</g>
			<g>
				<g>
					<polygon class="st1" points="1917.9,159.1 1564.3,24.2 1563.8,24.8 1917.9,159.8 					"/>
				</g>
				<g>
					<polygon class="st1" points="1234,82.9 1233.8,82.2 1563.9,24.2 1564.2,24.8 					"/>
				</g>
				<g>
					<polygon class="st1" points="1323.4,38.6 1323.3,38 1564,24.2 1564.1,24.8 					"/>
				</g>
				<g>
					<polygon class="st1" points="1316.4,120.4 1315.9,119.8 1563.8,24.2 1564.3,24.8 					"/>
				</g>
			</g>
			<g>
				<g>
					<polygon class="st1" points="1558.5,409.3 1294.3,366 1294.5,365.3 1558.7,408.6 					"/>
				</g>
				<g>
					<polygon class="st1" points="1558.2,409.1 1315.7,120.3 1316.5,120 1559,408.8 					"/>
				</g>
			</g>
			<g>
				<g>
					<polygon class="st1" points="1559.1,409.1 1558.2,408.8 1647.2,251.5 1648,251.8 					"/>
				</g>
				<g>
					<polygon class="st1" points="1647.1,251.7 1563.6,24.6 1564.5,24.4 1648.1,251.6 					"/>
				</g>
				<g>
					<polygon class="st1" points="1917.9,191.7 1647.5,251.3 1647.7,252 1917.9,192.4 					"/>
				</g>
				<g>
					<polygon class="st1" points="1294.6,365.9 1294.2,365.3 1647.4,251.3 1647.8,251.9 					"/>
				</g>
				<g>
					<polygon class="st1" points="1647.4,251.9 1233.7,82.8 1234.1,82.3 1647.8,251.3 					"/>
				</g>
				<g>
					<polygon class="st1" points="1647.3,251.9 1323.1,38.5 1323.7,38.1 1647.9,251.4 					"/>
				</g>
				<g>
					<polygon class="st1" points="1647.4,251.9 1315.9,120.4 1316.4,119.8 1647.8,251.3 					"/>
				</g>
			</g>
			<g>
				<g>
					<polygon class="st1" points="1917.9,301.7 1647.7,251.3 1647.5,252 1917.9,302.4 					"/>
				</g>
			</g>
			<g>
				<g>
					<polygon class="st1" points="1917.9,381.1 1738.5,422.1 1738.8,422.8 1917.9,381.8 					"/>
				</g>
				<g>
					<polygon class="st1" points="1738.2,422.6 1647.2,251.8 1648,251.5 1739.1,422.3 					"/>
				</g>
				<g>
					<polygon class="st1" points="1738.6,422.8 1558.6,409.3 1558.7,408.6 1738.7,422.1 					"/>
				</g>
				<g>
					<polygon class="st1" points="1917.9,235.9 1738.3,422.2 1739.1,422.6 1917.9,237.1 					"/>
				</g>
				<g>
					<polygon class="st1" points="1738.6,422.8 1294.3,366 1294.5,365.3 1738.8,422.1 					"/>
				</g>
			</g>
		</g>
		<g>
			<path class="st1" d="M1039.9,159.6c-2.6,0.5-5.3-0.5-6.1-2.4c-0.8-1.9,0.7-3.8,3.3-4.3c2.6-0.5,5.3,0.5,6.1,2.4
				C1044,157.1,1042.5,159.1,1039.9,159.6z"/>
			<path class="st1" d="M1317.5,123.5c-2.6,0.5-5.3-0.5-6.1-2.4c-0.8-1.9,0.7-3.8,3.3-4.3c2.6-0.5,5.3,0.5,6.1,2.4
				C1321.6,121,1320.1,122.9,1317.5,123.5z"/>
			<path class="st1" d="M1039.9,159.6c-2.6,0.5-5.3-0.5-6.1-2.4c-0.8-1.9,0.7-3.8,3.3-4.3c2.6-0.5,5.3,0.5,6.1,2.4
				C1044,157.1,1042.5,159.1,1039.9,159.6z"/>
			<path class="st1" d="M1317.5,123.5c-2.6,0.5-5.3-0.5-6.1-2.4c-0.8-1.9,0.7-3.8,3.3-4.3c2.6-0.5,5.3,0.5,6.1,2.4
				C1321.6,121,1320.1,122.9,1317.5,123.5z"/>
			<path class="st1" d="M1317.5,123.5c-2.6,0.5-5.3-0.5-6.1-2.4c-0.8-1.9,0.7-3.8,3.3-4.3c2.6-0.5,5.3,0.5,6.1,2.4
				C1321.6,121,1320.1,122.9,1317.5,123.5z"/>
			<path class="st1" d="M1324.8,41.7c-2.6,0.5-5.3-0.5-6.1-2.4c-0.8-1.9,0.7-3.8,3.3-4.3c2.6-0.5,5.3,0.5,6.1,2.4
				C1328.9,39.2,1327.4,41.1,1324.8,41.7z"/>
			<path class="st1" d="M1039.9,159.6c-2.6,0.5-5.3-0.5-6.1-2.4c-0.8-1.9,0.7-3.8,3.3-4.3c2.6-0.5,5.3,0.5,6.1,2.4
				C1044,157.1,1042.5,159.1,1039.9,159.6z"/>
			<path class="st1" d="M1324.8,41.7c-2.6,0.5-5.3-0.5-6.1-2.4c-0.8-1.9,0.7-3.8,3.3-4.3c2.6-0.5,5.3,0.5,6.1,2.4
				C1328.9,39.2,1327.4,41.1,1324.8,41.7z"/>
			<path class="st1" d="M1039.9,159.6c-2.6,0.5-5.3-0.5-6.1-2.4c-0.8-1.9,0.7-3.8,3.3-4.3c2.6-0.5,5.3,0.5,6.1,2.4
				C1044,157.1,1042.5,159.1,1039.9,159.6z"/>
			<path class="st1" d="M1324.8,41.7c-2.6,0.5-5.3-0.5-6.1-2.4c-0.8-1.9,0.7-3.8,3.3-4.3c2.6-0.5,5.3,0.5,6.1,2.4
				C1328.9,39.2,1327.4,41.1,1324.8,41.7z"/>
			<path class="st1" d="M1324.8,41.7c-2.6,0.5-5.3-0.5-6.1-2.4c-0.8-1.9,0.7-3.8,3.3-4.3c2.6-0.5,5.3,0.5,6.1,2.4
				C1328.9,39.2,1327.4,41.1,1324.8,41.7z"/>
			<path class="st1" d="M1235.3,85.9c-2.6,0.5-5.3-0.5-6.1-2.4c-0.8-1.9,0.7-3.8,3.3-4.3c2.6-0.5,5.3,0.5,6.1,2.4
				C1239.4,83.4,1237.9,85.4,1235.3,85.9z"/>
			<path class="st1" d="M1317.5,123.5c-2.6,0.5-5.3-0.5-6.1-2.4c-0.8-1.9,0.7-3.8,3.3-4.3c2.6-0.5,5.3,0.5,6.1,2.4
				C1321.6,121,1320.1,122.9,1317.5,123.5z"/>
			<path class="st1" d="M1235.3,85.9c-2.6,0.5-5.3-0.5-6.1-2.4c-0.8-1.9,0.7-3.8,3.3-4.3c2.6-0.5,5.3,0.5,6.1,2.4
				C1239.4,83.4,1237.9,85.4,1235.3,85.9z"/>
			<path class="st1" d="M1039.9,159.6c-2.6,0.5-5.3-0.5-6.1-2.4c-0.8-1.9,0.7-3.8,3.3-4.3c2.6-0.5,5.3,0.5,6.1,2.4
				C1044,157.1,1042.5,159.1,1039.9,159.6z"/>
			<path class="st1" d="M1235.3,85.9c-2.6,0.5-5.3-0.5-6.1-2.4c-0.8-1.9,0.7-3.8,3.3-4.3c2.6-0.5,5.3,0.5,6.1,2.4
				C1239.4,83.4,1237.9,85.4,1235.3,85.9z"/>
			<path class="st1" d="M1039.9,159.6c-2.6,0.5-5.3-0.5-6.1-2.4c-0.8-1.9,0.7-3.8,3.3-4.3c2.6-0.5,5.3,0.5,6.1,2.4
				C1044,157.1,1042.5,159.1,1039.9,159.6z"/>
			<path class="st1" d="M1235.3,85.9c-2.6,0.5-5.3-0.5-6.1-2.4c-0.8-1.9,0.7-3.8,3.3-4.3c2.6-0.5,5.3,0.5,6.1,2.4
				C1239.4,83.4,1237.9,85.4,1235.3,85.9z"/>
			<path class="st1" d="M1039.9,159.6c-2.6,0.5-5.3-0.5-6.1-2.4c-0.8-1.9,0.7-3.8,3.3-4.3c2.6-0.5,5.3,0.5,6.1,2.4
				C1044,157.1,1042.5,159.1,1039.9,159.6z"/>
			<path class="st1" d="M1039.9,159.6c-2.6,0.5-5.3-0.5-6.1-2.4c-0.8-1.9,0.7-3.8,3.3-4.3c2.6-0.5,5.3,0.5,6.1,2.4
				C1044,157.1,1042.5,159.1,1039.9,159.6z"/>
			<path class="st1" d="M785.4,139.8c-2.6,0.5-5.3-0.5-6.1-2.4c-0.8-1.9,0.7-3.8,3.3-4.3c2.6-0.5,5.3,0.5,6.1,2.4
				C789.5,137.3,788,139.3,785.4,139.8z"/>
			<path class="st1" d="M785.4,139.8c-2.6,0.5-5.3-0.5-6.1-2.4c-0.8-1.9,0.7-3.8,3.3-4.3c2.6-0.5,5.3,0.5,6.1,2.4
				C789.5,137.3,788,139.3,785.4,139.8z"/>
			<path class="st1" d="M1235.3,85.9c-2.6,0.5-5.3-0.5-6.1-2.4c-0.8-1.9,0.7-3.8,3.3-4.3c2.6-0.5,5.3,0.5,6.1,2.4
				C1239.4,83.4,1237.9,85.4,1235.3,85.9z"/>
			<path class="st1" d="M785.4,139.8c-2.6,0.5-5.3-0.5-6.1-2.4c-0.8-1.9,0.7-3.8,3.3-4.3c2.6-0.5,5.3,0.5,6.1,2.4
				C789.5,137.3,788,139.3,785.4,139.8z"/>
			<path class="st1" d="M785.4,139.8c-2.6,0.5-5.3-0.5-6.1-2.4c-0.8-1.9,0.7-3.8,3.3-4.3c2.6-0.5,5.3,0.5,6.1,2.4
				C789.5,137.3,788,139.3,785.4,139.8z"/>
			<path class="st1" d="M1039.9,159.6c-2.6,0.5-5.3-0.5-6.1-2.4c-0.8-1.9,0.7-3.8,3.3-4.3c2.6-0.5,5.3,0.5,6.1,2.4
				C1044,157.1,1042.5,159.1,1039.9,159.6z"/>
			<path class="st1" d="M785.4,139.8c-2.6,0.5-5.3-0.5-6.1-2.4c-0.8-1.9,0.7-3.8,3.3-4.3c2.6-0.5,5.3,0.5,6.1,2.4
				C789.5,137.3,788,139.3,785.4,139.8z"/>
			<path class="st1" d="M1039.9,159.6c-2.6,0.5-5.3-0.5-6.1-2.4c-0.8-1.9,0.7-3.8,3.3-4.3c2.6-0.5,5.3,0.5,6.1,2.4
				C1044,157.1,1042.5,159.1,1039.9,159.6z"/>
			<path class="st1" d="M785.4,139.8c-2.6,0.5-5.3-0.5-6.1-2.4c-0.8-1.9,0.7-3.8,3.3-4.3c2.6-0.5,5.3,0.5,6.1,2.4
				C789.5,137.3,788,139.3,785.4,139.8z"/>
			<path class="st1" d="M1235.3,85.9c-2.6,0.5-5.3-0.5-6.1-2.4c-0.8-1.9,0.7-3.8,3.3-4.3c2.6-0.5,5.3,0.5,6.1,2.4
				C1239.4,83.4,1237.9,85.4,1235.3,85.9z"/>
			<path class="st1" d="M1295.8,369c-2.6,0.5-5.3-0.5-6.1-2.4c-0.8-1.9,0.7-3.8,3.3-4.3c2.6-0.5,5.3,0.5,6.1,2.4
				C1299.9,366.5,1298.4,368.4,1295.8,369z"/>
			<path class="st1" d="M1324.8,41.7c-2.6,0.5-5.3-0.5-6.1-2.4c-0.8-1.9,0.7-3.8,3.3-4.3c2.6-0.5,5.3,0.5,6.1,2.4
				C1328.9,39.2,1327.4,41.1,1324.8,41.7z"/>
			<path class="st1" d="M1295.8,369c-2.6,0.5-5.3-0.5-6.1-2.4c-0.8-1.9,0.7-3.8,3.3-4.3c2.6-0.5,5.3,0.5,6.1,2.4
				C1299.9,366.5,1298.4,368.4,1295.8,369z"/>
			<path class="st1" d="M1317.5,123.5c-2.6,0.5-5.3-0.5-6.1-2.4c-0.8-1.9,0.7-3.8,3.3-4.3c2.6-0.5,5.3,0.5,6.1,2.4
				C1321.6,121,1320.1,122.9,1317.5,123.5z"/>
			<path class="st1" d="M1295.8,369c-2.6,0.5-5.3-0.5-6.1-2.4c-0.8-1.9,0.7-3.8,3.3-4.3c2.6-0.5,5.3,0.5,6.1,2.4
				C1299.9,366.5,1298.4,368.4,1295.8,369z"/>
			<path class="st1" d="M1039.9,159.6c-2.6,0.5-5.3-0.5-6.1-2.4c-0.8-1.9,0.7-3.8,3.3-4.3c2.6-0.5,5.3,0.5,6.1,2.4
				C1044,157.1,1042.5,159.1,1039.9,159.6z"/>
			<path class="st1" d="M1295.8,369c-2.6,0.5-5.3-0.5-6.1-2.4c-0.8-1.9,0.7-3.8,3.3-4.3c2.6-0.5,5.3,0.5,6.1,2.4
				C1299.9,366.5,1298.4,368.4,1295.8,369z"/>
			<path class="st1" d="M1039.9,159.6c-2.6,0.5-5.3-0.5-6.1-2.4c-0.8-1.9,0.7-3.8,3.3-4.3c2.6-0.5,5.3,0.5,6.1,2.4
				C1044,157.1,1042.5,159.1,1039.9,159.6z"/>
			<path class="st1" d="M1295.8,369c-2.6,0.5-5.3-0.5-6.1-2.4c-0.8-1.9,0.7-3.8,3.3-4.3c2.6-0.5,5.3,0.5,6.1,2.4
				C1299.9,366.5,1298.4,368.4,1295.8,369z"/>
			<path class="st1" d="M1295.8,369c-2.6,0.5-5.3-0.5-6.1-2.4c-0.8-1.9,0.7-3.8,3.3-4.3c2.6-0.5,5.3,0.5,6.1,2.4
				C1299.9,366.5,1298.4,368.4,1295.8,369z"/>
			<path class="st1" d="M1060.1,407.3c-2.6,0.5-5.3-0.5-6.1-2.4c-0.8-1.9,0.7-3.8,3.3-4.3c2.6-0.5,5.3,0.5,6.1,2.4
				C1064.2,404.8,1062.7,406.7,1060.1,407.3z"/>
			<path class="st1" d="M785.4,139.8c-2.6,0.5-5.3-0.5-6.1-2.4c-0.8-1.9,0.7-3.8,3.3-4.3c2.6-0.5,5.3,0.5,6.1,2.4
				C789.5,137.3,788,139.3,785.4,139.8z"/>
			<path class="st1" d="M1060.1,407.3c-2.6,0.5-5.3-0.5-6.1-2.4c-0.8-1.9,0.7-3.8,3.3-4.3c2.6-0.5,5.3,0.5,6.1,2.4
				C1064.2,404.8,1062.7,406.7,1060.1,407.3z"/>
			<path class="st1" d="M1060.1,407.3c-2.6,0.5-5.3-0.5-6.1-2.4c-0.8-1.9,0.7-3.8,3.3-4.3c2.6-0.5,5.3,0.5,6.1,2.4
				C1064.2,404.8,1062.7,406.7,1060.1,407.3z"/>
			<path class="st1" d="M1235.3,85.9c-2.6,0.5-5.3-0.5-6.1-2.4c-0.8-1.9,0.7-3.8,3.3-4.3c2.6-0.5,5.3,0.5,6.1,2.4
				C1239.4,83.4,1237.9,85.4,1235.3,85.9z"/>
			<path class="st1" d="M1060.1,407.3c-2.6,0.5-5.3-0.5-6.1-2.4c-0.8-1.9,0.7-3.8,3.3-4.3c2.6-0.5,5.3,0.5,6.1,2.4
				C1064.2,404.8,1062.7,406.7,1060.1,407.3z"/>
			<path class="st1" d="M1317.5,123.5c-2.6,0.5-5.3-0.5-6.1-2.4c-0.8-1.9,0.7-3.8,3.3-4.3c2.6-0.5,5.3,0.5,6.1,2.4
				C1321.6,121,1320.1,122.9,1317.5,123.5z"/>
			<path class="st1" d="M1060.1,407.3c-2.6,0.5-5.3-0.5-6.1-2.4c-0.8-1.9,0.7-3.8,3.3-4.3c2.6-0.5,5.3,0.5,6.1,2.4
				C1064.2,404.8,1062.7,406.7,1060.1,407.3z"/>
			<path class="st1" d="M1039.9,159.6c-2.6,0.5-5.3-0.5-6.1-2.4c-0.8-1.9,0.7-3.8,3.3-4.3c2.6-0.5,5.3,0.5,6.1,2.4
				C1044,157.1,1042.5,159.1,1039.9,159.6z"/>
			<path class="st1" d="M1060.1,407.3c-2.6,0.5-5.3-0.5-6.1-2.4c-0.8-1.9,0.7-3.8,3.3-4.3c2.6-0.5,5.3,0.5,6.1,2.4
				C1064.2,404.8,1062.7,406.7,1060.1,407.3z"/>
			<path class="st1" d="M1039.9,159.6c-2.6,0.5-5.3-0.5-6.1-2.4c-0.8-1.9,0.7-3.8,3.3-4.3c2.6-0.5,5.3,0.5,6.1,2.4
				C1044,157.1,1042.5,159.1,1039.9,159.6z"/>
			<path class="st1" d="M1060.1,407.3c-2.6,0.5-5.3-0.5-6.1-2.4c-0.8-1.9,0.7-3.8,3.3-4.3c2.6-0.5,5.3,0.5,6.1,2.4
				C1064.2,404.8,1062.7,406.7,1060.1,407.3z"/>
			<path class="st1" d="M1565.4,27.9c-2.6,0.5-5.3-0.5-6.1-2.4c-0.8-1.9,0.7-3.8,3.3-4.3c2.6-0.5,5.3,0.5,6.1,2.4
				C1569.5,25.4,1568,27.3,1565.4,27.9z"/>
			<path class="st1" d="M1235.3,85.9c-2.6,0.5-5.3-0.5-6.1-2.4c-0.8-1.9,0.7-3.8,3.3-4.3c2.6-0.5,5.3,0.5,6.1,2.4
				C1239.4,83.4,1237.9,85.4,1235.3,85.9z"/>
			<path class="st1" d="M1565.4,27.9c-2.6,0.5-5.3-0.5-6.1-2.4c-0.8-1.9,0.7-3.8,3.3-4.3c2.6-0.5,5.3,0.5,6.1,2.4
				C1569.5,25.4,1568,27.3,1565.4,27.9z"/>
			<path class="st1" d="M1324.8,41.7c-2.6,0.5-5.3-0.5-6.1-2.4c-0.8-1.9,0.7-3.8,3.3-4.3c2.6-0.5,5.3,0.5,6.1,2.4
				C1328.9,39.2,1327.4,41.1,1324.8,41.7z"/>
			<path class="st1" d="M1565.4,27.9c-2.6,0.5-5.3-0.5-6.1-2.4c-0.8-1.9,0.7-3.8,3.3-4.3c2.6-0.5,5.3,0.5,6.1,2.4
				C1569.5,25.4,1568,27.3,1565.4,27.9z"/>
			<path class="st1" d="M1317.5,123.5c-2.6,0.5-5.3-0.5-6.1-2.4c-0.8-1.9,0.7-3.8,3.3-4.3c2.6-0.5,5.3,0.5,6.1,2.4
				C1321.6,121,1320.1,122.9,1317.5,123.5z"/>
			<path class="st1" d="M1565.4,27.9c-2.6,0.5-5.3-0.5-6.1-2.4c-0.8-1.9,0.7-3.8,3.3-4.3c2.6-0.5,5.3,0.5,6.1,2.4
				C1569.5,25.4,1568,27.3,1565.4,27.9z"/>
			<path class="st1" d="M1295.8,369c-2.6,0.5-5.3-0.5-6.1-2.4c-0.8-1.9,0.7-3.8,3.3-4.3c2.6-0.5,5.3,0.5,6.1,2.4
				C1299.9,366.5,1298.4,368.4,1295.8,369z"/>
			<path class="st1" d="M1560,412.3c-2.6,0.5-5.3-0.5-6.1-2.4c-0.8-1.9,0.7-3.8,3.3-4.3c2.6-0.5,5.3,0.5,6.1,2.4
				C1564.1,409.8,1562.6,411.8,1560,412.3z"/>
			<path class="st1" d="M1317.5,123.5c-2.6,0.5-5.3-0.5-6.1-2.4c-0.8-1.9,0.7-3.8,3.3-4.3c2.6-0.5,5.3,0.5,6.1,2.4
				C1321.6,121,1320.1,122.9,1317.5,123.5z"/>
			<path class="st1" d="M1560,412.3c-2.6,0.5-5.3-0.5-6.1-2.4c-0.8-1.9,0.7-3.8,3.3-4.3c2.6-0.5,5.3,0.5,6.1,2.4
				C1564.1,409.8,1562.6,411.8,1560,412.3z"/>
			<path class="st1" d="M1560,412.3c-2.6,0.5-5.3-0.5-6.1-2.4c-0.8-1.9,0.7-3.8,3.3-4.3c2.6-0.5,5.3,0.5,6.1,2.4
				C1564.1,409.8,1562.6,411.8,1560,412.3z"/>
			<path class="st1" d="M1649,255c-2.6,0.5-5.3-0.5-6.1-2.4c-0.8-1.9,0.7-3.8,3.3-4.4c2.6-0.5,5.3,0.5,6.1,2.4
				C1653.1,252.5,1651.6,254.5,1649,255z"/>
			<path class="st1" d="M1565.4,27.9c-2.6,0.5-5.3-0.5-6.1-2.4c-0.8-1.9,0.7-3.8,3.3-4.3c2.6-0.5,5.3,0.5,6.1,2.4
				C1569.5,25.4,1568,27.3,1565.4,27.9z"/>
			<path class="st1" d="M1649,255c-2.6,0.5-5.3-0.5-6.1-2.4c-0.8-1.9,0.7-3.8,3.3-4.4c2.6-0.5,5.3,0.5,6.1,2.4
				C1653.1,252.5,1651.6,254.5,1649,255z"/>
			<path class="st1" d="M1649,255c-2.6,0.5-5.3-0.5-6.1-2.4c-0.8-1.9,0.7-3.8,3.3-4.4c2.6-0.5,5.3,0.5,6.1,2.4
				C1653.1,252.5,1651.6,254.5,1649,255z"/>
			<path class="st1" d="M1295.8,369c-2.6,0.5-5.3-0.5-6.1-2.4c-0.8-1.9,0.7-3.8,3.3-4.3c2.6-0.5,5.3,0.5,6.1,2.4
				C1299.9,366.5,1298.4,368.4,1295.8,369z"/>
			<path class="st1" d="M1649,255c-2.6,0.5-5.3-0.5-6.1-2.4c-0.8-1.9,0.7-3.8,3.3-4.4c2.6-0.5,5.3,0.5,6.1,2.4
				C1653.1,252.5,1651.6,254.5,1649,255z"/>
			<path class="st1" d="M1235.3,85.9c-2.6,0.5-5.3-0.5-6.1-2.4c-0.8-1.9,0.7-3.8,3.3-4.3c2.6-0.5,5.3,0.5,6.1,2.4
				C1239.4,83.4,1237.9,85.4,1235.3,85.9z"/>
			<path class="st1" d="M1649,255c-2.6,0.5-5.3-0.5-6.1-2.4c-0.8-1.9,0.7-3.8,3.3-4.4c2.6-0.5,5.3,0.5,6.1,2.4
				C1653.1,252.5,1651.6,254.5,1649,255z"/>
			<path class="st1" d="M1324.8,41.7c-2.6,0.5-5.3-0.5-6.1-2.4c-0.8-1.9,0.7-3.8,3.3-4.3c2.6-0.5,5.3,0.5,6.1,2.4
				C1328.9,39.2,1327.4,41.1,1324.8,41.7z"/>
			<path class="st1" d="M1649,255c-2.6,0.5-5.3-0.5-6.1-2.4c-0.8-1.9,0.7-3.8,3.3-4.4c2.6-0.5,5.3,0.5,6.1,2.4
				C1653.1,252.5,1651.6,254.5,1649,255z"/>
			<path class="st1" d="M1317.5,123.5c-2.6,0.5-5.3-0.5-6.1-2.4c-0.8-1.9,0.7-3.8,3.3-4.3c2.6-0.5,5.3,0.5,6.1,2.4
				C1321.6,121,1320.1,122.9,1317.5,123.5z"/>
			<path class="st1" d="M1649,255c-2.6,0.5-5.3-0.5-6.1-2.4c-0.8-1.9,0.7-3.8,3.3-4.4c2.6-0.5,5.3,0.5,6.1,2.4
				C1653.1,252.5,1651.6,254.5,1649,255z"/>
			<path class="st1" d="M1649,255c-2.6,0.5-5.3-0.5-6.1-2.4c-0.8-1.9,0.7-3.8,3.3-4.4c2.6-0.5,5.3,0.5,6.1,2.4
				C1653.1,252.5,1651.6,254.5,1649,255z"/>
			<path class="st1" d="M1740.1,425.8c-2.6,0.5-5.3-0.5-6.1-2.4c-0.8-1.9,0.7-3.8,3.3-4.3c2.6-0.5,5.3,0.5,6.1,2.4
				C1744.2,423.3,1742.7,425.2,1740.1,425.8z"/>
			<path class="st1" d="M1649,255c-2.6,0.5-5.3-0.5-6.1-2.4c-0.8-1.9,0.7-3.8,3.3-4.4c2.6-0.5,5.3,0.5,6.1,2.4
				C1653.1,252.5,1651.6,254.5,1649,255z"/>
			<path class="st1" d="M1740.1,425.8c-2.6,0.5-5.3-0.5-6.1-2.4c-0.8-1.9,0.7-3.8,3.3-4.3c2.6-0.5,5.3,0.5,6.1,2.4
				C1744.2,423.3,1742.7,425.2,1740.1,425.8z"/>
			<path class="st1" d="M1560,412.3c-2.6,0.5-5.3-0.5-6.1-2.4c-0.8-1.9,0.7-3.8,3.3-4.3c2.6-0.5,5.3,0.5,6.1,2.4
				C1564.1,409.8,1562.6,411.8,1560,412.3z"/>
			<path class="st1" d="M1740.1,425.8c-2.6,0.5-5.3-0.5-6.1-2.4c-0.8-1.9,0.7-3.8,3.3-4.3c2.6-0.5,5.3,0.5,6.1,2.4
				C1744.2,423.3,1742.7,425.2,1740.1,425.8z"/>
			<path class="st1" d="M1740.1,425.8c-2.6,0.5-5.3-0.5-6.1-2.4c-0.8-1.9,0.7-3.8,3.3-4.3c2.6-0.5,5.3,0.5,6.1,2.4
				C1744.2,423.3,1742.7,425.2,1740.1,425.8z"/>
			<path class="st1" d="M1295.8,369c-2.6,0.5-5.3-0.5-6.1-2.4c-0.8-1.9,0.7-3.8,3.3-4.3c2.6-0.5,5.3,0.5,6.1,2.4
				C1299.9,366.5,1298.4,368.4,1295.8,369z"/>
			<path class="st1" d="M1740.1,425.8c-2.6,0.5-5.3-0.5-6.1-2.4c-0.8-1.9,0.7-3.8,3.3-4.3c2.6-0.5,5.3,0.5,6.1,2.4
				C1744.2,423.3,1742.7,425.2,1740.1,425.8z"/>
		</g>
	</g>
	<g>
		<g>
			<g>
				<g>
					<polygon class="st1" points="1038.6,156.6 1038.4,155.9 1316.1,119.8 1316.2,120.5 					"/>
				</g>
				<g>
					<polygon class="st1" points="1038.6,156.6 1038.4,155.9 1316.1,119.8 1316.2,120.5 					"/>
				</g>
			</g>
			<g>
				<g>
					<polygon class="st1" points="1316.6,120.1 1315.7,120.1 1322.9,38.3 1323.9,38.3 					"/>
				</g>
				<g>
					<polygon class="st1" points="1038.8,156.5 1038.3,156 1323.2,38 1323.6,38.6 					"/>
				</g>
				<g>
					<polygon class="st1" points="1038.8,156.5 1038.3,156 1323.2,38 1323.6,38.6 					"/>
				</g>
			</g>
			<g>
				<g>
					<polygon class="st1" points="1234.2,82.8 1233.6,82.3 1323.1,38 1323.7,38.6 					"/>
				</g>
				<g>
					<polygon class="st1" points="1315.9,120.4 1233.6,82.8 1234.1,82.3 1316.4,119.8 					"/>
				</g>
				<g>
					<polygon class="st1" points="1038.7,156.5 1038.3,156 1233.7,82.3 1234.1,82.9 					"/>
				</g>
				<g>
					<polygon class="st1" points="1038.7,156.5 1038.3,156 1233.7,82.3 1234.1,82.9 					"/>
				</g>
			</g>
			<g>
				<g>
					<polygon class="st1" points="741.8,357.2 1038.8,156.5 1038.2,156 741.8,356.3 					"/>
				</g>
				<g>
					<polygon class="st1" points="741.8,357.2 1038.8,156.5 1038.2,156 741.8,356.3 					"/>
				</g>
			</g>
			<g>
				<g>
					<polygon class="st1" points="741.8,305.5 784.4,136.5 783.5,136.4 741.8,301.7 					"/>
				</g>
				<g>
					<polygon class="st1" points="741.8,131.3 741.8,132 783.9,136.8 784.1,136.1 					"/>
				</g>
				<g>
					<polygon class="st1" points="784.1,136.8 783.9,136.1 1233.8,82.2 1234,82.9 					"/>
				</g>
				<g>
					<polygon class="st1" points="741.8,156.4 784.2,136.7 783.7,136.2 741.8,155.6 					"/>
				</g>
				<g>
					<polygon class="st1" points="1038.5,156.6 783.9,136.8 784,136.1 1038.6,155.9 					"/>
				</g>
				<g>
					<polygon class="st1" points="1038.5,156.6 783.9,136.8 784,136.1 1038.6,155.9 					"/>
				</g>
			</g>
			<g>
				<g>
					<polygon class="st1" points="1293.9,365.7 1233.4,82.6 1234.4,82.5 1294.8,365.6 					"/>
				</g>
				<g>
					<polygon class="st1" points="1294.8,365.6 1293.9,365.6 1322.9,38.3 1323.9,38.3 					"/>
				</g>
				<g>
					<polygon class="st1" points="1294.8,365.6 1293.9,365.6 1315.7,120.1 1316.6,120.1 					"/>
				</g>
				<g>
					<polygon class="st1" points="1294,365.8 1038.2,156.5 1038.9,156 1294.7,365.4 					"/>
				</g>
				<g>
					<polygon class="st1" points="1294,365.8 1038.2,156.5 1038.9,156 1294.7,365.4 					"/>
				</g>
			</g>
			<g>
				<g>
					<polygon class="st1" points="1058.8,404.3 1058.6,403.6 1294.3,365.3 1294.5,366 					"/>
				</g>
				<g>
					<polygon class="st1" points="1058.3,404.1 783.6,136.6 784.4,136.2 1059.1,403.7 					"/>
				</g>
				<g>
					<polygon class="st1" points="741.8,369.1 741.8,369.8 1058.6,404.3 1058.8,403.6 					"/>
				</g>
				<g>
					<polygon class="st1" points="1059.2,404.1 1058.3,403.8 1233.5,82.4 1234.3,82.7 					"/>
				</g>
				<g>
					<polygon class="st1" points="1059.1,404.1 1058.3,403.7 1315.7,119.9 1316.5,120.3 					"/>
				</g>
				<g>
					<polygon class="st1" points="1058.2,404 1038,156.3 1039,156.2 1059.2,403.9 					"/>
				</g>
				<g>
					<polygon class="st1" points="1058.2,404 1038,156.3 1039,156.2 1059.2,403.9 					"/>
				</g>
			</g>
			<g>
				<g>
					<polygon class="st1" points="1917.9,159.1 1564.3,24.2 1563.8,24.8 1917.9,159.8 					"/>
				</g>
				<g>
					<polygon class="st1" points="1234,82.9 1233.8,82.2 1563.9,24.2 1564.2,24.8 					"/>
				</g>
				<g>
					<polygon class="st1" points="1323.4,38.6 1323.3,38 1564,24.2 1564.1,24.8 					"/>
				</g>
				<g>
					<polygon class="st1" points="1316.4,120.4 1315.9,119.8 1563.8,24.2 1564.3,24.8 					"/>
				</g>
			</g>
			<g>
				<g>
					<polygon class="st1" points="1558.5,409.3 1294.3,366 1294.5,365.3 1558.7,408.6 					"/>
				</g>
				<g>
					<polygon class="st1" points="1558.2,409.1 1315.7,120.3 1316.5,120 1559,408.8 					"/>
				</g>
			</g>
			<g>
				<g>
					<polygon class="st1" points="1559.1,409.1 1558.2,408.8 1647.2,251.5 1648,251.8 					"/>
				</g>
				<g>
					<polygon class="st1" points="1647.1,251.7 1563.6,24.6 1564.5,24.4 1648.1,251.6 					"/>
				</g>
				<g>
					<polygon class="st1" points="1917.9,191.7 1647.5,251.3 1647.7,252 1917.9,192.4 					"/>
				</g>
				<g>
					<polygon class="st1" points="1294.6,365.9 1294.2,365.3 1647.4,251.3 1647.8,251.9 					"/>
				</g>
				<g>
					<polygon class="st1" points="1647.4,251.9 1233.7,82.8 1234.1,82.3 1647.8,251.3 					"/>
				</g>
				<g>
					<polygon class="st1" points="1647.3,251.9 1323.1,38.5 1323.7,38.1 1647.9,251.4 					"/>
				</g>
				<g>
					<polygon class="st1" points="1647.4,251.9 1315.9,120.4 1316.4,119.8 1647.8,251.3 					"/>
				</g>
			</g>
			<g>
				<g>
					<polygon class="st1" points="1917.9,301.7 1647.7,251.3 1647.5,252 1917.9,302.4 					"/>
				</g>
			</g>
			<g>
				<g>
					<polygon class="st1" points="1917.9,381.1 1738.5,422.1 1738.8,422.8 1917.9,381.8 					"/>
				</g>
				<g>
					<polygon class="st1" points="1738.2,422.6 1647.2,251.8 1648,251.5 1739.1,422.3 					"/>
				</g>
				<g>
					<polygon class="st1" points="1738.6,422.8 1558.6,409.3 1558.7,408.6 1738.7,422.1 					"/>
				</g>
				<g>
					<polygon class="st1" points="1917.9,235.9 1738.3,422.2 1739.1,422.6 1917.9,237.1 					"/>
				</g>
				<g>
					<polygon class="st1" points="1738.6,422.8 1294.3,366 1294.5,365.3 1738.8,422.1 					"/>
				</g>
			</g>
		</g>
		<g>
			<path class="st1" d="M1039.9,159.6c-2.6,0.5-5.3-0.5-6.1-2.4c-0.8-1.9,0.7-3.8,3.3-4.3c2.6-0.5,5.3,0.5,6.1,2.4
				C1044,157.1,1042.5,159.1,1039.9,159.6z"/>
			<path class="st1" d="M1317.5,123.5c-2.6,0.5-5.3-0.5-6.1-2.4c-0.8-1.9,0.7-3.8,3.3-4.3c2.6-0.5,5.3,0.5,6.1,2.4
				C1321.6,121,1320.1,122.9,1317.5,123.5z"/>
			<path class="st1" d="M1039.9,159.6c-2.6,0.5-5.3-0.5-6.1-2.4c-0.8-1.9,0.7-3.8,3.3-4.3c2.6-0.5,5.3,0.5,6.1,2.4
				C1044,157.1,1042.5,159.1,1039.9,159.6z"/>
			<path class="st1" d="M1317.5,123.5c-2.6,0.5-5.3-0.5-6.1-2.4c-0.8-1.9,0.7-3.8,3.3-4.3c2.6-0.5,5.3,0.5,6.1,2.4
				C1321.6,121,1320.1,122.9,1317.5,123.5z"/>
			<path class="st1" d="M1317.5,123.5c-2.6,0.5-5.3-0.5-6.1-2.4c-0.8-1.9,0.7-3.8,3.3-4.3c2.6-0.5,5.3,0.5,6.1,2.4
				C1321.6,121,1320.1,122.9,1317.5,123.5z"/>
			<path class="st1" d="M1324.8,41.7c-2.6,0.5-5.3-0.5-6.1-2.4c-0.8-1.9,0.7-3.8,3.3-4.3c2.6-0.5,5.3,0.5,6.1,2.4
				C1328.9,39.2,1327.4,41.1,1324.8,41.7z"/>
			<path class="st1" d="M1039.9,159.6c-2.6,0.5-5.3-0.5-6.1-2.4c-0.8-1.9,0.7-3.8,3.3-4.3c2.6-0.5,5.3,0.5,6.1,2.4
				C1044,157.1,1042.5,159.1,1039.9,159.6z"/>
			<path class="st1" d="M1324.8,41.7c-2.6,0.5-5.3-0.5-6.1-2.4c-0.8-1.9,0.7-3.8,3.3-4.3c2.6-0.5,5.3,0.5,6.1,2.4
				C1328.9,39.2,1327.4,41.1,1324.8,41.7z"/>
			<path class="st1" d="M1039.9,159.6c-2.6,0.5-5.3-0.5-6.1-2.4c-0.8-1.9,0.7-3.8,3.3-4.3c2.6-0.5,5.3,0.5,6.1,2.4
				C1044,157.1,1042.5,159.1,1039.9,159.6z"/>
			<path class="st1" d="M1324.8,41.7c-2.6,0.5-5.3-0.5-6.1-2.4c-0.8-1.9,0.7-3.8,3.3-4.3c2.6-0.5,5.3,0.5,6.1,2.4
				C1328.9,39.2,1327.4,41.1,1324.8,41.7z"/>
			<path class="st1" d="M1324.8,41.7c-2.6,0.5-5.3-0.5-6.1-2.4c-0.8-1.9,0.7-3.8,3.3-4.3c2.6-0.5,5.3,0.5,6.1,2.4
				C1328.9,39.2,1327.4,41.1,1324.8,41.7z"/>
			<path class="st1" d="M1235.3,85.9c-2.6,0.5-5.3-0.5-6.1-2.4c-0.8-1.9,0.7-3.8,3.3-4.3c2.6-0.5,5.3,0.5,6.1,2.4
				C1239.4,83.4,1237.9,85.4,1235.3,85.9z"/>
			<path class="st1" d="M1317.5,123.5c-2.6,0.5-5.3-0.5-6.1-2.4c-0.8-1.9,0.7-3.8,3.3-4.3c2.6-0.5,5.3,0.5,6.1,2.4
				C1321.6,121,1320.1,122.9,1317.5,123.5z"/>
			<path class="st1" d="M1235.3,85.9c-2.6,0.5-5.3-0.5-6.1-2.4c-0.8-1.9,0.7-3.8,3.3-4.3c2.6-0.5,5.3,0.5,6.1,2.4
				C1239.4,83.4,1237.9,85.4,1235.3,85.9z"/>
			<path class="st1" d="M1039.9,159.6c-2.6,0.5-5.3-0.5-6.1-2.4c-0.8-1.9,0.7-3.8,3.3-4.3c2.6-0.5,5.3,0.5,6.1,2.4
				C1044,157.1,1042.5,159.1,1039.9,159.6z"/>
			<path class="st1" d="M1235.3,85.9c-2.6,0.5-5.3-0.5-6.1-2.4c-0.8-1.9,0.7-3.8,3.3-4.3c2.6-0.5,5.3,0.5,6.1,2.4
				C1239.4,83.4,1237.9,85.4,1235.3,85.9z"/>
			<path class="st1" d="M1039.9,159.6c-2.6,0.5-5.3-0.5-6.1-2.4c-0.8-1.9,0.7-3.8,3.3-4.3c2.6-0.5,5.3,0.5,6.1,2.4
				C1044,157.1,1042.5,159.1,1039.9,159.6z"/>
			<path class="st1" d="M1235.3,85.9c-2.6,0.5-5.3-0.5-6.1-2.4c-0.8-1.9,0.7-3.8,3.3-4.3c2.6-0.5,5.3,0.5,6.1,2.4
				C1239.4,83.4,1237.9,85.4,1235.3,85.9z"/>
			<path class="st1" d="M1039.9,159.6c-2.6,0.5-5.3-0.5-6.1-2.4c-0.8-1.9,0.7-3.8,3.3-4.3c2.6-0.5,5.3,0.5,6.1,2.4
				C1044,157.1,1042.5,159.1,1039.9,159.6z"/>
			<path class="st1" d="M1039.9,159.6c-2.6,0.5-5.3-0.5-6.1-2.4c-0.8-1.9,0.7-3.8,3.3-4.3c2.6-0.5,5.3,0.5,6.1,2.4
				C1044,157.1,1042.5,159.1,1039.9,159.6z"/>
			<path class="st1" d="M785.4,139.8c-2.6,0.5-5.3-0.5-6.1-2.4c-0.8-1.9,0.7-3.8,3.3-4.3c2.6-0.5,5.3,0.5,6.1,2.4
				C789.5,137.3,788,139.3,785.4,139.8z"/>
			<path class="st1" d="M785.4,139.8c-2.6,0.5-5.3-0.5-6.1-2.4c-0.8-1.9,0.7-3.8,3.3-4.3c2.6-0.5,5.3,0.5,6.1,2.4
				C789.5,137.3,788,139.3,785.4,139.8z"/>
			<path class="st1" d="M1235.3,85.9c-2.6,0.5-5.3-0.5-6.1-2.4c-0.8-1.9,0.7-3.8,3.3-4.3c2.6-0.5,5.3,0.5,6.1,2.4
				C1239.4,83.4,1237.9,85.4,1235.3,85.9z"/>
			<path class="st1" d="M785.4,139.8c-2.6,0.5-5.3-0.5-6.1-2.4c-0.8-1.9,0.7-3.8,3.3-4.3c2.6-0.5,5.3,0.5,6.1,2.4
				C789.5,137.3,788,139.3,785.4,139.8z"/>
			<path class="st1" d="M785.4,139.8c-2.6,0.5-5.3-0.5-6.1-2.4c-0.8-1.9,0.7-3.8,3.3-4.3c2.6-0.5,5.3,0.5,6.1,2.4
				C789.5,137.3,788,139.3,785.4,139.8z"/>
			<path class="st1" d="M1039.9,159.6c-2.6,0.5-5.3-0.5-6.1-2.4c-0.8-1.9,0.7-3.8,3.3-4.3c2.6-0.5,5.3,0.5,6.1,2.4
				C1044,157.1,1042.5,159.1,1039.9,159.6z"/>
			<path class="st1" d="M785.4,139.8c-2.6,0.5-5.3-0.5-6.1-2.4c-0.8-1.9,0.7-3.8,3.3-4.3c2.6-0.5,5.3,0.5,6.1,2.4
				C789.5,137.3,788,139.3,785.4,139.8z"/>
			<path class="st1" d="M1039.9,159.6c-2.6,0.5-5.3-0.5-6.1-2.4c-0.8-1.9,0.7-3.8,3.3-4.3c2.6-0.5,5.3,0.5,6.1,2.4
				C1044,157.1,1042.5,159.1,1039.9,159.6z"/>
			<path class="st1" d="M785.4,139.8c-2.6,0.5-5.3-0.5-6.1-2.4c-0.8-1.9,0.7-3.8,3.3-4.3c2.6-0.5,5.3,0.5,6.1,2.4
				C789.5,137.3,788,139.3,785.4,139.8z"/>
			<path class="st1" d="M1235.3,85.9c-2.6,0.5-5.3-0.5-6.1-2.4c-0.8-1.9,0.7-3.8,3.3-4.3c2.6-0.5,5.3,0.5,6.1,2.4
				C1239.4,83.4,1237.9,85.4,1235.3,85.9z"/>
			<path class="st1" d="M1295.8,369c-2.6,0.5-5.3-0.5-6.1-2.4c-0.8-1.9,0.7-3.8,3.3-4.3c2.6-0.5,5.3,0.5,6.1,2.4
				C1299.9,366.5,1298.4,368.4,1295.8,369z"/>
			<path class="st1" d="M1324.8,41.7c-2.6,0.5-5.3-0.5-6.1-2.4c-0.8-1.9,0.7-3.8,3.3-4.3c2.6-0.5,5.3,0.5,6.1,2.4
				C1328.9,39.2,1327.4,41.1,1324.8,41.7z"/>
			<path class="st1" d="M1295.8,369c-2.6,0.5-5.3-0.5-6.1-2.4c-0.8-1.9,0.7-3.8,3.3-4.3c2.6-0.5,5.3,0.5,6.1,2.4
				C1299.9,366.5,1298.4,368.4,1295.8,369z"/>
			<path class="st1" d="M1317.5,123.5c-2.6,0.5-5.3-0.5-6.1-2.4c-0.8-1.9,0.7-3.8,3.3-4.3c2.6-0.5,5.3,0.5,6.1,2.4
				C1321.6,121,1320.1,122.9,1317.5,123.5z"/>
			<path class="st1" d="M1295.8,369c-2.6,0.5-5.3-0.5-6.1-2.4c-0.8-1.9,0.7-3.8,3.3-4.3c2.6-0.5,5.3,0.5,6.1,2.4
				C1299.9,366.5,1298.4,368.4,1295.8,369z"/>
			<path class="st1" d="M1039.9,159.6c-2.6,0.5-5.3-0.5-6.1-2.4c-0.8-1.9,0.7-3.8,3.3-4.3c2.6-0.5,5.3,0.5,6.1,2.4
				C1044,157.1,1042.5,159.1,1039.9,159.6z"/>
			<path class="st1" d="M1295.8,369c-2.6,0.5-5.3-0.5-6.1-2.4c-0.8-1.9,0.7-3.8,3.3-4.3c2.6-0.5,5.3,0.5,6.1,2.4
				C1299.9,366.5,1298.4,368.4,1295.8,369z"/>
			<path class="st1" d="M1039.9,159.6c-2.6,0.5-5.3-0.5-6.1-2.4c-0.8-1.9,0.7-3.8,3.3-4.3c2.6-0.5,5.3,0.5,6.1,2.4
				C1044,157.1,1042.5,159.1,1039.9,159.6z"/>
			<path class="st1" d="M1295.8,369c-2.6,0.5-5.3-0.5-6.1-2.4c-0.8-1.9,0.7-3.8,3.3-4.3c2.6-0.5,5.3,0.5,6.1,2.4
				C1299.9,366.5,1298.4,368.4,1295.8,369z"/>
			<path class="st1" d="M1295.8,369c-2.6,0.5-5.3-0.5-6.1-2.4c-0.8-1.9,0.7-3.8,3.3-4.3c2.6-0.5,5.3,0.5,6.1,2.4
				C1299.9,366.5,1298.4,368.4,1295.8,369z"/>
			<path class="st1" d="M1060.1,407.3c-2.6,0.5-5.3-0.5-6.1-2.4c-0.8-1.9,0.7-3.8,3.3-4.3c2.6-0.5,5.3,0.5,6.1,2.4
				C1064.2,404.8,1062.7,406.7,1060.1,407.3z"/>
			<path class="st1" d="M785.4,139.8c-2.6,0.5-5.3-0.5-6.1-2.4c-0.8-1.9,0.7-3.8,3.3-4.3c2.6-0.5,5.3,0.5,6.1,2.4
				C789.5,137.3,788,139.3,785.4,139.8z"/>
			<path class="st1" d="M1060.1,407.3c-2.6,0.5-5.3-0.5-6.1-2.4c-0.8-1.9,0.7-3.8,3.3-4.3c2.6-0.5,5.3,0.5,6.1,2.4
				C1064.2,404.8,1062.7,406.7,1060.1,407.3z"/>
			<path class="st1" d="M1060.1,407.3c-2.6,0.5-5.3-0.5-6.1-2.4c-0.8-1.9,0.7-3.8,3.3-4.3c2.6-0.5,5.3,0.5,6.1,2.4
				C1064.2,404.8,1062.7,406.7,1060.1,407.3z"/>
			<path class="st1" d="M1235.3,85.9c-2.6,0.5-5.3-0.5-6.1-2.4c-0.8-1.9,0.7-3.8,3.3-4.3c2.6-0.5,5.3,0.5,6.1,2.4
				C1239.4,83.4,1237.9,85.4,1235.3,85.9z"/>
			<path class="st1" d="M1060.1,407.3c-2.6,0.5-5.3-0.5-6.1-2.4c-0.8-1.9,0.7-3.8,3.3-4.3c2.6-0.5,5.3,0.5,6.1,2.4
				C1064.2,404.8,1062.7,406.7,1060.1,407.3z"/>
			<path class="st1" d="M1317.5,123.5c-2.6,0.5-5.3-0.5-6.1-2.4c-0.8-1.9,0.7-3.8,3.3-4.3c2.6-0.5,5.3,0.5,6.1,2.4
				C1321.6,121,1320.1,122.9,1317.5,123.5z"/>
			<path class="st1" d="M1060.1,407.3c-2.6,0.5-5.3-0.5-6.1-2.4c-0.8-1.9,0.7-3.8,3.3-4.3c2.6-0.5,5.3,0.5,6.1,2.4
				C1064.2,404.8,1062.7,406.7,1060.1,407.3z"/>
			<path class="st1" d="M1039.9,159.6c-2.6,0.5-5.3-0.5-6.1-2.4c-0.8-1.9,0.7-3.8,3.3-4.3c2.6-0.5,5.3,0.5,6.1,2.4
				C1044,157.1,1042.5,159.1,1039.9,159.6z"/>
			<path class="st1" d="M1060.1,407.3c-2.6,0.5-5.3-0.5-6.1-2.4c-0.8-1.9,0.7-3.8,3.3-4.3c2.6-0.5,5.3,0.5,6.1,2.4
				C1064.2,404.8,1062.7,406.7,1060.1,407.3z"/>
			<path class="st1" d="M1039.9,159.6c-2.6,0.5-5.3-0.5-6.1-2.4c-0.8-1.9,0.7-3.8,3.3-4.3c2.6-0.5,5.3,0.5,6.1,2.4
				C1044,157.1,1042.5,159.1,1039.9,159.6z"/>
			<path class="st1" d="M1060.1,407.3c-2.6,0.5-5.3-0.5-6.1-2.4c-0.8-1.9,0.7-3.8,3.3-4.3c2.6-0.5,5.3,0.5,6.1,2.4
				C1064.2,404.8,1062.7,406.7,1060.1,407.3z"/>
			<path class="st1" d="M1565.4,27.9c-2.6,0.5-5.3-0.5-6.1-2.4c-0.8-1.9,0.7-3.8,3.3-4.3c2.6-0.5,5.3,0.5,6.1,2.4
				C1569.5,25.4,1568,27.3,1565.4,27.9z"/>
			<path class="st1" d="M1235.3,85.9c-2.6,0.5-5.3-0.5-6.1-2.4c-0.8-1.9,0.7-3.8,3.3-4.3c2.6-0.5,5.3,0.5,6.1,2.4
				C1239.4,83.4,1237.9,85.4,1235.3,85.9z"/>
			<path class="st1" d="M1565.4,27.9c-2.6,0.5-5.3-0.5-6.1-2.4c-0.8-1.9,0.7-3.8,3.3-4.3c2.6-0.5,5.3,0.5,6.1,2.4
				C1569.5,25.4,1568,27.3,1565.4,27.9z"/>
			<path class="st1" d="M1324.8,41.7c-2.6,0.5-5.3-0.5-6.1-2.4c-0.8-1.9,0.7-3.8,3.3-4.3c2.6-0.5,5.3,0.5,6.1,2.4
				C1328.9,39.2,1327.4,41.1,1324.8,41.7z"/>
			<path class="st1" d="M1565.4,27.9c-2.6,0.5-5.3-0.5-6.1-2.4c-0.8-1.9,0.7-3.8,3.3-4.3c2.6-0.5,5.3,0.5,6.1,2.4
				C1569.5,25.4,1568,27.3,1565.4,27.9z"/>
			<path class="st1" d="M1317.5,123.5c-2.6,0.5-5.3-0.5-6.1-2.4c-0.8-1.9,0.7-3.8,3.3-4.3c2.6-0.5,5.3,0.5,6.1,2.4
				C1321.6,121,1320.1,122.9,1317.5,123.5z"/>
			<path class="st1" d="M1565.4,27.9c-2.6,0.5-5.3-0.5-6.1-2.4c-0.8-1.9,0.7-3.8,3.3-4.3c2.6-0.5,5.3,0.5,6.1,2.4
				C1569.5,25.4,1568,27.3,1565.4,27.9z"/>
			<path class="st1" d="M1295.8,369c-2.6,0.5-5.3-0.5-6.1-2.4c-0.8-1.9,0.7-3.8,3.3-4.3c2.6-0.5,5.3,0.5,6.1,2.4
				C1299.9,366.5,1298.4,368.4,1295.8,369z"/>
			<path class="st1" d="M1560,412.3c-2.6,0.5-5.3-0.5-6.1-2.4c-0.8-1.9,0.7-3.8,3.3-4.3c2.6-0.5,5.3,0.5,6.1,2.4
				C1564.1,409.8,1562.6,411.8,1560,412.3z"/>
			<path class="st1" d="M1317.5,123.5c-2.6,0.5-5.3-0.5-6.1-2.4c-0.8-1.9,0.7-3.8,3.3-4.3c2.6-0.5,5.3,0.5,6.1,2.4
				C1321.6,121,1320.1,122.9,1317.5,123.5z"/>
			<path class="st1" d="M1560,412.3c-2.6,0.5-5.3-0.5-6.1-2.4c-0.8-1.9,0.7-3.8,3.3-4.3c2.6-0.5,5.3,0.5,6.1,2.4
				C1564.1,409.8,1562.6,411.8,1560,412.3z"/>
			<path class="st1" d="M1560,412.3c-2.6,0.5-5.3-0.5-6.1-2.4c-0.8-1.9,0.7-3.8,3.3-4.3c2.6-0.5,5.3,0.5,6.1,2.4
				C1564.1,409.8,1562.6,411.8,1560,412.3z"/>
			<path class="st1" d="M1649,255c-2.6,0.5-5.3-0.5-6.1-2.4c-0.8-1.9,0.7-3.8,3.3-4.4c2.6-0.5,5.3,0.5,6.1,2.4
				C1653.1,252.5,1651.6,254.5,1649,255z"/>
			<path class="st1" d="M1565.4,27.9c-2.6,0.5-5.3-0.5-6.1-2.4c-0.8-1.9,0.7-3.8,3.3-4.3c2.6-0.5,5.3,0.5,6.1,2.4
				C1569.5,25.4,1568,27.3,1565.4,27.9z"/>
			<path class="st1" d="M1649,255c-2.6,0.5-5.3-0.5-6.1-2.4c-0.8-1.9,0.7-3.8,3.3-4.4c2.6-0.5,5.3,0.5,6.1,2.4
				C1653.1,252.5,1651.6,254.5,1649,255z"/>
			<path class="st1" d="M1649,255c-2.6,0.5-5.3-0.5-6.1-2.4c-0.8-1.9,0.7-3.8,3.3-4.4c2.6-0.5,5.3,0.5,6.1,2.4
				C1653.1,252.5,1651.6,254.5,1649,255z"/>
			<path class="st1" d="M1295.8,369c-2.6,0.5-5.3-0.5-6.1-2.4c-0.8-1.9,0.7-3.8,3.3-4.3c2.6-0.5,5.3,0.5,6.1,2.4
				C1299.9,366.5,1298.4,368.4,1295.8,369z"/>
			<path class="st1" d="M1649,255c-2.6,0.5-5.3-0.5-6.1-2.4c-0.8-1.9,0.7-3.8,3.3-4.4c2.6-0.5,5.3,0.5,6.1,2.4
				C1653.1,252.5,1651.6,254.5,1649,255z"/>
			<path class="st1" d="M1235.3,85.9c-2.6,0.5-5.3-0.5-6.1-2.4c-0.8-1.9,0.7-3.8,3.3-4.3c2.6-0.5,5.3,0.5,6.1,2.4
				C1239.4,83.4,1237.9,85.4,1235.3,85.9z"/>
			<path class="st1" d="M1649,255c-2.6,0.5-5.3-0.5-6.1-2.4c-0.8-1.9,0.7-3.8,3.3-4.4c2.6-0.5,5.3,0.5,6.1,2.4
				C1653.1,252.5,1651.6,254.5,1649,255z"/>
			<path class="st1" d="M1324.8,41.7c-2.6,0.5-5.3-0.5-6.1-2.4c-0.8-1.9,0.7-3.8,3.3-4.3c2.6-0.5,5.3,0.5,6.1,2.4
				C1328.9,39.2,1327.4,41.1,1324.8,41.7z"/>
			<path class="st1" d="M1649,255c-2.6,0.5-5.3-0.5-6.1-2.4c-0.8-1.9,0.7-3.8,3.3-4.4c2.6-0.5,5.3,0.5,6.1,2.4
				C1653.1,252.5,1651.6,254.5,1649,255z"/>
			<path class="st1" d="M1317.5,123.5c-2.6,0.5-5.3-0.5-6.1-2.4c-0.8-1.9,0.7-3.8,3.3-4.3c2.6-0.5,5.3,0.5,6.1,2.4
				C1321.6,121,1320.1,122.9,1317.5,123.5z"/>
			<path class="st1" d="M1649,255c-2.6,0.5-5.3-0.5-6.1-2.4c-0.8-1.9,0.7-3.8,3.3-4.4c2.6-0.5,5.3,0.5,6.1,2.4
				C1653.1,252.5,1651.6,254.5,1649,255z"/>
			<path class="st1" d="M1649,255c-2.6,0.5-5.3-0.5-6.1-2.4c-0.8-1.9,0.7-3.8,3.3-4.4c2.6-0.5,5.3,0.5,6.1,2.4
				C1653.1,252.5,1651.6,254.5,1649,255z"/>
			<path class="st1" d="M1740.1,425.8c-2.6,0.5-5.3-0.5-6.1-2.4c-0.8-1.9,0.7-3.8,3.3-4.3c2.6-0.5,5.3,0.5,6.1,2.4
				C1744.2,423.3,1742.7,425.2,1740.1,425.8z"/>
			<path class="st1" d="M1649,255c-2.6,0.5-5.3-0.5-6.1-2.4c-0.8-1.9,0.7-3.8,3.3-4.4c2.6-0.5,5.3,0.5,6.1,2.4
				C1653.1,252.5,1651.6,254.5,1649,255z"/>
			<path class="st1" d="M1740.1,425.8c-2.6,0.5-5.3-0.5-6.1-2.4c-0.8-1.9,0.7-3.8,3.3-4.3c2.6-0.5,5.3,0.5,6.1,2.4
				C1744.2,423.3,1742.7,425.2,1740.1,425.8z"/>
			<path class="st1" d="M1560,412.3c-2.6,0.5-5.3-0.5-6.1-2.4c-0.8-1.9,0.7-3.8,3.3-4.3c2.6-0.5,5.3,0.5,6.1,2.4
				C1564.1,409.8,1562.6,411.8,1560,412.3z"/>
			<path class="st1" d="M1740.1,425.8c-2.6,0.5-5.3-0.5-6.1-2.4c-0.8-1.9,0.7-3.8,3.3-4.3c2.6-0.5,5.3,0.5,6.1,2.4
				C1744.2,423.3,1742.7,425.2,1740.1,425.8z"/>
			<path class="st1" d="M1740.1,425.8c-2.6,0.5-5.3-0.5-6.1-2.4c-0.8-1.9,0.7-3.8,3.3-4.3c2.6-0.5,5.3,0.5,6.1,2.4
				C1744.2,423.3,1742.7,425.2,1740.1,425.8z"/>
			<path class="st1" d="M1295.8,369c-2.6,0.5-5.3-0.5-6.1-2.4c-0.8-1.9,0.7-3.8,3.3-4.3c2.6-0.5,5.3,0.5,6.1,2.4
				C1299.9,366.5,1298.4,368.4,1295.8,369z"/>
			<path class="st1" d="M1740.1,425.8c-2.6,0.5-5.3-0.5-6.1-2.4c-0.8-1.9,0.7-3.8,3.3-4.3c2.6-0.5,5.3,0.5,6.1,2.4
				C1744.2,423.3,1742.7,425.2,1740.1,425.8z"/>
		</g>
	</g>
</g>
<g class="st0">
	<g>
		<g>
			<g>
				<g>
					<polygon class="st1" points="297.1,169.7 297,169.1 571.6,134.1 571.8,134.8 					"/>
				</g>
				<g>
					<polygon class="st1" points="297.1,169.7 297,169.1 571.6,134.1 571.8,134.8 					"/>
				</g>
			</g>
			<g>
				<g>
					<polygon class="st1" points="572.2,134.5 571.2,134.4 578.4,55.2 579.3,55.3 					"/>
				</g>
				<g>
					<polygon class="st1" points="297.3,169.7 296.8,169.1 578.6,55 579.1,55.5 					"/>
				</g>
				<g>
					<polygon class="st1" points="297.3,169.7 296.8,169.1 578.6,55 579.1,55.5 					"/>
				</g>
			</g>
			<g>
				<g>
					<polygon class="st1" points="490.6,98.4 490.1,97.8 578.6,55 579.1,55.5 					"/>
				</g>
				<g>
					<polygon class="st1" points="571.4,134.7 490.1,98.4 490.6,97.8 571.9,134.2 					"/>
				</g>
				<g>
					<polygon class="st1" points="297.3,169.7 296.8,169.1 490.1,97.8 490.5,98.4 					"/>
				</g>
				<g>
					<polygon class="st1" points="297.3,169.7 296.8,169.1 490.1,97.8 490.5,98.4 					"/>
				</g>
			</g>
			<g>
				<g>
					<polygon class="st1" points="3.4,363.9 297.4,169.7 296.7,169.2 3.4,363 					"/>
				</g>
				<g>
					<polygon class="st1" points="3.4,363.9 297.4,169.7 296.7,169.2 3.4,363 					"/>
				</g>
			</g>
			<g>
				<g>
					<polygon class="st1" points="3.4,313.8 45.7,150.3 44.8,150.2 3.4,310.1 					"/>
				</g>
				<g>
					<polygon class="st1" points="3.4,145.3 3.4,145.9 45.2,150.6 45.3,149.9 					"/>
				</g>
				<g>
					<polygon class="st1" points="45.3,150.6 45.1,149.9 490.3,97.8 490.4,98.4 					"/>
				</g>
				<g>
					<polygon class="st1" points="3.4,169.5 45.5,150.5 45,150 3.4,168.8 					"/>
				</g>
				<g>
					<polygon class="st1" points="297,169.7 45.2,150.6 45.3,149.9 297.1,169.1 					"/>
				</g>
				<g>
					<polygon class="st1" points="297,169.7 45.2,150.6 45.3,149.9 297.1,169.1 					"/>
				</g>
			</g>
			<g>
				<g>
					<polygon class="st1" points="549.7,372.1 489.9,98.1 490.8,98.1 550.6,372 					"/>
				</g>
				<g>
					<polygon class="st1" points="550.6,372.1 549.7,372 578.4,55.2 579.3,55.3 					"/>
				</g>
				<g>
					<polygon class="st1" points="550.6,372.1 549.7,372 571.2,134.4 572.2,134.5 					"/>
				</g>
				<g>
					<polygon class="st1" points="549.8,372.3 296.7,169.6 297.4,169.2 550.5,371.8 					"/>
				</g>
				<g>
					<polygon class="st1" points="549.8,372.3 296.7,169.6 297.4,169.2 550.5,371.8 					"/>
				</g>
			</g>
			<g>
				<g>
					<polygon class="st1" points="317.1,409.4 316.9,408.8 550.1,371.7 550.3,372.4 					"/>
				</g>
				<g>
					<polygon class="st1" points="316.6,409.3 44.8,150.4 45.6,150.1 317.4,408.9 					"/>
				</g>
				<g>
					<polygon class="st1" points="3.4,375.4 3.4,376.1 316.9,409.4 317.1,408.8 					"/>
				</g>
				<g>
					<polygon class="st1" points="317.5,409.2 316.6,409 489.9,98 490.8,98.2 					"/>
				</g>
				<g>
					<polygon class="st1" points="317.4,409.3 316.6,408.9 571.3,134.3 572.1,134.6 					"/>
				</g>
				<g>
					<polygon class="st1" points="316.6,409.1 296.6,169.4 297.5,169.4 317.5,409.1 					"/>
				</g>
				<g>
					<polygon class="st1" points="316.6,409.1 296.6,169.4 297.5,169.4 317.5,409.1 					"/>
				</g>
			</g>
			<g>
				<g>
					<polygon class="st1" points="1167,172.1 817.2,41.6 816.7,42.2 1167,172.9 					"/>
				</g>
				<g>
					<polygon class="st1" points="490.4,98.4 490.2,97.8 816.8,41.6 817.1,42.2 					"/>
				</g>
				<g>
					<polygon class="st1" points="578.9,55.6 578.8,54.9 816.9,41.6 817,42.2 					"/>
				</g>
				<g>
					<polygon class="st1" points="571.9,134.7 571.5,134.2 816.7,41.6 817.2,42.2 					"/>
				</g>
			</g>
			<g>
				<g>
					<polygon class="st1" points="811.5,414.3 550.1,372.4 550.3,371.7 811.7,413.7 					"/>
				</g>
				<g>
					<polygon class="st1" points="811.2,414.2 571.3,134.6 572.1,134.3 812,413.8 					"/>
				</g>
			</g>
			<g>
				<g>
					<polygon class="st1" points="812,414.1 811.2,413.9 899.2,261.6 900.1,261.9 					"/>
				</g>
				<g>
					<polygon class="st1" points="899.2,261.8 816.5,42 817.4,41.8 900.1,261.6 					"/>
				</g>
				<g>
					<polygon class="st1" points="1167,203.8 899.5,261.4 899.8,262 1167,204.5 					"/>
				</g>
				<g>
					<polygon class="st1" points="550.4,372.3 550,371.8 899.4,261.4 899.8,262 					"/>
				</g>
				<g>
					<polygon class="st1" points="899.4,262 490.1,98.4 490.6,97.8 899.9,261.4 					"/>
				</g>
				<g>
					<polygon class="st1" points="899.3,262 578.6,55.5 579.2,55 899.9,261.5 					"/>
				</g>
				<g>
					<polygon class="st1" points="899.4,262 571.5,134.7 571.9,134.2 899.8,261.4 					"/>
				</g>
			</g>
			<g>
				<g>
					<polygon class="st1" points="1167,310.2 899.7,261.4 899.5,262 1167,310.9 					"/>
				</g>
			</g>
			<g>
				<g>
					<polygon class="st1" points="1167,387 989.6,426.7 989.9,427.3 1167,387.7 					"/>
				</g>
				<g>
					<polygon class="st1" points="989.3,427.1 899.2,261.8 900.1,261.6 990.2,426.9 					"/>
				</g>
				<g>
					<polygon class="st1" points="989.7,427.3 811.5,414.3 811.6,413.7 989.8,426.7 					"/>
				</g>
				<g>
					<polygon class="st1" points="1167,246.5 989.3,426.8 990.1,427.2 1167,247.6 					"/>
				</g>
				<g>
					<polygon class="st1" points="989.7,427.3 550.1,372.4 550.2,371.7 989.8,426.7 					"/>
				</g>
			</g>
		</g>
		<g>
			<path class="st1" d="M298.4,172.7c-2.6,0.5-5.3-0.5-6-2.3c-0.8-1.8,0.7-3.7,3.3-4.2c2.6-0.5,5.3,0.5,6,2.3
				C302.5,170.3,301,172.1,298.4,172.7z"/>
			<path class="st1" d="M573.1,137.7c-2.6,0.5-5.3-0.5-6-2.3c-0.8-1.8,0.7-3.7,3.3-4.2c2.6-0.5,5.3,0.5,6,2.3
				C577.1,135.3,575.7,137.2,573.1,137.7z"/>
			<path class="st1" d="M298.4,172.7c-2.6,0.5-5.3-0.5-6-2.3c-0.8-1.8,0.7-3.7,3.3-4.2c2.6-0.5,5.3,0.5,6,2.3
				C302.5,170.3,301,172.1,298.4,172.7z"/>
			<path class="st1" d="M573.1,137.7c-2.6,0.5-5.3-0.5-6-2.3c-0.8-1.8,0.7-3.7,3.3-4.2c2.6-0.5,5.3,0.5,6,2.3
				C577.1,135.3,575.7,137.2,573.1,137.7z"/>
			<path class="st1" d="M573.1,137.7c-2.6,0.5-5.3-0.5-6-2.3c-0.8-1.8,0.7-3.7,3.3-4.2c2.6-0.5,5.3,0.5,6,2.3
				C577.1,135.3,575.7,137.2,573.1,137.7z"/>
			<path class="st1" d="M580.2,58.5c-2.6,0.5-5.3-0.5-6-2.3c-0.8-1.8,0.7-3.7,3.3-4.2c2.6-0.5,5.3,0.5,6,2.3
				C584.3,56.1,582.8,58,580.2,58.5z"/>
			<path class="st1" d="M298.4,172.7c-2.6,0.5-5.3-0.5-6-2.3c-0.8-1.8,0.7-3.7,3.3-4.2c2.6-0.5,5.3,0.5,6,2.3
				C302.5,170.3,301,172.1,298.4,172.7z"/>
			<path class="st1" d="M580.2,58.5c-2.6,0.5-5.3-0.5-6-2.3c-0.8-1.8,0.7-3.7,3.3-4.2c2.6-0.5,5.3,0.5,6,2.3
				C584.3,56.1,582.8,58,580.2,58.5z"/>
			<path class="st1" d="M298.4,172.7c-2.6,0.5-5.3-0.5-6-2.3c-0.8-1.8,0.7-3.7,3.3-4.2c2.6-0.5,5.3,0.5,6,2.3
				C302.5,170.3,301,172.1,298.4,172.7z"/>
			<path class="st1" d="M580.2,58.5c-2.6,0.5-5.3-0.5-6-2.3c-0.8-1.8,0.7-3.7,3.3-4.2c2.6-0.5,5.3,0.5,6,2.3
				C584.3,56.1,582.8,58,580.2,58.5z"/>
			<path class="st1" d="M580.2,58.5c-2.6,0.5-5.3-0.5-6-2.3c-0.8-1.8,0.7-3.7,3.3-4.2c2.6-0.5,5.3,0.5,6,2.3
				C584.3,56.1,582.8,58,580.2,58.5z"/>
			<path class="st1" d="M491.7,101.4c-2.6,0.5-5.3-0.5-6-2.3c-0.8-1.8,0.7-3.7,3.3-4.2c2.6-0.5,5.3,0.5,6,2.3
				C495.8,98.9,494.3,100.8,491.7,101.4z"/>
			<path class="st1" d="M573.1,137.7c-2.6,0.5-5.3-0.5-6-2.3c-0.8-1.8,0.7-3.7,3.3-4.2c2.6-0.5,5.3,0.5,6,2.3
				C577.1,135.3,575.7,137.2,573.1,137.7z"/>
			<path class="st1" d="M491.7,101.4c-2.6,0.5-5.3-0.5-6-2.3c-0.8-1.8,0.7-3.7,3.3-4.2c2.6-0.5,5.3,0.5,6,2.3
				C495.8,98.9,494.3,100.8,491.7,101.4z"/>
			<path class="st1" d="M298.4,172.7c-2.6,0.5-5.3-0.5-6-2.3c-0.8-1.8,0.7-3.7,3.3-4.2c2.6-0.5,5.3,0.5,6,2.3
				C302.5,170.3,301,172.1,298.4,172.7z"/>
			<path class="st1" d="M491.7,101.4c-2.6,0.5-5.3-0.5-6-2.3c-0.8-1.8,0.7-3.7,3.3-4.2c2.6-0.5,5.3,0.5,6,2.3
				C495.8,98.9,494.3,100.8,491.7,101.4z"/>
			<path class="st1" d="M298.4,172.7c-2.6,0.5-5.3-0.5-6-2.3c-0.8-1.8,0.7-3.7,3.3-4.2c2.6-0.5,5.3,0.5,6,2.3
				C302.5,170.3,301,172.1,298.4,172.7z"/>
			<path class="st1" d="M491.7,101.4c-2.6,0.5-5.3-0.5-6-2.3c-0.8-1.8,0.7-3.7,3.3-4.2c2.6-0.5,5.3,0.5,6,2.3
				C495.8,98.9,494.3,100.8,491.7,101.4z"/>
			<path class="st1" d="M298.4,172.7c-2.6,0.5-5.3-0.5-6-2.3c-0.8-1.8,0.7-3.7,3.3-4.2c2.6-0.5,5.3,0.5,6,2.3
				C302.5,170.3,301,172.1,298.4,172.7z"/>
			<path class="st1" d="M298.4,172.7c-2.6,0.5-5.3-0.5-6-2.3c-0.8-1.8,0.7-3.7,3.3-4.2c2.6-0.5,5.3,0.5,6,2.3
				C302.5,170.3,301,172.1,298.4,172.7z"/>
			<path class="st1" d="M46.6,153.5c-2.6,0.5-5.3-0.5-6-2.3c-0.8-1.8,0.7-3.7,3.3-4.2c2.6-0.5,5.3,0.5,6,2.3
				C50.7,151.1,49.2,153,46.6,153.5z"/>
			<path class="st1" d="M46.6,153.5c-2.6,0.5-5.3-0.5-6-2.3c-0.8-1.8,0.7-3.7,3.3-4.2c2.6-0.5,5.3,0.5,6,2.3
				C50.7,151.1,49.2,153,46.6,153.5z"/>
			<path class="st1" d="M491.7,101.4c-2.6,0.5-5.3-0.5-6-2.3c-0.8-1.8,0.7-3.7,3.3-4.2c2.6-0.5,5.3,0.5,6,2.3
				C495.8,98.9,494.3,100.8,491.7,101.4z"/>
			<path class="st1" d="M46.6,153.5c-2.6,0.5-5.3-0.5-6-2.3c-0.8-1.8,0.7-3.7,3.3-4.2c2.6-0.5,5.3,0.5,6,2.3
				C50.7,151.1,49.2,153,46.6,153.5z"/>
			<path class="st1" d="M46.6,153.5c-2.6,0.5-5.3-0.5-6-2.3c-0.8-1.8,0.7-3.7,3.3-4.2c2.6-0.5,5.3,0.5,6,2.3
				C50.7,151.1,49.2,153,46.6,153.5z"/>
			<path class="st1" d="M298.4,172.7c-2.6,0.5-5.3-0.5-6-2.3c-0.8-1.8,0.7-3.7,3.3-4.2c2.6-0.5,5.3,0.5,6,2.3
				C302.5,170.3,301,172.1,298.4,172.7z"/>
			<path class="st1" d="M46.6,153.5c-2.6,0.5-5.3-0.5-6-2.3c-0.8-1.8,0.7-3.7,3.3-4.2c2.6-0.5,5.3,0.5,6,2.3
				C50.7,151.1,49.2,153,46.6,153.5z"/>
			<path class="st1" d="M298.4,172.7c-2.6,0.5-5.3-0.5-6-2.3c-0.8-1.8,0.7-3.7,3.3-4.2c2.6-0.5,5.3,0.5,6,2.3
				C302.5,170.3,301,172.1,298.4,172.7z"/>
			<path class="st1" d="M46.6,153.5c-2.6,0.5-5.3-0.5-6-2.3c-0.8-1.8,0.7-3.7,3.3-4.2c2.6-0.5,5.3,0.5,6,2.3
				C50.7,151.1,49.2,153,46.6,153.5z"/>
			<path class="st1" d="M491.7,101.4c-2.6,0.5-5.3-0.5-6-2.3c-0.8-1.8,0.7-3.7,3.3-4.2c2.6-0.5,5.3,0.5,6,2.3
				C495.8,98.9,494.3,100.8,491.7,101.4z"/>
			<path class="st1" d="M551.5,375.3c-2.6,0.5-5.3-0.5-6-2.3c-0.8-1.8,0.7-3.7,3.3-4.2c2.6-0.5,5.3,0.5,6,2.3
				C555.6,372.9,554.1,374.8,551.5,375.3z"/>
			<path class="st1" d="M580.2,58.5c-2.6,0.5-5.3-0.5-6-2.3c-0.8-1.8,0.7-3.7,3.3-4.2c2.6-0.5,5.3,0.5,6,2.3
				C584.3,56.1,582.8,58,580.2,58.5z"/>
			<path class="st1" d="M551.5,375.3c-2.6,0.5-5.3-0.5-6-2.3c-0.8-1.8,0.7-3.7,3.3-4.2c2.6-0.5,5.3,0.5,6,2.3
				C555.6,372.9,554.1,374.8,551.5,375.3z"/>
			<path class="st1" d="M573.1,137.7c-2.6,0.5-5.3-0.5-6-2.3c-0.8-1.8,0.7-3.7,3.3-4.2c2.6-0.5,5.3,0.5,6,2.3
				C577.1,135.3,575.7,137.2,573.1,137.7z"/>
			<path class="st1" d="M551.5,375.3c-2.6,0.5-5.3-0.5-6-2.3c-0.8-1.8,0.7-3.7,3.3-4.2c2.6-0.5,5.3,0.5,6,2.3
				C555.6,372.9,554.1,374.8,551.5,375.3z"/>
			<path class="st1" d="M298.4,172.7c-2.6,0.5-5.3-0.5-6-2.3c-0.8-1.8,0.7-3.7,3.3-4.2c2.6-0.5,5.3,0.5,6,2.3
				C302.5,170.3,301,172.1,298.4,172.7z"/>
			<path class="st1" d="M551.5,375.3c-2.6,0.5-5.3-0.5-6-2.3c-0.8-1.8,0.7-3.7,3.3-4.2c2.6-0.5,5.3,0.5,6,2.3
				C555.6,372.9,554.1,374.8,551.5,375.3z"/>
			<path class="st1" d="M298.4,172.7c-2.6,0.5-5.3-0.5-6-2.3c-0.8-1.8,0.7-3.7,3.3-4.2c2.6-0.5,5.3,0.5,6,2.3
				C302.5,170.3,301,172.1,298.4,172.7z"/>
			<path class="st1" d="M551.5,375.3c-2.6,0.5-5.3-0.5-6-2.3c-0.8-1.8,0.7-3.7,3.3-4.2c2.6-0.5,5.3,0.5,6,2.3
				C555.6,372.9,554.1,374.8,551.5,375.3z"/>
			<path class="st1" d="M551.5,375.3c-2.6,0.5-5.3-0.5-6-2.3c-0.8-1.8,0.7-3.7,3.3-4.2c2.6-0.5,5.3,0.5,6,2.3
				C555.6,372.9,554.1,374.8,551.5,375.3z"/>
			<path class="st1" d="M318.4,412.4c-2.6,0.5-5.3-0.5-6-2.3c-0.8-1.8,0.7-3.7,3.3-4.2c2.6-0.5,5.3,0.5,6,2.3
				C322.5,410,321,411.8,318.4,412.4z"/>
			<path class="st1" d="M46.6,153.5c-2.6,0.5-5.3-0.5-6-2.3c-0.8-1.8,0.7-3.7,3.3-4.2c2.6-0.5,5.3,0.5,6,2.3
				C50.7,151.1,49.2,153,46.6,153.5z"/>
			<path class="st1" d="M318.4,412.4c-2.6,0.5-5.3-0.5-6-2.3c-0.8-1.8,0.7-3.7,3.3-4.2c2.6-0.5,5.3,0.5,6,2.3
				C322.5,410,321,411.8,318.4,412.4z"/>
			<path class="st1" d="M318.4,412.4c-2.6,0.5-5.3-0.5-6-2.3c-0.8-1.8,0.7-3.7,3.3-4.2c2.6-0.5,5.3,0.5,6,2.3
				C322.5,410,321,411.8,318.4,412.4z"/>
			<path class="st1" d="M491.7,101.4c-2.6,0.5-5.3-0.5-6-2.3c-0.8-1.8,0.7-3.7,3.3-4.2c2.6-0.5,5.3,0.5,6,2.3
				C495.8,98.9,494.3,100.8,491.7,101.4z"/>
			<path class="st1" d="M318.4,412.4c-2.6,0.5-5.3-0.5-6-2.3c-0.8-1.8,0.7-3.7,3.3-4.2c2.6-0.5,5.3,0.5,6,2.3
				C322.5,410,321,411.8,318.4,412.4z"/>
			<path class="st1" d="M573.1,137.7c-2.6,0.5-5.3-0.5-6-2.3c-0.8-1.8,0.7-3.7,3.3-4.2c2.6-0.5,5.3,0.5,6,2.3
				C577.1,135.3,575.7,137.2,573.1,137.7z"/>
			<path class="st1" d="M318.4,412.4c-2.6,0.5-5.3-0.5-6-2.3c-0.8-1.8,0.7-3.7,3.3-4.2c2.6-0.5,5.3,0.5,6,2.3
				C322.5,410,321,411.8,318.4,412.4z"/>
			<path class="st1" d="M298.4,172.7c-2.6,0.5-5.3-0.5-6-2.3c-0.8-1.8,0.7-3.7,3.3-4.2c2.6-0.5,5.3,0.5,6,2.3
				C302.5,170.3,301,172.1,298.4,172.7z"/>
			<path class="st1" d="M318.4,412.4c-2.6,0.5-5.3-0.5-6-2.3c-0.8-1.8,0.7-3.7,3.3-4.2c2.6-0.5,5.3,0.5,6,2.3
				C322.5,410,321,411.8,318.4,412.4z"/>
			<path class="st1" d="M298.4,172.7c-2.6,0.5-5.3-0.5-6-2.3c-0.8-1.8,0.7-3.7,3.3-4.2c2.6-0.5,5.3,0.5,6,2.3
				C302.5,170.3,301,172.1,298.4,172.7z"/>
			<path class="st1" d="M318.4,412.4c-2.6,0.5-5.3-0.5-6-2.3c-0.8-1.8,0.7-3.7,3.3-4.2c2.6-0.5,5.3,0.5,6,2.3
				C322.5,410,321,411.8,318.4,412.4z"/>
			<path class="st1" d="M818.3,45.2c-2.6,0.5-5.3-0.5-6-2.3c-0.8-1.8,0.7-3.7,3.3-4.2c2.6-0.5,5.3,0.5,6,2.3
				C822.4,42.8,820.9,44.6,818.3,45.2z"/>
			<path class="st1" d="M491.7,101.4c-2.6,0.5-5.3-0.5-6-2.3c-0.8-1.8,0.7-3.7,3.3-4.2c2.6-0.5,5.3,0.5,6,2.3
				C495.8,98.9,494.3,100.8,491.7,101.4z"/>
			<path class="st1" d="M818.3,45.2c-2.6,0.5-5.3-0.5-6-2.3c-0.8-1.8,0.7-3.7,3.3-4.2c2.6-0.5,5.3,0.5,6,2.3
				C822.4,42.8,820.9,44.6,818.3,45.2z"/>
			<path class="st1" d="M580.2,58.5c-2.6,0.5-5.3-0.5-6-2.3c-0.8-1.8,0.7-3.7,3.3-4.2c2.6-0.5,5.3,0.5,6,2.3
				C584.3,56.1,582.8,58,580.2,58.5z"/>
			<path class="st1" d="M818.3,45.2c-2.6,0.5-5.3-0.5-6-2.3c-0.8-1.8,0.7-3.7,3.3-4.2c2.6-0.5,5.3,0.5,6,2.3
				C822.4,42.8,820.9,44.6,818.3,45.2z"/>
			<path class="st1" d="M573.1,137.7c-2.6,0.5-5.3-0.5-6-2.3c-0.8-1.8,0.7-3.7,3.3-4.2c2.6-0.5,5.3,0.5,6,2.3
				C577.1,135.3,575.7,137.2,573.1,137.7z"/>
			<path class="st1" d="M818.3,45.2c-2.6,0.5-5.3-0.5-6-2.3c-0.8-1.8,0.7-3.7,3.3-4.2c2.6-0.5,5.3,0.5,6,2.3
				C822.4,42.8,820.9,44.6,818.3,45.2z"/>
			<path class="st1" d="M551.5,375.3c-2.6,0.5-5.3-0.5-6-2.3c-0.8-1.8,0.7-3.7,3.3-4.2c2.6-0.5,5.3,0.5,6,2.3
				C555.6,372.9,554.1,374.8,551.5,375.3z"/>
			<path class="st1" d="M813,417.2c-2.6,0.5-5.3-0.5-6-2.3c-0.8-1.8,0.7-3.7,3.3-4.2c2.6-0.5,5.3,0.5,6,2.3
				C817,414.8,815.6,416.7,813,417.2z"/>
			<path class="st1" d="M573.1,137.7c-2.6,0.5-5.3-0.5-6-2.3c-0.8-1.8,0.7-3.7,3.3-4.2c2.6-0.5,5.3,0.5,6,2.3
				C577.1,135.3,575.7,137.2,573.1,137.7z"/>
			<path class="st1" d="M813,417.2c-2.6,0.5-5.3-0.5-6-2.3c-0.8-1.8,0.7-3.7,3.3-4.2c2.6-0.5,5.3,0.5,6,2.3
				C817,414.8,815.6,416.7,813,417.2z"/>
			<path class="st1" d="M813,417.2c-2.6,0.5-5.3-0.5-6-2.3c-0.8-1.8,0.7-3.7,3.3-4.2c2.6-0.5,5.3,0.5,6,2.3
				C817,414.8,815.6,416.7,813,417.2z"/>
			<path class="st1" d="M901,265c-2.6,0.5-5.3-0.5-6-2.3c-0.8-1.8,0.7-3.7,3.3-4.2c2.6-0.5,5.3,0.5,6,2.3
				C905,262.6,903.6,264.5,901,265z"/>
			<path class="st1" d="M818.3,45.2c-2.6,0.5-5.3-0.5-6-2.3c-0.8-1.8,0.7-3.7,3.3-4.2c2.6-0.5,5.3,0.5,6,2.3
				C822.4,42.8,820.9,44.6,818.3,45.2z"/>
			<path class="st1" d="M901,265c-2.6,0.5-5.3-0.5-6-2.3c-0.8-1.8,0.7-3.7,3.3-4.2c2.6-0.5,5.3,0.5,6,2.3
				C905,262.6,903.6,264.5,901,265z"/>
			<path class="st1" d="M901,265c-2.6,0.5-5.3-0.5-6-2.3c-0.8-1.8,0.7-3.7,3.3-4.2c2.6-0.5,5.3,0.5,6,2.3
				C905,262.6,903.6,264.5,901,265z"/>
			<path class="st1" d="M551.5,375.3c-2.6,0.5-5.3-0.5-6-2.3c-0.8-1.8,0.7-3.7,3.3-4.2c2.6-0.5,5.3,0.5,6,2.3
				C555.6,372.9,554.1,374.8,551.5,375.3z"/>
			<path class="st1" d="M901,265c-2.6,0.5-5.3-0.5-6-2.3c-0.8-1.8,0.7-3.7,3.3-4.2c2.6-0.5,5.3,0.5,6,2.3
				C905,262.6,903.6,264.5,901,265z"/>
			<path class="st1" d="M491.7,101.4c-2.6,0.5-5.3-0.5-6-2.3c-0.8-1.8,0.7-3.7,3.3-4.2c2.6-0.5,5.3,0.5,6,2.3
				C495.8,98.9,494.3,100.8,491.7,101.4z"/>
			<path class="st1" d="M901,265c-2.6,0.5-5.3-0.5-6-2.3c-0.8-1.8,0.7-3.7,3.3-4.2c2.6-0.5,5.3,0.5,6,2.3
				C905,262.6,903.6,264.5,901,265z"/>
			<path class="st1" d="M580.2,58.5c-2.6,0.5-5.3-0.5-6-2.3c-0.8-1.8,0.7-3.7,3.3-4.2c2.6-0.5,5.3,0.5,6,2.3
				C584.3,56.1,582.8,58,580.2,58.5z"/>
			<path class="st1" d="M901,265c-2.6,0.5-5.3-0.5-6-2.3c-0.8-1.8,0.7-3.7,3.3-4.2c2.6-0.5,5.3,0.5,6,2.3
				C905,262.6,903.6,264.5,901,265z"/>
			<path class="st1" d="M573.1,137.7c-2.6,0.5-5.3-0.5-6-2.3c-0.8-1.8,0.7-3.7,3.3-4.2c2.6-0.5,5.3,0.5,6,2.3
				C577.1,135.3,575.7,137.2,573.1,137.7z"/>
			<path class="st1" d="M901,265c-2.6,0.5-5.3-0.5-6-2.3c-0.8-1.8,0.7-3.7,3.3-4.2c2.6-0.5,5.3,0.5,6,2.3
				C905,262.6,903.6,264.5,901,265z"/>
			<path class="st1" d="M901,265c-2.6,0.5-5.3-0.5-6-2.3c-0.8-1.8,0.7-3.7,3.3-4.2c2.6-0.5,5.3,0.5,6,2.3
				C905,262.6,903.6,264.5,901,265z"/>
			<path class="st1" d="M991.1,430.3c-2.6,0.5-5.3-0.5-6-2.3c-0.8-1.8,0.7-3.7,3.3-4.2c2.6-0.5,5.3,0.5,6,2.3
				C995.2,427.9,993.7,429.7,991.1,430.3z"/>
			<path class="st1" d="M901,265c-2.6,0.5-5.3-0.5-6-2.3c-0.8-1.8,0.7-3.7,3.3-4.2c2.6-0.5,5.3,0.5,6,2.3
				C905,262.6,903.6,264.5,901,265z"/>
			<path class="st1" d="M991.1,430.3c-2.6,0.5-5.3-0.5-6-2.3c-0.8-1.8,0.7-3.7,3.3-4.2c2.6-0.5,5.3,0.5,6,2.3
				C995.2,427.9,993.7,429.7,991.1,430.3z"/>
			<path class="st1" d="M813,417.2c-2.6,0.5-5.3-0.5-6-2.3c-0.8-1.8,0.7-3.7,3.3-4.2c2.6-0.5,5.3,0.5,6,2.3
				C817,414.8,815.6,416.7,813,417.2z"/>
			<path class="st1" d="M991.1,430.3c-2.6,0.5-5.3-0.5-6-2.3c-0.8-1.8,0.7-3.7,3.3-4.2c2.6-0.5,5.3,0.5,6,2.3
				C995.2,427.9,993.7,429.7,991.1,430.3z"/>
			<path class="st1" d="M991.1,430.3c-2.6,0.5-5.3-0.5-6-2.3c-0.8-1.8,0.7-3.7,3.3-4.2c2.6-0.5,5.3,0.5,6,2.3
				C995.2,427.9,993.7,429.7,991.1,430.3z"/>
			<path class="st1" d="M551.5,375.3c-2.6,0.5-5.3-0.5-6-2.3c-0.8-1.8,0.7-3.7,3.3-4.2c2.6-0.5,5.3,0.5,6,2.3
				C555.6,372.9,554.1,374.8,551.5,375.3z"/>
			<path class="st1" d="M991.1,430.3c-2.6,0.5-5.3-0.5-6-2.3c-0.8-1.8,0.7-3.7,3.3-4.2c2.6-0.5,5.3,0.5,6,2.3
				C995.2,427.9,993.7,429.7,991.1,430.3z"/>
		</g>
	</g>
	<g>
		<g>
			<g>
				<g>
					<polygon class="st1" points="297.1,169.7 297,169.1 571.6,134.1 571.8,134.8 					"/>
				</g>
				<g>
					<polygon class="st1" points="297.1,169.7 297,169.1 571.6,134.1 571.8,134.8 					"/>
				</g>
			</g>
			<g>
				<g>
					<polygon class="st1" points="572.2,134.5 571.2,134.4 578.4,55.2 579.3,55.3 					"/>
				</g>
				<g>
					<polygon class="st1" points="297.3,169.7 296.8,169.1 578.6,55 579.1,55.5 					"/>
				</g>
				<g>
					<polygon class="st1" points="297.3,169.7 296.8,169.1 578.6,55 579.1,55.5 					"/>
				</g>
			</g>
			<g>
				<g>
					<polygon class="st1" points="490.6,98.4 490.1,97.8 578.6,55 579.1,55.5 					"/>
				</g>
				<g>
					<polygon class="st1" points="571.4,134.7 490.1,98.4 490.6,97.8 571.9,134.2 					"/>
				</g>
				<g>
					<polygon class="st1" points="297.3,169.7 296.8,169.1 490.1,97.8 490.5,98.4 					"/>
				</g>
				<g>
					<polygon class="st1" points="297.3,169.7 296.8,169.1 490.1,97.8 490.5,98.4 					"/>
				</g>
			</g>
			<g>
				<g>
					<polygon class="st1" points="3.4,363.9 297.4,169.7 296.7,169.2 3.4,363 					"/>
				</g>
				<g>
					<polygon class="st1" points="3.4,363.9 297.4,169.7 296.7,169.2 3.4,363 					"/>
				</g>
			</g>
			<g>
				<g>
					<polygon class="st1" points="3.4,313.8 45.7,150.3 44.8,150.2 3.4,310.1 					"/>
				</g>
				<g>
					<polygon class="st1" points="3.4,145.3 3.4,145.9 45.2,150.6 45.3,149.9 					"/>
				</g>
				<g>
					<polygon class="st1" points="45.3,150.6 45.1,149.9 490.3,97.8 490.4,98.4 					"/>
				</g>
				<g>
					<polygon class="st1" points="3.4,169.5 45.5,150.5 45,150 3.4,168.8 					"/>
				</g>
				<g>
					<polygon class="st1" points="297,169.7 45.2,150.6 45.3,149.9 297.1,169.1 					"/>
				</g>
				<g>
					<polygon class="st1" points="297,169.7 45.2,150.6 45.3,149.9 297.1,169.1 					"/>
				</g>
			</g>
			<g>
				<g>
					<polygon class="st1" points="549.7,372.1 489.9,98.1 490.8,98.1 550.6,372 					"/>
				</g>
				<g>
					<polygon class="st1" points="550.6,372.1 549.7,372 578.4,55.2 579.3,55.3 					"/>
				</g>
				<g>
					<polygon class="st1" points="550.6,372.1 549.7,372 571.2,134.4 572.2,134.5 					"/>
				</g>
				<g>
					<polygon class="st1" points="549.8,372.3 296.7,169.6 297.4,169.2 550.5,371.8 					"/>
				</g>
				<g>
					<polygon class="st1" points="549.8,372.3 296.7,169.6 297.4,169.2 550.5,371.8 					"/>
				</g>
			</g>
			<g>
				<g>
					<polygon class="st1" points="317.1,409.4 316.9,408.8 550.1,371.7 550.3,372.4 					"/>
				</g>
				<g>
					<polygon class="st1" points="316.6,409.3 44.8,150.4 45.6,150.1 317.4,408.9 					"/>
				</g>
				<g>
					<polygon class="st1" points="3.4,375.4 3.4,376.1 316.9,409.4 317.1,408.8 					"/>
				</g>
				<g>
					<polygon class="st1" points="317.5,409.2 316.6,409 489.9,98 490.8,98.2 					"/>
				</g>
				<g>
					<polygon class="st1" points="317.4,409.3 316.6,408.9 571.3,134.3 572.1,134.6 					"/>
				</g>
				<g>
					<polygon class="st1" points="316.6,409.1 296.6,169.4 297.5,169.4 317.5,409.1 					"/>
				</g>
				<g>
					<polygon class="st1" points="316.6,409.1 296.6,169.4 297.5,169.4 317.5,409.1 					"/>
				</g>
			</g>
			<g>
				<g>
					<polygon class="st1" points="1167,172.1 817.2,41.6 816.7,42.2 1167,172.9 					"/>
				</g>
				<g>
					<polygon class="st1" points="490.4,98.4 490.2,97.8 816.8,41.6 817.1,42.2 					"/>
				</g>
				<g>
					<polygon class="st1" points="578.9,55.6 578.8,54.9 816.9,41.6 817,42.2 					"/>
				</g>
				<g>
					<polygon class="st1" points="571.9,134.7 571.5,134.2 816.7,41.6 817.2,42.2 					"/>
				</g>
			</g>
			<g>
				<g>
					<polygon class="st1" points="811.5,414.3 550.1,372.4 550.3,371.7 811.7,413.7 					"/>
				</g>
				<g>
					<polygon class="st1" points="811.2,414.2 571.3,134.6 572.1,134.3 812,413.8 					"/>
				</g>
			</g>
			<g>
				<g>
					<polygon class="st1" points="812,414.1 811.2,413.9 899.2,261.6 900.1,261.9 					"/>
				</g>
				<g>
					<polygon class="st1" points="899.2,261.8 816.5,42 817.4,41.8 900.1,261.6 					"/>
				</g>
				<g>
					<polygon class="st1" points="1167,203.8 899.5,261.4 899.8,262 1167,204.5 					"/>
				</g>
				<g>
					<polygon class="st1" points="550.4,372.3 550,371.8 899.4,261.4 899.8,262 					"/>
				</g>
				<g>
					<polygon class="st1" points="899.4,262 490.1,98.4 490.6,97.8 899.9,261.4 					"/>
				</g>
				<g>
					<polygon class="st1" points="899.3,262 578.6,55.5 579.2,55 899.9,261.5 					"/>
				</g>
				<g>
					<polygon class="st1" points="899.4,262 571.5,134.7 571.9,134.2 899.8,261.4 					"/>
				</g>
			</g>
			<g>
				<g>
					<polygon class="st1" points="1167,310.2 899.7,261.4 899.5,262 1167,310.9 					"/>
				</g>
			</g>
			<g>
				<g>
					<polygon class="st1" points="1167,387 989.6,426.7 989.9,427.3 1167,387.7 					"/>
				</g>
				<g>
					<polygon class="st1" points="989.3,427.1 899.2,261.8 900.1,261.6 990.2,426.9 					"/>
				</g>
				<g>
					<polygon class="st1" points="989.7,427.3 811.5,414.3 811.6,413.7 989.8,426.7 					"/>
				</g>
				<g>
					<polygon class="st1" points="1167,246.5 989.3,426.8 990.1,427.2 1167,247.6 					"/>
				</g>
				<g>
					<polygon class="st1" points="989.7,427.3 550.1,372.4 550.2,371.7 989.8,426.7 					"/>
				</g>
			</g>
		</g>
		<g>
			<path class="st1" d="M298.4,172.7c-2.6,0.5-5.3-0.5-6-2.3c-0.8-1.8,0.7-3.7,3.3-4.2c2.6-0.5,5.3,0.5,6,2.3
				C302.5,170.3,301,172.1,298.4,172.7z"/>
			<path class="st1" d="M573.1,137.7c-2.6,0.5-5.3-0.5-6-2.3c-0.8-1.8,0.7-3.7,3.3-4.2c2.6-0.5,5.3,0.5,6,2.3
				C577.1,135.3,575.7,137.2,573.1,137.7z"/>
			<path class="st1" d="M298.4,172.7c-2.6,0.5-5.3-0.5-6-2.3c-0.8-1.8,0.7-3.7,3.3-4.2c2.6-0.5,5.3,0.5,6,2.3
				C302.5,170.3,301,172.1,298.4,172.7z"/>
			<path class="st1" d="M573.1,137.7c-2.6,0.5-5.3-0.5-6-2.3c-0.8-1.8,0.7-3.7,3.3-4.2c2.6-0.5,5.3,0.5,6,2.3
				C577.1,135.3,575.7,137.2,573.1,137.7z"/>
			<path class="st1" d="M573.1,137.7c-2.6,0.5-5.3-0.5-6-2.3c-0.8-1.8,0.7-3.7,3.3-4.2c2.6-0.5,5.3,0.5,6,2.3
				C577.1,135.3,575.7,137.2,573.1,137.7z"/>
			<path class="st1" d="M580.2,58.5c-2.6,0.5-5.3-0.5-6-2.3c-0.8-1.8,0.7-3.7,3.3-4.2c2.6-0.5,5.3,0.5,6,2.3
				C584.3,56.1,582.8,58,580.2,58.5z"/>
			<path class="st1" d="M298.4,172.7c-2.6,0.5-5.3-0.5-6-2.3c-0.8-1.8,0.7-3.7,3.3-4.2c2.6-0.5,5.3,0.5,6,2.3
				C302.5,170.3,301,172.1,298.4,172.7z"/>
			<path class="st1" d="M580.2,58.5c-2.6,0.5-5.3-0.5-6-2.3c-0.8-1.8,0.7-3.7,3.3-4.2c2.6-0.5,5.3,0.5,6,2.3
				C584.3,56.1,582.8,58,580.2,58.5z"/>
			<path class="st1" d="M298.4,172.7c-2.6,0.5-5.3-0.5-6-2.3c-0.8-1.8,0.7-3.7,3.3-4.2c2.6-0.5,5.3,0.5,6,2.3
				C302.5,170.3,301,172.1,298.4,172.7z"/>
			<path class="st1" d="M580.2,58.5c-2.6,0.5-5.3-0.5-6-2.3c-0.8-1.8,0.7-3.7,3.3-4.2c2.6-0.5,5.3,0.5,6,2.3
				C584.3,56.1,582.8,58,580.2,58.5z"/>
			<path class="st1" d="M580.2,58.5c-2.6,0.5-5.3-0.5-6-2.3c-0.8-1.8,0.7-3.7,3.3-4.2c2.6-0.5,5.3,0.5,6,2.3
				C584.3,56.1,582.8,58,580.2,58.5z"/>
			<path class="st1" d="M491.7,101.4c-2.6,0.5-5.3-0.5-6-2.3c-0.8-1.8,0.7-3.7,3.3-4.2c2.6-0.5,5.3,0.5,6,2.3
				C495.8,98.9,494.3,100.8,491.7,101.4z"/>
			<path class="st1" d="M573.1,137.7c-2.6,0.5-5.3-0.5-6-2.3c-0.8-1.8,0.7-3.7,3.3-4.2c2.6-0.5,5.3,0.5,6,2.3
				C577.1,135.3,575.7,137.2,573.1,137.7z"/>
			<path class="st1" d="M491.7,101.4c-2.6,0.5-5.3-0.5-6-2.3c-0.8-1.8,0.7-3.7,3.3-4.2c2.6-0.5,5.3,0.5,6,2.3
				C495.8,98.9,494.3,100.8,491.7,101.4z"/>
			<path class="st1" d="M298.4,172.7c-2.6,0.5-5.3-0.5-6-2.3c-0.8-1.8,0.7-3.7,3.3-4.2c2.6-0.5,5.3,0.5,6,2.3
				C302.5,170.3,301,172.1,298.4,172.7z"/>
			<path class="st1" d="M491.7,101.4c-2.6,0.5-5.3-0.5-6-2.3c-0.8-1.8,0.7-3.7,3.3-4.2c2.6-0.5,5.3,0.5,6,2.3
				C495.8,98.9,494.3,100.8,491.7,101.4z"/>
			<path class="st1" d="M298.4,172.7c-2.6,0.5-5.3-0.5-6-2.3c-0.8-1.8,0.7-3.7,3.3-4.2c2.6-0.5,5.3,0.5,6,2.3
				C302.5,170.3,301,172.1,298.4,172.7z"/>
			<path class="st1" d="M491.7,101.4c-2.6,0.5-5.3-0.5-6-2.3c-0.8-1.8,0.7-3.7,3.3-4.2c2.6-0.5,5.3,0.5,6,2.3
				C495.8,98.9,494.3,100.8,491.7,101.4z"/>
			<path class="st1" d="M298.4,172.7c-2.6,0.5-5.3-0.5-6-2.3c-0.8-1.8,0.7-3.7,3.3-4.2c2.6-0.5,5.3,0.5,6,2.3
				C302.5,170.3,301,172.1,298.4,172.7z"/>
			<path class="st1" d="M298.4,172.7c-2.6,0.5-5.3-0.5-6-2.3c-0.8-1.8,0.7-3.7,3.3-4.2c2.6-0.5,5.3,0.5,6,2.3
				C302.5,170.3,301,172.1,298.4,172.7z"/>
			<path class="st1" d="M46.6,153.5c-2.6,0.5-5.3-0.5-6-2.3c-0.8-1.8,0.7-3.7,3.3-4.2c2.6-0.5,5.3,0.5,6,2.3
				C50.7,151.1,49.2,153,46.6,153.5z"/>
			<path class="st1" d="M46.6,153.5c-2.6,0.5-5.3-0.5-6-2.3c-0.8-1.8,0.7-3.7,3.3-4.2c2.6-0.5,5.3,0.5,6,2.3
				C50.7,151.1,49.2,153,46.6,153.5z"/>
			<path class="st1" d="M491.7,101.4c-2.6,0.5-5.3-0.5-6-2.3c-0.8-1.8,0.7-3.7,3.3-4.2c2.6-0.5,5.3,0.5,6,2.3
				C495.8,98.9,494.3,100.8,491.7,101.4z"/>
			<path class="st1" d="M46.6,153.5c-2.6,0.5-5.3-0.5-6-2.3c-0.8-1.8,0.7-3.7,3.3-4.2c2.6-0.5,5.3,0.5,6,2.3
				C50.7,151.1,49.2,153,46.6,153.5z"/>
			<path class="st1" d="M46.6,153.5c-2.6,0.5-5.3-0.5-6-2.3c-0.8-1.8,0.7-3.7,3.3-4.2c2.6-0.5,5.3,0.5,6,2.3
				C50.7,151.1,49.2,153,46.6,153.5z"/>
			<path class="st1" d="M298.4,172.7c-2.6,0.5-5.3-0.5-6-2.3c-0.8-1.8,0.7-3.7,3.3-4.2c2.6-0.5,5.3,0.5,6,2.3
				C302.5,170.3,301,172.1,298.4,172.7z"/>
			<path class="st1" d="M46.6,153.5c-2.6,0.5-5.3-0.5-6-2.3c-0.8-1.8,0.7-3.7,3.3-4.2c2.6-0.5,5.3,0.5,6,2.3
				C50.7,151.1,49.2,153,46.6,153.5z"/>
			<path class="st1" d="M298.4,172.7c-2.6,0.5-5.3-0.5-6-2.3c-0.8-1.8,0.7-3.7,3.3-4.2c2.6-0.5,5.3,0.5,6,2.3
				C302.5,170.3,301,172.1,298.4,172.7z"/>
			<path class="st1" d="M46.6,153.5c-2.6,0.5-5.3-0.5-6-2.3c-0.8-1.8,0.7-3.7,3.3-4.2c2.6-0.5,5.3,0.5,6,2.3
				C50.7,151.1,49.2,153,46.6,153.5z"/>
			<path class="st1" d="M491.7,101.4c-2.6,0.5-5.3-0.5-6-2.3c-0.8-1.8,0.7-3.7,3.3-4.2c2.6-0.5,5.3,0.5,6,2.3
				C495.8,98.9,494.3,100.8,491.7,101.4z"/>
			<path class="st1" d="M551.5,375.3c-2.6,0.5-5.3-0.5-6-2.3c-0.8-1.8,0.7-3.7,3.3-4.2c2.6-0.5,5.3,0.5,6,2.3
				C555.6,372.9,554.1,374.8,551.5,375.3z"/>
			<path class="st1" d="M580.2,58.5c-2.6,0.5-5.3-0.5-6-2.3c-0.8-1.8,0.7-3.7,3.3-4.2c2.6-0.5,5.3,0.5,6,2.3
				C584.3,56.1,582.8,58,580.2,58.5z"/>
			<path class="st1" d="M551.5,375.3c-2.6,0.5-5.3-0.5-6-2.3c-0.8-1.8,0.7-3.7,3.3-4.2c2.6-0.5,5.3,0.5,6,2.3
				C555.6,372.9,554.1,374.8,551.5,375.3z"/>
			<path class="st1" d="M573.1,137.7c-2.6,0.5-5.3-0.5-6-2.3c-0.8-1.8,0.7-3.7,3.3-4.2c2.6-0.5,5.3,0.5,6,2.3
				C577.1,135.3,575.7,137.2,573.1,137.7z"/>
			<path class="st1" d="M551.5,375.3c-2.6,0.5-5.3-0.5-6-2.3c-0.8-1.8,0.7-3.7,3.3-4.2c2.6-0.5,5.3,0.5,6,2.3
				C555.6,372.9,554.1,374.8,551.5,375.3z"/>
			<path class="st1" d="M298.4,172.7c-2.6,0.5-5.3-0.5-6-2.3c-0.8-1.8,0.7-3.7,3.3-4.2c2.6-0.5,5.3,0.5,6,2.3
				C302.5,170.3,301,172.1,298.4,172.7z"/>
			<path class="st1" d="M551.5,375.3c-2.6,0.5-5.3-0.5-6-2.3c-0.8-1.8,0.7-3.7,3.3-4.2c2.6-0.5,5.3,0.5,6,2.3
				C555.6,372.9,554.1,374.8,551.5,375.3z"/>
			<path class="st1" d="M298.4,172.7c-2.6,0.5-5.3-0.5-6-2.3c-0.8-1.8,0.7-3.7,3.3-4.2c2.6-0.5,5.3,0.5,6,2.3
				C302.5,170.3,301,172.1,298.4,172.7z"/>
			<path class="st1" d="M551.5,375.3c-2.6,0.5-5.3-0.5-6-2.3c-0.8-1.8,0.7-3.7,3.3-4.2c2.6-0.5,5.3,0.5,6,2.3
				C555.6,372.9,554.1,374.8,551.5,375.3z"/>
			<path class="st1" d="M551.5,375.3c-2.6,0.5-5.3-0.5-6-2.3c-0.8-1.8,0.7-3.7,3.3-4.2c2.6-0.5,5.3,0.5,6,2.3
				C555.6,372.9,554.1,374.8,551.5,375.3z"/>
			<path class="st1" d="M318.4,412.4c-2.6,0.5-5.3-0.5-6-2.3c-0.8-1.8,0.7-3.7,3.3-4.2c2.6-0.5,5.3,0.5,6,2.3
				C322.5,410,321,411.8,318.4,412.4z"/>
			<path class="st1" d="M46.6,153.5c-2.6,0.5-5.3-0.5-6-2.3c-0.8-1.8,0.7-3.7,3.3-4.2c2.6-0.5,5.3,0.5,6,2.3
				C50.7,151.1,49.2,153,46.6,153.5z"/>
			<path class="st1" d="M318.4,412.4c-2.6,0.5-5.3-0.5-6-2.3c-0.8-1.8,0.7-3.7,3.3-4.2c2.6-0.5,5.3,0.5,6,2.3
				C322.5,410,321,411.8,318.4,412.4z"/>
			<path class="st1" d="M318.4,412.4c-2.6,0.5-5.3-0.5-6-2.3c-0.8-1.8,0.7-3.7,3.3-4.2c2.6-0.5,5.3,0.5,6,2.3
				C322.5,410,321,411.8,318.4,412.4z"/>
			<path class="st1" d="M491.7,101.4c-2.6,0.5-5.3-0.5-6-2.3c-0.8-1.8,0.7-3.7,3.3-4.2c2.6-0.5,5.3,0.5,6,2.3
				C495.8,98.9,494.3,100.8,491.7,101.4z"/>
			<path class="st1" d="M318.4,412.4c-2.6,0.5-5.3-0.5-6-2.3c-0.8-1.8,0.7-3.7,3.3-4.2c2.6-0.5,5.3,0.5,6,2.3
				C322.5,410,321,411.8,318.4,412.4z"/>
			<path class="st1" d="M573.1,137.7c-2.6,0.5-5.3-0.5-6-2.3c-0.8-1.8,0.7-3.7,3.3-4.2c2.6-0.5,5.3,0.5,6,2.3
				C577.1,135.3,575.7,137.2,573.1,137.7z"/>
			<path class="st1" d="M318.4,412.4c-2.6,0.5-5.3-0.5-6-2.3c-0.8-1.8,0.7-3.7,3.3-4.2c2.6-0.5,5.3,0.5,6,2.3
				C322.5,410,321,411.8,318.4,412.4z"/>
			<path class="st1" d="M298.4,172.7c-2.6,0.5-5.3-0.5-6-2.3c-0.8-1.8,0.7-3.7,3.3-4.2c2.6-0.5,5.3,0.5,6,2.3
				C302.5,170.3,301,172.1,298.4,172.7z"/>
			<path class="st1" d="M318.4,412.4c-2.6,0.5-5.3-0.5-6-2.3c-0.8-1.8,0.7-3.7,3.3-4.2c2.6-0.5,5.3,0.5,6,2.3
				C322.5,410,321,411.8,318.4,412.4z"/>
			<path class="st1" d="M298.4,172.7c-2.6,0.5-5.3-0.5-6-2.3c-0.8-1.8,0.7-3.7,3.3-4.2c2.6-0.5,5.3,0.5,6,2.3
				C302.5,170.3,301,172.1,298.4,172.7z"/>
			<path class="st1" d="M318.4,412.4c-2.6,0.5-5.3-0.5-6-2.3c-0.8-1.8,0.7-3.7,3.3-4.2c2.6-0.5,5.3,0.5,6,2.3
				C322.5,410,321,411.8,318.4,412.4z"/>
			<path class="st1" d="M818.3,45.2c-2.6,0.5-5.3-0.5-6-2.3c-0.8-1.8,0.7-3.7,3.3-4.2c2.6-0.5,5.3,0.5,6,2.3
				C822.4,42.8,820.9,44.6,818.3,45.2z"/>
			<path class="st1" d="M491.7,101.4c-2.6,0.5-5.3-0.5-6-2.3c-0.8-1.8,0.7-3.7,3.3-4.2c2.6-0.5,5.3,0.5,6,2.3
				C495.8,98.9,494.3,100.8,491.7,101.4z"/>
			<path class="st1" d="M818.3,45.2c-2.6,0.5-5.3-0.5-6-2.3c-0.8-1.8,0.7-3.7,3.3-4.2c2.6-0.5,5.3,0.5,6,2.3
				C822.4,42.8,820.9,44.6,818.3,45.2z"/>
			<path class="st1" d="M580.2,58.5c-2.6,0.5-5.3-0.5-6-2.3c-0.8-1.8,0.7-3.7,3.3-4.2c2.6-0.5,5.3,0.5,6,2.3
				C584.3,56.1,582.8,58,580.2,58.5z"/>
			<path class="st1" d="M818.3,45.2c-2.6,0.5-5.3-0.5-6-2.3c-0.8-1.8,0.7-3.7,3.3-4.2c2.6-0.5,5.3,0.5,6,2.3
				C822.4,42.8,820.9,44.6,818.3,45.2z"/>
			<path class="st1" d="M573.1,137.7c-2.6,0.5-5.3-0.5-6-2.3c-0.8-1.8,0.7-3.7,3.3-4.2c2.6-0.5,5.3,0.5,6,2.3
				C577.1,135.3,575.7,137.2,573.1,137.7z"/>
			<path class="st1" d="M818.3,45.2c-2.6,0.5-5.3-0.5-6-2.3c-0.8-1.8,0.7-3.7,3.3-4.2c2.6-0.5,5.3,0.5,6,2.3
				C822.4,42.8,820.9,44.6,818.3,45.2z"/>
			<path class="st1" d="M551.5,375.3c-2.6,0.5-5.3-0.5-6-2.3c-0.8-1.8,0.7-3.7,3.3-4.2c2.6-0.5,5.3,0.5,6,2.3
				C555.6,372.9,554.1,374.8,551.5,375.3z"/>
			<path class="st1" d="M813,417.2c-2.6,0.5-5.3-0.5-6-2.3c-0.8-1.8,0.7-3.7,3.3-4.2c2.6-0.5,5.3,0.5,6,2.3
				C817,414.8,815.6,416.7,813,417.2z"/>
			<path class="st1" d="M573.1,137.7c-2.6,0.5-5.3-0.5-6-2.3c-0.8-1.8,0.7-3.7,3.3-4.2c2.6-0.5,5.3,0.5,6,2.3
				C577.1,135.3,575.7,137.2,573.1,137.7z"/>
			<path class="st1" d="M813,417.2c-2.6,0.5-5.3-0.5-6-2.3c-0.8-1.8,0.7-3.7,3.3-4.2c2.6-0.5,5.3,0.5,6,2.3
				C817,414.8,815.6,416.7,813,417.2z"/>
			<path class="st1" d="M813,417.2c-2.6,0.5-5.3-0.5-6-2.3c-0.8-1.8,0.7-3.7,3.3-4.2c2.6-0.5,5.3,0.5,6,2.3
				C817,414.8,815.6,416.7,813,417.2z"/>
			<path class="st1" d="M901,265c-2.6,0.5-5.3-0.5-6-2.3c-0.8-1.8,0.7-3.7,3.3-4.2c2.6-0.5,5.3,0.5,6,2.3
				C905,262.6,903.6,264.5,901,265z"/>
			<path class="st1" d="M818.3,45.2c-2.6,0.5-5.3-0.5-6-2.3c-0.8-1.8,0.7-3.7,3.3-4.2c2.6-0.5,5.3,0.5,6,2.3
				C822.4,42.8,820.9,44.6,818.3,45.2z"/>
			<path class="st1" d="M901,265c-2.6,0.5-5.3-0.5-6-2.3c-0.8-1.8,0.7-3.7,3.3-4.2c2.6-0.5,5.3,0.5,6,2.3
				C905,262.6,903.6,264.5,901,265z"/>
			<path class="st1" d="M901,265c-2.6,0.5-5.3-0.5-6-2.3c-0.8-1.8,0.7-3.7,3.3-4.2c2.6-0.5,5.3,0.5,6,2.3
				C905,262.6,903.6,264.5,901,265z"/>
			<path class="st1" d="M551.5,375.3c-2.6,0.5-5.3-0.5-6-2.3c-0.8-1.8,0.7-3.7,3.3-4.2c2.6-0.5,5.3,0.5,6,2.3
				C555.6,372.9,554.1,374.8,551.5,375.3z"/>
			<path class="st1" d="M901,265c-2.6,0.5-5.3-0.5-6-2.3c-0.8-1.8,0.7-3.7,3.3-4.2c2.6-0.5,5.3,0.5,6,2.3
				C905,262.6,903.6,264.5,901,265z"/>
			<path class="st1" d="M491.7,101.4c-2.6,0.5-5.3-0.5-6-2.3c-0.8-1.8,0.7-3.7,3.3-4.2c2.6-0.5,5.3,0.5,6,2.3
				C495.8,98.9,494.3,100.8,491.7,101.4z"/>
			<path class="st1" d="M901,265c-2.6,0.5-5.3-0.5-6-2.3c-0.8-1.8,0.7-3.7,3.3-4.2c2.6-0.5,5.3,0.5,6,2.3
				C905,262.6,903.6,264.5,901,265z"/>
			<path class="st1" d="M580.2,58.5c-2.6,0.5-5.3-0.5-6-2.3c-0.8-1.8,0.7-3.7,3.3-4.2c2.6-0.5,5.3,0.5,6,2.3
				C584.3,56.1,582.8,58,580.2,58.5z"/>
			<path class="st1" d="M901,265c-2.6,0.5-5.3-0.5-6-2.3c-0.8-1.8,0.7-3.7,3.3-4.2c2.6-0.5,5.3,0.5,6,2.3
				C905,262.6,903.6,264.5,901,265z"/>
			<path class="st1" d="M573.1,137.7c-2.6,0.5-5.3-0.5-6-2.3c-0.8-1.8,0.7-3.7,3.3-4.2c2.6-0.5,5.3,0.5,6,2.3
				C577.1,135.3,575.7,137.2,573.1,137.7z"/>
			<path class="st1" d="M901,265c-2.6,0.5-5.3-0.5-6-2.3c-0.8-1.8,0.7-3.7,3.3-4.2c2.6-0.5,5.3,0.5,6,2.3
				C905,262.6,903.6,264.5,901,265z"/>
			<path class="st1" d="M901,265c-2.6,0.5-5.3-0.5-6-2.3c-0.8-1.8,0.7-3.7,3.3-4.2c2.6-0.5,5.3,0.5,6,2.3
				C905,262.6,903.6,264.5,901,265z"/>
			<path class="st1" d="M991.1,430.3c-2.6,0.5-5.3-0.5-6-2.3c-0.8-1.8,0.7-3.7,3.3-4.2c2.6-0.5,5.3,0.5,6,2.3
				C995.2,427.9,993.7,429.7,991.1,430.3z"/>
			<path class="st1" d="M901,265c-2.6,0.5-5.3-0.5-6-2.3c-0.8-1.8,0.7-3.7,3.3-4.2c2.6-0.5,5.3,0.5,6,2.3
				C905,262.6,903.6,264.5,901,265z"/>
			<path class="st1" d="M991.1,430.3c-2.6,0.5-5.3-0.5-6-2.3c-0.8-1.8,0.7-3.7,3.3-4.2c2.6-0.5,5.3,0.5,6,2.3
				C995.2,427.9,993.7,429.7,991.1,430.3z"/>
			<path class="st1" d="M813,417.2c-2.6,0.5-5.3-0.5-6-2.3c-0.8-1.8,0.7-3.7,3.3-4.2c2.6-0.5,5.3,0.5,6,2.3
				C817,414.8,815.6,416.7,813,417.2z"/>
			<path class="st1" d="M991.1,430.3c-2.6,0.5-5.3-0.5-6-2.3c-0.8-1.8,0.7-3.7,3.3-4.2c2.6-0.5,5.3,0.5,6,2.3
				C995.2,427.9,993.7,429.7,991.1,430.3z"/>
			<path class="st1" d="M991.1,430.3c-2.6,0.5-5.3-0.5-6-2.3c-0.8-1.8,0.7-3.7,3.3-4.2c2.6-0.5,5.3,0.5,6,2.3
				C995.2,427.9,993.7,429.7,991.1,430.3z"/>
			<path class="st1" d="M551.5,375.3c-2.6,0.5-5.3-0.5-6-2.3c-0.8-1.8,0.7-3.7,3.3-4.2c2.6-0.5,5.3,0.5,6,2.3
				C555.6,372.9,554.1,374.8,551.5,375.3z"/>
			<path class="st1" d="M991.1,430.3c-2.6,0.5-5.3-0.5-6-2.3c-0.8-1.8,0.7-3.7,3.3-4.2c2.6-0.5,5.3,0.5,6,2.3
				C995.2,427.9,993.7,429.7,991.1,430.3z"/>
		</g>
	</g>
</g>
<polyline class="st2" points="938.4,490.9 962.7,513 987,490.9 "/>
</svg>
