<?xml version="1.0" encoding="utf-8"?>
<!-- Generator: Adobe Illustrator 21.0.2, SVG Export Plug-In . SVG Version: 6.00 Build 0)  -->
<svg version="1.1" xmlns="http://www.w3.org/2000/svg" xmlns:xlink="http://www.w3.org/1999/xlink" x="0px" y="0px"
	 viewBox="0 0 1920 1080" style="enable-background:new 0 0 1920 1080;" xml:space="preserve">
<style type="text/css">
	.st0{opacity:0.1;}
	.st1{fill:#4C4C4C;}
	.st2{fill:#FFFFFF;}
	.st3{display:none;}
	.st4{display:inline;fill:#161616;}
	.st5{display:inline;fill:none;stroke:#FFFFFF;stroke-width:2;stroke-linecap:round;stroke-miterlimit:10;}
</style>
<g id="Layer_1">
</g>
<g id="frames">
	<g class="st0">
		<g>
			<g>
				<g>
					<g>
						<polygon class="st1" points="1057.9,540.8 1057.7,540 1329,493.7 1329.1,494.6 						"/>
					</g>
					<g>
						<polygon class="st1" points="1057.9,540.8 1057.7,540 1329,493.7 1329.1,494.6 						"/>
					</g>
				</g>
				<g>
					<g>
						<polygon class="st1" points="1329.5,494.2 1328.6,494.1 1335.7,389.4 1336.6,389.4 						"/>
					</g>
					<g>
						<polygon class="st1" points="1058,540.8 1057.6,540.1 1335.9,389 1336.4,389.8 						"/>
					</g>
					<g>
						<polygon class="st1" points="1058,540.8 1057.6,540.1 1335.9,389 1336.4,389.8 						"/>
					</g>
				</g>
				<g>
					<g>
						<polygon class="st1" points="1249,446.4 1248.4,445.7 1335.9,389 1336.4,389.7 						"/>
					</g>
					<g>
						<polygon class="st1" points="1328.8,494.5 1248.4,446.4 1248.9,445.7 1329.3,493.8 						"/>
					</g>
					<g>
						<polygon class="st1" points="1058,540.8 1057.6,540 1248.5,445.7 1248.9,446.4 						"/>
					</g>
					<g>
						<polygon class="st1" points="1058,540.8 1057.6,540 1248.5,445.7 1248.9,446.4 						"/>
					</g>
				</g>
				<g>
					<g>
						<polygon class="st1" points="767.8,797.7 1058.1,540.7 1057.5,540.1 767.8,796.6 						"/>
					</g>
					<g>
						<polygon class="st1" points="767.8,797.7 1058.1,540.7 1057.5,540.1 767.8,796.6 						"/>
					</g>
				</g>
				<g>
					<g>
						<polygon class="st1" points="767.8,731.5 809.5,515.1 808.6,515 767.8,726.6 						"/>
					</g>
					<g>
						<polygon class="st1" points="767.8,508.4 767.8,509.3 809,515.5 809.2,514.6 						"/>
					</g>
					<g>
						<polygon class="st1" points="809.2,515.5 809,514.6 1248.6,445.6 1248.8,446.5 						"/>
					</g>
					<g>
						<polygon class="st1" points="767.8,540.6 809.3,515.4 808.8,514.7 767.8,539.5 						"/>
					</g>
					<g>
						<polygon class="st1" points="1057.7,540.9 809,515.5 809.1,514.6 1057.8,540 						"/>
					</g>
					<g>
						<polygon class="st1" points="1057.7,540.9 809,515.5 809.1,514.6 1057.8,540 						"/>
					</g>
				</g>
				<g>
					<g>
						<polygon class="st1" points="1307.3,808.6 1248.2,446.1 1249.1,446 1308.2,808.5 						"/>
					</g>
					<g>
						<polygon class="st1" points="1308.2,808.5 1307.3,808.5 1335.7,389.4 1336.6,389.4 						"/>
					</g>
					<g>
						<polygon class="st1" points="1308.2,808.5 1307.3,808.5 1328.6,494.1 1329.5,494.2 						"/>
					</g>
					<g>
						<polygon class="st1" points="1307.4,808.8 1057.4,540.7 1058.1,540.1 1308.1,808.2 						"/>
					</g>
					<g>
						<polygon class="st1" points="1307.4,808.8 1057.4,540.7 1058.1,540.1 1308.1,808.2 						"/>
					</g>
				</g>
				<g>
					<g>
						<polygon class="st1" points="1077.6,858 1077.4,857.1 1307.7,808.1 1307.9,808.9 						"/>
					</g>
					<g>
						<polygon class="st1" points="1077.2,857.8 808.7,515.3 809.5,514.8 1077.9,857.3 						"/>
					</g>
					<g>
						<polygon class="st1" points="767.8,813 767.8,813.9 1077.5,858 1077.6,857.1 						"/>
					</g>
					<g>
						<polygon class="st1" points="1078,857.7 1077.1,857.4 1248.3,445.9 1249.1,446.2 						"/>
					</g>
					<g>
						<polygon class="st1" points="1077.9,857.8 1077.1,857.3 1328.7,493.9 1329.4,494.4 						"/>
					</g>
					<g>
						<polygon class="st1" points="1077.1,857.6 1057.3,540.5 1058.3,540.4 1078,857.5 						"/>
					</g>
					<g>
						<polygon class="st1" points="1077.1,857.6 1057.3,540.5 1058.3,540.4 1078,857.5 						"/>
					</g>
				</g>
				<g>
					<g>
						<polygon class="st1" points="1917,544 1571.5,371.4 1571.1,372.1 1917,545 						"/>
					</g>
					<g>
						<polygon class="st1" points="1248.8,446.5 1248.6,445.6 1571.2,371.3 1571.4,372.2 						"/>
					</g>
					<g>
						<polygon class="st1" points="1336.2,389.8 1336.1,389 1571.2,371.3 1571.3,372.2 						"/>
					</g>
					<g>
						<polygon class="st1" points="1329.3,494.5 1328.8,493.8 1571.1,371.4 1571.5,372.1 						"/>
					</g>
				</g>
				<g>
					<g>
						<polygon class="st1" points="1565.9,864.4 1307.7,808.9 1307.9,808.1 1566.1,863.6 						"/>
					</g>
					<g>
						<polygon class="st1" points="1565.6,864.2 1328.7,494.4 1329.4,493.9 1566.4,863.8 						"/>
					</g>
				</g>
				<g>
					<g>
						<polygon class="st1" points="1566.4,864.2 1565.5,863.8 1652.5,662.4 1653.3,662.7 						"/>
					</g>
					<g>
						<polygon class="st1" points="1652.5,662.7 1570.8,371.8 1571.7,371.6 1653.4,662.5 						"/>
					</g>
					<g>
						<polygon class="st1" points="1917,585.9 1652.8,662.1 1653.1,663 1917,586.8 						"/>
					</g>
					<g>
						<polygon class="st1" points="1308,808.9 1307.6,808.1 1652.7,662.2 1653.1,663 						"/>
					</g>
					<g>
						<polygon class="st1" points="1652.7,662.9 1248.5,446.4 1248.9,445.7 1653.1,662.2 						"/>
					</g>
					<g>
						<polygon class="st1" points="1652.6,662.9 1335.8,389.7 1336.4,389.1 1653.2,662.2 						"/>
					</g>
					<g>
						<polygon class="st1" points="1652.7,662.9 1328.8,494.5 1329.3,493.8 1653.1,662.2 						"/>
					</g>
				</g>
				<g>
					<g>
						<polygon class="st1" points="1917,726.7 1653,662.1 1652.8,663 1917,727.6 						"/>
					</g>
				</g>
				<g>
					<g>
						<polygon class="st1" points="1917,828.3 1741.8,880.8 1742.1,881.7 1917,829.2 						"/>
					</g>
					<g>
						<polygon class="st1" points="1741.5,881.4 1652.5,662.7 1653.3,662.4 1742.3,881.1 						"/>
					</g>
					<g>
						<polygon class="st1" points="1741.9,881.7 1565.9,864.4 1566,863.6 1742,880.8 						"/>
					</g>
					<g>
						<polygon class="st1" points="1917,642.4 1741.5,881 1742.3,881.5 1917,643.9 						"/>
					</g>
					<g>
						<polygon class="st1" points="1741.8,881.7 1307.7,808.9 1307.9,808.1 1742,880.8 						"/>
					</g>
				</g>
			</g>
			<g>
				<path class="st1" d="M1059.1,544.7c-2.6,0.7-5.2-0.7-6-3c-0.7-2.4,0.7-4.9,3.3-5.6c2.5-0.7,5.2,0.7,6,3
					C1063.2,541.5,1061.7,544,1059.1,544.7z"/>
				<path class="st1" d="M1330.4,498.5c-2.5,0.7-5.2-0.7-6-3c-0.7-2.4,0.7-4.9,3.3-5.6c2.6-0.7,5.2,0.7,6,3
					C1334.4,495.3,1333,497.8,1330.4,498.5z"/>
				<path class="st1" d="M1059.1,544.7c-2.6,0.7-5.2-0.7-6-3c-0.7-2.4,0.7-4.9,3.3-5.6c2.5-0.7,5.2,0.7,6,3
					C1063.2,541.5,1061.7,544,1059.1,544.7z"/>
				<path class="st1" d="M1330.4,498.5c-2.5,0.7-5.2-0.7-6-3c-0.7-2.4,0.7-4.9,3.3-5.6c2.6-0.7,5.2,0.7,6,3
					C1334.4,495.3,1333,497.8,1330.4,498.5z"/>
				<path class="st1" d="M1330.4,498.5c-2.5,0.7-5.2-0.7-6-3c-0.7-2.4,0.7-4.9,3.3-5.6c2.6-0.7,5.2,0.7,6,3
					C1334.4,495.3,1333,497.8,1330.4,498.5z"/>
				<path class="st1" d="M1337.5,393.7c-2.6,0.7-5.2-0.7-6-3c-0.7-2.4,0.7-4.9,3.3-5.6c2.5-0.7,5.2,0.7,6,3
					C1341.5,390.5,1340,393,1337.5,393.7z"/>
				<path class="st1" d="M1059.1,544.7c-2.6,0.7-5.2-0.7-6-3c-0.7-2.4,0.7-4.9,3.3-5.6c2.5-0.7,5.2,0.7,6,3
					C1063.2,541.5,1061.7,544,1059.1,544.7z"/>
				<path class="st1" d="M1337.5,393.7c-2.6,0.7-5.2-0.7-6-3c-0.7-2.4,0.7-4.9,3.3-5.6c2.5-0.7,5.2,0.7,6,3
					C1341.5,390.5,1340,393,1337.5,393.7z"/>
				<path class="st1" d="M1059.1,544.7c-2.6,0.7-5.2-0.7-6-3c-0.7-2.4,0.7-4.9,3.3-5.6c2.5-0.7,5.2,0.7,6,3
					C1063.2,541.5,1061.7,544,1059.1,544.7z"/>
				<path class="st1" d="M1337.5,393.7c-2.6,0.7-5.2-0.7-6-3c-0.7-2.4,0.7-4.9,3.3-5.6c2.5-0.7,5.2,0.7,6,3
					C1341.5,390.5,1340,393,1337.5,393.7z"/>
				<path class="st1" d="M1337.5,393.7c-2.6,0.7-5.2-0.7-6-3c-0.7-2.4,0.7-4.9,3.3-5.6c2.5-0.7,5.2,0.7,6,3
					C1341.5,390.5,1340,393,1337.5,393.7z"/>
				<path class="st1" d="M1250,450.4c-2.5,0.7-5.2-0.7-6-3c-0.7-2.4,0.7-4.9,3.3-5.6c2.6-0.7,5.2,0.7,6,3
					C1254.1,447.2,1252.6,449.7,1250,450.4z"/>
				<path class="st1" d="M1330.4,498.5c-2.5,0.7-5.2-0.7-6-3c-0.7-2.4,0.7-4.9,3.3-5.6c2.6-0.7,5.2,0.7,6,3
					C1334.4,495.3,1333,497.8,1330.4,498.5z"/>
				<path class="st1" d="M1250,450.4c-2.5,0.7-5.2-0.7-6-3c-0.7-2.4,0.7-4.9,3.3-5.6c2.6-0.7,5.2,0.7,6,3
					C1254.1,447.2,1252.6,449.7,1250,450.4z"/>
				<path class="st1" d="M1059.1,544.7c-2.6,0.7-5.2-0.7-6-3c-0.7-2.4,0.7-4.9,3.3-5.6c2.5-0.7,5.2,0.7,6,3
					C1063.2,541.5,1061.7,544,1059.1,544.7z"/>
				<path class="st1" d="M1250,450.4c-2.5,0.7-5.2-0.7-6-3c-0.7-2.4,0.7-4.9,3.3-5.6c2.6-0.7,5.2,0.7,6,3
					C1254.1,447.2,1252.6,449.7,1250,450.4z"/>
				<path class="st1" d="M1059.1,544.7c-2.6,0.7-5.2-0.7-6-3c-0.7-2.4,0.7-4.9,3.3-5.6c2.5-0.7,5.2,0.7,6,3
					C1063.2,541.5,1061.7,544,1059.1,544.7z"/>
				<path class="st1" d="M1250,450.4c-2.5,0.7-5.2-0.7-6-3c-0.7-2.4,0.7-4.9,3.3-5.6c2.6-0.7,5.2,0.7,6,3
					C1254.1,447.2,1252.6,449.7,1250,450.4z"/>
				<path class="st1" d="M1059.1,544.7c-2.6,0.7-5.2-0.7-6-3c-0.7-2.4,0.7-4.9,3.3-5.6c2.5-0.7,5.2,0.7,6,3
					C1063.2,541.5,1061.7,544,1059.1,544.7z"/>
				<path class="st1" d="M1059.1,544.7c-2.6,0.7-5.2-0.7-6-3c-0.7-2.4,0.7-4.9,3.3-5.6c2.5-0.7,5.2,0.7,6,3
					C1063.2,541.5,1061.7,544,1059.1,544.7z"/>
				<path class="st1" d="M810.4,519.4c-2.5,0.7-5.2-0.7-6-3c-0.7-2.4,0.7-4.9,3.3-5.6c2.6-0.7,5.2,0.7,6,3
					C814.5,516.2,813,518.7,810.4,519.4z"/>
				<path class="st1" d="M810.4,519.4c-2.5,0.7-5.2-0.7-6-3c-0.7-2.4,0.7-4.9,3.3-5.6c2.6-0.7,5.2,0.7,6,3
					C814.5,516.2,813,518.7,810.4,519.4z"/>
				<path class="st1" d="M1250,450.4c-2.5,0.7-5.2-0.7-6-3c-0.7-2.4,0.7-4.9,3.3-5.6c2.6-0.7,5.2,0.7,6,3
					C1254.1,447.2,1252.6,449.7,1250,450.4z"/>
				<path class="st1" d="M810.4,519.4c-2.5,0.7-5.2-0.7-6-3c-0.7-2.4,0.7-4.9,3.3-5.6c2.6-0.7,5.2,0.7,6,3
					C814.5,516.2,813,518.7,810.4,519.4z"/>
				<path class="st1" d="M810.4,519.4c-2.5,0.7-5.2-0.7-6-3c-0.7-2.4,0.7-4.9,3.3-5.6c2.6-0.7,5.2,0.7,6,3
					C814.5,516.2,813,518.7,810.4,519.4z"/>
				<path class="st1" d="M1059.1,544.7c-2.6,0.7-5.2-0.7-6-3c-0.7-2.4,0.7-4.9,3.3-5.6c2.5-0.7,5.2,0.7,6,3
					C1063.2,541.5,1061.7,544,1059.1,544.7z"/>
				<path class="st1" d="M810.4,519.4c-2.5,0.7-5.2-0.7-6-3c-0.7-2.4,0.7-4.9,3.3-5.6c2.6-0.7,5.2,0.7,6,3
					C814.5,516.2,813,518.7,810.4,519.4z"/>
				<path class="st1" d="M1059.1,544.7c-2.6,0.7-5.2-0.7-6-3c-0.7-2.4,0.7-4.9,3.3-5.6c2.5-0.7,5.2,0.7,6,3
					C1063.2,541.5,1061.7,544,1059.1,544.7z"/>
				<path class="st1" d="M810.4,519.4c-2.5,0.7-5.2-0.7-6-3c-0.7-2.4,0.7-4.9,3.3-5.6c2.6-0.7,5.2,0.7,6,3
					C814.5,516.2,813,518.7,810.4,519.4z"/>
				<path class="st1" d="M1250,450.4c-2.5,0.7-5.2-0.7-6-3c-0.7-2.4,0.7-4.9,3.3-5.6c2.6-0.7,5.2,0.7,6,3
					C1254.1,447.2,1252.6,449.7,1250,450.4z"/>
				<path class="st1" d="M1309.1,812.8c-2.5,0.7-5.2-0.7-6-3c-0.8-2.4,0.7-4.9,3.3-5.6c2.6-0.7,5.2,0.7,6,3
					C1313.1,809.6,1311.7,812.1,1309.1,812.8z"/>
				<path class="st1" d="M1337.5,393.7c-2.6,0.7-5.2-0.7-6-3c-0.7-2.4,0.7-4.9,3.3-5.6c2.5-0.7,5.2,0.7,6,3
					C1341.5,390.5,1340,393,1337.5,393.7z"/>
				<path class="st1" d="M1309.1,812.8c-2.5,0.7-5.2-0.7-6-3c-0.8-2.4,0.7-4.9,3.3-5.6c2.6-0.7,5.2,0.7,6,3
					C1313.1,809.6,1311.7,812.1,1309.1,812.8z"/>
				<path class="st1" d="M1330.4,498.5c-2.5,0.7-5.2-0.7-6-3c-0.7-2.4,0.7-4.9,3.3-5.6c2.6-0.7,5.2,0.7,6,3
					C1334.4,495.3,1333,497.8,1330.4,498.5z"/>
				<path class="st1" d="M1309.1,812.8c-2.5,0.7-5.2-0.7-6-3c-0.8-2.4,0.7-4.9,3.3-5.6c2.6-0.7,5.2,0.7,6,3
					C1313.1,809.6,1311.7,812.1,1309.1,812.8z"/>
				<path class="st1" d="M1059.1,544.7c-2.6,0.7-5.2-0.7-6-3c-0.7-2.4,0.7-4.9,3.3-5.6c2.5-0.7,5.2,0.7,6,3
					C1063.2,541.5,1061.7,544,1059.1,544.7z"/>
				<path class="st1" d="M1309.1,812.8c-2.5,0.7-5.2-0.7-6-3c-0.8-2.4,0.7-4.9,3.3-5.6c2.6-0.7,5.2,0.7,6,3
					C1313.1,809.6,1311.7,812.1,1309.1,812.8z"/>
				<path class="st1" d="M1059.1,544.7c-2.6,0.7-5.2-0.7-6-3c-0.7-2.4,0.7-4.9,3.3-5.6c2.5-0.7,5.2,0.7,6,3
					C1063.2,541.5,1061.7,544,1059.1,544.7z"/>
				<path class="st1" d="M1309.1,812.8c-2.5,0.7-5.2-0.7-6-3c-0.8-2.4,0.7-4.9,3.3-5.6c2.6-0.7,5.2,0.7,6,3
					C1313.1,809.6,1311.7,812.1,1309.1,812.8z"/>
				<path class="st1" d="M1309.1,812.8c-2.5,0.7-5.2-0.7-6-3c-0.8-2.4,0.7-4.9,3.3-5.6c2.6-0.7,5.2,0.7,6,3
					C1313.1,809.6,1311.7,812.1,1309.1,812.8z"/>
				<path class="st1" d="M1078.9,861.9c-2.6,0.7-5.2-0.7-6-3c-0.7-2.4,0.7-4.9,3.3-5.6c2.5-0.7,5.2,0.7,6,3
					C1082.9,858.7,1081.4,861.2,1078.9,861.9z"/>
				<path class="st1" d="M810.4,519.4c-2.5,0.7-5.2-0.7-6-3c-0.7-2.4,0.7-4.9,3.3-5.6c2.6-0.7,5.2,0.7,6,3
					C814.5,516.2,813,518.7,810.4,519.4z"/>
				<path class="st1" d="M1078.9,861.9c-2.6,0.7-5.2-0.7-6-3c-0.7-2.4,0.7-4.9,3.3-5.6c2.5-0.7,5.2,0.7,6,3
					C1082.9,858.7,1081.4,861.2,1078.9,861.9z"/>
				<path class="st1" d="M1078.9,861.9c-2.6,0.7-5.2-0.7-6-3c-0.7-2.4,0.7-4.9,3.3-5.6c2.5-0.7,5.2,0.7,6,3
					C1082.9,858.7,1081.4,861.2,1078.9,861.9z"/>
				<path class="st1" d="M1250,450.4c-2.5,0.7-5.2-0.7-6-3c-0.7-2.4,0.7-4.9,3.3-5.6c2.6-0.7,5.2,0.7,6,3
					C1254.1,447.2,1252.6,449.7,1250,450.4z"/>
				<path class="st1" d="M1078.9,861.9c-2.6,0.7-5.2-0.7-6-3c-0.7-2.4,0.7-4.9,3.3-5.6c2.5-0.7,5.2,0.7,6,3
					C1082.9,858.7,1081.4,861.2,1078.9,861.9z"/>
				<path class="st1" d="M1330.4,498.5c-2.5,0.7-5.2-0.7-6-3c-0.7-2.4,0.7-4.9,3.3-5.6c2.6-0.7,5.2,0.7,6,3
					C1334.4,495.3,1333,497.8,1330.4,498.5z"/>
				<path class="st1" d="M1078.9,861.9c-2.6,0.7-5.2-0.7-6-3c-0.7-2.4,0.7-4.9,3.3-5.6c2.5-0.7,5.2,0.7,6,3
					C1082.9,858.7,1081.4,861.2,1078.9,861.9z"/>
				<path class="st1" d="M1059.1,544.7c-2.6,0.7-5.2-0.7-6-3c-0.7-2.4,0.7-4.9,3.3-5.6c2.5-0.7,5.2,0.7,6,3
					C1063.2,541.5,1061.7,544,1059.1,544.7z"/>
				<path class="st1" d="M1078.9,861.9c-2.6,0.7-5.2-0.7-6-3c-0.7-2.4,0.7-4.9,3.3-5.6c2.5-0.7,5.2,0.7,6,3
					C1082.9,858.7,1081.4,861.2,1078.9,861.9z"/>
				<path class="st1" d="M1059.1,544.7c-2.6,0.7-5.2-0.7-6-3c-0.7-2.4,0.7-4.9,3.3-5.6c2.5-0.7,5.2,0.7,6,3
					C1063.2,541.5,1061.7,544,1059.1,544.7z"/>
				<path class="st1" d="M1078.9,861.9c-2.6,0.7-5.2-0.7-6-3c-0.7-2.4,0.7-4.9,3.3-5.6c2.5-0.7,5.2,0.7,6,3
					C1082.9,858.7,1081.4,861.2,1078.9,861.9z"/>
				<path class="st1" d="M1572.6,376c-2.5,0.7-5.2-0.7-6-3c-0.7-2.4,0.7-4.9,3.3-5.6c2.6-0.7,5.2,0.7,6,3
					C1576.6,372.8,1575.2,375.3,1572.6,376z"/>
				<path class="st1" d="M1250,450.4c-2.5,0.7-5.2-0.7-6-3c-0.7-2.4,0.7-4.9,3.3-5.6c2.6-0.7,5.2,0.7,6,3
					C1254.1,447.2,1252.6,449.7,1250,450.4z"/>
				<path class="st1" d="M1572.6,376c-2.5,0.7-5.2-0.7-6-3c-0.7-2.4,0.7-4.9,3.3-5.6c2.6-0.7,5.2,0.7,6,3
					C1576.6,372.8,1575.2,375.3,1572.6,376z"/>
				<path class="st1" d="M1337.5,393.7c-2.6,0.7-5.2-0.7-6-3c-0.7-2.4,0.7-4.9,3.3-5.6c2.5-0.7,5.2,0.7,6,3
					C1341.5,390.5,1340,393,1337.5,393.7z"/>
				<path class="st1" d="M1572.6,376c-2.5,0.7-5.2-0.7-6-3c-0.7-2.4,0.7-4.9,3.3-5.6c2.6-0.7,5.2,0.7,6,3
					C1576.6,372.8,1575.2,375.3,1572.6,376z"/>
				<path class="st1" d="M1330.4,498.5c-2.5,0.7-5.2-0.7-6-3c-0.7-2.4,0.7-4.9,3.3-5.6c2.6-0.7,5.2,0.7,6,3
					C1334.4,495.3,1333,497.8,1330.4,498.5z"/>
				<path class="st1" d="M1572.6,376c-2.5,0.7-5.2-0.7-6-3c-0.7-2.4,0.7-4.9,3.3-5.6c2.6-0.7,5.2,0.7,6,3
					C1576.6,372.8,1575.2,375.3,1572.6,376z"/>
				<path class="st1" d="M1309.1,812.8c-2.5,0.7-5.2-0.7-6-3c-0.8-2.4,0.7-4.9,3.3-5.6c2.6-0.7,5.2,0.7,6,3
					C1313.1,809.6,1311.7,812.1,1309.1,812.8z"/>
				<path class="st1" d="M1567.3,868.3c-2.5,0.7-5.2-0.7-6-3c-0.7-2.4,0.7-4.9,3.3-5.6c2.5-0.7,5.2,0.7,6,3
					C1571.3,865.1,1569.9,867.6,1567.3,868.3z"/>
				<path class="st1" d="M1330.4,498.5c-2.5,0.7-5.2-0.7-6-3c-0.7-2.4,0.7-4.9,3.3-5.6c2.6-0.7,5.2,0.7,6,3
					C1334.4,495.3,1333,497.8,1330.4,498.5z"/>
				<path class="st1" d="M1567.3,868.3c-2.5,0.7-5.2-0.7-6-3c-0.7-2.4,0.7-4.9,3.3-5.6c2.5-0.7,5.2,0.7,6,3
					C1571.3,865.1,1569.9,867.6,1567.3,868.3z"/>
				<path class="st1" d="M1567.3,868.3c-2.5,0.7-5.2-0.7-6-3c-0.7-2.4,0.7-4.9,3.3-5.6c2.5-0.7,5.2,0.7,6,3
					C1571.3,865.1,1569.9,867.6,1567.3,868.3z"/>
				<path class="st1" d="M1654.3,666.9c-2.5,0.7-5.2-0.7-6-3c-0.7-2.4,0.7-4.9,3.3-5.6c2.6-0.7,5.2,0.7,6,3
					C1658.3,663.7,1656.8,666.2,1654.3,666.9z"/>
				<path class="st1" d="M1572.6,376c-2.5,0.7-5.2-0.7-6-3c-0.7-2.4,0.7-4.9,3.3-5.6c2.6-0.7,5.2,0.7,6,3
					C1576.6,372.8,1575.2,375.3,1572.6,376z"/>
				<path class="st1" d="M1654.3,666.9c-2.5,0.7-5.2-0.7-6-3c-0.7-2.4,0.7-4.9,3.3-5.6c2.6-0.7,5.2,0.7,6,3
					C1658.3,663.7,1656.8,666.2,1654.3,666.9z"/>
				<path class="st1" d="M1654.3,666.9c-2.5,0.7-5.2-0.7-6-3c-0.7-2.4,0.7-4.9,3.3-5.6c2.6-0.7,5.2,0.7,6,3
					C1658.3,663.7,1656.8,666.2,1654.3,666.9z"/>
				<path class="st1" d="M1309.1,812.8c-2.5,0.7-5.2-0.7-6-3c-0.8-2.4,0.7-4.9,3.3-5.6c2.6-0.7,5.2,0.7,6,3
					C1313.1,809.6,1311.7,812.1,1309.1,812.8z"/>
				<path class="st1" d="M1654.3,666.9c-2.5,0.7-5.2-0.7-6-3c-0.7-2.4,0.7-4.9,3.3-5.6c2.6-0.7,5.2,0.7,6,3
					C1658.3,663.7,1656.8,666.2,1654.3,666.9z"/>
				<path class="st1" d="M1250,450.4c-2.5,0.7-5.2-0.7-6-3c-0.7-2.4,0.7-4.9,3.3-5.6c2.6-0.7,5.2,0.7,6,3
					C1254.1,447.2,1252.6,449.7,1250,450.4z"/>
				<path class="st1" d="M1654.3,666.9c-2.5,0.7-5.2-0.7-6-3c-0.7-2.4,0.7-4.9,3.3-5.6c2.6-0.7,5.2,0.7,6,3
					C1658.3,663.7,1656.8,666.2,1654.3,666.9z"/>
				<path class="st1" d="M1337.5,393.7c-2.6,0.7-5.2-0.7-6-3c-0.7-2.4,0.7-4.9,3.3-5.6c2.5-0.7,5.2,0.7,6,3
					C1341.5,390.5,1340,393,1337.5,393.7z"/>
				<path class="st1" d="M1654.3,666.9c-2.5,0.7-5.2-0.7-6-3c-0.7-2.4,0.7-4.9,3.3-5.6c2.6-0.7,5.2,0.7,6,3
					C1658.3,663.7,1656.8,666.2,1654.3,666.9z"/>
				<path class="st1" d="M1330.4,498.5c-2.5,0.7-5.2-0.7-6-3c-0.7-2.4,0.7-4.9,3.3-5.6c2.6-0.7,5.2,0.7,6,3
					C1334.4,495.3,1333,497.8,1330.4,498.5z"/>
				<path class="st1" d="M1654.3,666.9c-2.5,0.7-5.2-0.7-6-3c-0.7-2.4,0.7-4.9,3.3-5.6c2.6-0.7,5.2,0.7,6,3
					C1658.3,663.7,1656.8,666.2,1654.3,666.9z"/>
				<path class="st1" d="M1654.3,666.9c-2.5,0.7-5.2-0.7-6-3c-0.7-2.4,0.7-4.9,3.3-5.6c2.6-0.7,5.2,0.7,6,3
					C1658.3,663.7,1656.8,666.2,1654.3,666.9z"/>
				<path class="st1" d="M1743.3,885.6c-2.5,0.7-5.2-0.7-6-3c-0.7-2.4,0.7-4.9,3.3-5.6c2.6-0.7,5.2,0.7,6,3
					C1747.3,882.4,1745.8,884.9,1743.3,885.6z"/>
				<path class="st1" d="M1654.3,666.9c-2.5,0.7-5.2-0.7-6-3c-0.7-2.4,0.7-4.9,3.3-5.6c2.6-0.7,5.2,0.7,6,3
					C1658.3,663.7,1656.8,666.2,1654.3,666.9z"/>
				<path class="st1" d="M1743.3,885.6c-2.5,0.7-5.2-0.7-6-3c-0.7-2.4,0.7-4.9,3.3-5.6c2.6-0.7,5.2,0.7,6,3
					C1747.3,882.4,1745.8,884.9,1743.3,885.6z"/>
				<path class="st1" d="M1567.3,868.3c-2.5,0.7-5.2-0.7-6-3c-0.7-2.4,0.7-4.9,3.3-5.6c2.5-0.7,5.2,0.7,6,3
					C1571.3,865.1,1569.9,867.6,1567.3,868.3z"/>
				<path class="st1" d="M1743.3,885.6c-2.5,0.7-5.2-0.7-6-3c-0.7-2.4,0.7-4.9,3.3-5.6c2.6-0.7,5.2,0.7,6,3
					C1747.3,882.4,1745.8,884.9,1743.3,885.6z"/>
				<path class="st1" d="M1743.3,885.6c-2.5,0.7-5.2-0.7-6-3c-0.7-2.4,0.7-4.9,3.3-5.6c2.6-0.7,5.2,0.7,6,3
					C1747.3,882.4,1745.8,884.9,1743.3,885.6z"/>
				<path class="st1" d="M1309.1,812.8c-2.5,0.7-5.2-0.7-6-3c-0.8-2.4,0.7-4.9,3.3-5.6c2.6-0.7,5.2,0.7,6,3
					C1313.1,809.6,1311.7,812.1,1309.1,812.8z"/>
				<path class="st1" d="M1743.3,885.6c-2.5,0.7-5.2-0.7-6-3c-0.7-2.4,0.7-4.9,3.3-5.6c2.6-0.7,5.2,0.7,6,3
					C1747.3,882.4,1745.8,884.9,1743.3,885.6z"/>
			</g>
		</g>
		<g>
			<g>
				<g>
					<g>
						<polygon class="st1" points="1057.9,540.8 1057.7,540 1329,493.7 1329.1,494.6 						"/>
					</g>
					<g>
						<polygon class="st1" points="1057.9,540.8 1057.7,540 1329,493.7 1329.1,494.6 						"/>
					</g>
				</g>
				<g>
					<g>
						<polygon class="st1" points="1329.5,494.2 1328.6,494.1 1335.7,389.4 1336.6,389.4 						"/>
					</g>
					<g>
						<polygon class="st1" points="1058,540.8 1057.6,540.1 1335.9,389 1336.4,389.8 						"/>
					</g>
					<g>
						<polygon class="st1" points="1058,540.8 1057.6,540.1 1335.9,389 1336.4,389.8 						"/>
					</g>
				</g>
				<g>
					<g>
						<polygon class="st1" points="1249,446.4 1248.4,445.7 1335.9,389 1336.4,389.7 						"/>
					</g>
					<g>
						<polygon class="st1" points="1328.8,494.5 1248.4,446.4 1248.9,445.7 1329.3,493.8 						"/>
					</g>
					<g>
						<polygon class="st1" points="1058,540.8 1057.6,540 1248.5,445.7 1248.9,446.4 						"/>
					</g>
					<g>
						<polygon class="st1" points="1058,540.8 1057.6,540 1248.5,445.7 1248.9,446.4 						"/>
					</g>
				</g>
				<g>
					<g>
						<polygon class="st1" points="767.8,797.7 1058.1,540.7 1057.5,540.1 767.8,796.6 						"/>
					</g>
					<g>
						<polygon class="st1" points="767.8,797.7 1058.1,540.7 1057.5,540.1 767.8,796.6 						"/>
					</g>
				</g>
				<g>
					<g>
						<polygon class="st1" points="767.8,731.5 809.5,515.1 808.6,515 767.8,726.6 						"/>
					</g>
					<g>
						<polygon class="st1" points="767.8,508.4 767.8,509.3 809,515.5 809.2,514.6 						"/>
					</g>
					<g>
						<polygon class="st1" points="809.2,515.5 809,514.6 1248.6,445.6 1248.8,446.5 						"/>
					</g>
					<g>
						<polygon class="st1" points="767.8,540.6 809.3,515.4 808.8,514.7 767.8,539.5 						"/>
					</g>
					<g>
						<polygon class="st1" points="1057.7,540.9 809,515.5 809.1,514.6 1057.8,540 						"/>
					</g>
					<g>
						<polygon class="st1" points="1057.7,540.9 809,515.5 809.1,514.6 1057.8,540 						"/>
					</g>
				</g>
				<g>
					<g>
						<polygon class="st1" points="1307.3,808.6 1248.2,446.1 1249.1,446 1308.2,808.5 						"/>
					</g>
					<g>
						<polygon class="st1" points="1308.2,808.5 1307.3,808.5 1335.7,389.4 1336.6,389.4 						"/>
					</g>
					<g>
						<polygon class="st1" points="1308.2,808.5 1307.3,808.5 1328.6,494.1 1329.5,494.2 						"/>
					</g>
					<g>
						<polygon class="st1" points="1307.4,808.8 1057.4,540.7 1058.1,540.1 1308.1,808.2 						"/>
					</g>
					<g>
						<polygon class="st1" points="1307.4,808.8 1057.4,540.7 1058.1,540.1 1308.1,808.2 						"/>
					</g>
				</g>
				<g>
					<g>
						<polygon class="st1" points="1077.6,858 1077.4,857.1 1307.7,808.1 1307.9,808.9 						"/>
					</g>
					<g>
						<polygon class="st1" points="1077.2,857.8 808.7,515.3 809.5,514.8 1077.9,857.3 						"/>
					</g>
					<g>
						<polygon class="st1" points="767.8,813 767.8,813.9 1077.5,858 1077.6,857.1 						"/>
					</g>
					<g>
						<polygon class="st1" points="1078,857.7 1077.1,857.4 1248.3,445.9 1249.1,446.2 						"/>
					</g>
					<g>
						<polygon class="st1" points="1077.9,857.8 1077.1,857.3 1328.7,493.9 1329.4,494.4 						"/>
					</g>
					<g>
						<polygon class="st1" points="1077.1,857.6 1057.3,540.5 1058.3,540.4 1078,857.5 						"/>
					</g>
					<g>
						<polygon class="st1" points="1077.1,857.6 1057.3,540.5 1058.3,540.4 1078,857.5 						"/>
					</g>
				</g>
				<g>
					<g>
						<polygon class="st1" points="1917,544 1571.5,371.4 1571.1,372.1 1917,545 						"/>
					</g>
					<g>
						<polygon class="st1" points="1248.8,446.5 1248.6,445.6 1571.2,371.3 1571.4,372.2 						"/>
					</g>
					<g>
						<polygon class="st1" points="1336.2,389.8 1336.1,389 1571.2,371.3 1571.3,372.2 						"/>
					</g>
					<g>
						<polygon class="st1" points="1329.3,494.5 1328.8,493.8 1571.1,371.4 1571.5,372.1 						"/>
					</g>
				</g>
				<g>
					<g>
						<polygon class="st1" points="1565.9,864.4 1307.7,808.9 1307.9,808.1 1566.1,863.6 						"/>
					</g>
					<g>
						<polygon class="st1" points="1565.6,864.2 1328.7,494.4 1329.4,493.9 1566.4,863.8 						"/>
					</g>
				</g>
				<g>
					<g>
						<polygon class="st1" points="1566.4,864.2 1565.5,863.8 1652.5,662.4 1653.3,662.7 						"/>
					</g>
					<g>
						<polygon class="st1" points="1652.5,662.7 1570.8,371.8 1571.7,371.6 1653.4,662.5 						"/>
					</g>
					<g>
						<polygon class="st1" points="1917,585.9 1652.8,662.1 1653.1,663 1917,586.8 						"/>
					</g>
					<g>
						<polygon class="st1" points="1308,808.9 1307.6,808.1 1652.7,662.2 1653.1,663 						"/>
					</g>
					<g>
						<polygon class="st1" points="1652.7,662.9 1248.5,446.4 1248.9,445.7 1653.1,662.2 						"/>
					</g>
					<g>
						<polygon class="st1" points="1652.6,662.9 1335.8,389.7 1336.4,389.1 1653.2,662.2 						"/>
					</g>
					<g>
						<polygon class="st1" points="1652.7,662.9 1328.8,494.5 1329.3,493.8 1653.1,662.2 						"/>
					</g>
				</g>
				<g>
					<g>
						<polygon class="st1" points="1917,726.7 1653,662.1 1652.8,663 1917,727.6 						"/>
					</g>
				</g>
				<g>
					<g>
						<polygon class="st1" points="1917,828.3 1741.8,880.8 1742.1,881.7 1917,829.2 						"/>
					</g>
					<g>
						<polygon class="st1" points="1741.5,881.4 1652.5,662.7 1653.3,662.4 1742.3,881.1 						"/>
					</g>
					<g>
						<polygon class="st1" points="1741.9,881.7 1565.9,864.4 1566,863.6 1742,880.8 						"/>
					</g>
					<g>
						<polygon class="st1" points="1917,642.4 1741.5,881 1742.3,881.5 1917,643.9 						"/>
					</g>
					<g>
						<polygon class="st1" points="1741.8,881.7 1307.7,808.9 1307.9,808.1 1742,880.8 						"/>
					</g>
				</g>
			</g>
			<g>
				<path class="st1" d="M1059.1,544.7c-2.6,0.7-5.2-0.7-6-3c-0.7-2.4,0.7-4.9,3.3-5.6c2.5-0.7,5.2,0.7,6,3
					C1063.2,541.5,1061.7,544,1059.1,544.7z"/>
				<path class="st1" d="M1330.4,498.5c-2.5,0.7-5.2-0.7-6-3c-0.7-2.4,0.7-4.9,3.3-5.6c2.6-0.7,5.2,0.7,6,3
					C1334.4,495.3,1333,497.8,1330.4,498.5z"/>
				<path class="st1" d="M1059.1,544.7c-2.6,0.7-5.2-0.7-6-3c-0.7-2.4,0.7-4.9,3.3-5.6c2.5-0.7,5.2,0.7,6,3
					C1063.2,541.5,1061.7,544,1059.1,544.7z"/>
				<path class="st1" d="M1330.4,498.5c-2.5,0.7-5.2-0.7-6-3c-0.7-2.4,0.7-4.9,3.3-5.6c2.6-0.7,5.2,0.7,6,3
					C1334.4,495.3,1333,497.8,1330.4,498.5z"/>
				<path class="st1" d="M1330.4,498.5c-2.5,0.7-5.2-0.7-6-3c-0.7-2.4,0.7-4.9,3.3-5.6c2.6-0.7,5.2,0.7,6,3
					C1334.4,495.3,1333,497.8,1330.4,498.5z"/>
				<path class="st1" d="M1337.5,393.7c-2.6,0.7-5.2-0.7-6-3c-0.7-2.4,0.7-4.9,3.3-5.6c2.5-0.7,5.2,0.7,6,3
					C1341.5,390.5,1340,393,1337.5,393.7z"/>
				<path class="st1" d="M1059.1,544.7c-2.6,0.7-5.2-0.7-6-3c-0.7-2.4,0.7-4.9,3.3-5.6c2.5-0.7,5.2,0.7,6,3
					C1063.2,541.5,1061.7,544,1059.1,544.7z"/>
				<path class="st1" d="M1337.5,393.7c-2.6,0.7-5.2-0.7-6-3c-0.7-2.4,0.7-4.9,3.3-5.6c2.5-0.7,5.2,0.7,6,3
					C1341.5,390.5,1340,393,1337.5,393.7z"/>
				<path class="st1" d="M1059.1,544.7c-2.6,0.7-5.2-0.7-6-3c-0.7-2.4,0.7-4.9,3.3-5.6c2.5-0.7,5.2,0.7,6,3
					C1063.2,541.5,1061.7,544,1059.1,544.7z"/>
				<path class="st1" d="M1337.5,393.7c-2.6,0.7-5.2-0.7-6-3c-0.7-2.4,0.7-4.9,3.3-5.6c2.5-0.7,5.2,0.7,6,3
					C1341.5,390.5,1340,393,1337.5,393.7z"/>
				<path class="st1" d="M1337.5,393.7c-2.6,0.7-5.2-0.7-6-3c-0.7-2.4,0.7-4.9,3.3-5.6c2.5-0.7,5.2,0.7,6,3
					C1341.5,390.5,1340,393,1337.5,393.7z"/>
				<path class="st1" d="M1250,450.4c-2.5,0.7-5.2-0.7-6-3c-0.7-2.4,0.7-4.9,3.3-5.6c2.6-0.7,5.2,0.7,6,3
					C1254.1,447.2,1252.6,449.7,1250,450.4z"/>
				<path class="st1" d="M1330.4,498.5c-2.5,0.7-5.2-0.7-6-3c-0.7-2.4,0.7-4.9,3.3-5.6c2.6-0.7,5.2,0.7,6,3
					C1334.4,495.3,1333,497.8,1330.4,498.5z"/>
				<path class="st1" d="M1250,450.4c-2.5,0.7-5.2-0.7-6-3c-0.7-2.4,0.7-4.9,3.3-5.6c2.6-0.7,5.2,0.7,6,3
					C1254.1,447.2,1252.6,449.7,1250,450.4z"/>
				<path class="st1" d="M1059.1,544.7c-2.6,0.7-5.2-0.7-6-3c-0.7-2.4,0.7-4.9,3.3-5.6c2.5-0.7,5.2,0.7,6,3
					C1063.2,541.5,1061.7,544,1059.1,544.7z"/>
				<path class="st1" d="M1250,450.4c-2.5,0.7-5.2-0.7-6-3c-0.7-2.4,0.7-4.9,3.3-5.6c2.6-0.7,5.2,0.7,6,3
					C1254.1,447.2,1252.6,449.7,1250,450.4z"/>
				<path class="st1" d="M1059.1,544.7c-2.6,0.7-5.2-0.7-6-3c-0.7-2.4,0.7-4.9,3.3-5.6c2.5-0.7,5.2,0.7,6,3
					C1063.2,541.5,1061.7,544,1059.1,544.7z"/>
				<path class="st1" d="M1250,450.4c-2.5,0.7-5.2-0.7-6-3c-0.7-2.4,0.7-4.9,3.3-5.6c2.6-0.7,5.2,0.7,6,3
					C1254.1,447.2,1252.6,449.7,1250,450.4z"/>
				<path class="st1" d="M1059.1,544.7c-2.6,0.7-5.2-0.7-6-3c-0.7-2.4,0.7-4.9,3.3-5.6c2.5-0.7,5.2,0.7,6,3
					C1063.2,541.5,1061.7,544,1059.1,544.7z"/>
				<path class="st1" d="M1059.1,544.7c-2.6,0.7-5.2-0.7-6-3c-0.7-2.4,0.7-4.9,3.3-5.6c2.5-0.7,5.2,0.7,6,3
					C1063.2,541.5,1061.7,544,1059.1,544.7z"/>
				<path class="st1" d="M810.4,519.4c-2.5,0.7-5.2-0.7-6-3c-0.7-2.4,0.7-4.9,3.3-5.6c2.6-0.7,5.2,0.7,6,3
					C814.5,516.2,813,518.7,810.4,519.4z"/>
				<path class="st1" d="M810.4,519.4c-2.5,0.7-5.2-0.7-6-3c-0.7-2.4,0.7-4.9,3.3-5.6c2.6-0.7,5.2,0.7,6,3
					C814.5,516.2,813,518.7,810.4,519.4z"/>
				<path class="st1" d="M1250,450.4c-2.5,0.7-5.2-0.7-6-3c-0.7-2.4,0.7-4.9,3.3-5.6c2.6-0.7,5.2,0.7,6,3
					C1254.1,447.2,1252.6,449.7,1250,450.4z"/>
				<path class="st1" d="M810.4,519.4c-2.5,0.7-5.2-0.7-6-3c-0.7-2.4,0.7-4.9,3.3-5.6c2.6-0.7,5.2,0.7,6,3
					C814.5,516.2,813,518.7,810.4,519.4z"/>
				<path class="st1" d="M810.4,519.4c-2.5,0.7-5.2-0.7-6-3c-0.7-2.4,0.7-4.9,3.3-5.6c2.6-0.7,5.2,0.7,6,3
					C814.5,516.2,813,518.7,810.4,519.4z"/>
				<path class="st1" d="M1059.1,544.7c-2.6,0.7-5.2-0.7-6-3c-0.7-2.4,0.7-4.9,3.3-5.6c2.5-0.7,5.2,0.7,6,3
					C1063.2,541.5,1061.7,544,1059.1,544.7z"/>
				<path class="st1" d="M810.4,519.4c-2.5,0.7-5.2-0.7-6-3c-0.7-2.4,0.7-4.9,3.3-5.6c2.6-0.7,5.2,0.7,6,3
					C814.5,516.2,813,518.7,810.4,519.4z"/>
				<path class="st1" d="M1059.1,544.7c-2.6,0.7-5.2-0.7-6-3c-0.7-2.4,0.7-4.9,3.3-5.6c2.5-0.7,5.2,0.7,6,3
					C1063.2,541.5,1061.7,544,1059.1,544.7z"/>
				<path class="st1" d="M810.4,519.4c-2.5,0.7-5.2-0.7-6-3c-0.7-2.4,0.7-4.9,3.3-5.6c2.6-0.7,5.2,0.7,6,3
					C814.5,516.2,813,518.7,810.4,519.4z"/>
				<path class="st1" d="M1250,450.4c-2.5,0.7-5.2-0.7-6-3c-0.7-2.4,0.7-4.9,3.3-5.6c2.6-0.7,5.2,0.7,6,3
					C1254.1,447.2,1252.6,449.7,1250,450.4z"/>
				<path class="st1" d="M1309.1,812.8c-2.5,0.7-5.2-0.7-6-3c-0.8-2.4,0.7-4.9,3.3-5.6c2.6-0.7,5.2,0.7,6,3
					C1313.1,809.6,1311.7,812.1,1309.1,812.8z"/>
				<path class="st1" d="M1337.5,393.7c-2.6,0.7-5.2-0.7-6-3c-0.7-2.4,0.7-4.9,3.3-5.6c2.5-0.7,5.2,0.7,6,3
					C1341.5,390.5,1340,393,1337.5,393.7z"/>
				<path class="st1" d="M1309.1,812.8c-2.5,0.7-5.2-0.7-6-3c-0.8-2.4,0.7-4.9,3.3-5.6c2.6-0.7,5.2,0.7,6,3
					C1313.1,809.6,1311.7,812.1,1309.1,812.8z"/>
				<path class="st1" d="M1330.4,498.5c-2.5,0.7-5.2-0.7-6-3c-0.7-2.4,0.7-4.9,3.3-5.6c2.6-0.7,5.2,0.7,6,3
					C1334.4,495.3,1333,497.8,1330.4,498.5z"/>
				<path class="st1" d="M1309.1,812.8c-2.5,0.7-5.2-0.7-6-3c-0.8-2.4,0.7-4.9,3.3-5.6c2.6-0.7,5.2,0.7,6,3
					C1313.1,809.6,1311.7,812.1,1309.1,812.8z"/>
				<path class="st1" d="M1059.1,544.7c-2.6,0.7-5.2-0.7-6-3c-0.7-2.4,0.7-4.9,3.3-5.6c2.5-0.7,5.2,0.7,6,3
					C1063.2,541.5,1061.7,544,1059.1,544.7z"/>
				<path class="st1" d="M1309.1,812.8c-2.5,0.7-5.2-0.7-6-3c-0.8-2.4,0.7-4.9,3.3-5.6c2.6-0.7,5.2,0.7,6,3
					C1313.1,809.6,1311.7,812.1,1309.1,812.8z"/>
				<path class="st1" d="M1059.1,544.7c-2.6,0.7-5.2-0.7-6-3c-0.7-2.4,0.7-4.9,3.3-5.6c2.5-0.7,5.2,0.7,6,3
					C1063.2,541.5,1061.7,544,1059.1,544.7z"/>
				<path class="st1" d="M1309.1,812.8c-2.5,0.7-5.2-0.7-6-3c-0.8-2.4,0.7-4.9,3.3-5.6c2.6-0.7,5.2,0.7,6,3
					C1313.1,809.6,1311.7,812.1,1309.1,812.8z"/>
				<path class="st1" d="M1309.1,812.8c-2.5,0.7-5.2-0.7-6-3c-0.8-2.4,0.7-4.9,3.3-5.6c2.6-0.7,5.2,0.7,6,3
					C1313.1,809.6,1311.7,812.1,1309.1,812.8z"/>
				<path class="st1" d="M1078.9,861.9c-2.6,0.7-5.2-0.7-6-3c-0.7-2.4,0.7-4.9,3.3-5.6c2.5-0.7,5.2,0.7,6,3
					C1082.9,858.7,1081.4,861.2,1078.9,861.9z"/>
				<path class="st1" d="M810.4,519.4c-2.5,0.7-5.2-0.7-6-3c-0.7-2.4,0.7-4.9,3.3-5.6c2.6-0.7,5.2,0.7,6,3
					C814.5,516.2,813,518.7,810.4,519.4z"/>
				<path class="st1" d="M1078.9,861.9c-2.6,0.7-5.2-0.7-6-3c-0.7-2.4,0.7-4.9,3.3-5.6c2.5-0.7,5.2,0.7,6,3
					C1082.9,858.7,1081.4,861.2,1078.9,861.9z"/>
				<path class="st1" d="M1078.9,861.9c-2.6,0.7-5.2-0.7-6-3c-0.7-2.4,0.7-4.9,3.3-5.6c2.5-0.7,5.2,0.7,6,3
					C1082.9,858.7,1081.4,861.2,1078.9,861.9z"/>
				<path class="st1" d="M1250,450.4c-2.5,0.7-5.2-0.7-6-3c-0.7-2.4,0.7-4.9,3.3-5.6c2.6-0.7,5.2,0.7,6,3
					C1254.1,447.2,1252.6,449.7,1250,450.4z"/>
				<path class="st1" d="M1078.9,861.9c-2.6,0.7-5.2-0.7-6-3c-0.7-2.4,0.7-4.9,3.3-5.6c2.5-0.7,5.2,0.7,6,3
					C1082.9,858.7,1081.4,861.2,1078.9,861.9z"/>
				<path class="st1" d="M1330.4,498.5c-2.5,0.7-5.2-0.7-6-3c-0.7-2.4,0.7-4.9,3.3-5.6c2.6-0.7,5.2,0.7,6,3
					C1334.4,495.3,1333,497.8,1330.4,498.5z"/>
				<path class="st1" d="M1078.9,861.9c-2.6,0.7-5.2-0.7-6-3c-0.7-2.4,0.7-4.9,3.3-5.6c2.5-0.7,5.2,0.7,6,3
					C1082.9,858.7,1081.4,861.2,1078.9,861.9z"/>
				<path class="st1" d="M1059.1,544.7c-2.6,0.7-5.2-0.7-6-3c-0.7-2.4,0.7-4.9,3.3-5.6c2.5-0.7,5.2,0.7,6,3
					C1063.2,541.5,1061.7,544,1059.1,544.7z"/>
				<path class="st1" d="M1078.9,861.9c-2.6,0.7-5.2-0.7-6-3c-0.7-2.4,0.7-4.9,3.3-5.6c2.5-0.7,5.2,0.7,6,3
					C1082.9,858.7,1081.4,861.2,1078.9,861.9z"/>
				<path class="st1" d="M1059.1,544.7c-2.6,0.7-5.2-0.7-6-3c-0.7-2.4,0.7-4.9,3.3-5.6c2.5-0.7,5.2,0.7,6,3
					C1063.2,541.5,1061.7,544,1059.1,544.7z"/>
				<path class="st1" d="M1078.9,861.9c-2.6,0.7-5.2-0.7-6-3c-0.7-2.4,0.7-4.9,3.3-5.6c2.5-0.7,5.2,0.7,6,3
					C1082.9,858.7,1081.4,861.2,1078.9,861.9z"/>
				<path class="st1" d="M1572.6,376c-2.5,0.7-5.2-0.7-6-3c-0.7-2.4,0.7-4.9,3.3-5.6c2.6-0.7,5.2,0.7,6,3
					C1576.6,372.8,1575.2,375.3,1572.6,376z"/>
				<path class="st1" d="M1250,450.4c-2.5,0.7-5.2-0.7-6-3c-0.7-2.4,0.7-4.9,3.3-5.6c2.6-0.7,5.2,0.7,6,3
					C1254.1,447.2,1252.6,449.7,1250,450.4z"/>
				<path class="st1" d="M1572.6,376c-2.5,0.7-5.2-0.7-6-3c-0.7-2.4,0.7-4.9,3.3-5.6c2.6-0.7,5.2,0.7,6,3
					C1576.6,372.8,1575.2,375.3,1572.6,376z"/>
				<path class="st1" d="M1337.5,393.7c-2.6,0.7-5.2-0.7-6-3c-0.7-2.4,0.7-4.9,3.3-5.6c2.5-0.7,5.2,0.7,6,3
					C1341.5,390.5,1340,393,1337.5,393.7z"/>
				<path class="st1" d="M1572.6,376c-2.5,0.7-5.2-0.7-6-3c-0.7-2.4,0.7-4.9,3.3-5.6c2.6-0.7,5.2,0.7,6,3
					C1576.6,372.8,1575.2,375.3,1572.6,376z"/>
				<path class="st1" d="M1330.4,498.5c-2.5,0.7-5.2-0.7-6-3c-0.7-2.4,0.7-4.9,3.3-5.6c2.6-0.7,5.2,0.7,6,3
					C1334.4,495.3,1333,497.8,1330.4,498.5z"/>
				<path class="st1" d="M1572.6,376c-2.5,0.7-5.2-0.7-6-3c-0.7-2.4,0.7-4.9,3.3-5.6c2.6-0.7,5.2,0.7,6,3
					C1576.6,372.8,1575.2,375.3,1572.6,376z"/>
				<path class="st1" d="M1309.1,812.8c-2.5,0.7-5.2-0.7-6-3c-0.8-2.4,0.7-4.9,3.3-5.6c2.6-0.7,5.2,0.7,6,3
					C1313.1,809.6,1311.7,812.1,1309.1,812.8z"/>
				<path class="st1" d="M1567.3,868.3c-2.5,0.7-5.2-0.7-6-3c-0.7-2.4,0.7-4.9,3.3-5.6c2.5-0.7,5.2,0.7,6,3
					C1571.3,865.1,1569.9,867.6,1567.3,868.3z"/>
				<path class="st1" d="M1330.4,498.5c-2.5,0.7-5.2-0.7-6-3c-0.7-2.4,0.7-4.9,3.3-5.6c2.6-0.7,5.2,0.7,6,3
					C1334.4,495.3,1333,497.8,1330.4,498.5z"/>
				<path class="st1" d="M1567.3,868.3c-2.5,0.7-5.2-0.7-6-3c-0.7-2.4,0.7-4.9,3.3-5.6c2.5-0.7,5.2,0.7,6,3
					C1571.3,865.1,1569.9,867.6,1567.3,868.3z"/>
				<path class="st1" d="M1567.3,868.3c-2.5,0.7-5.2-0.7-6-3c-0.7-2.4,0.7-4.9,3.3-5.6c2.5-0.7,5.2,0.7,6,3
					C1571.3,865.1,1569.9,867.6,1567.3,868.3z"/>
				<path class="st1" d="M1654.3,666.9c-2.5,0.7-5.2-0.7-6-3c-0.7-2.4,0.7-4.9,3.3-5.6c2.6-0.7,5.2,0.7,6,3
					C1658.3,663.7,1656.8,666.2,1654.3,666.9z"/>
				<path class="st1" d="M1572.6,376c-2.5,0.7-5.2-0.7-6-3c-0.7-2.4,0.7-4.9,3.3-5.6c2.6-0.7,5.2,0.7,6,3
					C1576.6,372.8,1575.2,375.3,1572.6,376z"/>
				<path class="st1" d="M1654.3,666.9c-2.5,0.7-5.2-0.7-6-3c-0.7-2.4,0.7-4.9,3.3-5.6c2.6-0.7,5.2,0.7,6,3
					C1658.3,663.7,1656.8,666.2,1654.3,666.9z"/>
				<path class="st1" d="M1654.3,666.9c-2.5,0.7-5.2-0.7-6-3c-0.7-2.4,0.7-4.9,3.3-5.6c2.6-0.7,5.2,0.7,6,3
					C1658.3,663.7,1656.8,666.2,1654.3,666.9z"/>
				<path class="st1" d="M1309.1,812.8c-2.5,0.7-5.2-0.7-6-3c-0.8-2.4,0.7-4.9,3.3-5.6c2.6-0.7,5.2,0.7,6,3
					C1313.1,809.6,1311.7,812.1,1309.1,812.8z"/>
				<path class="st1" d="M1654.3,666.9c-2.5,0.7-5.2-0.7-6-3c-0.7-2.4,0.7-4.9,3.3-5.6c2.6-0.7,5.2,0.7,6,3
					C1658.3,663.7,1656.8,666.2,1654.3,666.9z"/>
				<path class="st1" d="M1250,450.4c-2.5,0.7-5.2-0.7-6-3c-0.7-2.4,0.7-4.9,3.3-5.6c2.6-0.7,5.2,0.7,6,3
					C1254.1,447.2,1252.6,449.7,1250,450.4z"/>
				<path class="st1" d="M1654.3,666.9c-2.5,0.7-5.2-0.7-6-3c-0.7-2.4,0.7-4.9,3.3-5.6c2.6-0.7,5.2,0.7,6,3
					C1658.3,663.7,1656.8,666.2,1654.3,666.9z"/>
				<path class="st1" d="M1337.5,393.7c-2.6,0.7-5.2-0.7-6-3c-0.7-2.4,0.7-4.9,3.3-5.6c2.5-0.7,5.2,0.7,6,3
					C1341.5,390.5,1340,393,1337.5,393.7z"/>
				<path class="st1" d="M1654.3,666.9c-2.5,0.7-5.2-0.7-6-3c-0.7-2.4,0.7-4.9,3.3-5.6c2.6-0.7,5.2,0.7,6,3
					C1658.3,663.7,1656.8,666.2,1654.3,666.9z"/>
				<path class="st1" d="M1330.4,498.5c-2.5,0.7-5.2-0.7-6-3c-0.7-2.4,0.7-4.9,3.3-5.6c2.6-0.7,5.2,0.7,6,3
					C1334.4,495.3,1333,497.8,1330.4,498.5z"/>
				<path class="st1" d="M1654.3,666.9c-2.5,0.7-5.2-0.7-6-3c-0.7-2.4,0.7-4.9,3.3-5.6c2.6-0.7,5.2,0.7,6,3
					C1658.3,663.7,1656.8,666.2,1654.3,666.9z"/>
				<path class="st1" d="M1654.3,666.9c-2.5,0.7-5.2-0.7-6-3c-0.7-2.4,0.7-4.9,3.3-5.6c2.6-0.7,5.2,0.7,6,3
					C1658.3,663.7,1656.8,666.2,1654.3,666.9z"/>
				<path class="st1" d="M1743.3,885.6c-2.5,0.7-5.2-0.7-6-3c-0.7-2.4,0.7-4.9,3.3-5.6c2.6-0.7,5.2,0.7,6,3
					C1747.3,882.4,1745.8,884.9,1743.3,885.6z"/>
				<path class="st1" d="M1654.3,666.9c-2.5,0.7-5.2-0.7-6-3c-0.7-2.4,0.7-4.9,3.3-5.6c2.6-0.7,5.2,0.7,6,3
					C1658.3,663.7,1656.8,666.2,1654.3,666.9z"/>
				<path class="st1" d="M1743.3,885.6c-2.5,0.7-5.2-0.7-6-3c-0.7-2.4,0.7-4.9,3.3-5.6c2.6-0.7,5.2,0.7,6,3
					C1747.3,882.4,1745.8,884.9,1743.3,885.6z"/>
				<path class="st1" d="M1567.3,868.3c-2.5,0.7-5.2-0.7-6-3c-0.7-2.4,0.7-4.9,3.3-5.6c2.5-0.7,5.2,0.7,6,3
					C1571.3,865.1,1569.9,867.6,1567.3,868.3z"/>
				<path class="st1" d="M1743.3,885.6c-2.5,0.7-5.2-0.7-6-3c-0.7-2.4,0.7-4.9,3.3-5.6c2.6-0.7,5.2,0.7,6,3
					C1747.3,882.4,1745.8,884.9,1743.3,885.6z"/>
				<path class="st1" d="M1743.3,885.6c-2.5,0.7-5.2-0.7-6-3c-0.7-2.4,0.7-4.9,3.3-5.6c2.6-0.7,5.2,0.7,6,3
					C1747.3,882.4,1745.8,884.9,1743.3,885.6z"/>
				<path class="st1" d="M1309.1,812.8c-2.5,0.7-5.2-0.7-6-3c-0.8-2.4,0.7-4.9,3.3-5.6c2.6-0.7,5.2,0.7,6,3
					C1313.1,809.6,1311.7,812.1,1309.1,812.8z"/>
				<path class="st1" d="M1743.3,885.6c-2.5,0.7-5.2-0.7-6-3c-0.7-2.4,0.7-4.9,3.3-5.6c2.6-0.7,5.2,0.7,6,3
					C1747.3,882.4,1745.8,884.9,1743.3,885.6z"/>
			</g>
		</g>
	</g>
</g>
<g id="hive">
</g>
<g id="menu">
</g>
<g id="logo">
	<g>
		<polygon class="st2" points="138.5,81.3 138.5,79.9 211.1,79.8 211.1,20.6 35.9,20.6 35.9,79.8 126.1,79.8 126.1,81.2 34.5,81.2 
			34.5,19.2 212.6,19.2 212.6,81.2 		"/>
		<g>
			<path class="st2" d="M104.6,68.2v25.1h-1.3V81.1H85.2v12.2h-1.3V68.2h1.3V80h18.2V68.2H104.6z"/>
			<path class="st2" d="M114.1,68.2h1.3v25.1h-1.3V68.2z"/>
			<path class="st2" d="M144.6,68.2l-11.6,25.1h-1.2l-11.6-25.1h1.4l10.9,23.6l10.9-23.6H144.6z"/>
			<path class="st2" d="M166.6,92.2v1.1H149V68.2h17v1.1h-15.7V80h14.1v1.1h-14.1v11.1H166.6z"/>
		</g>
		<g>
			<path class="st2" d="M84,55.8l1-2c1.2,0.8,3.1,1.4,4.9,1.4c2.3,0,3.3-0.7,3.3-1.9c0-3.1-8.8-0.4-8.8-6c0-2.5,2.2-4.2,5.8-4.2
				c1.8,0,3.8,0.5,5,1.3l-1.1,2c-1.3-0.8-2.6-1.1-4-1.1c-2.2,0-3.3,0.8-3.3,1.9c0,3.3,8.8,0.6,8.8,6c0,2.5-2.3,4.1-6,4.1
				C87.4,57.4,85.1,56.7,84,55.8z"/>
			<path class="st2" d="M106.6,56.4c-0.8,0.7-1.9,1-3,1c-2.8,0-4.4-1.6-4.4-4.4v-7.6h-2.4v-2.1h2.4v-3h2.5v3h4v2.1h-4V53
				c0,1.5,0.8,2.3,2.2,2.3c0.7,0,1.4-0.2,2-0.7L106.6,56.4z"/>
			<path class="st2" d="M122.6,43.3v13.9h-2.4v-2.1c-1,1.4-2.7,2.3-4.7,2.3c-3.6,0-6-2-6-6.1v-8h2.5v7.7c0,2.7,1.4,4.1,3.7,4.1
				c2.6,0,4.3-1.6,4.3-4.6v-7.2H122.6z"/>
			<path class="st2" d="M140.5,37.8v19.5H138v-2.2c-1.1,1.6-2.9,2.4-4.9,2.4c-4.1,0-7-2.9-7-7.1s3-7.1,7-7.1c2,0,3.7,0.7,4.8,2.2
				v-7.7H140.5z M138,50.3c0-3-2-4.9-4.7-4.9c-2.7,0-4.7,1.9-4.7,4.9s2,4.9,4.7,4.9C136,55.2,138,53.3,138,50.3z"/>
			<path class="st2" d="M144.8,39c0-0.9,0.7-1.7,1.7-1.7s1.7,0.7,1.7,1.6c0,0.9-0.7,1.7-1.7,1.7C145.5,40.7,144.8,39.9,144.8,39z
				 M145.2,43.3h2.5v13.9h-2.5V43.3z"/>
			<path class="st2" d="M151.2,50.3c0-4.2,3.1-7.1,7.2-7.1c4.2,0,7.2,2.9,7.2,7.1s-3,7.1-7.2,7.1C154.3,57.4,151.2,54.5,151.2,50.3z
				 M163.1,50.3c0-3-2-4.9-4.7-4.9c-2.7,0-4.7,1.9-4.7,4.9s2,4.9,4.7,4.9C161.1,55.2,163.1,53.3,163.1,50.3z"/>
		</g>
	</g>
</g>
<g id="Layer_6" class="st3">
	<path class="st4" d="M1023.8,1017.9l-27.6,27.6c-4.7,4.7-12.3,4.7-17,0l-27.6-27.6c-4.7-4.7-4.7-12.3,0-17l27.6-27.6
		c4.7-4.7,12.3-4.7,17,0l27.6,27.6C1028.4,1005.6,1028.4,1013.2,1023.8,1017.9z"/>
	<polyline class="st5" points="963.4,1009.9 987.7,1032 1012,1009.9 	"/>
</g>
</svg>
