<?xml version="1.0" encoding="UTF-8"?>
<!DOCTYPE svg PUBLIC "-//W3C//DTD SVG 1.1//EN" "http://www.w3.org/Graphics/SVG/1.1/DTD/svg11.dtd">
<!-- Creator: CorelDRAW X8 -->
<svg xmlns="http://www.w3.org/2000/svg" xml:space="preserve" width="74.0443mm" height="27.4656mm" version="1.1" style="shape-rendering:geometricPrecision; text-rendering:geometricPrecision; image-rendering:optimizeQuality; fill-rule:evenodd; clip-rule:evenodd"
viewBox="0 0 29091 10791"
 xmlns:xlink="http://www.w3.org/1999/xlink">
 <defs>
  <style type="text/css">
   <![CDATA[
    .str0 {stroke:#AA0066;stroke-width:451.108}
    .fil2 {fill:none}
    .fil1 {fill:#2B2A29;fill-rule:nonzero}
    .fil0 {fill:#AA0066;fill-rule:nonzero}
   ]]>
  </style>
 </defs>
 <g id="Layer_x0020_1">
  <metadata id="CorelCorpID_0Corel-Layer"/>
  <g id="_1365142146064">
   <path class="fil0" d="M2687 1505l2452 0c483,0 873,50 1172,151 297,101 543,245 737,433 194,189 335,408 423,658 88,250 131,515 131,794 0,439 -65,779 -195,1020 -130,242 -310,444 -541,606 -230,164 -478,273 -743,327 -362,74 -690,112 -984,112l-2452 0 0 -4101zm1650 929l0 2240 404 0c346,0 591,-29 737,-88 145,-58 260,-161 343,-308 82,-146 123,-383 123,-712 0,-434 -92,-731 -276,-892 -185,-160 -491,-240 -919,-240l-412 0zm4114 -929l2172 0 838 2495 835 -2495 2164 0 0 4101 -1348 0 0 -3127 -1046 3127 -1220 0 -1043 -3127 0 3127 -1352 0 0 -4101zm10618 2425l1447 336c-98,311 -250,571 -459,780 -209,209 -469,367 -779,473 -310,107 -704,159 -1181,159 -581,0 -1056,-65 -1423,-194 -368,-129 -687,-358 -954,-684 -266,-327 -401,-744 -401,-1253 0,-679 235,-1201 705,-1565 471,-365 1136,-547 1995,-547 673,0 1202,104 1587,313 386,209 672,530 859,963l-1458 249c-51,-125 -105,-217 -161,-275 -91,-97 -205,-171 -338,-224 -134,-52 -283,-78 -449,-78 -373,0 -660,116 -859,347 -151,172 -226,441 -226,809 0,455 90,766 269,935 181,169 433,253 758,253 316,0 554,-67 716,-204 162,-136 279,-333 352,-593zm5805 0l1446 336c-97,311 -250,571 -459,780 -209,209 -469,367 -779,473 -309,107 -703,159 -1181,159 -581,0 -1056,-65 -1423,-194 -368,-129 -686,-358 -954,-684 -266,-327 -400,-744 -400,-1253 0,-679 235,-1201 705,-1565 470,-365 1135,-547 1995,-547 673,0 1201,104 1587,313 385,209 671,530 858,963l-1458 249c-51,-125 -104,-217 -160,-275 -92,-97 -205,-171 -338,-224 -135,-52 -284,-78 -449,-78 -373,0 -661,116 -860,347 -150,172 -226,441 -226,809 0,455 91,766 270,935 180,169 433,253 757,253 316,0 555,-67 717,-204 161,-136 278,-333 352,-593z"/>
   <path class="fil1" d="M2522 10147c-172,0 -312,-47 -418,-140 -117,-104 -175,-249 -175,-436 0,-215 48,-396 144,-542 104,-159 244,-239 418,-239 127,0 230,24 310,70 98,57 148,145 148,264 0,83 -43,158 -130,226 -38,30 -119,76 -242,139l-437 225c43,69 96,121 160,155 64,35 138,53 222,53 53,0 114,-11 185,-33 90,-27 148,-63 174,-107 26,-44 54,-67 84,-67 26,0 50,12 71,34 21,22 32,47 32,76 0,92 -69,171 -205,238 -117,56 -230,84 -341,84zm-31 -1133c-93,0 -170,39 -232,118 -62,78 -108,196 -138,353l351 -181c138,-73 236,-136 295,-190 -66,-66 -158,-100 -276,-100zm1657 1164c-66,0 -102,-39 -111,-117l-32 -272c-11,-97 -16,-188 -16,-273 0,-23 1,-62 4,-118 3,-55 4,-95 4,-118 0,-179 -31,-268 -92,-268 -85,0 -167,55 -244,165 -70,100 -125,227 -165,381 -1,32 -5,73 -10,121 -5,42 -7,82 -7,121 0,25 2,62 7,112 5,50 7,87 7,112 0,37 -11,67 -32,91 -21,23 -48,35 -81,35 -33,0 -60,-12 -81,-35 -20,-24 -30,-54 -30,-91 0,-25 -3,-62 -8,-112 -5,-50 -7,-87 -7,-112 0,-85 5,-204 17,-355 10,-151 16,-269 16,-355 0,-26 -1,-66 -4,-118 -3,-52 -4,-92 -4,-118 0,-36 11,-65 32,-88 22,-22 49,-34 81,-34 70,0 109,54 116,162l3 145c128,-185 260,-278 394,-278 123,0 207,58 256,175 32,78 50,193 53,346l0 125 -1 116c0,69 8,158 25,266 16,109 24,198 24,266 0,36 -11,66 -32,89 -22,23 -49,34 -82,34zm1290 -624l-27 418c-4,165 -20,301 -46,406 -35,134 -90,233 -165,297 -91,78 -224,116 -397,116 -101,0 -186,-7 -255,-22 -96,-21 -144,-64 -144,-130 0,-74 33,-110 100,-110 27,0 73,7 137,21 64,15 135,21 212,20 147,-3 248,-80 304,-232 36,-101 55,-256 58,-466 -41,83 -90,145 -147,187 -57,41 -122,62 -195,62 -138,0 -250,-51 -337,-154 -86,-102 -130,-235 -130,-398 0,-224 59,-404 178,-541 121,-141 288,-211 498,-211 71,0 130,9 178,29 48,20 85,50 110,90 82,2 123,52 123,148 0,59 -9,137 -25,236 -17,115 -27,193 -30,234zm-367 -538c-145,0 -257,54 -336,163 -71,97 -107,222 -107,372 0,121 21,211 63,271 42,61 105,91 189,91 77,0 151,-47 224,-142 66,-87 103,-173 112,-258 16,-90 33,-230 51,-422 -30,-25 -62,-44 -94,-57 -33,-12 -67,-18 -102,-18zm887 -500c-37,0 -68,-14 -95,-43 -27,-28 -40,-62 -40,-102 0,-39 13,-73 40,-101 27,-28 58,-43 95,-43 37,0 68,15 95,43 26,28 39,62 39,101 0,40 -13,74 -39,102 -27,29 -58,43 -95,43zm52 1009c0,50 1,124 4,224 2,98 3,173 3,223 0,36 -10,66 -30,89 -21,23 -48,35 -82,35 -32,0 -59,-12 -80,-35 -21,-23 -32,-53 -32,-89 0,-50 -1,-125 -3,-223 -3,-100 -5,-174 -5,-224 0,-78 4,-175 12,-291 7,-117 11,-214 11,-292 0,-37 11,-67 32,-91 21,-23 48,-34 80,-34 33,0 60,11 81,34 21,24 31,54 31,91 0,78 -4,175 -11,292 -8,116 -11,213 -11,291zm1263 653c-66,0 -102,-39 -111,-117l-32 -272c-10,-97 -16,-188 -16,-273 0,-23 1,-62 4,-118 3,-55 4,-95 4,-118 0,-179 -31,-268 -91,-268 -86,0 -167,55 -245,165 -70,100 -125,227 -165,381 -1,32 -4,73 -10,121 -5,42 -7,82 -7,121 0,25 2,62 7,112 5,50 7,87 7,112 0,37 -10,67 -32,91 -21,23 -48,35 -80,35 -33,0 -61,-12 -81,-35 -21,-24 -31,-54 -31,-91 0,-25 -3,-62 -8,-112 -4,-50 -7,-87 -7,-112 0,-85 5,-204 17,-355 11,-151 16,-269 16,-355 0,-26 -1,-66 -4,-118 -3,-52 -4,-92 -4,-118 0,-36 11,-65 33,-88 21,-22 48,-34 80,-34 70,0 109,54 116,162l3 145c128,-185 260,-278 395,-278 122,0 206,58 255,175 33,78 50,193 53,346l0 125 -1 116c0,69 8,158 25,266 16,109 24,198 24,266 0,36 -11,66 -32,89 -22,23 -49,34 -82,34zm883 -31c-172,0 -312,-47 -419,-140 -116,-104 -175,-249 -175,-436 0,-215 48,-396 144,-542 105,-159 244,-239 419,-239 127,0 230,24 310,70 98,57 147,145 147,264 0,83 -43,158 -129,226 -38,30 -119,76 -242,139l-437 225c43,69 96,121 160,155 63,35 137,53 222,53 52,0 114,-11 185,-33 90,-27 148,-63 174,-107 26,-44 54,-67 83,-67 27,0 51,12 72,34 21,22 31,47 31,76 0,92 -68,171 -205,238 -116,56 -230,84 -340,84zm-31 -1133c-93,0 -170,39 -232,118 -62,78 -108,196 -139,353l351 -181c138,-73 237,-136 295,-190 -65,-66 -157,-100 -275,-100zm1313 1133c-172,0 -311,-47 -418,-140 -117,-104 -175,-249 -175,-436 0,-215 48,-396 144,-542 105,-159 244,-239 419,-239 126,0 230,24 309,70 99,57 148,145 148,264 0,83 -43,158 -129,226 -38,30 -119,76 -243,139l-436 225c42,69 95,121 159,155 64,35 138,53 222,53 53,0 115,-11 186,-33 90,-27 148,-63 173,-107 27,-44 54,-67 84,-67 27,0 51,12 71,34 21,22 32,47 32,76 0,92 -68,171 -205,238 -116,56 -230,84 -341,84zm-30 -1133c-93,0 -171,39 -232,118 -62,78 -108,196 -139,353l351 -181c138,-73 237,-136 295,-190 -65,-66 -157,-100 -275,-100zm1669 157c-5,103 -44,155 -114,155 -66,0 -99,-41 -99,-123 0,-15 -1,-44 -3,-87l-4 -104c-120,16 -217,52 -289,111 -68,53 -124,135 -169,243l2 681c0,84 -38,126 -113,126 -67,0 -101,-42 -101,-126l0 -872c0,-28 2,-69 3,-123 2,-55 3,-96 3,-123 0,-84 34,-126 101,-126 74,0 112,69 113,206 146,-153 309,-230 487,-230 62,0 108,26 138,76 31,51 46,127 46,229 0,43 -1,72 -1,87zm454 -655c-37,0 -68,-14 -95,-43 -27,-28 -40,-62 -40,-102 0,-39 13,-73 40,-101 27,-28 58,-43 95,-43 37,0 68,15 94,43 27,28 40,62 40,101 0,40 -13,74 -40,102 -26,29 -57,43 -94,43zm52 1009c0,50 1,124 3,224 3,98 4,173 4,223 0,36 -10,66 -30,89 -21,23 -48,35 -82,35 -32,0 -59,-12 -80,-35 -21,-23 -32,-53 -32,-89 0,-50 -1,-125 -4,-223 -2,-100 -4,-174 -4,-224 0,-78 4,-175 12,-291 7,-117 11,-214 11,-292 0,-37 11,-67 32,-91 20,-23 47,-34 80,-34 33,0 60,11 81,34 21,24 31,54 31,91 0,78 -4,175 -11,292 -8,116 -11,213 -11,291zm1263 653c-66,0 -102,-39 -111,-117l-32 -272c-11,-97 -16,-188 -16,-273 0,-23 1,-62 4,-118 3,-55 4,-95 4,-118 0,-179 -31,-268 -92,-268 -85,0 -167,55 -244,165 -70,100 -125,227 -165,381 -1,32 -5,73 -10,121 -5,42 -7,82 -7,121 0,25 2,62 7,112 5,50 7,87 7,112 0,37 -11,67 -32,91 -21,23 -48,35 -80,35 -34,0 -61,-12 -82,-35 -20,-24 -30,-54 -30,-91 0,-25 -3,-62 -8,-112 -5,-50 -7,-87 -7,-112 0,-85 5,-204 17,-355 10,-151 16,-269 16,-355 0,-26 -1,-66 -4,-118 -3,-52 -4,-92 -4,-118 0,-36 11,-65 33,-88 21,-22 48,-34 80,-34 70,0 109,54 116,162l3 145c128,-185 260,-278 394,-278 123,0 207,58 256,175 32,78 50,193 53,346l0 125 -1 116c0,69 8,158 25,266 16,109 24,198 24,266 0,36 -11,66 -32,89 -22,23 -49,34 -82,34zm1290 -624l-27 418c-4,165 -20,301 -46,406 -35,134 -90,233 -165,297 -91,78 -224,116 -397,116 -101,0 -186,-7 -255,-22 -96,-21 -144,-64 -144,-130 0,-74 33,-110 100,-110 27,0 73,7 137,21 64,15 135,21 212,20 147,-3 248,-80 304,-232 36,-101 55,-256 58,-466 -41,83 -90,145 -147,187 -57,41 -122,62 -195,62 -138,0 -250,-51 -337,-154 -86,-102 -130,-235 -130,-398 0,-224 59,-404 178,-541 122,-141 288,-211 498,-211 71,0 130,9 178,29 48,20 85,50 110,90 82,2 123,52 123,148 0,59 -9,137 -25,236 -17,115 -27,193 -30,234zm-367 -538c-145,0 -257,54 -336,163 -71,97 -107,222 -107,372 0,121 21,211 63,271 42,61 105,91 189,91 77,0 151,-47 224,-142 66,-87 103,-173 112,-258 16,-90 33,-230 51,-422 -30,-25 -62,-44 -94,-57 -33,-12 -67,-18 -102,-18z"/>
   <g>
    <path class="fil0" d="M26398 8025l0 -1311 449 0 0 1311 -145 211 -304 -211zm304 211l-304 115 0 -326 304 211zm1807 -683l-1807 683 -158 -422 1807 -683 152 -2 6 424zm-6 -424l588 204 -582 220 -6 -424zm-1807 -628l1807 628 -147 426 -1807 -628 -151 -213 298 -213zm-298 213l0 -316 298 103 -298 213z"/>
   </g>
   <g>
    <path class="fil0" d="M1628 2692l-1311 0 0 -449 1311 0 211 146 -211 303zm211 -303l114 303 -325 0 211 -303zm-683 -1807l683 1807 -422 158 -683 -1807 -3 -152 425 -6zm-425 6l205 -588 220 582 -425 6zm-627 1806l627 -1806 427 146 -628 1807 -213 151 -213 -298zm213 298l-317 0 104 -298 213 298z"/>
   </g>
   <line class="fil2 str0" x1="1180" y1="7304" x2="26422" y2= "7304" />
   <g>
    <polygon class="fil0" points="1184,2659 1184,7529 740,7529 740,2659 "/>
   </g>
  </g>
 </g>
</svg>
