<?xml version="1.0" encoding="utf-8"?>
<!-- Generator: Adobe Illustrator 19.0.0, SVG Export Plug-In . SVG Version: 6.00 Build 0)  -->
<svg version="1.1" id="Layer_1" xmlns="http://www.w3.org/2000/svg" xmlns:xlink="http://www.w3.org/1999/xlink" x="0px" y="0px"
	 viewBox="0 0 128 128" style="enable-background:new 0 0 128 128;" xml:space="preserve">
<style type="text/css">
	.st0{fill:#FEFEFE;}
</style>
<g id="XMLID_128_">
	<path id="XMLID_129_" class="st0" d="M74.7,76.7c1.2,0,2.2-1,2.2-2.2c0-1.2-1-2.2-2.2-2.2c-1.2,0-2.2,1-2.2,2.2
		C72.4,75.8,73.4,76.7,74.7,76.7z"/>
	<path id="XMLID_150_" class="st0" d="M61.3,90.1c1.2,0,2.2-1,2.2-2.2c0-1.2-1-2.2-2.2-2.2c-1.2,0-2.2,1-2.2,2.2
		C59.1,89.1,60.1,90.1,61.3,90.1z"/>
	<path id="XMLID_152_" class="st0" d="M81.3,70.1c1.2,0,2.2-1,2.2-2.2c0-1.2-1-2.2-2.2-2.2c-1.2,0-2.2,1-2.2,2.2
		C79.1,69.1,80.1,70.1,81.3,70.1z"/>
	<path id="XMLID_188_" class="st0" d="M68,83.4c1.2,0,2.2-1,2.2-2.2c0-1.2-1-2.2-2.2-2.2c-1.2,0-2.2,1-2.2,2.2
		C65.8,82.4,66.8,83.4,68,83.4z"/>
	<path id="XMLID_262_" class="st0" d="M101.3,63.4c1.2,0,2.2-1,2.2-2.2c0-1.2-1-2.2-2.2-2.2c-1.2,0-2.2,1-2.2,2.2
		C99.1,62.4,100.1,63.4,101.3,63.4z"/>
	<path id="XMLID_265_" class="st0" d="M88,76.7c1.2,0,2.2-1,2.2-2.2c0-1.2-1-2.2-2.2-2.2c-1.2,0-2.2,1-2.2,2.2
		C85.8,75.8,86.7,76.7,88,76.7z"/>
	<path id="XMLID_284_" class="st0" d="M94.6,70.1c1.2,0,2.2-1,2.2-2.2c0-1.2-1-2.2-2.2-2.2c-1.2,0-2.2,1-2.2,2.2
		C92.4,69.1,93.4,70.1,94.6,70.1z"/>
	<path id="XMLID_286_" class="st0" d="M34.7,72.3c-1.2,0-2.2,1-2.2,2.2c0,1.2,1,2.2,2.2,2.2c1.2,0,2.2-1,2.2-2.2
		C36.9,73.3,35.9,72.3,34.7,72.3z"/>
	<path id="XMLID_287_" class="st0" d="M54.7,83.4c1.2,0,2.2-1,2.2-2.2c0-1.2-1-2.2-2.2-2.2c-1.2,0-2.2,1-2.2,2.2
		C52.5,82.4,53.4,83.4,54.7,83.4z"/>
	<path id="XMLID_293_" class="st0" d="M102.9,75.9l0.2-0.1c0.2-0.1,0.3-0.1,0.4-0.2l20.9-11.9l-21.4-12.2l21.4-12.3l-61-34.6
		l-61,34.6l21.4,12.3L2.3,63.6l21.4,12.3L2.3,88l61,34.9l61-34.9L102.9,75.9z M11.3,39.2l52-29.6l52,29.6l-17,9.7l-35.1,20
		L11.3,39.2z M16.8,67.7c0-0.1,0.1-0.2,0.1-0.3c0-1.2-1-2.2-2.2-2.2c-0.5,0-1,0.2-1.4,0.5l-3-1.7L26,55.1c0.4,0.7,1.1,1.3,2,1.3
		c0.6,0,1.1-0.2,1.5-0.6l5,2.9c-1.2,0.1-2.1,1-2.1,2.2c0,1.2,1,2.2,2.2,2.2c1.2,0,2.2-1,2.2-2.2c0-0.4-0.1-0.7-0.3-1l22.9,13.1
		c-0.3,0.4-0.4,0.8-0.4,1.3c0,1.2,1,2.2,2.2,2.2c1.2,0,2.2-1,2.2-2.2c0-0.1-0.1-0.2-0.1-0.3L85.7,61c0.1,1.1,1,2,2.2,2
		c1.2,0,2.2-1,2.2-2.2c0-0.7-0.4-1.3-0.9-1.7l4.9-2.8c0.2,0,0.3,0.1,0.5,0.1c1,0,1.8-0.7,2.1-1.5l0.7-0.4l16.9,9.6l-4.4,2.5
		c-0.3-0.8-1.1-1.3-2-1.3c-1.2,0-2.2,1-2.2,2.2c0,0.5,0.2,0.9,0.4,1.3l-8.8,5l-14.2,8.1c0.2-0.3,0.3-0.7,0.3-1c0-1.2-1-2.2-2.2-2.2
		c-1.2,0-2.2,1-2.2,2.2c0,1.2,0.9,2.1,2.1,2.2l-5,2.9c-0.4-0.4-0.9-0.6-1.5-0.6c-1.2,0-2.2,1-2.2,2.2c0,0.2,0.1,0.3,0.1,0.5
		l-10.2,5.8l-12.2-7c-0.3-0.9-1.1-1.6-2.1-1.6c-0.2,0-0.3,0.1-0.5,0.1l-4.9-2.8c0.5-0.4,0.9-1,0.9-1.7c0-1.2-1-2.2-2.2-2.2
		c-1.1,0-2,0.9-2.2,2L16.8,67.7z M11.3,88l16.9-9.6l35.1,20l35.1-20l16.9,9.6l-52,29.7L11.3,88z"/>
	<path id="XMLID_319_" class="st0" d="M28,65.6c-1.2,0-2.2,1-2.2,2.2c0,1.2,1,2.2,2.2,2.2c1.2,0,2.2-1,2.2-2.2
		C30.2,66.6,29.3,65.6,28,65.6z"/>
	<path id="XMLID_322_" class="st0" d="M21.4,59c-1.2,0-2.2,1-2.2,2.2c0,1.2,1,2.2,2.2,2.2c1.2,0,2.2-1,2.2-2.2
		C23.6,60,22.6,59,21.4,59z"/>
	<path id="XMLID_323_" class="st0" d="M48,76.7c1.2,0,2.2-1,2.2-2.2c0-1.2-1-2.2-2.2-2.2c-1.2,0-2.2,1-2.2,2.2
		C45.8,75.8,46.8,76.7,48,76.7z"/>
	<path id="XMLID_324_" class="st0" d="M41.4,70.1c1.2,0,2.2-1,2.2-2.2c0-1.2-1-2.2-2.2-2.2c-1.2,0-2.2,1-2.2,2.2
		C39.1,69.1,40.1,70.1,41.4,70.1z"/>
</g>
</svg>
