<?xml version="1.0" encoding="utf-8"?>
<!-- Generator: Adobe Illustrator 19.0.0, SVG Export Plug-In . SVG Version: 6.00 Build 0)  -->
<svg version="1.1" id="Layer_1" xmlns="http://www.w3.org/2000/svg" xmlns:xlink="http://www.w3.org/1999/xlink" x="0px" y="0px"
	 viewBox="0 0 128 128" style="enable-background:new 0 0 128 128;" xml:space="preserve">
<style type="text/css">
	.st0{fill:#FEFEFE;}
</style>
<g id="XMLID_39_">
	<path id="XMLID_74_" class="st0" d="M10.9,109.5h35.6v-6H10.9V109.5z M39.2,105.6h4.9v1.7h-4.9V105.6z M27.4,58.4c0-1.1,0.9-2,2-2
		s2,0.9,2,2s-0.9,2-2,2S27.4,59.5,27.4,58.4L27.4,58.4z M40.1,58.4c0-1.1,0.9-2,2-2c1.1,0,2,0.9,2,2s-0.9,2-2,2
		C41,60.4,40.1,59.5,40.1,58.4L40.1,58.4z M10.9,93.6h35.6v-6H10.9V93.6z M39.2,89.7h4.9v1.7h-4.9V89.7z M3,119.5h50.9V48.1H3V119.5
		z M42.1,53.3c2.8,0,5.2,2.3,5.2,5.2c0,2.8-2.3,5.2-5.2,5.2s-5.2-2.3-5.2-5.2C36.9,55.6,39.3,53.3,42.1,53.3L42.1,53.3z M29.4,53.3
		c2.8,0,5.2,2.3,5.2,5.2c0,2.8-2.3,5.2-5.2,5.2c-2.8,0-5.2-2.3-5.2-5.2C24.3,55.6,26.6,53.3,29.4,53.3L29.4,53.3z M7.7,68.2h42v12.5
		h-42V68.2z M7.7,84.3h42v12.5h-42V84.3z M7.7,100.2h42v12.4h-42V100.2z M10.9,77.5h35.6v-6H10.9V77.5z M39.2,73.4h4.9v1.7h-4.9
		V73.4z M123.9,60.6c0,3.1-0.3,6.2-0.8,9.2l-0.9,4.4c-6,23-27,40-51.8,40c-3.2,0-6.3-0.3-9.3-0.8V81.4c1.4,0.6,2.6,1.6,3.8,2.6
		c1.9,1.5,4.7,0.3,6.9,0.3c5.5,0.2,6.4,6.1,6.8,10.4c0.3,3.1,3.2,5.7,2.4,9c-0.4,1.5-1.1,2.9-2.4,3.9c8.7-1.5,16.6-5.4,23-11
		c-2.2-5.5-8.6-8.9-8-16.2c1.3-12.4,15.7-7.1,23.7-11.3c0.5-2.7,0.8-5.6,0.8-8.4c0-17.9-9.9-33.5-24.5-41.7c0.2,0.2,0.5,0.4,0.7,0.7
		c9.4,9.4,4.3,10.1,5.8,21c0,3.6,7.5,3,6.8,9.5c-1.4,6.5-1.7,12.9-8.2,7.5c-6.5-5.4-10.9-1.1-13-1.8c-2.9-1.4-4.3-8-8-8
		C67.5,48.5,74,68.8,61.7,63c-0.2-0.1-0.5-0.3-0.7-0.4V41.1h-6.8c-0.2-8.2-0.9-16.6-8-21.8c-8.6,5-15.4,12.7-19.5,21.8h-6.3
		C28.2,21.2,47.6,7,70.3,7C99.8,7,123.9,31,123.9,60.6L123.9,60.6z M123.9,60.6"/>
</g>
</svg>
