<?xml version="1.0" encoding="utf-8"?>
<!-- Generator: Adobe Illustrator 19.0.0, SVG Export Plug-In . SVG Version: 6.00 Build 0)  -->
<svg version="1.1" id="Layer_1" xmlns="http://www.w3.org/2000/svg" xmlns:xlink="http://www.w3.org/1999/xlink" x="0px" y="0px"
	 viewBox="0 0 128 128" style="enable-background:new 0 0 128 128;" xml:space="preserve">
<style type="text/css">
	.st0{fill:#FEFEFE;}
	.st1{fill:none;stroke:#FEFEFE;stroke-width:5;stroke-miterlimit:10;}
	.st2{fill:none;stroke:#FEFEFE;stroke-width:8;stroke-linecap:round;stroke-miterlimit:10;}
	.st3{fill:none;stroke:#FEFEFE;stroke-width:3;stroke-linecap:round;stroke-miterlimit:10;}
</style>
<g id="XMLID_295_">
	<path id="XMLID_298_" class="st0" d="M29.5,63.6c2.7,0,4.9-2.2,4.9-4.9c0-0.5-0.2-0.9-0.3-1.4c6.3-5,17.3-13.9,22.3-17.8
		c0.8,0.6,1.7,1,2.8,1c0.9,0,1.6-0.3,2.3-0.7c3.2,2.7,8.7,7.4,12.6,10.7c0,0.3-0.2,0.6-0.2,0.8c0,2.7,2.2,4.9,4.9,4.9
		c2.7,0,4.9-2.2,4.9-4.9c0-0.5-0.2-0.9-0.3-1.3l12.6-11.4c0.7,0.3,1.4,0.6,2.2,0.6c2.7,0,4.9-2.2,4.9-4.9c0-2.7-2.2-4.9-4.9-4.9
		c-2.7,0-4.9,2.2-4.9,4.9c0,0.6,0.1,1.3,0.4,1.8c-3.5,3.2-9,8.1-12.4,11.2c-0.8-0.5-1.6-0.9-2.6-0.9c-1.2,0-2.2,0.5-3,1.1
		c-3.2-2.8-8.4-7.2-12.2-10.3c0.2-0.5,0.3-1.1,0.3-1.7c0-2.7-2.2-4.9-4.9-4.9c-2.7,0-4.9,2.2-4.9,4.9c0,0.6,0.1,1.2,0.3,1.7
		L32.2,54.8c-0.8-0.6-1.7-0.9-2.7-0.9c-2.7,0-4.9,2.2-4.9,4.9S26.8,63.6,29.5,63.6L29.5,63.6z M29.5,63.6"/>
	<g id="XMLID_249_">
		<path id="XMLID_294_" class="st1" d="M112.6,94.3H15.4C10.2,94.3,6,90.1,6,85V22.7c0-5.2,4.2-9.4,9.4-9.4h97.3
			c5.2,0,9.4,4.2,9.4,9.4V85C122,90.1,117.8,94.3,112.6,94.3z"/>
		<rect id="XMLID_251_" x="50" y="93.3" class="st0" width="27" height="19"/>
		<line id="XMLID_250_" class="st2" x1="34" y1="112.3" x2="93.7" y2="112.3"/>
	</g>
	<line id="XMLID_296_" class="st3" x1="29.3" y1="69.3" x2="29.3" y2="82"/>
	<line id="XMLID_297_" class="st3" x1="58.7" y1="46" x2="58.7" y2="82"/>
	<line id="XMLID_307_" class="st3" x1="78.7" y1="61.8" x2="78.7" y2="81.3"/>
	<line id="XMLID_308_" class="st3" x1="98.6" y1="44.8" x2="98.6" y2="81.3"/>
</g>
</svg>
