<?xml version="1.0" encoding="utf-8"?>
<!-- Generator: Adobe Illustrator 19.0.0, SVG Export Plug-In . SVG Version: 6.00 Build 0)  -->
<svg version="1.1" id="Layer_1" xmlns="http://www.w3.org/2000/svg" xmlns:xlink="http://www.w3.org/1999/xlink" x="0px" y="0px"
	 viewBox="0 0 128 128" style="enable-background:new 0 0 128 128;" xml:space="preserve">
<style type="text/css">
	.st0{fill:none;stroke:#FFFFF2;stroke-width:4;stroke-linecap:round;stroke-miterlimit:10;}
	.st1{fill:none;stroke:#FEFEFE;stroke-width:5;stroke-miterlimit:10;}
	.st2{fill:#FEFEFE;}
	.st3{fill:none;stroke:#FEFEFE;stroke-width:8;stroke-linecap:round;stroke-miterlimit:10;}
</style>
<g id="XMLID_271_">
	<line id="XMLID_273_" class="st0" x1="100" y1="54.1" x2="79.9" y2="41.6"/>
	<line id="XMLID_272_" class="st0" x1="100" y1="54.1" x2="79.9" y2="66.6"/>
</g>
<g id="XMLID_285_">
	<line id="XMLID_289_" class="st0" x1="29.4" y1="54.1" x2="49.5" y2="66.6"/>
	<line id="XMLID_288_" class="st0" x1="29.4" y1="54.1" x2="49.5" y2="41.6"/>
</g>
<line id="XMLID_123_" class="st0" x1="72.7" y1="30.7" x2="56.3" y2="76.7"/>
<g id="XMLID_10_">
	<path id="XMLID_263_" class="st1" d="M112.6,94H15.4C10.2,94,6,89.8,6,84.6V22.4c0-5.2,4.2-9.4,9.4-9.4h97.3c5.2,0,9.4,4.2,9.4,9.4
		v62.3C122,89.8,117.8,94,112.6,94z"/>
	<rect id="XMLID_264_" x="50" y="93" class="st2" width="27" height="19"/>
	<line id="XMLID_124_" class="st3" x1="34" y1="112" x2="93.7" y2="112"/>
</g>
</svg>
