<svg xmlns="http://www.w3.org/2000/svg" viewBox="0 0 1917.41 566.82"><defs><style>.cls-1{isolation:isolate;}.cls-2{opacity:0.1;}.cls-3{mix-blend-mode:overlay;}.cls-4{fill:#4c4c4c;}</style></defs><title>2nd page lines</title><g class="cls-1"><g id="Layer_6" data-name="Layer 6"><g class="cls-2"><g class="cls-3"><polygon class="cls-4" points="1058.25 173.6 1058.09 172.76 1329.34 126.5 1329.51 127.35 1058.25 173.6"/><polygon class="cls-4" points="1058.25 173.6 1058.09 172.76 1329.34 126.5 1329.51 127.35 1058.25 173.6"/><polygon class="cls-4" points="1329.88 126.95 1328.96 126.9 1336.06 22.12 1336.97 22.17 1329.88 126.95"/><polygon class="cls-4" points="1058.4 173.55 1057.93 172.81 1336.28 21.78 1336.75 22.52 1058.4 173.55"/><polygon class="cls-4" points="1058.4 173.55 1057.93 172.81 1336.28 21.78 1336.75 22.52 1058.4 173.55"/><polygon class="cls-4" points="1249.33 79.17 1248.8 78.47 1336.25 21.8 1336.78 22.5 1249.33 79.17"/><polygon class="cls-4" points="1329.18 127.28 1248.82 79.18 1249.31 78.46 1329.67 126.56 1329.18 127.28"/><polygon class="cls-4" points="1058.38 173.56 1057.95 172.8 1248.85 78.44 1249.28 79.2 1058.38 173.56"/><polygon class="cls-4" points="1058.38 173.56 1057.95 172.8 1248.85 78.44 1249.28 79.2 1058.38 173.56"/><line class="cls-4" x1="1058.48" y1="173.49" x2="1057.85" y2="172.87"/><polygon class="cls-4" points="809.55 148.24 809.39 147.39 1248.99 78.39 1249.14 79.24 809.55 148.24"/><polygon class="cls-4" points="1058.12 173.6 809.42 148.24 809.52 147.39 1058.22 172.75 1058.12 173.6"/><polygon class="cls-4" points="1058.12 173.6 809.42 148.24 809.52 147.39 1058.22 172.75 1058.12 173.6"/><polygon class="cls-4" points="1307.71 441.33 1248.61 78.88 1249.52 78.75 1308.62 441.21 1307.71 441.33"/><polygon class="cls-4" points="1308.62 441.3 1307.7 441.24 1336.05 22.12 1336.97 22.17 1308.62 441.3"/><polygon class="cls-4" points="1308.62 441.3 1307.7 441.24 1328.96 126.9 1329.88 126.95 1308.62 441.3"/><polygon class="cls-4" points="1307.81 441.55 1057.82 173.46 1058.51 172.9 1308.51 440.99 1307.81 441.55"/><polygon class="cls-4" points="1307.81 441.55 1057.82 173.46 1058.51 172.9 1308.51 440.99 1307.81 441.55"/><polygon class="cls-4" points="1078 490.74 1077.8 489.9 1308.06 440.85 1308.26 441.69 1078 490.74"/><polygon class="cls-4" points="1077.53 490.57 809.1 148.07 809.85 147.56 1078.27 490.06 1077.53 490.57"/><line class="cls-4" x1="1077.83" y1="490.74" x2="1077.97" y2="489.89"/><polygon class="cls-4" points="1078.33 490.47 1077.47 490.16 1248.64 78.66 1249.49 78.97 1078.33 490.47"/><polygon class="cls-4" points="1078.29 490.55 1077.51 490.08 1329.04 126.69 1329.81 127.16 1078.29 490.55"/><polygon class="cls-4" points="1077.44 490.34 1057.7 173.2 1058.63 173.15 1078.36 490.29 1077.44 490.34"/><polygon class="cls-4" points="1077.44 490.34 1057.7 173.2 1058.63 173.15 1078.36 490.29 1077.44 490.34"/><polygon class="cls-4" points="1917.41 176.78 1571.86 4.11 1571.43 4.87 1917.41 177.75 1917.41 176.78"/><polygon class="cls-4" points="1249.18 79.23 1248.95 78.4 1571.53 4.07 1571.75 4.9 1249.18 79.23"/><polygon class="cls-4" points="1336.55 22.57 1336.47 21.72 1571.61 4.06 1571.68 4.92 1336.55 22.57"/><polygon class="cls-4" points="1329.64 127.3 1329.21 126.55 1571.43 4.11 1571.87 4.86 1329.64 127.3"/><polygon class="cls-4" points="1566.25 497.18 1308.06 441.69 1308.26 440.85 1566.45 496.34 1566.25 497.18"/><polygon class="cls-4" points="1565.96 496.98 1329.03 127.14 1329.82 126.7 1566.75 496.54 1565.96 496.98"/><polygon class="cls-4" points="1566.78 496.92 1565.92 496.6 1652.86 295.15 1653.71 295.47 1566.78 496.92"/><polygon class="cls-4" points="1652.85 295.42 1571.2 4.6 1572.09 4.38 1653.74 295.2 1652.85 295.42"/><polygon class="cls-4" points="1917.41 218.63 1653.15 294.9 1653.43 295.72 1917.41 219.53 1917.41 218.63"/><polygon class="cls-4" points="1308.35 441.66 1307.97 440.88 1653.1 294.92 1653.48 295.7 1308.35 441.66"/><polygon class="cls-4" points="1653.06 295.69 1248.83 79.19 1249.3 78.45 1653.52 294.94 1653.06 295.69"/><polygon class="cls-4" points="1652.97 295.63 1336.2 22.46 1336.83 21.83 1653.6 295 1652.97 295.63"/><polygon class="cls-4" points="1653.06 295.69 1329.2 127.3 1329.65 126.55 1653.51 294.94 1653.06 295.69"/><polygon class="cls-4" points="1917.41 359.42 1653.41 294.9 1653.17 295.73 1917.41 360.31 1917.41 359.42"/><polygon class="cls-4" points="1917.41 461.07 1742.15 513.6 1742.43 514.42 1917.41 461.98 1917.41 461.07"/><polygon class="cls-4" points="1741.86 514.16 1652.86 295.47 1653.72 295.16 1742.72 513.86 1741.86 514.16"/><polygon class="cls-4" points="1742.24 514.44 1566.3 497.19 1566.4 496.33 1742.34 513.58 1742.24 514.44"/><polygon class="cls-4" points="1917.41 275.13 1741.91 513.77 1742.67 514.25 1917.41 276.65 1917.41 275.13"/><polygon class="cls-4" points="1742.21 514.43 1308.08 441.69 1308.24 440.85 1742.37 513.59 1742.21 514.43"/><path class="cls-4" d="M1059.15,544.73a4.87,4.87,0,0,1-6-3,4.45,4.45,0,0,1,3.27-5.56,4.87,4.87,0,0,1,6,3A4.44,4.44,0,0,1,1059.15,544.73Z" transform="translate(0.38 -367.25)"/><path class="cls-4" d="M1330.4,498.48a4.88,4.88,0,0,1-6-3,4.45,4.45,0,0,1,3.26-5.56,4.87,4.87,0,0,1,6,3A4.44,4.44,0,0,1,1330.4,498.48Z" transform="translate(0.38 -367.25)"/><path class="cls-4" d="M1059.15,544.73a4.87,4.87,0,0,1-6-3,4.45,4.45,0,0,1,3.27-5.56,4.87,4.87,0,0,1,6,3A4.44,4.44,0,0,1,1059.15,544.73Z" transform="translate(0.38 -367.25)"/><path class="cls-4" d="M1330.4,498.48a4.88,4.88,0,0,1-6-3,4.45,4.45,0,0,1,3.26-5.56,4.87,4.87,0,0,1,6,3A4.44,4.44,0,0,1,1330.4,498.48Z" transform="translate(0.38 -367.25)"/><path class="cls-4" d="M1330.4,498.48a4.88,4.88,0,0,1-6-3,4.45,4.45,0,0,1,3.26-5.56,4.87,4.87,0,0,1,6,3A4.44,4.44,0,0,1,1330.4,498.48Z" transform="translate(0.38 -367.25)"/><path class="cls-4" d="M1337.49,393.7a4.87,4.87,0,0,1-6-3,4.44,4.44,0,0,1,3.26-5.56,4.87,4.87,0,0,1,6,3A4.45,4.45,0,0,1,1337.49,393.7Z" transform="translate(0.38 -367.25)"/><path class="cls-4" d="M1059.15,544.73a4.87,4.87,0,0,1-6-3,4.45,4.45,0,0,1,3.27-5.56,4.87,4.87,0,0,1,6,3A4.44,4.44,0,0,1,1059.15,544.73Z" transform="translate(0.38 -367.25)"/><path class="cls-4" d="M1337.49,393.7a4.87,4.87,0,0,1-6-3,4.44,4.44,0,0,1,3.26-5.56,4.87,4.87,0,0,1,6,3A4.45,4.45,0,0,1,1337.49,393.7Z" transform="translate(0.38 -367.25)"/><path class="cls-4" d="M1059.15,544.73a4.87,4.87,0,0,1-6-3,4.45,4.45,0,0,1,3.27-5.56,4.87,4.87,0,0,1,6,3A4.44,4.44,0,0,1,1059.15,544.73Z" transform="translate(0.38 -367.25)"/><path class="cls-4" d="M1337.49,393.7a4.87,4.87,0,0,1-6-3,4.44,4.44,0,0,1,3.26-5.56,4.87,4.87,0,0,1,6,3A4.45,4.45,0,0,1,1337.49,393.7Z" transform="translate(0.38 -367.25)"/><path class="cls-4" d="M1337.49,393.7a4.87,4.87,0,0,1-6-3,4.44,4.44,0,0,1,3.26-5.56,4.87,4.87,0,0,1,6,3A4.45,4.45,0,0,1,1337.49,393.7Z" transform="translate(0.38 -367.25)"/><path class="cls-4" d="M1250,450.37a4.87,4.87,0,0,1-6-3,4.44,4.44,0,0,1,3.26-5.56,4.87,4.87,0,0,1,6,3A4.45,4.45,0,0,1,1250,450.37Z" transform="translate(0.38 -367.25)"/><path class="cls-4" d="M1330.4,498.48a4.88,4.88,0,0,1-6-3,4.45,4.45,0,0,1,3.26-5.56,4.87,4.87,0,0,1,6,3A4.44,4.44,0,0,1,1330.4,498.48Z" transform="translate(0.38 -367.25)"/><path class="cls-4" d="M1250,450.37a4.87,4.87,0,0,1-6-3,4.44,4.44,0,0,1,3.26-5.56,4.87,4.87,0,0,1,6,3A4.45,4.45,0,0,1,1250,450.37Z" transform="translate(0.38 -367.25)"/><path class="cls-4" d="M1059.15,544.73a4.87,4.87,0,0,1-6-3,4.45,4.45,0,0,1,3.27-5.56,4.87,4.87,0,0,1,6,3A4.44,4.44,0,0,1,1059.15,544.73Z" transform="translate(0.38 -367.25)"/><path class="cls-4" d="M1250,450.37a4.87,4.87,0,0,1-6-3,4.44,4.44,0,0,1,3.26-5.56,4.87,4.87,0,0,1,6,3A4.45,4.45,0,0,1,1250,450.37Z" transform="translate(0.38 -367.25)"/><path class="cls-4" d="M1059.15,544.73a4.87,4.87,0,0,1-6-3,4.45,4.45,0,0,1,3.27-5.56,4.87,4.87,0,0,1,6,3A4.44,4.44,0,0,1,1059.15,544.73Z" transform="translate(0.38 -367.25)"/><path class="cls-4" d="M1250,450.37a4.87,4.87,0,0,1-6-3,4.44,4.44,0,0,1,3.26-5.56,4.87,4.87,0,0,1,6,3A4.45,4.45,0,0,1,1250,450.37Z" transform="translate(0.38 -367.25)"/><path class="cls-4" d="M1059.15,544.73a4.87,4.87,0,0,1-6-3,4.45,4.45,0,0,1,3.27-5.56,4.87,4.87,0,0,1,6,3A4.44,4.44,0,0,1,1059.15,544.73Z" transform="translate(0.38 -367.25)"/><path class="cls-4" d="M1059.15,544.73a4.87,4.87,0,0,1-6-3,4.45,4.45,0,0,1,3.27-5.56,4.87,4.87,0,0,1,6,3A4.44,4.44,0,0,1,1059.15,544.73Z" transform="translate(0.38 -367.25)"/><path class="cls-4" d="M810.45,519.36a4.87,4.87,0,0,1-6-3,4.45,4.45,0,0,1,3.26-5.57,4.88,4.88,0,0,1,6,3A4.44,4.44,0,0,1,810.45,519.36Z" transform="translate(0.38 -367.25)"/><path class="cls-4" d="M810.45,519.36a4.87,4.87,0,0,1-6-3,4.45,4.45,0,0,1,3.26-5.57,4.88,4.88,0,0,1,6,3A4.44,4.44,0,0,1,810.45,519.36Z" transform="translate(0.38 -367.25)"/><path class="cls-4" d="M1250,450.37a4.87,4.87,0,0,1-6-3,4.44,4.44,0,0,1,3.26-5.56,4.87,4.87,0,0,1,6,3A4.45,4.45,0,0,1,1250,450.37Z" transform="translate(0.38 -367.25)"/><path class="cls-4" d="M810.45,519.36a4.87,4.87,0,0,1-6-3,4.45,4.45,0,0,1,3.26-5.57,4.88,4.88,0,0,1,6,3A4.44,4.44,0,0,1,810.45,519.36Z" transform="translate(0.38 -367.25)"/><path class="cls-4" d="M810.45,519.36a4.87,4.87,0,0,1-6-3,4.45,4.45,0,0,1,3.26-5.57,4.88,4.88,0,0,1,6,3A4.44,4.44,0,0,1,810.45,519.36Z" transform="translate(0.38 -367.25)"/><path class="cls-4" d="M1059.15,544.73a4.87,4.87,0,0,1-6-3,4.45,4.45,0,0,1,3.27-5.56,4.87,4.87,0,0,1,6,3A4.44,4.44,0,0,1,1059.15,544.73Z" transform="translate(0.38 -367.25)"/><path class="cls-4" d="M810.45,519.36a4.87,4.87,0,0,1-6-3,4.45,4.45,0,0,1,3.26-5.57,4.88,4.88,0,0,1,6,3A4.44,4.44,0,0,1,810.45,519.36Z" transform="translate(0.38 -367.25)"/><path class="cls-4" d="M1059.15,544.73a4.87,4.87,0,0,1-6-3,4.45,4.45,0,0,1,3.27-5.56,4.87,4.87,0,0,1,6,3A4.44,4.44,0,0,1,1059.15,544.73Z" transform="translate(0.38 -367.25)"/><path class="cls-4" d="M810.45,519.36a4.87,4.87,0,0,1-6-3,4.45,4.45,0,0,1,3.26-5.57,4.88,4.88,0,0,1,6,3A4.44,4.44,0,0,1,810.45,519.36Z" transform="translate(0.38 -367.25)"/><path class="cls-4" d="M1250,450.37a4.87,4.87,0,0,1-6-3,4.44,4.44,0,0,1,3.26-5.56,4.87,4.87,0,0,1,6,3A4.45,4.45,0,0,1,1250,450.37Z" transform="translate(0.38 -367.25)"/><path class="cls-4" d="M1309.14,812.82a4.87,4.87,0,0,1-6-3,4.44,4.44,0,0,1,3.26-5.57,4.88,4.88,0,0,1,6,3A4.45,4.45,0,0,1,1309.14,812.82Z" transform="translate(0.38 -367.25)"/><path class="cls-4" d="M1337.49,393.7a4.87,4.87,0,0,1-6-3,4.44,4.44,0,0,1,3.26-5.56,4.87,4.87,0,0,1,6,3A4.45,4.45,0,0,1,1337.49,393.7Z" transform="translate(0.38 -367.25)"/><path class="cls-4" d="M1309.14,812.82a4.87,4.87,0,0,1-6-3,4.44,4.44,0,0,1,3.26-5.57,4.88,4.88,0,0,1,6,3A4.45,4.45,0,0,1,1309.14,812.82Z" transform="translate(0.38 -367.25)"/><path class="cls-4" d="M1330.4,498.48a4.88,4.88,0,0,1-6-3,4.45,4.45,0,0,1,3.26-5.56,4.87,4.87,0,0,1,6,3A4.44,4.44,0,0,1,1330.4,498.48Z" transform="translate(0.38 -367.25)"/><path class="cls-4" d="M1309.14,812.82a4.87,4.87,0,0,1-6-3,4.44,4.44,0,0,1,3.26-5.57,4.88,4.88,0,0,1,6,3A4.45,4.45,0,0,1,1309.14,812.82Z" transform="translate(0.38 -367.25)"/><path class="cls-4" d="M1059.15,544.73a4.87,4.87,0,0,1-6-3,4.45,4.45,0,0,1,3.27-5.56,4.87,4.87,0,0,1,6,3A4.44,4.44,0,0,1,1059.15,544.73Z" transform="translate(0.38 -367.25)"/><path class="cls-4" d="M1309.14,812.82a4.87,4.87,0,0,1-6-3,4.44,4.44,0,0,1,3.26-5.57,4.88,4.88,0,0,1,6,3A4.45,4.45,0,0,1,1309.14,812.82Z" transform="translate(0.38 -367.25)"/><path class="cls-4" d="M1059.15,544.73a4.87,4.87,0,0,1-6-3,4.45,4.45,0,0,1,3.27-5.56,4.87,4.87,0,0,1,6,3A4.44,4.44,0,0,1,1059.15,544.73Z" transform="translate(0.38 -367.25)"/><path class="cls-4" d="M1309.14,812.82a4.87,4.87,0,0,1-6-3,4.44,4.44,0,0,1,3.26-5.57,4.88,4.88,0,0,1,6,3A4.45,4.45,0,0,1,1309.14,812.82Z" transform="translate(0.38 -367.25)"/><path class="cls-4" d="M1309.14,812.82a4.87,4.87,0,0,1-6-3,4.44,4.44,0,0,1,3.26-5.57,4.88,4.88,0,0,1,6,3A4.45,4.45,0,0,1,1309.14,812.82Z" transform="translate(0.38 -367.25)"/><path class="cls-4" d="M1078.88,861.87a4.87,4.87,0,0,1-6-3,4.44,4.44,0,0,1,3.26-5.57,4.86,4.86,0,0,1,6,3A4.44,4.44,0,0,1,1078.88,861.87Z" transform="translate(0.38 -367.25)"/><path class="cls-4" d="M810.45,519.36a4.87,4.87,0,0,1-6-3,4.45,4.45,0,0,1,3.26-5.57,4.88,4.88,0,0,1,6,3A4.44,4.44,0,0,1,810.45,519.36Z" transform="translate(0.38 -367.25)"/><path class="cls-4" d="M1078.88,861.87a4.87,4.87,0,0,1-6-3,4.44,4.44,0,0,1,3.26-5.57,4.86,4.86,0,0,1,6,3A4.44,4.44,0,0,1,1078.88,861.87Z" transform="translate(0.38 -367.25)"/><path class="cls-4" d="M1078.88,861.87a4.87,4.87,0,0,1-6-3,4.44,4.44,0,0,1,3.26-5.57,4.86,4.86,0,0,1,6,3A4.44,4.44,0,0,1,1078.88,861.87Z" transform="translate(0.38 -367.25)"/><path class="cls-4" d="M1250,450.37a4.87,4.87,0,0,1-6-3,4.44,4.44,0,0,1,3.26-5.56,4.87,4.87,0,0,1,6,3A4.45,4.45,0,0,1,1250,450.37Z" transform="translate(0.38 -367.25)"/><path class="cls-4" d="M1078.88,861.87a4.87,4.87,0,0,1-6-3,4.44,4.44,0,0,1,3.26-5.57,4.86,4.86,0,0,1,6,3A4.44,4.44,0,0,1,1078.88,861.87Z" transform="translate(0.38 -367.25)"/><path class="cls-4" d="M1330.4,498.48a4.88,4.88,0,0,1-6-3,4.45,4.45,0,0,1,3.26-5.56,4.87,4.87,0,0,1,6,3A4.44,4.44,0,0,1,1330.4,498.48Z" transform="translate(0.38 -367.25)"/><path class="cls-4" d="M1078.88,861.87a4.87,4.87,0,0,1-6-3,4.44,4.44,0,0,1,3.26-5.57,4.86,4.86,0,0,1,6,3A4.44,4.44,0,0,1,1078.88,861.87Z" transform="translate(0.38 -367.25)"/><path class="cls-4" d="M1059.15,544.73a4.87,4.87,0,0,1-6-3,4.45,4.45,0,0,1,3.27-5.56,4.87,4.87,0,0,1,6,3A4.44,4.44,0,0,1,1059.15,544.73Z" transform="translate(0.38 -367.25)"/><path class="cls-4" d="M1078.88,861.87a4.87,4.87,0,0,1-6-3,4.44,4.44,0,0,1,3.26-5.57,4.86,4.86,0,0,1,6,3A4.44,4.44,0,0,1,1078.88,861.87Z" transform="translate(0.38 -367.25)"/><path class="cls-4" d="M1059.15,544.73a4.87,4.87,0,0,1-6-3,4.45,4.45,0,0,1,3.27-5.56,4.87,4.87,0,0,1,6,3A4.44,4.44,0,0,1,1059.15,544.73Z" transform="translate(0.38 -367.25)"/><path class="cls-4" d="M1078.88,861.87a4.87,4.87,0,0,1-6-3,4.44,4.44,0,0,1,3.26-5.57,4.86,4.86,0,0,1,6,3A4.44,4.44,0,0,1,1078.88,861.87Z" transform="translate(0.38 -367.25)"/><path class="cls-4" d="M1572.63,376a4.87,4.87,0,0,1-6-3,4.45,4.45,0,0,1,3.26-5.57,4.88,4.88,0,0,1,6,3A4.45,4.45,0,0,1,1572.63,376Z" transform="translate(0.38 -367.25)"/><path class="cls-4" d="M1250,450.37a4.87,4.87,0,0,1-6-3,4.44,4.44,0,0,1,3.26-5.56,4.87,4.87,0,0,1,6,3A4.45,4.45,0,0,1,1250,450.37Z" transform="translate(0.38 -367.25)"/><path class="cls-4" d="M1572.63,376a4.87,4.87,0,0,1-6-3,4.45,4.45,0,0,1,3.26-5.57,4.88,4.88,0,0,1,6,3A4.45,4.45,0,0,1,1572.63,376Z" transform="translate(0.38 -367.25)"/><path class="cls-4" d="M1337.49,393.7a4.87,4.87,0,0,1-6-3,4.44,4.44,0,0,1,3.26-5.56,4.87,4.87,0,0,1,6,3A4.45,4.45,0,0,1,1337.49,393.7Z" transform="translate(0.38 -367.25)"/><path class="cls-4" d="M1572.63,376a4.87,4.87,0,0,1-6-3,4.45,4.45,0,0,1,3.26-5.57,4.88,4.88,0,0,1,6,3A4.45,4.45,0,0,1,1572.63,376Z" transform="translate(0.38 -367.25)"/><path class="cls-4" d="M1330.4,498.48a4.88,4.88,0,0,1-6-3,4.45,4.45,0,0,1,3.26-5.56,4.87,4.87,0,0,1,6,3A4.44,4.44,0,0,1,1330.4,498.48Z" transform="translate(0.38 -367.25)"/><path class="cls-4" d="M1572.63,376a4.87,4.87,0,0,1-6-3,4.45,4.45,0,0,1,3.26-5.57,4.88,4.88,0,0,1,6,3A4.45,4.45,0,0,1,1572.63,376Z" transform="translate(0.38 -367.25)"/><path class="cls-4" d="M1309.14,812.82a4.87,4.87,0,0,1-6-3,4.44,4.44,0,0,1,3.26-5.57,4.88,4.88,0,0,1,6,3A4.45,4.45,0,0,1,1309.14,812.82Z" transform="translate(0.38 -367.25)"/><path class="cls-4" d="M1567.33,868.31a4.87,4.87,0,0,1-6-3,4.44,4.44,0,0,1,3.26-5.57,4.87,4.87,0,0,1,6,3A4.44,4.44,0,0,1,1567.33,868.31Z" transform="translate(0.38 -367.25)"/><path class="cls-4" d="M1330.4,498.48a4.88,4.88,0,0,1-6-3,4.45,4.45,0,0,1,3.26-5.56,4.87,4.87,0,0,1,6,3A4.44,4.44,0,0,1,1330.4,498.48Z" transform="translate(0.38 -367.25)"/><path class="cls-4" d="M1567.33,868.31a4.87,4.87,0,0,1-6-3,4.44,4.44,0,0,1,3.26-5.57,4.87,4.87,0,0,1,6,3A4.44,4.44,0,0,1,1567.33,868.31Z" transform="translate(0.38 -367.25)"/><path class="cls-4" d="M1567.33,868.31a4.87,4.87,0,0,1-6-3,4.44,4.44,0,0,1,3.26-5.57,4.87,4.87,0,0,1,6,3A4.44,4.44,0,0,1,1567.33,868.31Z" transform="translate(0.38 -367.25)"/><path class="cls-4" d="M1654.27,666.87a4.88,4.88,0,0,1-6-3,4.45,4.45,0,0,1,3.26-5.57,4.88,4.88,0,0,1,6,3A4.46,4.46,0,0,1,1654.27,666.87Z" transform="translate(0.38 -367.25)"/><path class="cls-4" d="M1572.63,376a4.87,4.87,0,0,1-6-3,4.45,4.45,0,0,1,3.26-5.57,4.88,4.88,0,0,1,6,3A4.45,4.45,0,0,1,1572.63,376Z" transform="translate(0.38 -367.25)"/><path class="cls-4" d="M1654.27,666.87a4.88,4.88,0,0,1-6-3,4.45,4.45,0,0,1,3.26-5.57,4.88,4.88,0,0,1,6,3A4.46,4.46,0,0,1,1654.27,666.87Z" transform="translate(0.38 -367.25)"/><path class="cls-4" d="M1654.27,666.87a4.88,4.88,0,0,1-6-3,4.45,4.45,0,0,1,3.26-5.57,4.88,4.88,0,0,1,6,3A4.46,4.46,0,0,1,1654.27,666.87Z" transform="translate(0.38 -367.25)"/><path class="cls-4" d="M1309.14,812.82a4.87,4.87,0,0,1-6-3,4.44,4.44,0,0,1,3.26-5.57,4.88,4.88,0,0,1,6,3A4.45,4.45,0,0,1,1309.14,812.82Z" transform="translate(0.38 -367.25)"/><path class="cls-4" d="M1654.27,666.87a4.88,4.88,0,0,1-6-3,4.45,4.45,0,0,1,3.26-5.57,4.88,4.88,0,0,1,6,3A4.46,4.46,0,0,1,1654.27,666.87Z" transform="translate(0.38 -367.25)"/><path class="cls-4" d="M1250,450.37a4.87,4.87,0,0,1-6-3,4.44,4.44,0,0,1,3.26-5.56,4.87,4.87,0,0,1,6,3A4.45,4.45,0,0,1,1250,450.37Z" transform="translate(0.38 -367.25)"/><path class="cls-4" d="M1654.27,666.87a4.88,4.88,0,0,1-6-3,4.45,4.45,0,0,1,3.26-5.57,4.88,4.88,0,0,1,6,3A4.46,4.46,0,0,1,1654.27,666.87Z" transform="translate(0.38 -367.25)"/><path class="cls-4" d="M1337.49,393.7a4.87,4.87,0,0,1-6-3,4.44,4.44,0,0,1,3.26-5.56,4.87,4.87,0,0,1,6,3A4.45,4.45,0,0,1,1337.49,393.7Z" transform="translate(0.38 -367.25)"/><path class="cls-4" d="M1654.27,666.87a4.88,4.88,0,0,1-6-3,4.45,4.45,0,0,1,3.26-5.57,4.88,4.88,0,0,1,6,3A4.46,4.46,0,0,1,1654.27,666.87Z" transform="translate(0.38 -367.25)"/><path class="cls-4" d="M1330.4,498.48a4.88,4.88,0,0,1-6-3,4.45,4.45,0,0,1,3.26-5.56,4.87,4.87,0,0,1,6,3A4.44,4.44,0,0,1,1330.4,498.48Z" transform="translate(0.38 -367.25)"/><path class="cls-4" d="M1654.27,666.87a4.88,4.88,0,0,1-6-3,4.45,4.45,0,0,1,3.26-5.57,4.88,4.88,0,0,1,6,3A4.46,4.46,0,0,1,1654.27,666.87Z" transform="translate(0.38 -367.25)"/><path class="cls-4" d="M1654.27,666.87a4.88,4.88,0,0,1-6-3,4.45,4.45,0,0,1,3.26-5.57,4.88,4.88,0,0,1,6,3A4.46,4.46,0,0,1,1654.27,666.87Z" transform="translate(0.38 -367.25)"/><path class="cls-4" d="M1743.26,885.56a4.87,4.87,0,0,1-6-3,4.45,4.45,0,0,1,3.26-5.56,4.87,4.87,0,0,1,6,3A4.45,4.45,0,0,1,1743.26,885.56Z" transform="translate(0.38 -367.25)"/><path class="cls-4" d="M1654.27,666.87a4.88,4.88,0,0,1-6-3,4.45,4.45,0,0,1,3.26-5.57,4.88,4.88,0,0,1,6,3A4.46,4.46,0,0,1,1654.27,666.87Z" transform="translate(0.38 -367.25)"/><path class="cls-4" d="M1743.26,885.56a4.87,4.87,0,0,1-6-3,4.45,4.45,0,0,1,3.26-5.56,4.87,4.87,0,0,1,6,3A4.45,4.45,0,0,1,1743.26,885.56Z" transform="translate(0.38 -367.25)"/><path class="cls-4" d="M1567.33,868.31a4.87,4.87,0,0,1-6-3,4.44,4.44,0,0,1,3.26-5.57,4.87,4.87,0,0,1,6,3A4.44,4.44,0,0,1,1567.33,868.31Z" transform="translate(0.38 -367.25)"/><path class="cls-4" d="M1743.26,885.56a4.87,4.87,0,0,1-6-3,4.45,4.45,0,0,1,3.26-5.56,4.87,4.87,0,0,1,6,3A4.45,4.45,0,0,1,1743.26,885.56Z" transform="translate(0.38 -367.25)"/><path class="cls-4" d="M1743.26,885.56a4.87,4.87,0,0,1-6-3,4.45,4.45,0,0,1,3.26-5.56,4.87,4.87,0,0,1,6,3A4.45,4.45,0,0,1,1743.26,885.56Z" transform="translate(0.38 -367.25)"/><path class="cls-4" d="M1309.14,812.82a4.87,4.87,0,0,1-6-3,4.44,4.44,0,0,1,3.26-5.57,4.88,4.88,0,0,1,6,3A4.45,4.45,0,0,1,1309.14,812.82Z" transform="translate(0.38 -367.25)"/><path class="cls-4" d="M1743.26,885.56a4.87,4.87,0,0,1-6-3,4.45,4.45,0,0,1,3.26-5.56,4.87,4.87,0,0,1,6,3A4.45,4.45,0,0,1,1743.26,885.56Z" transform="translate(0.38 -367.25)"/></g><g class="cls-3"><polygon class="cls-4" points="1058.25 173.6 1058.09 172.76 1329.34 126.5 1329.51 127.35 1058.25 173.6"/><polygon class="cls-4" points="1058.25 173.6 1058.09 172.76 1329.34 126.5 1329.51 127.35 1058.25 173.6"/><polygon class="cls-4" points="1329.88 126.95 1328.96 126.9 1336.06 22.12 1336.97 22.17 1329.88 126.95"/><polygon class="cls-4" points="1058.4 173.55 1057.93 172.81 1336.28 21.78 1336.75 22.52 1058.4 173.55"/><polygon class="cls-4" points="1058.4 173.55 1057.93 172.81 1336.28 21.78 1336.75 22.52 1058.4 173.55"/><polygon class="cls-4" points="1249.33 79.17 1248.8 78.47 1336.25 21.8 1336.78 22.5 1249.33 79.17"/><polygon class="cls-4" points="1329.18 127.28 1248.82 79.18 1249.31 78.46 1329.67 126.56 1329.18 127.28"/><polygon class="cls-4" points="1058.38 173.56 1057.95 172.8 1248.85 78.44 1249.28 79.2 1058.38 173.56"/><polygon class="cls-4" points="1058.38 173.56 1057.95 172.8 1248.85 78.44 1249.28 79.2 1058.38 173.56"/><polygon class="cls-4" points="809.55 148.24 809.39 147.39 1248.99 78.39 1249.14 79.24 809.55 148.24"/><polygon class="cls-4" points="1058.12 173.6 809.42 148.24 809.52 147.39 1058.22 172.75 1058.12 173.6"/><polygon class="cls-4" points="1058.12 173.6 809.42 148.24 809.52 147.39 1058.22 172.75 1058.12 173.6"/><polygon class="cls-4" points="1307.71 441.33 1248.61 78.88 1249.52 78.75 1308.62 441.21 1307.71 441.33"/><polygon class="cls-4" points="1308.62 441.3 1307.7 441.24 1336.05 22.12 1336.97 22.17 1308.62 441.3"/><polygon class="cls-4" points="1308.62 441.3 1307.7 441.24 1328.96 126.9 1329.88 126.95 1308.62 441.3"/><polygon class="cls-4" points="1307.81 441.55 1057.82 173.46 1058.51 172.9 1308.51 440.99 1307.81 441.55"/><polygon class="cls-4" points="1307.81 441.55 1057.82 173.46 1058.51 172.9 1308.51 440.99 1307.81 441.55"/><polygon class="cls-4" points="1078 490.74 1077.8 489.9 1308.06 440.85 1308.26 441.69 1078 490.74"/><polygon class="cls-4" points="1077.53 490.57 809.1 148.07 809.85 147.56 1078.27 490.06 1077.53 490.57"/><line class="cls-4" x1="1077.83" y1="490.74" x2="1077.97" y2="489.89"/><polygon class="cls-4" points="1078.33 490.47 1077.47 490.16 1248.64 78.66 1249.49 78.97 1078.33 490.47"/><polygon class="cls-4" points="1078.29 490.55 1077.51 490.08 1329.04 126.69 1329.81 127.16 1078.29 490.55"/><polygon class="cls-4" points="1077.44 490.34 1057.7 173.2 1058.63 173.15 1078.36 490.29 1077.44 490.34"/><polygon class="cls-4" points="1077.44 490.34 1057.7 173.2 1058.63 173.15 1078.36 490.29 1077.44 490.34"/><polygon class="cls-4" points="1917.41 176.78 1571.86 4.11 1571.43 4.87 1917.41 177.75 1917.41 176.78"/><polygon class="cls-4" points="1249.18 79.23 1248.95 78.4 1571.53 4.07 1571.75 4.9 1249.18 79.23"/><polygon class="cls-4" points="1336.55 22.57 1336.47 21.72 1571.61 4.06 1571.68 4.92 1336.55 22.57"/><polygon class="cls-4" points="1329.64 127.3 1329.21 126.55 1571.43 4.11 1571.87 4.86 1329.64 127.3"/><polygon class="cls-4" points="1566.25 497.18 1308.06 441.69 1308.26 440.85 1566.45 496.34 1566.25 497.18"/><polygon class="cls-4" points="1565.96 496.98 1329.03 127.14 1329.82 126.7 1566.75 496.54 1565.96 496.98"/><polygon class="cls-4" points="1566.78 496.92 1565.92 496.6 1652.86 295.15 1653.71 295.47 1566.78 496.92"/><polygon class="cls-4" points="1652.85 295.42 1571.2 4.6 1572.09 4.38 1653.74 295.2 1652.85 295.42"/><polygon class="cls-4" points="1917.41 218.63 1653.15 294.9 1653.43 295.72 1917.41 219.53 1917.41 218.63"/><polygon class="cls-4" points="1308.35 441.66 1307.97 440.88 1653.1 294.92 1653.48 295.7 1308.35 441.66"/><polygon class="cls-4" points="1653.06 295.69 1248.83 79.19 1249.3 78.45 1653.52 294.94 1653.06 295.69"/><polygon class="cls-4" points="1652.97 295.63 1336.2 22.46 1336.83 21.83 1653.6 295 1652.97 295.63"/><polygon class="cls-4" points="1653.06 295.69 1329.2 127.3 1329.65 126.55 1653.51 294.94 1653.06 295.69"/><polygon class="cls-4" points="1917.41 359.42 1653.41 294.9 1653.17 295.73 1917.41 360.31 1917.41 359.42"/><polygon class="cls-4" points="1917.41 461.07 1742.15 513.6 1742.43 514.42 1917.41 461.98 1917.41 461.07"/><polygon class="cls-4" points="1741.86 514.16 1652.86 295.47 1653.72 295.16 1742.72 513.86 1741.86 514.16"/><polygon class="cls-4" points="1742.24 514.44 1566.3 497.19 1566.4 496.33 1742.34 513.58 1742.24 514.44"/><polygon class="cls-4" points="1917.41 275.13 1741.91 513.77 1742.67 514.25 1917.41 276.65 1917.41 275.13"/><polygon class="cls-4" points="1742.21 514.43 1308.08 441.69 1308.24 440.85 1742.37 513.59 1742.21 514.43"/><path class="cls-4" d="M1059.15,544.73a4.87,4.87,0,0,1-6-3,4.45,4.45,0,0,1,3.27-5.56,4.87,4.87,0,0,1,6,3A4.44,4.44,0,0,1,1059.15,544.73Z" transform="translate(0.38 -367.25)"/><path class="cls-4" d="M1330.4,498.48a4.88,4.88,0,0,1-6-3,4.45,4.45,0,0,1,3.26-5.56,4.87,4.87,0,0,1,6,3A4.44,4.44,0,0,1,1330.4,498.48Z" transform="translate(0.38 -367.25)"/><path class="cls-4" d="M1059.15,544.73a4.87,4.87,0,0,1-6-3,4.45,4.45,0,0,1,3.27-5.56,4.87,4.87,0,0,1,6,3A4.44,4.44,0,0,1,1059.15,544.73Z" transform="translate(0.38 -367.25)"/><path class="cls-4" d="M1330.4,498.48a4.88,4.88,0,0,1-6-3,4.45,4.45,0,0,1,3.26-5.56,4.87,4.87,0,0,1,6,3A4.44,4.44,0,0,1,1330.4,498.48Z" transform="translate(0.38 -367.25)"/><path class="cls-4" d="M1330.4,498.48a4.88,4.88,0,0,1-6-3,4.45,4.45,0,0,1,3.26-5.56,4.87,4.87,0,0,1,6,3A4.44,4.44,0,0,1,1330.4,498.48Z" transform="translate(0.38 -367.25)"/><path class="cls-4" d="M1337.49,393.7a4.87,4.87,0,0,1-6-3,4.44,4.44,0,0,1,3.26-5.56,4.87,4.87,0,0,1,6,3A4.45,4.45,0,0,1,1337.49,393.7Z" transform="translate(0.38 -367.25)"/><path class="cls-4" d="M1059.15,544.73a4.87,4.87,0,0,1-6-3,4.45,4.45,0,0,1,3.27-5.56,4.87,4.87,0,0,1,6,3A4.44,4.44,0,0,1,1059.15,544.73Z" transform="translate(0.38 -367.25)"/><path class="cls-4" d="M1337.49,393.7a4.87,4.87,0,0,1-6-3,4.44,4.44,0,0,1,3.26-5.56,4.87,4.87,0,0,1,6,3A4.45,4.45,0,0,1,1337.49,393.7Z" transform="translate(0.38 -367.25)"/><path class="cls-4" d="M1059.15,544.73a4.87,4.87,0,0,1-6-3,4.45,4.45,0,0,1,3.27-5.56,4.87,4.87,0,0,1,6,3A4.44,4.44,0,0,1,1059.15,544.73Z" transform="translate(0.38 -367.25)"/><path class="cls-4" d="M1337.49,393.7a4.87,4.87,0,0,1-6-3,4.44,4.44,0,0,1,3.26-5.56,4.87,4.87,0,0,1,6,3A4.45,4.45,0,0,1,1337.49,393.7Z" transform="translate(0.38 -367.25)"/><path class="cls-4" d="M1337.49,393.7a4.87,4.87,0,0,1-6-3,4.44,4.44,0,0,1,3.26-5.56,4.87,4.87,0,0,1,6,3A4.45,4.45,0,0,1,1337.49,393.7Z" transform="translate(0.38 -367.25)"/><path class="cls-4" d="M1250,450.37a4.87,4.87,0,0,1-6-3,4.44,4.44,0,0,1,3.26-5.56,4.87,4.87,0,0,1,6,3A4.45,4.45,0,0,1,1250,450.37Z" transform="translate(0.38 -367.25)"/><path class="cls-4" d="M1330.4,498.48a4.88,4.88,0,0,1-6-3,4.45,4.45,0,0,1,3.26-5.56,4.87,4.87,0,0,1,6,3A4.44,4.44,0,0,1,1330.4,498.48Z" transform="translate(0.38 -367.25)"/><path class="cls-4" d="M1250,450.37a4.87,4.87,0,0,1-6-3,4.44,4.44,0,0,1,3.26-5.56,4.87,4.87,0,0,1,6,3A4.45,4.45,0,0,1,1250,450.37Z" transform="translate(0.38 -367.25)"/><path class="cls-4" d="M1059.15,544.73a4.87,4.87,0,0,1-6-3,4.45,4.45,0,0,1,3.27-5.56,4.87,4.87,0,0,1,6,3A4.44,4.44,0,0,1,1059.15,544.73Z" transform="translate(0.38 -367.25)"/><path class="cls-4" d="M1250,450.37a4.87,4.87,0,0,1-6-3,4.44,4.44,0,0,1,3.26-5.56,4.87,4.87,0,0,1,6,3A4.45,4.45,0,0,1,1250,450.37Z" transform="translate(0.38 -367.25)"/><path class="cls-4" d="M1059.15,544.73a4.87,4.87,0,0,1-6-3,4.45,4.45,0,0,1,3.27-5.56,4.87,4.87,0,0,1,6,3A4.44,4.44,0,0,1,1059.15,544.73Z" transform="translate(0.38 -367.25)"/><path class="cls-4" d="M1250,450.37a4.87,4.87,0,0,1-6-3,4.44,4.44,0,0,1,3.26-5.56,4.87,4.87,0,0,1,6,3A4.45,4.45,0,0,1,1250,450.37Z" transform="translate(0.38 -367.25)"/><path class="cls-4" d="M1059.15,544.73a4.87,4.87,0,0,1-6-3,4.45,4.45,0,0,1,3.27-5.56,4.87,4.87,0,0,1,6,3A4.44,4.44,0,0,1,1059.15,544.73Z" transform="translate(0.38 -367.25)"/><path class="cls-4" d="M1059.15,544.73a4.87,4.87,0,0,1-6-3,4.45,4.45,0,0,1,3.27-5.56,4.87,4.87,0,0,1,6,3A4.44,4.44,0,0,1,1059.15,544.73Z" transform="translate(0.38 -367.25)"/><path class="cls-4" d="M810.45,519.36a4.87,4.87,0,0,1-6-3,4.45,4.45,0,0,1,3.26-5.57,4.88,4.88,0,0,1,6,3A4.44,4.44,0,0,1,810.45,519.36Z" transform="translate(0.38 -367.25)"/><path class="cls-4" d="M810.45,519.36a4.87,4.87,0,0,1-6-3,4.45,4.45,0,0,1,3.26-5.57,4.88,4.88,0,0,1,6,3A4.44,4.44,0,0,1,810.45,519.36Z" transform="translate(0.38 -367.25)"/><path class="cls-4" d="M1250,450.37a4.87,4.87,0,0,1-6-3,4.44,4.44,0,0,1,3.26-5.56,4.87,4.87,0,0,1,6,3A4.45,4.45,0,0,1,1250,450.37Z" transform="translate(0.38 -367.25)"/><path class="cls-4" d="M810.45,519.36a4.87,4.87,0,0,1-6-3,4.45,4.45,0,0,1,3.26-5.57,4.88,4.88,0,0,1,6,3A4.44,4.44,0,0,1,810.45,519.36Z" transform="translate(0.38 -367.25)"/><path class="cls-4" d="M810.45,519.36a4.87,4.87,0,0,1-6-3,4.45,4.45,0,0,1,3.26-5.57,4.88,4.88,0,0,1,6,3A4.44,4.44,0,0,1,810.45,519.36Z" transform="translate(0.38 -367.25)"/><path class="cls-4" d="M1059.15,544.73a4.87,4.87,0,0,1-6-3,4.45,4.45,0,0,1,3.27-5.56,4.87,4.87,0,0,1,6,3A4.44,4.44,0,0,1,1059.15,544.73Z" transform="translate(0.38 -367.25)"/><path class="cls-4" d="M810.45,519.36a4.87,4.87,0,0,1-6-3,4.45,4.45,0,0,1,3.26-5.57,4.88,4.88,0,0,1,6,3A4.44,4.44,0,0,1,810.45,519.36Z" transform="translate(0.38 -367.25)"/><path class="cls-4" d="M1059.15,544.73a4.87,4.87,0,0,1-6-3,4.45,4.45,0,0,1,3.27-5.56,4.87,4.87,0,0,1,6,3A4.44,4.44,0,0,1,1059.15,544.73Z" transform="translate(0.38 -367.25)"/><path class="cls-4" d="M810.45,519.36a4.87,4.87,0,0,1-6-3,4.45,4.45,0,0,1,3.26-5.57,4.88,4.88,0,0,1,6,3A4.44,4.44,0,0,1,810.45,519.36Z" transform="translate(0.38 -367.25)"/><path class="cls-4" d="M1250,450.37a4.87,4.87,0,0,1-6-3,4.44,4.44,0,0,1,3.26-5.56,4.87,4.87,0,0,1,6,3A4.45,4.45,0,0,1,1250,450.37Z" transform="translate(0.38 -367.25)"/><path class="cls-4" d="M1309.14,812.82a4.87,4.87,0,0,1-6-3,4.44,4.44,0,0,1,3.26-5.57,4.88,4.88,0,0,1,6,3A4.45,4.45,0,0,1,1309.14,812.82Z" transform="translate(0.38 -367.25)"/><path class="cls-4" d="M1337.49,393.7a4.87,4.87,0,0,1-6-3,4.44,4.44,0,0,1,3.26-5.56,4.87,4.87,0,0,1,6,3A4.45,4.45,0,0,1,1337.49,393.7Z" transform="translate(0.38 -367.25)"/><path class="cls-4" d="M1309.14,812.82a4.87,4.87,0,0,1-6-3,4.44,4.44,0,0,1,3.26-5.57,4.88,4.88,0,0,1,6,3A4.45,4.45,0,0,1,1309.14,812.82Z" transform="translate(0.38 -367.25)"/><path class="cls-4" d="M1330.4,498.48a4.88,4.88,0,0,1-6-3,4.45,4.45,0,0,1,3.26-5.56,4.87,4.87,0,0,1,6,3A4.44,4.44,0,0,1,1330.4,498.48Z" transform="translate(0.38 -367.25)"/><path class="cls-4" d="M1309.14,812.82a4.87,4.87,0,0,1-6-3,4.44,4.44,0,0,1,3.26-5.57,4.88,4.88,0,0,1,6,3A4.45,4.45,0,0,1,1309.14,812.82Z" transform="translate(0.38 -367.25)"/><path class="cls-4" d="M1059.15,544.73a4.87,4.87,0,0,1-6-3,4.45,4.45,0,0,1,3.27-5.56,4.87,4.87,0,0,1,6,3A4.44,4.44,0,0,1,1059.15,544.73Z" transform="translate(0.38 -367.25)"/><path class="cls-4" d="M1309.14,812.82a4.87,4.87,0,0,1-6-3,4.44,4.44,0,0,1,3.26-5.57,4.88,4.88,0,0,1,6,3A4.45,4.45,0,0,1,1309.14,812.82Z" transform="translate(0.38 -367.25)"/><path class="cls-4" d="M1059.15,544.73a4.87,4.87,0,0,1-6-3,4.45,4.45,0,0,1,3.27-5.56,4.87,4.87,0,0,1,6,3A4.44,4.44,0,0,1,1059.15,544.73Z" transform="translate(0.38 -367.25)"/><path class="cls-4" d="M1309.14,812.82a4.87,4.87,0,0,1-6-3,4.44,4.44,0,0,1,3.26-5.57,4.88,4.88,0,0,1,6,3A4.45,4.45,0,0,1,1309.14,812.82Z" transform="translate(0.38 -367.25)"/><path class="cls-4" d="M1309.14,812.82a4.87,4.87,0,0,1-6-3,4.44,4.44,0,0,1,3.26-5.57,4.88,4.88,0,0,1,6,3A4.45,4.45,0,0,1,1309.14,812.82Z" transform="translate(0.38 -367.25)"/><path class="cls-4" d="M1078.88,861.87a4.87,4.87,0,0,1-6-3,4.44,4.44,0,0,1,3.26-5.57,4.86,4.86,0,0,1,6,3A4.44,4.44,0,0,1,1078.88,861.87Z" transform="translate(0.38 -367.25)"/><path class="cls-4" d="M810.45,519.36a4.87,4.87,0,0,1-6-3,4.45,4.45,0,0,1,3.26-5.57,4.88,4.88,0,0,1,6,3A4.44,4.44,0,0,1,810.45,519.36Z" transform="translate(0.38 -367.25)"/><path class="cls-4" d="M1078.88,861.87a4.87,4.87,0,0,1-6-3,4.44,4.44,0,0,1,3.26-5.57,4.86,4.86,0,0,1,6,3A4.44,4.44,0,0,1,1078.88,861.87Z" transform="translate(0.38 -367.25)"/><path class="cls-4" d="M1078.88,861.87a4.87,4.87,0,0,1-6-3,4.44,4.44,0,0,1,3.26-5.57,4.86,4.86,0,0,1,6,3A4.44,4.44,0,0,1,1078.88,861.87Z" transform="translate(0.38 -367.25)"/><path class="cls-4" d="M1250,450.37a4.87,4.87,0,0,1-6-3,4.44,4.44,0,0,1,3.26-5.56,4.87,4.87,0,0,1,6,3A4.45,4.45,0,0,1,1250,450.37Z" transform="translate(0.38 -367.25)"/><path class="cls-4" d="M1078.88,861.87a4.87,4.87,0,0,1-6-3,4.44,4.44,0,0,1,3.26-5.57,4.86,4.86,0,0,1,6,3A4.44,4.44,0,0,1,1078.88,861.87Z" transform="translate(0.38 -367.25)"/><path class="cls-4" d="M1330.4,498.48a4.88,4.88,0,0,1-6-3,4.45,4.45,0,0,1,3.26-5.56,4.87,4.87,0,0,1,6,3A4.44,4.44,0,0,1,1330.4,498.48Z" transform="translate(0.38 -367.25)"/><path class="cls-4" d="M1078.88,861.87a4.87,4.87,0,0,1-6-3,4.44,4.44,0,0,1,3.26-5.57,4.86,4.86,0,0,1,6,3A4.44,4.44,0,0,1,1078.88,861.87Z" transform="translate(0.38 -367.25)"/><path class="cls-4" d="M1059.15,544.73a4.87,4.87,0,0,1-6-3,4.45,4.45,0,0,1,3.27-5.56,4.87,4.87,0,0,1,6,3A4.44,4.44,0,0,1,1059.15,544.73Z" transform="translate(0.38 -367.25)"/><path class="cls-4" d="M1078.88,861.87a4.87,4.87,0,0,1-6-3,4.44,4.44,0,0,1,3.26-5.57,4.86,4.86,0,0,1,6,3A4.44,4.44,0,0,1,1078.88,861.87Z" transform="translate(0.38 -367.25)"/><path class="cls-4" d="M1059.15,544.73a4.87,4.87,0,0,1-6-3,4.45,4.45,0,0,1,3.27-5.56,4.87,4.87,0,0,1,6,3A4.44,4.44,0,0,1,1059.15,544.73Z" transform="translate(0.38 -367.25)"/><path class="cls-4" d="M1078.88,861.87a4.87,4.87,0,0,1-6-3,4.44,4.44,0,0,1,3.26-5.57,4.86,4.86,0,0,1,6,3A4.44,4.44,0,0,1,1078.88,861.87Z" transform="translate(0.38 -367.25)"/><path class="cls-4" d="M1572.63,376a4.87,4.87,0,0,1-6-3,4.45,4.45,0,0,1,3.26-5.57,4.88,4.88,0,0,1,6,3A4.45,4.45,0,0,1,1572.63,376Z" transform="translate(0.38 -367.25)"/><path class="cls-4" d="M1250,450.37a4.87,4.87,0,0,1-6-3,4.44,4.44,0,0,1,3.26-5.56,4.87,4.87,0,0,1,6,3A4.45,4.45,0,0,1,1250,450.37Z" transform="translate(0.38 -367.25)"/><path class="cls-4" d="M1572.63,376a4.87,4.87,0,0,1-6-3,4.45,4.45,0,0,1,3.26-5.57,4.88,4.88,0,0,1,6,3A4.45,4.45,0,0,1,1572.63,376Z" transform="translate(0.38 -367.25)"/><path class="cls-4" d="M1337.49,393.7a4.87,4.87,0,0,1-6-3,4.44,4.44,0,0,1,3.26-5.56,4.87,4.87,0,0,1,6,3A4.45,4.45,0,0,1,1337.49,393.7Z" transform="translate(0.38 -367.25)"/><path class="cls-4" d="M1572.63,376a4.87,4.87,0,0,1-6-3,4.45,4.45,0,0,1,3.26-5.57,4.88,4.88,0,0,1,6,3A4.45,4.45,0,0,1,1572.63,376Z" transform="translate(0.38 -367.25)"/><path class="cls-4" d="M1330.4,498.48a4.88,4.88,0,0,1-6-3,4.45,4.45,0,0,1,3.26-5.56,4.87,4.87,0,0,1,6,3A4.44,4.44,0,0,1,1330.4,498.48Z" transform="translate(0.38 -367.25)"/><path class="cls-4" d="M1572.63,376a4.87,4.87,0,0,1-6-3,4.45,4.45,0,0,1,3.26-5.57,4.88,4.88,0,0,1,6,3A4.45,4.45,0,0,1,1572.63,376Z" transform="translate(0.38 -367.25)"/><path class="cls-4" d="M1309.14,812.82a4.87,4.87,0,0,1-6-3,4.44,4.44,0,0,1,3.26-5.57,4.88,4.88,0,0,1,6,3A4.45,4.45,0,0,1,1309.14,812.82Z" transform="translate(0.38 -367.25)"/><path class="cls-4" d="M1567.33,868.31a4.87,4.87,0,0,1-6-3,4.44,4.44,0,0,1,3.26-5.57,4.87,4.87,0,0,1,6,3A4.44,4.44,0,0,1,1567.33,868.31Z" transform="translate(0.38 -367.25)"/><path class="cls-4" d="M1330.4,498.48a4.88,4.88,0,0,1-6-3,4.45,4.45,0,0,1,3.26-5.56,4.87,4.87,0,0,1,6,3A4.44,4.44,0,0,1,1330.4,498.48Z" transform="translate(0.38 -367.25)"/><path class="cls-4" d="M1567.33,868.31a4.87,4.87,0,0,1-6-3,4.44,4.44,0,0,1,3.26-5.57,4.87,4.87,0,0,1,6,3A4.44,4.44,0,0,1,1567.33,868.31Z" transform="translate(0.38 -367.25)"/><path class="cls-4" d="M1567.33,868.31a4.87,4.87,0,0,1-6-3,4.44,4.44,0,0,1,3.26-5.57,4.87,4.87,0,0,1,6,3A4.44,4.44,0,0,1,1567.33,868.31Z" transform="translate(0.38 -367.25)"/><path class="cls-4" d="M1654.27,666.87a4.88,4.88,0,0,1-6-3,4.45,4.45,0,0,1,3.26-5.57,4.88,4.88,0,0,1,6,3A4.46,4.46,0,0,1,1654.27,666.87Z" transform="translate(0.38 -367.25)"/><path class="cls-4" d="M1572.63,376a4.87,4.87,0,0,1-6-3,4.45,4.45,0,0,1,3.26-5.57,4.88,4.88,0,0,1,6,3A4.45,4.45,0,0,1,1572.63,376Z" transform="translate(0.38 -367.25)"/><path class="cls-4" d="M1654.27,666.87a4.88,4.88,0,0,1-6-3,4.45,4.45,0,0,1,3.26-5.57,4.88,4.88,0,0,1,6,3A4.46,4.46,0,0,1,1654.27,666.87Z" transform="translate(0.38 -367.25)"/><path class="cls-4" d="M1654.27,666.87a4.88,4.88,0,0,1-6-3,4.45,4.45,0,0,1,3.26-5.57,4.88,4.88,0,0,1,6,3A4.46,4.46,0,0,1,1654.27,666.87Z" transform="translate(0.38 -367.25)"/><path class="cls-4" d="M1309.14,812.82a4.87,4.87,0,0,1-6-3,4.44,4.44,0,0,1,3.26-5.57,4.88,4.88,0,0,1,6,3A4.45,4.45,0,0,1,1309.14,812.82Z" transform="translate(0.38 -367.25)"/><path class="cls-4" d="M1654.27,666.87a4.88,4.88,0,0,1-6-3,4.45,4.45,0,0,1,3.26-5.57,4.88,4.88,0,0,1,6,3A4.46,4.46,0,0,1,1654.27,666.87Z" transform="translate(0.38 -367.25)"/><path class="cls-4" d="M1250,450.37a4.87,4.87,0,0,1-6-3,4.44,4.44,0,0,1,3.26-5.56,4.87,4.87,0,0,1,6,3A4.45,4.45,0,0,1,1250,450.37Z" transform="translate(0.38 -367.25)"/><path class="cls-4" d="M1654.27,666.87a4.88,4.88,0,0,1-6-3,4.45,4.45,0,0,1,3.26-5.57,4.88,4.88,0,0,1,6,3A4.46,4.46,0,0,1,1654.27,666.87Z" transform="translate(0.38 -367.25)"/><path class="cls-4" d="M1337.49,393.7a4.87,4.87,0,0,1-6-3,4.44,4.44,0,0,1,3.26-5.56,4.87,4.87,0,0,1,6,3A4.45,4.45,0,0,1,1337.49,393.7Z" transform="translate(0.38 -367.25)"/><path class="cls-4" d="M1654.27,666.87a4.88,4.88,0,0,1-6-3,4.45,4.45,0,0,1,3.26-5.57,4.88,4.88,0,0,1,6,3A4.46,4.46,0,0,1,1654.27,666.87Z" transform="translate(0.38 -367.25)"/><path class="cls-4" d="M1330.4,498.48a4.88,4.88,0,0,1-6-3,4.45,4.45,0,0,1,3.26-5.56,4.87,4.87,0,0,1,6,3A4.44,4.44,0,0,1,1330.4,498.48Z" transform="translate(0.38 -367.25)"/><path class="cls-4" d="M1654.27,666.87a4.88,4.88,0,0,1-6-3,4.45,4.45,0,0,1,3.26-5.57,4.88,4.88,0,0,1,6,3A4.46,4.46,0,0,1,1654.27,666.87Z" transform="translate(0.38 -367.25)"/><path class="cls-4" d="M1654.27,666.87a4.88,4.88,0,0,1-6-3,4.45,4.45,0,0,1,3.26-5.57,4.88,4.88,0,0,1,6,3A4.46,4.46,0,0,1,1654.27,666.87Z" transform="translate(0.38 -367.25)"/><path class="cls-4" d="M1743.26,885.56a4.87,4.87,0,0,1-6-3,4.45,4.45,0,0,1,3.26-5.56,4.87,4.87,0,0,1,6,3A4.45,4.45,0,0,1,1743.26,885.56Z" transform="translate(0.38 -367.25)"/><path class="cls-4" d="M1654.27,666.87a4.88,4.88,0,0,1-6-3,4.45,4.45,0,0,1,3.26-5.57,4.88,4.88,0,0,1,6,3A4.46,4.46,0,0,1,1654.27,666.87Z" transform="translate(0.38 -367.25)"/><path class="cls-4" d="M1743.26,885.56a4.87,4.87,0,0,1-6-3,4.45,4.45,0,0,1,3.26-5.56,4.87,4.87,0,0,1,6,3A4.45,4.45,0,0,1,1743.26,885.56Z" transform="translate(0.38 -367.25)"/><path class="cls-4" d="M1567.33,868.31a4.87,4.87,0,0,1-6-3,4.44,4.44,0,0,1,3.26-5.57,4.87,4.87,0,0,1,6,3A4.44,4.44,0,0,1,1567.33,868.31Z" transform="translate(0.38 -367.25)"/><path class="cls-4" d="M1743.26,885.56a4.87,4.87,0,0,1-6-3,4.45,4.45,0,0,1,3.26-5.56,4.87,4.87,0,0,1,6,3A4.45,4.45,0,0,1,1743.26,885.56Z" transform="translate(0.38 -367.25)"/><path class="cls-4" d="M1743.26,885.56a4.87,4.87,0,0,1-6-3,4.45,4.45,0,0,1,3.26-5.56,4.87,4.87,0,0,1,6,3A4.45,4.45,0,0,1,1743.26,885.56Z" transform="translate(0.38 -367.25)"/><path class="cls-4" d="M1309.14,812.82a4.87,4.87,0,0,1-6-3,4.44,4.44,0,0,1,3.26-5.57,4.88,4.88,0,0,1,6,3A4.45,4.45,0,0,1,1309.14,812.82Z" transform="translate(0.38 -367.25)"/><path class="cls-4" d="M1743.26,885.56a4.87,4.87,0,0,1-6-3,4.45,4.45,0,0,1,3.26-5.56,4.87,4.87,0,0,1,6,3A4.45,4.45,0,0,1,1743.26,885.56Z" transform="translate(0.38 -367.25)"/></g></g><g class="cls-2"><polygon class="cls-4" points="324.42 373.96 106.64 120.54 107.35 120.07 325.14 373.5 324.42 373.96"/><polygon class="cls-4" points="0.38 149.57 107.13 120.68 106.86 119.94 0.38 148.75 0.38 149.57"/><polygon class="cls-4" points="0.38 165.68 107.19 120.65 106.8 119.96 0.38 164.81 0.38 165.68"/><polygon class="cls-4" points="98.13 122.97 97.88 122.22 106.87 119.93 107.12 120.68 98.13 122.97"/><polygon class="cls-4" points="324.43 373.97 97.65 122.83 98.36 122.35 325.14 373.49 324.43 373.97"/><polygon class="cls-4" points="0.38 149.48 98.14 122.96 97.87 122.22 0.38 148.66 0.38 149.48"/><polygon class="cls-4" points="0.38 164.57 98.2 122.94 97.81 122.24 0.38 163.71 0.38 164.57"/><polygon class="cls-4" points="323.31 471.51 97.61 122.78 98.4 122.4 324.09 471.13 323.31 471.51"/><polygon class="cls-4" points="323.3 471.5 106.6 120.49 107.39 120.12 324.09 471.14 323.3 471.5"/><polygon class="cls-4" points="324.15 471.32 323.25 471.32 324.34 373.72 325.23 373.73 324.15 471.32"/><polygon class="cls-4" points="324.15 471.35 323.25 471.3 347.94 126.52 348.84 126.57 324.15 471.35"/><polygon class="cls-4" points="348.38 126.93 98 122.98 98.01 122.2 348.4 126.16 348.38 126.93"/><polygon class="cls-4" points="348.38 126.93 106.98 120.69 107.01 119.92 348.4 126.16 348.38 126.93"/><polygon class="cls-4" points="325.23 373.76 324.34 373.69 347.94 126.51 348.84 126.58 325.23 373.76"/><polygon class="cls-4" points="625.57 441.16 348.03 126.78 348.75 126.31 626.27 440.68 625.57 441.16"/><polygon class="cls-4" points="323.75 471.71 323.64 470.94 625.87 440.53 625.97 441.31 323.75 471.71"/><polygon class="cls-4" points="625.81 441.3 324.67 374.1 324.9 373.35 626.03 440.54 625.81 441.3"/><polygon class="cls-4" points="626.23 441.2 625.61 440.64 923.4 195.58 924.01 196.14 626.23 441.2"/><polygon class="cls-4" points="626.23 441.2 625.61 440.64 923.4 195.58 924.01 196.14 626.23 441.2"/><polygon class="cls-4" points="626.36 440.99 625.48 440.85 681.08 172.83 681.96 172.97 626.36 440.99"/><polygon class="cls-4" points="681.45 173.28 348.32 126.93 348.46 126.16 681.6 172.51 681.45 173.28"/><polygon class="cls-4" points="325.02 374.05 324.54 373.4 681.28 172.57 681.77 173.22 325.02 374.05"/><polygon class="cls-4" points="923.66 196.24 681.47 173.28 681.57 172.51 923.75 195.47 923.66 196.24"/><polygon class="cls-4" points="923.66 196.24 681.47 173.28 681.57 172.51 923.75 195.47 923.66 196.24"/><polygon class="cls-4" points="226.78 559.87 226.49 559.13 625.77 440.55 626.06 441.29 226.78 559.87"/><polygon class="cls-4" points="226.96 559.77 226.31 559.23 323.37 471.05 324.02 471.59 226.96 559.77"/><polygon class="cls-4" points="227.04 559.66 226.23 559.34 324.37 373.56 325.19 373.89 227.04 559.66"/><polygon class="cls-4" points="0.38 566.82 226.65 559.89 226.62 559.11 0.38 566.05 0.38 566.82"/><polygon class="cls-4" points="0.38 393.82 0.38 394.84 226.35 559.8 226.93 559.2 0.38 393.82"/><polygon class="cls-4" points="0.38 358.76 0.38 359.6 323.53 471.68 323.86 470.96 0.38 358.76"/><polygon class="cls-4" points="0.38 228.78 98.36 122.83 97.66 122.35 0.38 227.54 0.38 228.78"/><polygon class="cls-4" points="0.38 232.21 107.34 120.55 106.65 120.06 0.38 230.99 0.38 232.21"/><polygon class="cls-4" points="0.38 337.19 0.38 337.98 324.72 374.11 324.84 373.34 0.38 337.19"/><polygon class="cls-4" points="942.56 483.14 681.16 173.13 681.89 172.67 943.28 482.69 942.56 483.14"/><polygon class="cls-4" points="942.85 483.3 625.85 441.3 625.99 440.54 942.99 482.53 942.85 483.3"/><polygon class="cls-4" points="942.47 482.94 923.26 195.88 924.15 195.84 943.37 482.89 942.47 482.94"/><polygon class="cls-4" points="942.47 482.94 923.26 195.88 924.15 195.84 943.37 482.89 942.47 482.94"/><polygon class="cls-4" points="324.42 373.96 106.64 120.54 107.35 120.07 325.14 373.5 324.42 373.96"/><polygon class="cls-4" points="0.38 149.57 107.13 120.68 106.86 119.94 0.38 148.75 0.38 149.57"/><polygon class="cls-4" points="0.38 165.68 107.19 120.65 106.8 119.96 0.38 164.81 0.38 165.68"/><polygon class="cls-4" points="98.13 122.97 97.88 122.22 106.87 119.93 107.12 120.68 98.13 122.97"/><polygon class="cls-4" points="324.43 373.97 97.65 122.83 98.36 122.35 325.14 373.49 324.43 373.97"/><line class="cls-4" x1="98.14" y1="122.96" x2="97.87" y2="122.22"/><polygon class="cls-4" points="0.38 164.57 98.2 122.94 97.81 122.24 0.38 163.71 0.38 164.57"/><polygon class="cls-4" points="323.31 471.51 97.61 122.78 98.4 122.4 324.09 471.13 323.31 471.51"/><polygon class="cls-4" points="323.3 471.5 106.6 120.49 107.39 120.12 324.09 471.14 323.3 471.5"/><polygon class="cls-4" points="324.15 471.32 323.25 471.32 324.34 373.72 325.23 373.73 324.15 471.32"/><polygon class="cls-4" points="324.15 471.35 323.25 471.3 347.94 126.52 348.84 126.57 324.15 471.35"/><polygon class="cls-4" points="348.38 126.93 98 122.98 98.01 122.2 348.4 126.16 348.38 126.93"/><polygon class="cls-4" points="348.38 126.93 106.98 120.69 107.01 119.92 348.4 126.16 348.38 126.93"/><polygon class="cls-4" points="325.23 373.76 324.34 373.69 347.94 126.51 348.84 126.58 325.23 373.76"/><polygon class="cls-4" points="625.57 441.16 348.03 126.78 348.75 126.31 626.27 440.68 625.57 441.16"/><polygon class="cls-4" points="323.75 471.71 323.64 470.94 625.87 440.53 625.97 441.31 323.75 471.71"/><polygon class="cls-4" points="625.81 441.3 324.67 374.1 324.9 373.35 626.03 440.54 625.81 441.3"/><polygon class="cls-4" points="626.23 441.2 625.61 440.64 923.4 195.58 924.01 196.14 626.23 441.2"/><polygon class="cls-4" points="626.23 441.2 625.61 440.64 923.4 195.58 924.01 196.14 626.23 441.2"/><polygon class="cls-4" points="626.36 440.99 625.48 440.85 681.08 172.83 681.96 172.97 626.36 440.99"/><polygon class="cls-4" points="681.45 173.28 348.32 126.93 348.46 126.16 681.6 172.51 681.45 173.28"/><polygon class="cls-4" points="325.02 374.05 324.54 373.4 681.28 172.57 681.77 173.22 325.02 374.05"/><polygon class="cls-4" points="923.66 196.24 681.47 173.28 681.57 172.51 923.75 195.47 923.66 196.24"/><polygon class="cls-4" points="923.66 196.24 681.47 173.28 681.57 172.51 923.75 195.47 923.66 196.24"/><polygon class="cls-4" points="226.78 559.87 226.49 559.13 625.77 440.55 626.06 441.29 226.78 559.87"/><polygon class="cls-4" points="226.96 559.77 226.31 559.23 323.37 471.05 324.02 471.59 226.96 559.77"/><polygon class="cls-4" points="227.04 559.66 226.23 559.34 324.37 373.56 325.19 373.89 227.04 559.66"/><polygon class="cls-4" points="0.38 566.82 226.65 559.89 226.62 559.11 0.38 566.05 0.38 566.82"/><polygon class="cls-4" points="0.38 393.82 0.38 394.84 226.35 559.8 226.93 559.2 0.38 393.82"/><polygon class="cls-4" points="0.38 358.76 0.38 359.6 323.53 471.68 323.86 470.96 0.38 358.76"/><polygon class="cls-4" points="0.38 228.78 98.36 122.83 97.66 122.35 0.38 227.54 0.38 228.78"/><polygon class="cls-4" points="0.38 232.21 107.34 120.55 106.65 120.06 0.38 230.99 0.38 232.21"/><polygon class="cls-4" points="0.38 337.19 0.38 337.98 324.72 374.11 324.84 373.34 0.38 337.19"/><polygon class="cls-4" points="942.56 483.14 681.16 173.13 681.89 172.67 943.28 482.69 942.56 483.14"/><polygon class="cls-4" points="942.85 483.3 625.85 441.3 625.99 440.54 942.99 482.53 942.85 483.3"/><polygon class="cls-4" points="942.47 482.94 923.26 195.88 924.15 195.84 943.37 482.89 942.47 482.94"/><polygon class="cls-4" points="942.47 482.94 923.26 195.88 924.15 195.84 943.37 482.89 942.47 482.94"/><path class="cls-4" d="M924.65,567a4.83,4.83,0,0,1-5.82-2.75c-.72-2.15.7-4.4,3.18-5a4.83,4.83,0,0,1,5.82,2.75C928.55,564.11,927.13,566.37,924.65,567Z" transform="translate(0.38 -367.25)"/><path class="cls-4" d="M924.65,567a4.83,4.83,0,0,1-5.82-2.75c-.72-2.15.7-4.4,3.18-5a4.83,4.83,0,0,1,5.82,2.75C928.55,564.11,927.13,566.37,924.65,567Z" transform="translate(0.38 -367.25)"/><path class="cls-4" d="M924.65,567a4.83,4.83,0,0,1-5.82-2.75c-.72-2.15.7-4.4,3.18-5a4.83,4.83,0,0,1,5.82,2.75C928.55,564.11,927.13,566.37,924.65,567Z" transform="translate(0.38 -367.25)"/><path class="cls-4" d="M924.65,567a4.83,4.83,0,0,1-5.82-2.75c-.72-2.15.7-4.4,3.18-5a4.83,4.83,0,0,1,5.82,2.75C928.55,564.11,927.13,566.37,924.65,567Z" transform="translate(0.38 -367.25)"/><path class="cls-4" d="M325.73,744.87a4.83,4.83,0,0,1-5.81-2.75c-.73-2.15.69-4.41,3.17-5a4.82,4.82,0,0,1,5.81,2.75C329.64,742,328.22,744.24,325.73,744.87Z" transform="translate(0.38 -367.25)"/><path class="cls-4" d="M107.94,491.45a4.83,4.83,0,0,1-5.81-2.75c-.72-2.15.7-4.41,3.17-5a4.83,4.83,0,0,1,5.82,2.75C111.85,488.56,110.42,490.81,107.94,491.45Z" transform="translate(0.38 -367.25)"/><path class="cls-4" d="M107.94,491.45a4.83,4.83,0,0,1-5.81-2.75c-.72-2.15.7-4.41,3.17-5a4.83,4.83,0,0,1,5.82,2.75C111.85,488.56,110.42,490.81,107.94,491.45Z" transform="translate(0.38 -367.25)"/><path class="cls-4" d="M107.94,491.45a4.83,4.83,0,0,1-5.81-2.75c-.72-2.15.7-4.41,3.17-5a4.83,4.83,0,0,1,5.82,2.75C111.85,488.56,110.42,490.81,107.94,491.45Z" transform="translate(0.38 -367.25)"/><path class="cls-4" d="M107.94,491.45a4.83,4.83,0,0,1-5.81-2.75c-.72-2.15.7-4.41,3.17-5a4.83,4.83,0,0,1,5.82,2.75C111.85,488.56,110.42,490.81,107.94,491.45Z" transform="translate(0.38 -367.25)"/><path class="cls-4" d="M98.95,493.74A4.83,4.83,0,0,1,93.13,491c-.73-2.15.69-4.41,3.18-5a4.82,4.82,0,0,1,5.81,2.75C102.85,490.85,101.44,493.1,98.95,493.74Z" transform="translate(0.38 -367.25)"/><path class="cls-4" d="M325.73,744.87a4.83,4.83,0,0,1-5.81-2.75c-.73-2.15.69-4.41,3.17-5a4.82,4.82,0,0,1,5.81,2.75C329.64,742,328.22,744.24,325.73,744.87Z" transform="translate(0.38 -367.25)"/><path class="cls-4" d="M98.95,493.74A4.83,4.83,0,0,1,93.13,491c-.73-2.15.69-4.41,3.18-5a4.82,4.82,0,0,1,5.81,2.75C102.85,490.85,101.44,493.1,98.95,493.74Z" transform="translate(0.38 -367.25)"/><path class="cls-4" d="M98.95,493.74A4.83,4.83,0,0,1,93.13,491c-.73-2.15.69-4.41,3.18-5a4.82,4.82,0,0,1,5.81,2.75C102.85,490.85,101.44,493.1,98.95,493.74Z" transform="translate(0.38 -367.25)"/><path class="cls-4" d="M98.95,493.74A4.83,4.83,0,0,1,93.13,491c-.73-2.15.69-4.41,3.18-5a4.82,4.82,0,0,1,5.81,2.75C102.85,490.85,101.44,493.1,98.95,493.74Z" transform="translate(0.38 -367.25)"/><path class="cls-4" d="M98.95,493.74A4.83,4.83,0,0,1,93.13,491c-.73-2.15.69-4.41,3.18-5a4.82,4.82,0,0,1,5.81,2.75C102.85,490.85,101.44,493.1,98.95,493.74Z" transform="translate(0.38 -367.25)"/><path class="cls-4" d="M324.65,842.46a4.83,4.83,0,0,1-5.82-2.75c-.73-2.15.69-4.41,3.17-5a4.83,4.83,0,0,1,5.81,2.75C328.55,839.58,327.13,841.83,324.65,842.46Z" transform="translate(0.38 -367.25)"/><path class="cls-4" d="M107.94,491.45a4.83,4.83,0,0,1-5.81-2.75c-.72-2.15.7-4.41,3.17-5a4.83,4.83,0,0,1,5.82,2.75C111.85,488.56,110.42,490.81,107.94,491.45Z" transform="translate(0.38 -367.25)"/><path class="cls-4" d="M324.65,842.46a4.83,4.83,0,0,1-5.82-2.75c-.73-2.15.69-4.41,3.17-5a4.83,4.83,0,0,1,5.81,2.75C328.55,839.58,327.13,841.83,324.65,842.46Z" transform="translate(0.38 -367.25)"/><path class="cls-4" d="M325.73,744.87a4.83,4.83,0,0,1-5.81-2.75c-.73-2.15.69-4.41,3.17-5a4.82,4.82,0,0,1,5.81,2.75C329.64,742,328.22,744.24,325.73,744.87Z" transform="translate(0.38 -367.25)"/><path class="cls-4" d="M324.65,842.46a4.83,4.83,0,0,1-5.82-2.75c-.73-2.15.69-4.41,3.17-5a4.83,4.83,0,0,1,5.81,2.75C328.55,839.58,327.13,841.83,324.65,842.46Z" transform="translate(0.38 -367.25)"/><path class="cls-4" d="M924.65,567a4.83,4.83,0,0,1-5.82-2.75c-.72-2.15.7-4.4,3.18-5a4.83,4.83,0,0,1,5.82,2.75C928.55,564.11,927.13,566.37,924.65,567Z" transform="translate(0.38 -367.25)"/><path class="cls-4" d="M924.65,567a4.83,4.83,0,0,1-5.82-2.75c-.72-2.15.7-4.4,3.18-5a4.83,4.83,0,0,1,5.82,2.75C928.55,564.11,927.13,566.37,924.65,567Z" transform="translate(0.38 -367.25)"/><path class="cls-4" d="M324.65,842.46a4.83,4.83,0,0,1-5.82-2.75c-.73-2.15.69-4.41,3.17-5a4.83,4.83,0,0,1,5.81,2.75C328.55,839.58,327.13,841.83,324.65,842.46Z" transform="translate(0.38 -367.25)"/><path class="cls-4" d="M349.34,497.68a4.83,4.83,0,0,1-5.81-2.75c-.73-2.15.69-4.41,3.18-5a4.83,4.83,0,0,1,5.81,2.75C353.24,494.8,351.82,497.05,349.34,497.68Z" transform="translate(0.38 -367.25)"/><path class="cls-4" d="M98.95,493.74A4.83,4.83,0,0,1,93.13,491c-.73-2.15.69-4.41,3.18-5a4.82,4.82,0,0,1,5.81,2.75C102.85,490.85,101.44,493.1,98.95,493.74Z" transform="translate(0.38 -367.25)"/><path class="cls-4" d="M349.34,497.68a4.83,4.83,0,0,1-5.81-2.75c-.73-2.15.69-4.41,3.18-5a4.83,4.83,0,0,1,5.81,2.75C353.24,494.8,351.82,497.05,349.34,497.68Z" transform="translate(0.38 -367.25)"/><path class="cls-4" d="M107.94,491.45a4.83,4.83,0,0,1-5.81-2.75c-.72-2.15.7-4.41,3.17-5a4.83,4.83,0,0,1,5.82,2.75C111.85,488.56,110.42,490.81,107.94,491.45Z" transform="translate(0.38 -367.25)"/><path class="cls-4" d="M349.34,497.68a4.83,4.83,0,0,1-5.81-2.75c-.73-2.15.69-4.41,3.18-5a4.83,4.83,0,0,1,5.81,2.75C353.24,494.8,351.82,497.05,349.34,497.68Z" transform="translate(0.38 -367.25)"/><path class="cls-4" d="M325.73,744.87a4.83,4.83,0,0,1-5.81-2.75c-.73-2.15.69-4.41,3.17-5a4.82,4.82,0,0,1,5.81,2.75C329.64,742,328.22,744.24,325.73,744.87Z" transform="translate(0.38 -367.25)"/><path class="cls-4" d="M349.34,497.68a4.83,4.83,0,0,1-5.81-2.75c-.73-2.15.69-4.41,3.18-5a4.83,4.83,0,0,1,5.81,2.75C353.24,494.8,351.82,497.05,349.34,497.68Z" transform="translate(0.38 -367.25)"/><path class="cls-4" d="M349.34,497.68a4.83,4.83,0,0,1-5.81-2.75c-.73-2.15.69-4.41,3.18-5a4.83,4.83,0,0,1,5.81,2.75C353.24,494.8,351.82,497.05,349.34,497.68Z" transform="translate(0.38 -367.25)"/><path class="cls-4" d="M626.86,812.06a4.83,4.83,0,0,1-5.81-2.75c-.73-2.15.69-4.41,3.17-5A4.83,4.83,0,0,1,630,807C630.77,809.17,629.34,811.43,626.86,812.06Z" transform="translate(0.38 -367.25)"/><path class="cls-4" d="M324.65,842.46a4.83,4.83,0,0,1-5.82-2.75c-.73-2.15.69-4.41,3.17-5a4.83,4.83,0,0,1,5.81,2.75C328.55,839.58,327.13,841.83,324.65,842.46Z" transform="translate(0.38 -367.25)"/><path class="cls-4" d="M626.86,812.06a4.83,4.83,0,0,1-5.81-2.75c-.73-2.15.69-4.41,3.17-5A4.83,4.83,0,0,1,630,807C630.77,809.17,629.34,811.43,626.86,812.06Z" transform="translate(0.38 -367.25)"/><path class="cls-4" d="M325.73,744.87a4.83,4.83,0,0,1-5.81-2.75c-.73-2.15.69-4.41,3.17-5a4.82,4.82,0,0,1,5.81,2.75C329.64,742,328.22,744.24,325.73,744.87Z" transform="translate(0.38 -367.25)"/><path class="cls-4" d="M626.86,812.06a4.83,4.83,0,0,1-5.81-2.75c-.73-2.15.69-4.41,3.17-5A4.83,4.83,0,0,1,630,807C630.77,809.17,629.34,811.43,626.86,812.06Z" transform="translate(0.38 -367.25)"/><path class="cls-4" d="M924.65,567a4.83,4.83,0,0,1-5.82-2.75c-.72-2.15.7-4.4,3.18-5a4.83,4.83,0,0,1,5.82,2.75C928.55,564.11,927.13,566.37,924.65,567Z" transform="translate(0.38 -367.25)"/><path class="cls-4" d="M626.86,812.06a4.83,4.83,0,0,1-5.81-2.75c-.73-2.15.69-4.41,3.17-5A4.83,4.83,0,0,1,630,807C630.77,809.17,629.34,811.43,626.86,812.06Z" transform="translate(0.38 -367.25)"/><path class="cls-4" d="M924.65,567a4.83,4.83,0,0,1-5.82-2.75c-.72-2.15.7-4.4,3.18-5a4.83,4.83,0,0,1,5.82,2.75C928.55,564.11,927.13,566.37,924.65,567Z" transform="translate(0.38 -367.25)"/><path class="cls-4" d="M626.86,812.06a4.83,4.83,0,0,1-5.81-2.75c-.73-2.15.69-4.41,3.17-5A4.83,4.83,0,0,1,630,807C630.77,809.17,629.34,811.43,626.86,812.06Z" transform="translate(0.38 -367.25)"/><path class="cls-4" d="M626.86,812.06a4.83,4.83,0,0,1-5.81-2.75c-.73-2.15.69-4.41,3.17-5A4.83,4.83,0,0,1,630,807C630.77,809.17,629.34,811.43,626.86,812.06Z" transform="translate(0.38 -367.25)"/><path class="cls-4" d="M682.47,544a4.83,4.83,0,0,1-5.82-2.75c-.73-2.15.69-4.4,3.18-5a4.83,4.83,0,0,1,5.81,2.75C686.37,541.15,685,543.41,682.47,544Z" transform="translate(0.38 -367.25)"/><path class="cls-4" d="M349.34,497.68a4.83,4.83,0,0,1-5.81-2.75c-.73-2.15.69-4.41,3.18-5a4.83,4.83,0,0,1,5.81,2.75C353.24,494.8,351.82,497.05,349.34,497.68Z" transform="translate(0.38 -367.25)"/><path class="cls-4" d="M682.47,544a4.83,4.83,0,0,1-5.82-2.75c-.73-2.15.69-4.4,3.18-5a4.83,4.83,0,0,1,5.81,2.75C686.37,541.15,685,543.41,682.47,544Z" transform="translate(0.38 -367.25)"/><path class="cls-4" d="M682.47,544a4.83,4.83,0,0,1-5.82-2.75c-.73-2.15.69-4.4,3.18-5a4.83,4.83,0,0,1,5.81,2.75C686.37,541.15,685,543.41,682.47,544Z" transform="translate(0.38 -367.25)"/><path class="cls-4" d="M325.73,744.87a4.83,4.83,0,0,1-5.81-2.75c-.73-2.15.69-4.41,3.17-5a4.82,4.82,0,0,1,5.81,2.75C329.64,742,328.22,744.24,325.73,744.87Z" transform="translate(0.38 -367.25)"/><path class="cls-4" d="M682.47,544a4.83,4.83,0,0,1-5.82-2.75c-.73-2.15.69-4.4,3.18-5a4.83,4.83,0,0,1,5.81,2.75C686.37,541.15,685,543.41,682.47,544Z" transform="translate(0.38 -367.25)"/><path class="cls-4" d="M924.65,567a4.83,4.83,0,0,1-5.82-2.75c-.72-2.15.7-4.4,3.18-5a4.83,4.83,0,0,1,5.82,2.75C928.55,564.11,927.13,566.37,924.65,567Z" transform="translate(0.38 -367.25)"/><path class="cls-4" d="M682.47,544a4.83,4.83,0,0,1-5.82-2.75c-.73-2.15.69-4.4,3.18-5a4.83,4.83,0,0,1,5.81,2.75C686.37,541.15,685,543.41,682.47,544Z" transform="translate(0.38 -367.25)"/><path class="cls-4" d="M924.65,567a4.83,4.83,0,0,1-5.82-2.75c-.72-2.15.7-4.4,3.18-5a4.83,4.83,0,0,1,5.82,2.75C928.55,564.11,927.13,566.37,924.65,567Z" transform="translate(0.38 -367.25)"/><path class="cls-4" d="M682.47,544a4.83,4.83,0,0,1-5.82-2.75c-.73-2.15.69-4.4,3.18-5a4.83,4.83,0,0,1,5.81,2.75C686.37,541.15,685,543.41,682.47,544Z" transform="translate(0.38 -367.25)"/><path class="cls-4" d="M924.65,567a4.83,4.83,0,0,1-5.82-2.75c-.72-2.15.7-4.4,3.18-5a4.83,4.83,0,0,1,5.82,2.75C928.55,564.11,927.13,566.37,924.65,567Z" transform="translate(0.38 -367.25)"/><path class="cls-4" d="M924.65,567a4.83,4.83,0,0,1-5.82-2.75c-.72-2.15.7-4.4,3.18-5a4.83,4.83,0,0,1,5.82,2.75C928.55,564.11,927.13,566.37,924.65,567Z" transform="translate(0.38 -367.25)"/><path class="cls-4" d="M626.86,812.06a4.83,4.83,0,0,1-5.81-2.75c-.73-2.15.69-4.41,3.17-5A4.83,4.83,0,0,1,630,807C630.77,809.17,629.34,811.43,626.86,812.06Z" transform="translate(0.38 -367.25)"/><path class="cls-4" d="M227.58,930.64a4.83,4.83,0,0,1-5.82-2.75c-.73-2.15.69-4.41,3.17-5a4.83,4.83,0,0,1,5.81,2.75C231.49,927.75,230.06,930,227.58,930.64Z" transform="translate(0.38 -367.25)"/><path class="cls-4" d="M324.65,842.46a4.83,4.83,0,0,1-5.82-2.75c-.73-2.15.69-4.41,3.17-5a4.83,4.83,0,0,1,5.81,2.75C328.55,839.58,327.13,841.83,324.65,842.46Z" transform="translate(0.38 -367.25)"/><path class="cls-4" d="M227.58,930.64a4.83,4.83,0,0,1-5.82-2.75c-.73-2.15.69-4.41,3.17-5a4.83,4.83,0,0,1,5.81,2.75C231.49,927.75,230.06,930,227.58,930.64Z" transform="translate(0.38 -367.25)"/><path class="cls-4" d="M325.73,744.87a4.83,4.83,0,0,1-5.81-2.75c-.73-2.15.69-4.41,3.17-5a4.82,4.82,0,0,1,5.81,2.75C329.64,742,328.22,744.24,325.73,744.87Z" transform="translate(0.38 -367.25)"/><path class="cls-4" d="M227.58,930.64a4.83,4.83,0,0,1-5.82-2.75c-.73-2.15.69-4.41,3.17-5a4.83,4.83,0,0,1,5.81,2.75C231.49,927.75,230.06,930,227.58,930.64Z" transform="translate(0.38 -367.25)"/><path class="cls-4" d="M227.58,930.64a4.83,4.83,0,0,1-5.82-2.75c-.73-2.15.69-4.41,3.17-5a4.83,4.83,0,0,1,5.81,2.75C231.49,927.75,230.06,930,227.58,930.64Z" transform="translate(0.38 -367.25)"/><path class="cls-4" d="M227.58,930.64a4.83,4.83,0,0,1-5.82-2.75c-.73-2.15.69-4.41,3.17-5a4.83,4.83,0,0,1,5.81,2.75C231.49,927.75,230.06,930,227.58,930.64Z" transform="translate(0.38 -367.25)"/><path class="cls-4" d="M324.65,842.46a4.83,4.83,0,0,1-5.82-2.75c-.73-2.15.69-4.41,3.17-5a4.83,4.83,0,0,1,5.81,2.75C328.55,839.58,327.13,841.83,324.65,842.46Z" transform="translate(0.38 -367.25)"/><path class="cls-4" d="M98.95,493.74A4.83,4.83,0,0,1,93.13,491c-.73-2.15.69-4.41,3.18-5a4.82,4.82,0,0,1,5.81,2.75C102.85,490.85,101.44,493.1,98.95,493.74Z" transform="translate(0.38 -367.25)"/><path class="cls-4" d="M107.94,491.45a4.83,4.83,0,0,1-5.81-2.75c-.72-2.15.7-4.41,3.17-5a4.83,4.83,0,0,1,5.82,2.75C111.85,488.56,110.42,490.81,107.94,491.45Z" transform="translate(0.38 -367.25)"/><path class="cls-4" d="M325.73,744.87a4.83,4.83,0,0,1-5.81-2.75c-.73-2.15.69-4.41,3.17-5a4.82,4.82,0,0,1,5.81,2.75C329.64,742,328.22,744.24,325.73,744.87Z" transform="translate(0.38 -367.25)"/><path class="cls-4" d="M943.87,854.06a4.83,4.83,0,0,1-5.81-2.75c-.73-2.15.69-4.41,3.17-5A4.82,4.82,0,0,1,947,849C947.77,851.17,946.35,853.42,943.87,854.06Z" transform="translate(0.38 -367.25)"/><path class="cls-4" d="M682.47,544a4.83,4.83,0,0,1-5.82-2.75c-.73-2.15.69-4.4,3.18-5a4.83,4.83,0,0,1,5.81,2.75C686.37,541.15,685,543.41,682.47,544Z" transform="translate(0.38 -367.25)"/><path class="cls-4" d="M943.87,854.06a4.83,4.83,0,0,1-5.81-2.75c-.73-2.15.69-4.41,3.17-5A4.82,4.82,0,0,1,947,849C947.77,851.17,946.35,853.42,943.87,854.06Z" transform="translate(0.38 -367.25)"/><path class="cls-4" d="M626.86,812.06a4.83,4.83,0,0,1-5.81-2.75c-.73-2.15.69-4.41,3.17-5A4.83,4.83,0,0,1,630,807C630.77,809.17,629.34,811.43,626.86,812.06Z" transform="translate(0.38 -367.25)"/><path class="cls-4" d="M943.87,854.06a4.83,4.83,0,0,1-5.81-2.75c-.73-2.15.69-4.41,3.17-5A4.82,4.82,0,0,1,947,849C947.77,851.17,946.35,853.42,943.87,854.06Z" transform="translate(0.38 -367.25)"/><path class="cls-4" d="M943.87,854.06a4.83,4.83,0,0,1-5.81-2.75c-.73-2.15.69-4.41,3.17-5A4.82,4.82,0,0,1,947,849C947.77,851.17,946.35,853.42,943.87,854.06Z" transform="translate(0.38 -367.25)"/><path class="cls-4" d="M943.87,854.06a4.83,4.83,0,0,1-5.81-2.75c-.73-2.15.69-4.41,3.17-5A4.82,4.82,0,0,1,947,849C947.77,851.17,946.35,853.42,943.87,854.06Z" transform="translate(0.38 -367.25)"/><path class="cls-4" d="M924.65,567a4.83,4.83,0,0,1-5.82-2.75c-.72-2.15.7-4.4,3.18-5a4.83,4.83,0,0,1,5.82,2.75C928.55,564.11,927.13,566.37,924.65,567Z" transform="translate(0.38 -367.25)"/><path class="cls-4" d="M943.87,854.06a4.83,4.83,0,0,1-5.81-2.75c-.73-2.15.69-4.41,3.17-5A4.82,4.82,0,0,1,947,849C947.77,851.17,946.35,853.42,943.87,854.06Z" transform="translate(0.38 -367.25)"/><path class="cls-4" d="M924.65,567a4.83,4.83,0,0,1-5.82-2.75c-.72-2.15.7-4.4,3.18-5a4.83,4.83,0,0,1,5.82,2.75C928.55,564.11,927.13,566.37,924.65,567Z" transform="translate(0.38 -367.25)"/><path class="cls-4" d="M943.87,854.06a4.83,4.83,0,0,1-5.81-2.75c-.73-2.15.69-4.41,3.17-5A4.82,4.82,0,0,1,947,849C947.77,851.17,946.35,853.42,943.87,854.06Z" transform="translate(0.38 -367.25)"/></g><g class="cls-2"><line class="cls-4" x1="0.38" y1="566.82" x2="0.38" y2="148.75"/><rect y="148.75" width="0.75" height="418.07"/></g><g class="cls-2"><line class="cls-4" x1="686.02" y1="171.75" x2="804.78" y2="148.52"/><rect x="684.52" y="526.88" width="121.02" height="1" transform="matrix(0.98, -0.19, 0.19, 0.98, -87.16, -214.08)"/></g><g class="cls-2"><line class="cls-4" x1="928.2" y1="194.71" x2="1053.55" y2="174.44"/><rect x="927.01" y="551.32" width="126.97" height="1" transform="translate(-74.89 -202.39) rotate(-9.17)"/></g><g class="cls-2"><line class="cls-4" x1="947.61" y1="483.14" x2="1073.09" y2="490.13"/><rect x="1009.47" y="791.04" width="1" height="125.68" transform="translate(101.66 1447.6) rotate(-86.81)"/></g></g></g></svg>