<?xml version="1.0" encoding="utf-8"?>
<!-- Generator: Adobe Illustrator 21.0.2, SVG Export Plug-In . SVG Version: 6.00 Build 0)  -->
<svg version="1.1" id="Layer_1" xmlns="http://www.w3.org/2000/svg" xmlns:xlink="http://www.w3.org/1999/xlink" x="0px" y="0px"
	 viewBox="0 0 200 600" style="enable-background:new 0 0 200 600;" xml:space="preserve">
<style type="text/css">
	.st0{fill:none;stroke:#13100E;stroke-width:3;stroke-miterlimit:10;}
</style>
<rect x="10.3" y="37" class="st0" width="178.1" height="525.9"/>
<g>
	<path d="M121.1,496.9l-3.8-2.3c5-4.8,8.8-13.7,8.8-23.1c0-14-6.1-20.2-13.7-20.2c-21,0-8.4,43.7-34.2,43.7
		c-9.9,0-18.6-7.6-18.6-24.8c0-7.7,2.4-15.7,6.3-21.1L70,451c-4,5.8-5.9,12.9-5.9,19.2c0,13.6,6.3,19.7,14,19.7
		c21,0,8.6-43.7,34-43.7c9.9,0,18.5,7.9,18.5,25.2C130.6,481.8,126.7,491.8,121.1,496.9z"/>
	<path d="M105.2,386.4v44.9c12.4-0.5,20.8-9.6,20.8-22.1c0-6.6-2.4-12.7-7.3-16.7l3.3-2.9c5.6,4.6,8.5,11.8,8.5,19.7
		c0,15.8-11,26.9-26.5,26.9s-26.5-10.7-26.5-25s10.8-24.9,26.3-24.9C104.2,386.3,104.7,386.4,105.2,386.4z M101.3,431.2v-40
		c-11.3,0.7-19.4,8.9-19.4,20S89.9,430.4,101.3,431.2z"/>
	<path d="M77.5,346.1h4.9c0,0.4-0.1,0.8-0.1,1.2c0,11.6,7.7,18.5,20.6,18.5h27.2v5H77.9V366h11.4C81.7,362.8,77.5,355.9,77.5,346.1z
		"/>
	<path d="M77.9,288l52.2,23.6v5.1l-52.2,23.5v-5.3l46.7-20.8l-46.7-21V288z"/>
	<path d="M61.2,278.7c-2.2,0-4.1-1.8-4.1-4.1c0-2.3,1.8-4.1,4-4.1c2.3,0,4.1,1.8,4.1,4.1C65.2,276.9,63.4,278.7,61.2,278.7z
		 M77.9,277.1v-5h52.2v5H77.9z"/>
	<path d="M104,256.7c-15.6,0-26.5-11.1-26.5-26.4c0-8.3,3.2-15.5,9.6-19.8l2.7,3.7c-5.3,3.8-7.8,9.6-7.8,16.1
		c0,12.3,8.8,21.3,22,21.3s22-9,22-21.3c0-6.5-2.5-12.3-7.8-16.1l2.7-3.7c6.3,4.3,9.6,11.5,9.6,19.8
		C130.5,245.6,119.5,256.7,104,256.7z"/>
	<path d="M105.2,152.3v44.9c12.4-0.5,20.8-9.6,20.8-22.1c0-6.6-2.4-12.7-7.3-16.7l3.3-2.9c5.6,4.6,8.5,11.8,8.5,19.7
		c0,15.8-11,26.9-26.5,26.9s-26.5-10.7-26.5-25s10.8-24.9,26.3-24.9C104.2,152.2,104.7,152.3,105.2,152.3z M101.3,197.1v-40
		c-11.3,0.7-19.4,8.9-19.4,20S89.9,196.3,101.3,197.1z"/>
	<path d="M123.8,144.4l-4-2.3c3.4-4,6.3-11.1,6.3-18.8c0-11-3.9-15.4-9.8-15.4c-15.2,0-4,34.6-24.5,34.6c-7.9,0-14.3-6.6-14.3-19.8
		c0-6.6,2-13.8,5.1-17.9l4,2.3c-3.2,4.4-4.7,10.1-4.7,15.7c0,10.2,4.2,14.7,9.8,14.7c15.7,0,4.6-34.6,24.5-34.6
		c8.5,0,14.3,7.3,14.3,20.6C130.5,132.1,127.6,140.3,123.8,144.4z"/>
</g>
</svg>
